<svg width="97" height="69" viewBox="0 0 97 69" fill="none" xmlns="http://www.w3.org/2000/svg">
<path opacity="0.5" d="M18.9178 12.596L10.7719 41.8698C9.45258 46.611 12.2266 51.5241 16.9678 52.8434L65.3683 66.3115C70.1095 67.6308 75.0226 64.8568 76.3419 60.1156L84.4878 30.8418C85.8071 26.1005 83.0331 21.1875 78.2918 19.8681L29.8914 6.40003C25.1501 5.08071 20.2371 7.85472 18.9178 12.596Z" fill="#D96CFF"/>
<path opacity="0.12" d="M82.0892 14.0797H32.187C24.02 14.0797 17.3994 20.7003 17.3994 28.8673C17.3994 37.0342 24.02 43.6548 32.187 43.6548H82.0892C90.2561 43.6548 96.8768 37.0342 96.8768 28.8673C96.8768 20.7003 90.2561 14.0797 82.0892 14.0797Z" fill="#D96CFF"/>
<path d="M6.86247 56.9359C7.68506 56.9359 8.3519 56.2691 8.3519 55.4465C8.3519 54.6239 7.68506 53.9571 6.86247 53.9571C6.03989 53.9571 5.37305 54.6239 5.37305 55.4465C5.37305 56.2691 6.03989 56.9359 6.86247 56.9359Z" fill="#9FE791"/>
<path opacity="0.12" d="M62.3169 29.5287H14.7876C6.62062 29.5287 0 36.1494 0 44.3163C0 52.4833 6.62062 59.1039 14.7876 59.1039H62.3169C70.4839 59.1039 77.1045 52.4833 77.1045 44.3163C77.1045 36.1494 70.4839 29.5287 62.3169 29.5287Z" fill="#D96CFF"/>
<path d="M7.48552 15.8209C8.30811 15.8209 8.97495 15.1541 8.97495 14.3315C8.97495 13.5089 8.30811 12.842 7.48552 12.842C6.66293 12.842 5.99609 13.5089 5.99609 14.3315C5.99609 15.1541 6.66293 15.8209 7.48552 15.8209Z" fill="#2BC3F7"/>
<g opacity="0.15">
<path d="M91.5506 57.0127L88.7211 59.3557C88.4814 59.5958 88.3467 59.9212 88.3467 60.2605C88.3467 60.5997 88.4814 60.9251 88.7211 61.1652C88.9648 61.3979 89.2889 61.5278 89.6259 61.5278C89.9628 61.5278 90.2869 61.3979 90.5306 61.1652L93.3601 58.8222C93.5999 58.5822 93.7345 58.2568 93.7345 57.9175C93.7345 57.5782 93.5999 57.2528 93.3601 57.0127C93.1164 56.78 92.7923 56.6502 92.4553 56.6502C92.1184 56.6502 91.7943 56.78 91.5506 57.0127Z" fill="#32CAF8"/>
<path d="M93.1212 59.5989L90.7783 56.7695C90.5382 56.5297 90.2128 56.395 89.8735 56.395C89.5342 56.395 89.2088 56.5297 88.9688 56.7695C88.736 57.0132 88.6062 57.3372 88.6062 57.6742C88.6062 58.0112 88.736 58.3352 88.9688 58.579L91.3117 61.4085C91.5518 61.6482 91.8772 61.7829 92.2165 61.7829C92.5558 61.7829 92.8812 61.6482 93.1212 61.4085C93.3539 61.1647 93.4838 60.8407 93.4838 60.5037C93.4838 60.1667 93.3539 59.8427 93.1212 59.5989Z" fill="#32CAF8"/>
</g>
<path d="M79.5627 17.703L79.6012 20.1483C79.6094 20.2133 79.641 20.273 79.6901 20.3163C79.7392 20.3595 79.8024 20.3834 79.8679 20.3834C79.9333 20.3834 79.9965 20.3595 80.0456 20.3163C80.0948 20.273 80.1264 20.2133 80.1346 20.1483L80.0962 17.703C80.088 17.638 80.0563 17.5783 80.0072 17.535C79.9581 17.4918 79.8949 17.4679 79.8295 17.4679C79.764 17.4679 79.7008 17.4918 79.6517 17.535C79.6026 17.5783 79.571 17.638 79.5627 17.703Z" fill="white"/>
<path d="M77.8599 13.4096H79.8658L79.6012 13.145V14.9673C79.6094 15.0323 79.641 15.092 79.6901 15.1353C79.7392 15.1785 79.8024 15.2024 79.8679 15.2024C79.9333 15.2024 79.9965 15.1785 80.0457 15.1353C80.0948 15.092 80.1264 15.0323 80.1346 14.9673V13.1536C80.1335 13.0837 80.1053 13.0171 80.0559 12.9677C80.0065 12.9183 79.9399 12.8901 79.87 12.889H77.8642C77.7993 12.8972 77.7396 12.9288 77.6963 12.9779C77.653 13.0271 77.6292 13.0903 77.6292 13.1557C77.6292 13.2212 77.653 13.2844 77.6963 13.3335C77.7396 13.3826 77.7993 13.4142 77.8642 13.4224L77.8599 13.4096Z" fill="white"/>
<path d="M16.7835 8.75258L8.63762 38.0264C7.3183 42.7676 10.0923 47.6807 14.8336 49L63.234 62.4681C67.9752 63.7874 72.8883 61.0134 74.2076 56.2722L82.3535 26.9984C83.6728 22.2571 80.8988 17.3441 76.1575 16.0248L27.7571 2.55664C23.0159 1.23732 18.1028 4.01134 16.7835 8.75258Z" fill="#E6F4FF"/>
<path d="M8.86831 43.1171L8.33911 41.952L34.1416 30.2244L34.3721 30.8859C34.4019 30.9755 37.5088 39.7115 43.7226 41.2095C47.2136 42.063 51.0929 40.4583 55.2454 36.4808L56.1288 37.4069C51.6392 41.7045 47.3715 43.403 43.4196 42.4514C37.5131 41.0259 34.2995 34.1464 33.4118 31.9613L8.86831 43.1171Z" fill="#B3C9E8"/>
<path d="M55.6089 37.7452L56.6349 36.9794L72.6873 58.4841L71.6613 59.2499L55.6089 37.7452Z" fill="#B3C9E8"/>
<path d="M75.4188 16.1111L28.5211 3.05621C23.9248 1.7759 20.2332 2.86417 18.9998 5.06203L18.3042 6.80752C18.97 4.42188 23.2633 4.16581 27.8596 5.44186L74.753 18.4967C79.3494 19.7771 82.5331 22.7644 81.8716 25.133L82.5373 22.7431C83.2202 20.3617 80.0151 17.3871 75.4188 16.1111Z" fill="white"/>
<path d="M16.8321 8.58478L8.6862 37.8586C7.36688 42.5998 10.1409 47.5129 14.8821 48.8322L63.2826 62.3003C68.0238 63.6196 72.9369 60.8456 74.2562 56.1044L82.4021 26.8306C83.7214 22.0893 80.9474 17.1763 76.2061 15.857L27.8057 2.38884C23.0644 1.06952 18.1514 3.84354 16.8321 8.58478Z" stroke="#4C024E" stroke-width="3.29736" stroke-miterlimit="10" stroke-linecap="round"/>
<path d="M8.84253 41.3673L33.8512 29.8958" stroke="#4C024E" stroke-width="3.29736" stroke-miterlimit="10" stroke-linecap="round"/>
<path d="M56.709 36.4254L72.8323 58.6771" stroke="#4C024E" stroke-width="3.29736" stroke-miterlimit="10" stroke-linecap="round"/>
<path d="M18.2996 6.28687L38.409 36.8308C39.4843 38.6452 41.2192 39.9739 43.2511 40.5394C45.2831 41.1048 47.4549 40.8633 49.3129 39.8651L82.6394 23.9551" stroke="#4C024E" stroke-width="3.29736" stroke-miterlimit="10" stroke-linecap="round"/>
</svg>
