<svg width="226" height="131" viewBox="0 0 226 131" fill="none" xmlns="http://www.w3.org/2000/svg">
<path d="M23.7 130.5C22.9 130.3 22.35 129.85 22.05 129.15C21.85 128.35 21.65 127.6 21.45 126.9C21.25 126.2 21.15 125.5 21.15 124.8V123.9C21.25 122.9 21.2 121.9 21 120.9C20.8 120 20.65 119.05 20.55 118.05C20.55 117.65 20.5 117.35 20.4 117.15L18.75 114C18.55 113.8 18.25 113.4 17.85 112.8C17.55 112.1 17.2 111.5 16.8 111C16.5 110.4 16.15 109.8 15.75 109.2C15.55 108.8 15.3 108.45 15 108.15C14.7 107.85 14.4 107.5 14.1 107.1C13.9 106.8 13.7 106.45 13.5 106.05C13.3 105.65 13 105.3 12.6 105L12.15 104.25C11.75 103.55 11.35 102.9 10.95 102.3C10.65 101.7 10.35 101.1 10.05 100.5L9.6 99.6C9.2 98.3 8.75 97.05 8.25 95.85C7.85 94.65 7.4 93.4 6.9 92.1C6.6 91.3 6.3 90.55 6 89.85C5.8 89.15 5.5 88.45 5.1 87.75C4.4 86.25 3.95 84.65 3.75 82.95C3.65 81.75 3.75 80.5 4.05 79.2C4.35 78.4 4.8 77.7 5.4 77.1C7.3 75.5 9.4 74.9 11.7 75.3L13.35 75.6C14.55 76.1 15.4 76.8 15.9 77.7C16.3 78.4 16.65 79.15 16.95 79.95C17.25 80.65 17.45 81.45 17.55 82.35C17.75 82.95 17.95 83.6 18.15 84.3C18.35 84.9 18.6 85.55 18.9 86.25C19.4 87.35 19.95 88.45 20.55 89.55C21.05 90.45 21.65 91.2 22.35 91.8C22.85 92.2 23.4 92.65 24 93.15C24.6 93.65 25.15 94.15 25.65 94.65L28.8 97.8C29 97.9 29.15 98.05 29.25 98.25C29.45 98.45 29.6 98.65 29.7 98.85C30 99.05 30.35 99.1 30.75 99C31.75 98.7 32.75 98.15 33.75 97.35C35.35 96.05 36.65 94.7 37.65 93.3C38.65 91.9 39.3 90.25 39.6 88.35C39.8 86.65 39.3 85.15 38.1 83.85C37.9 83.45 37.6 83.2 37.2 83.1C36.5 82.7 35.8 82.35 35.1 82.05C34.5 81.65 33.8 81.35 33 81.15C32.2 80.85 31.5 80.4 30.9 79.8C30.5 79.3 29.9 79 29.1 78.9C28.4 78.7 27.75 78.45 27.15 78.15C26.55 77.85 26 77.5 25.5 77.1C24.9 76.6 24.3 76.2 23.7 75.9C23.1 75.5 22.5 75.1 21.9 74.7C21.3 74.4 20.7 74.05 20.1 73.65C19.6 73.25 19.1 72.85 18.6 72.45C17.9 71.95 17.25 71.45 16.65 70.95C16.05 70.35 15.45 69.8 14.85 69.3C14.45 69.1 14.2 68.9 14.1 68.7C13.6 68.1 13.05 67.55 12.45 67.05C11.95 66.45 11.45 65.8 10.95 65.1C10.65 64.7 10.35 64.35 10.05 64.05C9.75 63.65 9.4 63.25 9 62.85C8.6 62.45 8.2 62.05 7.8 61.65C7.5 61.15 7.25 60.65 7.05 60.15L5.7 57.9C5.2 56.9 4.75 55.9 4.35 54.9C3.95 53.9 3.5 52.9 3 51.9C2.6 50.8 2.2 49.7 1.8 48.6C1.5 47.5 1.25 46.4 1.05 45.3C0.95 44.5 0.800001 43.75 0.600001 43.05C0.5 42.35 0.4 41.65 0.3 40.95C0.2 39.85 0.15 38.8 0.15 37.8C0.15 36.7 0.1 35.6 4.24683e-07 34.5C4.24683e-07 33.2 0.1 31.9 0.3 30.6C0.500001 29.3 0.75 28 1.05 26.7C1.25 25.9 1.45 25.1 1.65 24.3C1.85 23.5 2.05 22.75 2.25 22.05C2.45 21.55 2.65 21.1 2.85 20.7C3.05 20.2 3.2 19.75 3.3 19.35C4.1 17.25 5.25 15.15 6.75 13.05C7.25 12.35 7.75 11.7 8.25 11.1C8.85 10.4 9.45 9.75 10.05 9.15C10.55 8.65 11.05 8.1 11.55 7.49999C12.05 6.89999 12.5 6.29999 12.9 5.7C14.2 3.99999 15.7 2.74999 17.4 1.94999C19.1 1.04999 21.05 0.699993 23.25 0.899996C25.95 1.3 28.5 2.35 30.9 4.04999C31.7 4.65 32.5 5.3 33.3 5.99999C34.2 6.6 35.05 7.25 35.85 7.94999C37.85 9.55 39.5 11.35 40.8 13.35C41.4 14.25 42 15.15 42.6 16.05C43.2 16.95 43.75 17.85 44.25 18.75C44.55 19.15 44.8 19.55 45 19.95C45.2 20.35 45.35 20.8 45.45 21.3C45.65 22.2 45.7 23.1 45.6 24C45.6 24.8 45.5 25.65 45.3 26.55L44.85 27.75C44.55 28.25 44.25 28.8 43.95 29.4C43.65 30 43.35 30.55 43.05 31.05C42.85 31.45 42.6 31.85 42.3 32.25C42.1 32.55 41.9 32.85 41.7 33.15C40.9 34.45 40.5 35.75 40.5 37.05V51.6C40.5 53.6 40.2 55.5 39.6 57.3C39.6 57.4 39.55 57.5 39.45 57.6C39.45 57.6 39.45 57.7 39.45 57.9C39.45 58.4 39.6 58.8 39.9 59.1L41.25 60C42.35 60.7 43.35 61.5 44.25 62.4C45.25 63.2 46.25 64 47.25 64.8C47.85 65.3 48.4 65.9 48.9 66.6C49.4 67.2 49.85 67.8 50.25 68.4C50.65 68.9 51 69.45 51.3 70.05C51.6 70.55 51.9 71.05 52.2 71.55C52.7 72.25 53.05 73.05 53.25 73.95C53.55 74.85 53.8 75.75 54 76.65V77.25C53.9 77.95 53.9 78.7 54 79.5C54.1 80.3 54.2 81.1 54.3 81.9C54.3 82.1 54.3 82.35 54.3 82.65C54.4 82.85 54.4 83.1 54.3 83.4L53.85 86.55C53.65 87.05 53.75 87.35 54.15 87.45C54.45 87.45 54.6 87.55 54.6 87.75C54.9 87.85 54.95 88.1 54.75 88.5C54.55 88.9 54.3 89 54 88.8C54 88.7 53.95 88.65 53.85 88.65C53.55 88.55 53.35 88.6 53.25 88.8C53.15 89.1 53.05 89.4 52.95 89.7C52.95 90 52.95 90.35 52.95 90.75C52.55 91.35 52.45 91.85 52.65 92.25C52.65 92.55 52.6 92.75 52.5 92.85C52.2 93.15 52.1 93.55 52.2 94.05C52.2 94.25 52.05 94.45 51.75 94.65C51.15 94.95 50.7 95.5 50.4 96.3C49.9 97.6 49.3 98.85 48.6 100.05C48 101.15 47.3 102.25 46.5 103.35C45.7 104.45 44.85 105.55 43.95 106.65C43.15 107.65 42.2 108.6 41.1 109.5C40.2 110.2 39.25 110.85 38.25 111.45C37.25 112.15 36.2 112.75 35.1 113.25C34.7 113.35 34.3 113.55 33.9 113.85L32.1 114.75C31.3 114.85 30.5 115.25 29.7 115.95L28.8 116.55C28.5 116.85 28.25 117.35 28.05 118.05V122.1C28.05 122.5 28.05 122.9 28.05 123.3C28.05 123.7 28 124.1 27.9 124.5C27.8 124.7 27.75 124.95 27.75 125.25C27.75 125.55 27.7 125.8 27.6 126C27.5 126.4 27.4 126.8 27.3 127.2C27.2 127.7 27.05 128.2 26.85 128.7C26.35 130.1 25.3 130.7 23.7 130.5ZM32.85 55.2C33.25 55.2 33.5 55.05 33.6 54.75C33.7 54.25 33.7 53.75 33.6 53.25C33.6 52.75 33.55 52.3 33.45 51.9C33.35 51.4 33.3 50.9 33.3 50.4C33.3 49.8 33.25 49.25 33.15 48.75C33.15 48.15 33.1 47.55 33 46.95C32.9 46.35 32.9 45.75 33 45.15C33.1 45.05 33.1 45 33 45C33 44.9 33 44.85 33 44.85C32.9 44.15 32.85 43.5 32.85 42.9C32.85 42.3 32.85 41.7 32.85 41.1C32.85 39.1 32.45 37.15 31.65 35.25C30.95 33.65 30.2 32.1 29.4 30.6C28.7 29.1 27.95 27.6 27.15 26.1C26.85 25.5 26.45 24.95 25.95 24.45C25.55 23.85 25.1 23.3 24.6 22.8C24.2 22.2 23.65 22.1 22.95 22.5C22.35 22.6 21.7 23 21 23.7C20.4 24.4 19.85 25.15 19.35 25.95C18.85 26.75 18.4 27.6 18 28.5C17.9 28.8 17.8 29.1 17.7 29.4C17.6 29.7 17.5 29.95 17.4 30.15C17.3 30.85 17.2 31.6 17.1 32.4C17.1 33.1 17.1 33.85 17.1 34.65V36.6C17.1 38 17.5 39.5 18.3 41.1C19 42.6 20 44.1 21.3 45.6C21.6 46 21.9 46.4 22.2 46.8C22.5 47.1 22.8 47.5 23.1 48C24 49.2 25 50.25 26.1 51.15C27.3 52.05 28.55 52.9 29.85 53.7L32.1 54.9C32.3 55 32.45 55.05 32.55 55.05C32.65 55.05 32.75 55.1 32.85 55.2ZM75.866 100.5C75.366 100.5 74.966 100.35 74.666 100.05L71.966 98.55C71.866 98.45 71.766 98.4 71.666 98.4C71.666 98.3 71.616 98.2 71.516 98.1C71.316 97.9 71.016 97.45 70.616 96.75C70.316 95.95 70.166 95.45 70.166 95.25V93.15C70.166 92.65 70.366 92.2 70.766 91.8C71.266 91.4 71.616 90.85 71.816 90.15C72.116 89.25 72.616 88.5 73.316 87.9C74.016 87.3 74.766 86.85 75.566 86.55C75.966 86.35 76.316 86.2 76.616 86.1C77.016 86 77.366 85.85 77.666 85.65C78.266 85.35 78.766 85.4 79.166 85.8V85.65C79.666 85.85 80.166 86.05 80.666 86.25C81.166 86.35 81.616 86.5 82.016 86.7C82.416 86.8 82.716 87.05 82.916 87.45C83.616 88.25 84.166 89.1 84.566 90C85.066 91.1 85.266 92.1 85.166 93L84.716 95.7C84.616 96 84.516 96.3 84.416 96.6C84.316 96.9 84.116 97.15 83.816 97.35L83.216 97.95C82.316 99.05 80.916 99.75 79.016 100.05C78.616 100.15 78.216 100.2 77.816 100.2C77.516 100.2 77.166 100.3 76.766 100.5C76.566 100.7 76.266 100.7 75.866 100.5ZM126.963 129.75C125.763 130.25 124.813 130.15 124.113 129.45C123.013 128.65 122.463 127.6 122.463 126.3V123.9C122.363 123 122.263 122.05 122.163 121.05C122.163 120.15 122.113 119.25 122.013 118.35C122.013 117.45 121.863 116.65 121.563 115.95C121.563 115.55 121.313 115.1 120.813 114.6C120.613 114.4 120.363 114.15 120.063 113.85C119.763 113.55 119.463 113.3 119.163 113.1C119.063 112.9 118.913 112.75 118.713 112.65C118.513 112.55 118.313 112.45 118.113 112.35C117.813 112.05 117.513 111.7 117.213 111.3C117.013 110.9 116.863 110.5 116.763 110.1C116.563 109.7 116.363 109.4 116.163 109.2L115.263 108.6L114.813 108.15C114.713 107.85 114.563 107.6 114.363 107.4C114.163 107.1 113.963 106.8 113.763 106.5C113.563 106.1 113.463 105.75 113.463 105.45C113.263 104.55 112.913 103.85 112.413 103.35C112.313 103.05 112.313 102.8 112.413 102.6C112.613 102.1 112.813 101.45 113.013 100.65C113.113 99.85 113.413 99.05 113.913 98.25C114.213 97.75 114.463 97.3 114.663 96.9C114.863 96.4 115.013 95.95 115.113 95.55C115.613 94.65 115.913 93.75 116.013 92.85C116.013 92.65 116.013 92.5 116.013 92.4C116.113 92.3 116.163 92.2 116.163 92.1C116.363 91.7 116.513 91.35 116.613 91.05C116.713 90.65 116.763 90.25 116.763 89.85C116.763 89.65 116.863 89.45 117.063 89.25C117.163 88.95 117.163 88.7 117.063 88.5C116.963 88.3 117.013 88.1 117.213 87.9C117.413 87.7 117.563 87.5 117.663 87.3C117.763 87 117.813 86.65 117.813 86.25C117.813 86.25 117.963 86.1 118.263 85.8C118.763 85.3 119.063 84.8 119.163 84.3C119.363 83.8 119.513 83.35 119.613 82.95C119.813 82.45 119.913 81.95 119.913 81.45C119.913 80.65 120.163 80.15 120.663 79.95C120.863 79.95 120.963 79.8 120.963 79.5C121.163 79.2 121.313 78.9 121.413 78.6C121.513 78.3 121.613 78 121.713 77.7C121.813 77.4 121.863 77 121.863 76.5C121.663 76 121.813 75.65 122.313 75.45C122.713 75.35 122.913 75.05 122.913 74.55V74.1C122.913 73.4 123.113 72.85 123.513 72.45C123.713 72.15 123.913 71.85 124.113 71.55C124.313 71.25 124.463 70.95 124.563 70.65C124.963 70.25 125.063 69.85 124.863 69.45C124.663 68.85 124.863 68.4 125.463 68.1C125.563 68 125.613 67.9 125.613 67.8C125.813 67.6 125.913 67.35 125.913 67.05C125.913 66.75 126.013 66.5 126.213 66.3C126.413 66.1 126.513 65.9 126.513 65.7C126.513 65.4 126.563 65.15 126.663 64.95V64.8H126.363C125.963 65 125.563 65.25 125.163 65.55C124.863 65.75 124.563 65.95 124.263 66.15C123.863 66.35 123.513 66.55 123.213 66.75C122.913 66.95 122.513 67.1 122.013 67.2C121.613 67.3 121.213 67.5 120.813 67.8C120.513 68.1 120.163 68.35 119.763 68.55C118.963 69.15 118.513 69.9 118.413 70.8C118.413 71.2 118.363 71.7 118.263 72.3C118.163 72.8 118.113 73.3 118.113 73.8C118.113 74.3 118.013 74.85 117.813 75.45C117.613 75.95 117.413 76.45 117.213 76.95C116.913 77.65 116.413 78.15 115.713 78.45C115.013 78.85 114.263 78.9 113.463 78.6C112.663 78.2 112.163 77.65 111.963 76.95C111.863 76.55 111.763 76.2 111.663 75.9C111.663 75.5 111.663 75.1 111.663 74.7C111.763 73.8 111.763 72.95 111.663 72.15C111.663 71.25 111.663 70.4 111.663 69.6C111.663 68.3 111.263 67 110.463 65.7C109.763 64.9 109.363 64.05 109.263 63.15C109.263 62.95 109.113 62.7 108.813 62.4C108.513 62.1 108.063 61.75 107.463 61.35C107.063 61.05 106.763 60.65 106.563 60.15C106.263 59.25 105.963 58.35 105.663 57.45C105.463 56.55 105.413 55.6 105.513 54.6C105.513 53.5 105.863 52.45 106.563 51.45C108.063 49.25 110.163 48 112.863 47.7H113.613C114.913 47.8 116.163 47.75 117.363 47.55C118.563 47.25 119.763 47 120.963 46.8L123.963 46.05C125.563 45.65 127.113 45.3 128.613 45C130.113 44.6 131.663 44.2 133.263 43.8C134.363 43.6 135.113 43 135.513 42L137.763 36.6C138.663 34.6 139.713 32.65 140.913 30.75L144.063 25.05C144.363 24.55 144.663 24.05 144.963 23.55C145.363 22.95 145.713 22.35 146.013 21.75C146.613 20.65 147.163 19.55 147.663 18.45C147.963 17.95 147.763 17.6 147.063 17.4H145.563C144.763 17.5 143.913 17.6 143.013 17.7C142.213 17.8 141.413 17.9 140.613 18L137.913 18.45C136.713 18.55 135.463 18.7 134.163 18.9C132.963 19.1 131.763 19.3 130.563 19.5L128.463 19.95C128.263 19.95 127.963 20.15 127.563 20.55C127.463 20.95 127.113 21.15 126.513 21.15H126.363C125.763 20.95 125.163 20.95 124.563 21.15C123.963 21.25 123.363 21.25 122.763 21.15C122.763 21.15 122.713 21.15 122.613 21.15C122.613 21.15 122.613 21.2 122.613 21.3C122.013 21.5 121.413 21.7 120.813 21.9C120.213 22 119.613 22.15 119.013 22.35C118.013 22.65 117.213 23.1 116.613 23.7C116.213 24.1 115.813 24.45 115.413 24.75C115.013 24.95 114.563 25.15 114.063 25.35C113.663 25.45 113.213 25.6 112.713 25.8C112.313 26 111.863 26.2 111.363 26.4C110.563 26.8 109.713 27.15 108.813 27.45C107.913 27.75 107.013 28.1 106.113 28.5L105.363 28.95C104.563 29.35 104.063 30.05 103.863 31.05L103.413 32.55C103.413 32.95 103.163 33.5 102.663 34.2C102.563 34.2 102.413 34.3 102.213 34.5C101.513 35.4 100.613 35.55 99.5133 34.95C98.8133 34.55 98.3133 34 98.0133 33.3L97.5633 31.95C97.4633 31.55 97.3133 31.05 97.1133 30.45C97.0133 29.75 96.6133 29.15 95.9133 28.65L95.4633 28.35C93.1633 26.65 91.7633 24.25 91.2633 21.15C90.8633 19.25 91.3133 17.3 92.6133 15.3C93.0133 14.9 93.2633 14.6 93.3633 14.4C93.9633 13.5 94.7633 12.9 95.7633 12.6C96.2633 12.4 96.7133 12.25 97.1133 12.15C97.6133 11.95 98.0633 11.8 98.4633 11.7C98.7633 11.6 99.3133 11.55 100.113 11.55C100.513 11.45 100.863 11.4 101.163 11.4C101.563 11.4 101.963 11.35 102.363 11.25C103.763 11.15 105.163 10.95 106.563 10.65C108.063 10.25 109.513 9.95 110.913 9.75L115.413 8.84999C116.213 8.64999 116.913 8.5 117.513 8.4C118.213 8.19999 118.913 8.04999 119.613 7.94999C120.813 7.75 121.963 7.5 123.063 7.2C124.263 6.89999 125.463 6.64999 126.663 6.45C127.363 6.24999 128.013 6.14999 128.613 6.14999C129.313 6.04999 129.963 5.94999 130.563 5.84999L137.163 4.95C137.963 4.85 138.713 4.8 139.413 4.8C140.213 4.69999 140.963 4.64999 141.663 4.64999C142.263 4.64999 142.813 4.64999 143.313 4.64999C143.913 4.64999 144.513 4.59999 145.113 4.49999C145.213 4.49999 145.263 4.49999 145.263 4.49999C145.363 4.4 145.463 4.35 145.563 4.35C146.763 4.25 147.963 4.2 149.163 4.2C150.363 4.09999 151.563 3.99999 152.763 3.89999C153.963 3.79999 155.063 3.95 156.063 4.35C157.163 4.75 158.213 5.25 159.213 5.84999C159.413 6.04999 159.613 6.19999 159.813 6.3C160.913 7.4 161.763 8.64999 162.363 10.05C162.963 11.35 163.163 12.85 162.963 14.55C162.763 16.15 162.463 17.6 162.063 18.9C161.863 19.6 161.663 20.3 161.463 21C161.263 21.7 160.963 22.35 160.563 22.95C160.363 23.45 160.163 24 159.963 24.6C159.663 25.5 159.313 26.4 158.913 27.3C158.613 28.1 158.263 28.95 157.863 29.85L156.063 33.6C155.963 34 155.763 34.4 155.463 34.8C155.263 35.2 155.063 35.65 154.863 36.15C154.763 36.25 154.713 36.4 154.713 36.6C154.713 36.8 154.663 37 154.563 37.2C154.563 37.6 154.663 37.8 154.863 37.8C155.063 37.9 155.213 37.95 155.313 37.95C155.513 37.95 155.663 38 155.763 38.1C155.963 38.1 156.113 38.15 156.213 38.25C156.413 38.25 156.563 38.25 156.663 38.25C158.063 38.45 159.213 38.95 160.113 39.75C161.013 40.45 161.813 41.35 162.513 42.45C163.113 43.55 163.563 44.65 163.863 45.75C164.363 47.35 164.213 48.85 163.413 50.25C162.313 52.25 160.863 53.75 159.063 54.75C157.363 55.65 155.563 55.95 153.663 55.65C152.863 55.45 152.063 55.45 151.263 55.65C150.463 55.75 149.663 55.9 148.863 56.1C148.363 56.1 147.763 56.35 147.063 56.85C146.663 57.05 146.263 57.25 145.863 57.45C145.563 57.65 145.213 57.85 144.813 58.05L143.913 58.5C143.713 58.7 143.513 58.95 143.313 59.25C143.113 59.45 142.913 59.7 142.713 60C142.713 60.2 142.663 60.35 142.563 60.45C142.463 61.25 142.213 62.05 141.813 62.85C141.513 63.55 141.213 64.3 140.913 65.1L140.013 67.8C139.913 68 139.813 68.2 139.713 68.4C139.713 68.6 139.663 68.8 139.563 69C139.163 70.3 138.663 71.6 138.063 72.9C137.563 74.2 137.063 75.5 136.563 76.8C136.263 77.5 135.963 78.25 135.663 79.05C135.363 79.85 134.963 80.65 134.463 81.45C134.463 81.45 134.413 81.5 134.313 81.6C134.313 81.6 134.313 81.65 134.313 81.75C134.113 82.65 133.813 83.5 133.413 84.3C133.013 85.1 132.713 85.95 132.513 86.85C132.413 87.25 132.313 87.65 132.213 88.05C132.113 88.35 131.963 88.65 131.763 88.95C131.663 89.05 131.613 89.2 131.613 89.4C131.613 89.5 131.563 89.65 131.463 89.85C131.163 91.05 131.563 91.5 132.663 91.2C133.963 90.9 135.213 90.65 136.413 90.45C137.713 90.15 138.963 89.8 140.163 89.4C141.763 89 143.313 88.65 144.813 88.35C146.313 87.95 147.813 87.6 149.313 87.3C150.113 87.1 150.913 86.9 151.713 86.7C152.613 86.4 153.413 86.2 154.113 86.1C155.613 85.6 156.813 84.9 157.713 84C158.213 83.3 158.963 82.8 159.963 82.5C160.763 82 161.563 81.9 162.363 82.2C162.863 82.3 163.263 82.35 163.563 82.35C163.963 82.25 164.363 82.2 164.763 82.2C166.163 82 167.563 81.75 168.963 81.45C170.363 81.05 171.763 80.7 173.163 80.4L178.263 79.05C179.263 78.85 180.213 78.65 181.113 78.45C182.113 78.15 183.113 77.85 184.113 77.55C185.013 77.35 185.913 77.1 186.813 76.8C187.813 76.5 188.763 76.3 189.663 76.2C191.063 75.9 192.463 75.6 193.863 75.3C195.363 74.9 196.813 74.55 198.213 74.25L201.363 73.8C202.563 73.6 203.713 73.4 204.813 73.2C206.013 73 207.213 72.8 208.413 72.6C208.913 72.4 209.363 72.25 209.763 72.15C210.263 71.95 210.713 71.65 211.113 71.25C211.813 70.55 212.763 69.95 213.963 69.45C215.363 68.75 216.913 68.55 218.613 68.85C221.813 69.75 223.963 71.8 225.063 75C225.363 75.6 225.563 76.25 225.663 76.95C225.763 77.55 225.813 78.15 225.813 78.75C225.913 79.25 225.913 79.75 225.813 80.25C225.713 80.75 225.563 81.25 225.363 81.75C225.263 82.15 225.113 82.6 224.913 83.1C224.713 83.5 224.513 83.9 224.313 84.3C223.513 85.8 223.063 87.35 222.963 88.95C222.963 89.35 222.913 89.75 222.813 90.15C222.813 90.45 222.813 90.8 222.813 91.2C222.713 91.3 222.663 91.55 222.663 91.95C222.663 93.05 222.663 94.2 222.663 95.4C222.663 96.5 222.713 97.6 222.813 98.7C223.013 99.9 223.013 101.05 222.813 102.15C222.613 102.45 222.613 102.8 222.813 103.2V105.45C222.813 105.85 222.813 106.25 222.813 106.65C222.913 107.05 222.963 107.5 222.963 108C222.963 108.4 222.913 108.75 222.813 109.05C222.713 109.35 222.563 109.65 222.363 109.95C221.863 111.05 221.013 111.45 219.813 111.15C218.713 110.85 218.013 110.55 217.713 110.25C217.413 109.85 217.113 109.15 216.813 108.15C216.713 107.75 216.663 107.35 216.663 106.95C216.663 106.55 216.613 106.15 216.513 105.75C216.413 105.55 216.363 105.3 216.363 105C216.363 104.7 216.313 104.4 216.213 104.1C215.913 103.2 215.763 102.3 215.763 101.4C215.663 100.9 215.563 100.45 215.463 100.05C215.463 99.55 215.463 99.1 215.463 98.7C215.363 98 215.313 97.35 215.313 96.75C215.313 96.15 215.313 95.6 215.313 95.1C215.413 93.7 215.363 92.4 215.163 91.2C215.063 90 215.013 88.8 215.013 87.6C214.913 86.6 214.513 85.7 213.813 84.9C213.713 84.6 213.463 84.45 213.063 84.45H211.713C210.713 84.65 209.913 84.85 209.313 85.05C208.313 85.35 207.313 85.5 206.313 85.5C206.013 85.6 205.713 85.65 205.413 85.65C205.213 85.65 204.963 85.75 204.663 85.95C204.063 86.05 203.563 86.4 203.163 87C202.963 87.2 202.713 87.25 202.413 87.15C202.213 86.95 202.013 86.85 201.813 86.85C201.413 86.95 201.013 87.05 200.613 87.15C200.213 87.25 199.863 87.45 199.563 87.75C199.163 88.05 198.663 88.3 198.063 88.5C197.563 88.6 197.063 88.75 196.563 88.95L193.413 89.85C193.013 89.95 192.613 90.1 192.213 90.3C191.913 90.4 191.613 90.55 191.313 90.75C190.313 91.15 189.513 91.8 188.913 92.7C188.413 93.3 187.763 93.85 186.963 94.35C186.563 94.55 186.163 94.8 185.763 95.1C185.463 95.4 185.113 95.7 184.713 96L183.813 96.6C183.113 97.1 182.363 97.6 181.563 98.1C180.863 98.5 180.113 98.95 179.313 99.45C177.713 100.75 175.963 101.4 174.063 101.4C173.763 101.4 173.463 101.45 173.163 101.55C172.863 101.55 172.563 101.6 172.263 101.7C171.863 101.7 171.513 101.75 171.213 101.85C170.913 101.95 170.613 102.1 170.313 102.3C170.113 102.5 169.813 102.65 169.413 102.75C169.113 102.85 168.813 102.95 168.513 103.05C166.913 103.45 165.413 103.05 164.013 101.85L163.413 101.25C163.013 100.85 162.513 100.75 161.913 100.95C161.713 101.05 161.463 101.1 161.163 101.1C160.963 101.1 160.713 101.15 160.413 101.25L156.213 102.6C156.013 102.7 155.813 102.75 155.613 102.75C155.413 102.75 155.213 102.8 155.013 102.9C154.013 103.4 152.913 103.85 151.713 104.25C150.513 104.55 149.363 104.85 148.263 105.15C148.163 105.15 148.063 105.2 147.963 105.3C147.963 105.3 147.863 105.3 147.663 105.3C146.663 105.8 145.563 106.25 144.363 106.65C143.163 107.05 142.013 107.55 140.913 108.15C140.913 108.15 140.813 108.25 140.613 108.45C139.913 108.75 139.213 109.1 138.513 109.5C137.813 109.9 137.113 110.3 136.413 110.7C135.913 111 135.463 111.3 135.063 111.6C134.663 111.9 134.213 112.2 133.713 112.5C133.013 113.2 132.213 113.85 131.313 114.45C130.413 115.05 129.863 115.95 129.663 117.15C129.563 117.45 129.513 117.85 129.513 118.35C129.413 118.85 129.313 119.35 129.213 119.85C129.213 120.35 129.213 120.85 129.213 121.35C128.913 123.15 128.763 125 128.763 126.9C128.663 128.2 128.063 129.15 126.963 129.75Z" fill="#A555EC"/>
</svg>
