<svg width="167" height="30" viewBox="0 0 167 30" fill="none" xmlns="http://www.w3.org/2000/svg">
<path d="M52.4029 26.86C52.2855 26.8307 52.2049 26.7647 52.1609 26.662C52.1315 26.5447 52.1022 26.4347 52.0729 26.332C52.0435 26.2293 52.0289 26.1267 52.0289 26.024V25.892C52.0435 25.7453 52.0362 25.5987 52.0069 25.452C51.9775 25.32 51.9555 25.1807 51.9409 25.034C51.9409 24.9753 51.9335 24.9313 51.9189 24.902L51.6769 24.44C51.6475 24.4107 51.6035 24.352 51.5449 24.264C51.5009 24.1613 51.4495 24.0733 51.3909 24C51.3469 23.912 51.2955 23.824 51.2369 23.736C51.2075 23.6773 51.1709 23.626 51.1269 23.582C51.0829 23.538 51.0389 23.4867 50.9949 23.428C50.9655 23.384 50.9362 23.3327 50.9069 23.274C50.8775 23.2153 50.8335 23.164 50.7749 23.12L50.7089 23.01C50.6502 22.9073 50.5915 22.812 50.5329 22.724C50.4889 22.636 50.4449 22.548 50.4009 22.46L50.3349 22.328C50.2762 22.1373 50.2102 21.954 50.1369 21.778C50.0782 21.602 50.0122 21.4187 49.9389 21.228C49.8949 21.1107 49.8509 21.0007 49.8069 20.898C49.7775 20.7953 49.7335 20.6927 49.6749 20.59C49.5722 20.37 49.5062 20.1353 49.4769 19.886C49.4622 19.71 49.4769 19.5267 49.5209 19.336C49.5649 19.2187 49.6309 19.116 49.7189 19.028C49.9975 18.7933 50.3055 18.7053 50.6429 18.764L50.8849 18.808C51.0609 18.8813 51.1855 18.984 51.2589 19.116C51.3175 19.2187 51.3689 19.3287 51.4129 19.446C51.4569 19.5487 51.4862 19.666 51.5009 19.798C51.5302 19.886 51.5595 19.9813 51.5889 20.084C51.6182 20.172 51.6549 20.2673 51.6989 20.37C51.7722 20.5313 51.8529 20.6927 51.9409 20.854C52.0142 20.986 52.1022 21.096 52.2049 21.184C52.2782 21.2427 52.3589 21.3087 52.4469 21.382C52.5349 21.4553 52.6155 21.5287 52.6889 21.602L53.1509 22.064C53.1802 22.0787 53.2022 22.1007 53.2169 22.13C53.2462 22.1593 53.2682 22.1887 53.2829 22.218C53.3269 22.2473 53.3782 22.2547 53.4369 22.24C53.5835 22.196 53.7302 22.1153 53.8769 21.998C54.1115 21.8073 54.3022 21.6093 54.4489 21.404C54.5955 21.1987 54.6909 20.9567 54.7349 20.678C54.7642 20.4287 54.6909 20.2087 54.5149 20.018C54.4855 19.9593 54.4415 19.9227 54.3829 19.908C54.2802 19.8493 54.1775 19.798 54.0749 19.754C53.9869 19.6953 53.8842 19.6513 53.7669 19.622C53.6495 19.578 53.5469 19.512 53.4589 19.424C53.4002 19.3507 53.3122 19.3067 53.1949 19.292C53.0922 19.2627 52.9969 19.226 52.9089 19.182C52.8209 19.138 52.7402 19.0867 52.6669 19.028C52.5789 18.9547 52.4909 18.896 52.4029 18.852C52.3149 18.7933 52.2269 18.7347 52.1389 18.676C52.0509 18.632 51.9629 18.5807 51.8749 18.522C51.8015 18.4633 51.7282 18.4047 51.6549 18.346C51.5522 18.2727 51.4569 18.1993 51.3689 18.126C51.2809 18.038 51.1929 17.9573 51.1049 17.884C51.0462 17.8547 51.0095 17.8253 50.9949 17.796C50.9215 17.708 50.8409 17.6273 50.7529 17.554C50.6795 17.466 50.6062 17.3707 50.5329 17.268C50.4889 17.2093 50.4449 17.158 50.4009 17.114C50.3569 17.0553 50.3055 16.9967 50.2469 16.938C50.1882 16.8793 50.1295 16.8207 50.0709 16.762C50.0269 16.6887 49.9902 16.6153 49.9609 16.542L49.7629 16.212C49.6895 16.0653 49.6235 15.9187 49.5649 15.772C49.5062 15.6253 49.4402 15.4787 49.3669 15.332C49.3082 15.1707 49.2495 15.0093 49.1909 14.848C49.1469 14.6867 49.1102 14.5253 49.0809 14.364C49.0662 14.2467 49.0442 14.1367 49.0149 14.034C49.0002 13.9313 48.9855 13.8287 48.9709 13.726C48.9562 13.5647 48.9489 13.4107 48.9489 13.264C48.9489 13.1027 48.9415 12.9413 48.9269 12.78C48.9269 12.5893 48.9415 12.3987 48.9709 12.208C49.0002 12.0173 49.0369 11.8267 49.0809 11.636C49.1102 11.5187 49.1395 11.4013 49.1689 11.284C49.1982 11.1667 49.2275 11.0567 49.2569 10.954C49.2862 10.8807 49.3155 10.8147 49.3449 10.756C49.3742 10.6827 49.3962 10.6167 49.4109 10.558C49.5282 10.25 49.6969 9.942 49.9169 9.634C49.9902 9.53133 50.0635 9.436 50.1369 9.348C50.2249 9.24533 50.3129 9.15 50.4009 9.062C50.4742 8.98867 50.5475 8.908 50.6209 8.82C50.6942 8.732 50.7602 8.644 50.8189 8.556C51.0095 8.30667 51.2295 8.12333 51.4789 8.006C51.7282 7.874 52.0142 7.82267 52.3369 7.852C52.7329 7.91067 53.1069 8.06467 53.4589 8.314C53.5762 8.402 53.6935 8.49733 53.8109 8.6C53.9429 8.688 54.0675 8.78333 54.1849 8.886C54.4782 9.12067 54.7202 9.38467 54.9109 9.678C54.9989 9.81 55.0869 9.942 55.1749 10.074C55.2629 10.206 55.3435 10.338 55.4169 10.47C55.4609 10.5287 55.4975 10.5873 55.5269 10.646C55.5562 10.7047 55.5782 10.7707 55.5929 10.844C55.6222 10.976 55.6295 11.108 55.6149 11.24C55.6149 11.3573 55.6002 11.482 55.5709 11.614L55.5049 11.79C55.4609 11.8633 55.4169 11.944 55.3729 12.032C55.3289 12.12 55.2849 12.2007 55.2409 12.274C55.2115 12.3327 55.1749 12.3913 55.1309 12.45C55.1015 12.494 55.0722 12.538 55.0429 12.582C54.9255 12.7727 54.8669 12.9633 54.8669 13.154V15.288C54.8669 15.5813 54.8229 15.86 54.7349 16.124C54.7349 16.1387 54.7275 16.1533 54.7129 16.168C54.7129 16.168 54.7129 16.1827 54.7129 16.212C54.7129 16.2853 54.7349 16.344 54.7789 16.388L54.9769 16.52C55.1382 16.6227 55.2849 16.74 55.4169 16.872C55.5635 16.9893 55.7102 17.1067 55.8569 17.224C55.9449 17.2973 56.0255 17.3853 56.0989 17.488C56.1722 17.576 56.2382 17.664 56.2969 17.752C56.3555 17.8253 56.4069 17.906 56.4509 17.994C56.4949 18.0673 56.5389 18.1407 56.5829 18.214C56.6562 18.3167 56.7075 18.434 56.7369 18.566C56.7809 18.698 56.8175 18.83 56.8469 18.962V19.05C56.8322 19.1527 56.8322 19.2627 56.8469 19.38C56.8615 19.4973 56.8762 19.6147 56.8909 19.732C56.8909 19.7613 56.8909 19.798 56.8909 19.842C56.9055 19.8713 56.9055 19.908 56.8909 19.952L56.8249 20.414C56.7955 20.4873 56.8102 20.5313 56.8689 20.546C56.9129 20.546 56.9349 20.5607 56.9349 20.59C56.9789 20.6047 56.9862 20.6413 56.9569 20.7C56.9275 20.7587 56.8909 20.7733 56.8469 20.744C56.8469 20.7293 56.8395 20.722 56.8249 20.722C56.7809 20.7073 56.7515 20.7147 56.7369 20.744C56.7222 20.788 56.7075 20.832 56.6929 20.876C56.6929 20.92 56.6929 20.9713 56.6929 21.03C56.6342 21.118 56.6195 21.1913 56.6489 21.25C56.6489 21.294 56.6415 21.3233 56.6269 21.338C56.5829 21.382 56.5682 21.4407 56.5829 21.514C56.5829 21.5433 56.5609 21.5727 56.5169 21.602C56.4289 21.646 56.3629 21.7267 56.3189 21.844C56.2455 22.0347 56.1575 22.218 56.0549 22.394C55.9669 22.5553 55.8642 22.7167 55.7469 22.878C55.6295 23.0393 55.5049 23.2007 55.3729 23.362C55.2555 23.5087 55.1162 23.648 54.9549 23.78C54.8229 23.8827 54.6835 23.978 54.5369 24.066C54.3902 24.1687 54.2362 24.2567 54.0749 24.33C54.0162 24.3447 53.9575 24.374 53.8989 24.418L53.6349 24.55C53.5175 24.5647 53.4002 24.6233 53.2829 24.726L53.1509 24.814C53.1069 24.858 53.0702 24.9313 53.0409 25.034V25.628C53.0409 25.6867 53.0409 25.7453 53.0409 25.804C53.0409 25.8627 53.0335 25.9213 53.0189 25.98C53.0042 26.0093 52.9969 26.046 52.9969 26.09C52.9969 26.134 52.9895 26.1707 52.9749 26.2C52.9602 26.2587 52.9455 26.3173 52.9309 26.376C52.9162 26.4493 52.8942 26.5227 52.8649 26.596C52.7915 26.8013 52.6375 26.8893 52.4029 26.86ZM53.7449 15.816C53.8035 15.816 53.8402 15.794 53.8549 15.75C53.8695 15.6767 53.8695 15.6033 53.8549 15.53C53.8549 15.4567 53.8475 15.3907 53.8329 15.332C53.8182 15.2587 53.8109 15.1853 53.8109 15.112C53.8109 15.024 53.8035 14.9433 53.7889 14.87C53.7889 14.782 53.7815 14.694 53.7669 14.606C53.7522 14.518 53.7522 14.43 53.7669 14.342C53.7815 14.3273 53.7815 14.32 53.7669 14.32C53.7669 14.3053 53.7669 14.298 53.7669 14.298C53.7522 14.1953 53.7449 14.1 53.7449 14.012C53.7449 13.924 53.7449 13.836 53.7449 13.748C53.7449 13.4547 53.6862 13.1687 53.5689 12.89C53.4662 12.6553 53.3562 12.428 53.2389 12.208C53.1362 11.988 53.0262 11.768 52.9089 11.548C52.8649 11.46 52.8062 11.3793 52.7329 11.306C52.6742 11.218 52.6082 11.1373 52.5349 11.064C52.4762 10.976 52.3955 10.9613 52.2929 11.02C52.2049 11.0347 52.1095 11.0933 52.0069 11.196C51.9189 11.2987 51.8382 11.4087 51.7649 11.526C51.6915 11.6433 51.6255 11.768 51.5669 11.9C51.5522 11.944 51.5375 11.988 51.5229 12.032C51.5082 12.076 51.4935 12.1127 51.4789 12.142C51.4642 12.2447 51.4495 12.3547 51.4349 12.472C51.4349 12.5747 51.4349 12.6847 51.4349 12.802V13.088C51.4349 13.2933 51.4935 13.5133 51.6109 13.748C51.7135 13.968 51.8602 14.188 52.0509 14.408C52.0949 14.4667 52.1389 14.5253 52.1829 14.584C52.2269 14.628 52.2709 14.6867 52.3149 14.76C52.4469 14.936 52.5935 15.09 52.7549 15.222C52.9309 15.354 53.1142 15.4787 53.3049 15.596L53.6349 15.772C53.6642 15.7867 53.6862 15.794 53.7009 15.794C53.7155 15.794 53.7302 15.8013 53.7449 15.816ZM67.8276 25.606C67.6956 25.606 67.5783 25.5547 67.4756 25.452C67.4463 25.408 67.417 25.364 67.3876 25.32C67.3583 25.276 67.329 25.232 67.2996 25.188C67.1676 24.88 67.1016 24.5573 67.1016 24.22L67.0356 23.692C66.9916 23.4867 66.955 23.2813 66.9256 23.076C66.8963 22.8707 66.845 22.6727 66.7716 22.482L66.6396 22.108C66.6396 22.0787 66.6323 22.0493 66.6176 22.02C66.6176 21.9907 66.6103 21.9613 66.5956 21.932L66.2656 20.766C66.251 20.7367 66.2363 20.7 66.2216 20.656C66.2216 20.612 66.207 20.5753 66.1776 20.546C66.1336 20.458 66.097 20.37 66.0676 20.282C66.053 20.1793 66.031 20.0767 66.0016 19.974C65.987 19.9007 65.9723 19.8347 65.9576 19.776C65.943 19.7027 65.921 19.6293 65.8916 19.556C65.8623 19.468 65.833 19.4167 65.8036 19.402C65.7743 19.3727 65.7083 19.3727 65.6056 19.402C65.5323 19.4167 65.4516 19.4313 65.3636 19.446C65.2903 19.446 65.217 19.4607 65.1436 19.49C65.085 19.5047 65.0116 19.5193 64.9236 19.534C64.8503 19.534 64.777 19.5413 64.7036 19.556L64.3956 19.622C64.3223 19.6367 64.2416 19.6587 64.1536 19.688C64.0803 19.7027 64.007 19.71 63.9336 19.71L63.5376 19.776C63.4203 19.8053 63.2956 19.8347 63.1636 19.864C63.0316 19.8933 62.907 19.9227 62.7896 19.952C62.4376 20.04 62.0856 20.106 61.7336 20.15C61.6163 20.1793 61.5503 20.2307 61.5356 20.304C61.521 20.304 61.5136 20.3113 61.5136 20.326C61.4256 20.5607 61.323 20.7953 61.2056 21.03C61.103 21.25 60.993 21.4773 60.8756 21.712C60.8463 21.7707 60.817 21.8293 60.7876 21.888C60.773 21.932 60.751 21.9833 60.7216 22.042C60.707 22.0713 60.6923 22.108 60.6776 22.152C60.663 22.1813 60.6483 22.2107 60.6336 22.24C60.5456 22.3427 60.5016 22.4673 60.5016 22.614C60.487 22.702 60.4576 22.79 60.4136 22.878C60.3696 22.9513 60.3256 23.0247 60.2816 23.098C60.267 23.142 60.2376 23.164 60.1936 23.164C60.135 23.1787 60.0763 23.2007 60.0176 23.23C59.959 23.2593 59.893 23.2887 59.8196 23.318C59.7756 23.3327 59.7316 23.3327 59.6876 23.318C59.6583 23.3033 59.6216 23.2887 59.5776 23.274C59.5483 23.2447 59.519 23.23 59.4896 23.23C59.3283 23.2153 59.211 23.12 59.1376 22.944C59.0203 22.7093 58.9396 22.4747 58.8956 22.24C58.881 22.1813 58.881 22.13 58.8956 22.086C58.925 22.042 58.947 21.998 58.9616 21.954C59.0496 21.8953 59.101 21.8293 59.1156 21.756V21.734C59.1156 21.5433 59.1523 21.3673 59.2256 21.206C59.3136 21.03 59.387 20.8613 59.4456 20.7C59.475 20.612 59.5116 20.524 59.5556 20.436C59.5996 20.348 59.6436 20.26 59.6876 20.172C59.7463 20.0693 59.7903 19.974 59.8196 19.886C59.8636 19.7833 59.9003 19.6807 59.9296 19.578C59.9736 19.4607 59.9736 19.3507 59.9296 19.248C59.9003 19.16 59.8856 19.0793 59.8856 19.006C59.8856 18.918 59.893 18.83 59.9076 18.742C59.9076 18.5807 59.9663 18.4413 60.0836 18.324C60.1423 18.2507 60.201 18.192 60.2596 18.148C60.333 18.0893 60.399 18.0307 60.4576 17.972C60.5896 17.84 60.6923 17.664 60.7656 17.444C60.8243 17.2533 60.8683 17.0627 60.8976 16.872C60.9416 16.6667 60.9856 16.4687 61.0296 16.278C61.059 16.0873 61.0883 15.904 61.1176 15.728C61.1616 15.5373 61.2056 15.354 61.2496 15.178C61.2643 15.1047 61.279 15.0387 61.2936 14.98C61.323 14.9067 61.345 14.8407 61.3596 14.782C61.4036 14.6647 61.4476 14.5547 61.4916 14.452C61.5356 14.3347 61.565 14.2173 61.5796 14.1C61.609 14.0413 61.609 13.99 61.5796 13.946C61.565 13.8727 61.565 13.8067 61.5796 13.748C61.609 13.6893 61.631 13.6307 61.6456 13.572C61.6896 13.4693 61.719 13.3667 61.7336 13.264C61.763 13.1613 61.7996 13.0587 61.8436 12.956C61.917 12.7653 61.9756 12.6113 62.0196 12.494C62.0783 12.362 62.1296 12.2153 62.1736 12.054C62.203 11.966 62.2323 11.8853 62.2616 11.812C62.3056 11.724 62.335 11.636 62.3496 11.548C62.3936 11.416 62.4303 11.284 62.4596 11.152C62.489 11.0053 62.5036 10.866 62.5036 10.734C62.533 10.6167 62.5623 10.536 62.5916 10.492C62.665 10.3453 62.753 10.2207 62.8556 10.118C62.973 10.0153 63.083 9.91267 63.1856 9.81C63.259 9.766 63.3323 9.73667 63.4056 9.722C63.479 9.69267 63.5523 9.7 63.6256 9.744C63.6843 9.77333 63.721 9.788 63.7356 9.788C63.8676 9.77333 63.9776 9.80267 64.0656 9.876C64.1536 9.94933 64.227 10.0373 64.2856 10.14C64.315 10.1693 64.337 10.206 64.3516 10.25C64.3663 10.294 64.381 10.3307 64.3956 10.36C64.469 10.4773 64.5056 10.5947 64.5056 10.712C64.5056 10.7707 64.513 10.8367 64.5276 10.91C64.5423 10.9687 64.557 11.0347 64.5716 11.108C64.6156 11.196 64.6816 11.24 64.7696 11.24C64.7843 11.2253 64.799 11.2253 64.8136 11.24C64.8283 11.2547 64.8356 11.2693 64.8356 11.284C64.909 11.372 64.931 11.4673 64.9016 11.57C64.8723 11.6873 64.865 11.8047 64.8796 11.922C64.909 12.0247 64.9383 12.1347 64.9676 12.252C65.0263 12.3987 65.085 12.5453 65.1436 12.692C65.2023 12.8387 65.261 12.9853 65.3196 13.132C65.393 13.2933 65.4663 13.4547 65.5396 13.616C65.613 13.7773 65.679 13.9387 65.7376 14.1C65.811 14.3053 65.8843 14.5107 65.9576 14.716C66.0456 14.9213 66.141 15.1267 66.2436 15.332L66.3096 15.574C66.3243 15.6327 66.339 15.6913 66.3536 15.75C66.383 15.8087 66.405 15.8673 66.4196 15.926C66.449 15.97 66.471 16.014 66.4856 16.058C66.515 16.102 66.5443 16.1387 66.5736 16.168C66.647 16.2707 66.691 16.3807 66.7056 16.498C66.7496 16.6447 66.8156 16.7767 66.9036 16.894C66.933 16.938 66.977 16.96 67.0356 16.96C67.2556 16.9307 67.4756 16.9087 67.6956 16.894C67.9156 16.8647 68.1356 16.8207 68.3556 16.762C68.517 16.718 68.671 16.696 68.8176 16.696C69.0963 16.696 69.353 16.7913 69.5876 16.982C69.8663 17.202 70.013 17.4807 70.0276 17.818C70.0276 17.8913 70.035 17.95 70.0496 17.994C70.0496 18.0967 70.0203 18.1773 69.9616 18.236C69.947 18.28 69.9176 18.324 69.8736 18.368C69.8443 18.412 69.815 18.456 69.7856 18.5C69.7563 18.5587 69.727 18.6027 69.6976 18.632L69.5656 18.742C69.551 18.7713 69.529 18.808 69.4996 18.852C69.4703 18.8813 69.4336 18.9033 69.3896 18.918C69.331 18.9327 69.2723 18.9547 69.2136 18.984C69.155 18.9987 69.089 19.006 69.0156 19.006C68.7516 19.0353 68.517 19.028 68.3116 18.984H67.9596C67.9303 18.984 67.8863 18.9987 67.8276 19.028C67.769 19.0573 67.7396 19.094 67.7396 19.138V19.226C67.7836 19.358 67.813 19.4973 67.8276 19.644C67.857 19.776 67.901 19.9007 67.9596 20.018C67.9596 20.0767 67.9743 20.1353 68.0036 20.194C68.077 20.326 68.1356 20.4653 68.1796 20.612C68.2236 20.744 68.2603 20.8833 68.2896 21.03C68.2896 21.0593 68.3043 21.118 68.3336 21.206C68.3776 21.3087 68.4143 21.4187 68.4436 21.536C68.473 21.6387 68.495 21.7487 68.5096 21.866C68.5096 21.954 68.5316 22.0347 68.5756 22.108C68.6343 22.24 68.6783 22.372 68.7076 22.504C68.737 22.636 68.759 22.7753 68.7736 22.922C68.7883 22.9367 68.7956 22.966 68.7956 23.01C68.7956 23.0393 68.803 23.0687 68.8176 23.098C68.891 23.2593 68.9423 23.4353 68.9716 23.626C69.001 23.802 69.0376 23.978 69.0816 24.154C69.111 24.242 69.1256 24.33 69.1256 24.418C69.1403 24.5207 69.1476 24.6233 69.1476 24.726C69.1476 24.7993 69.1256 24.88 69.0816 24.968C69.0376 25.012 69.0156 25.034 69.0156 25.034C68.9276 25.0487 68.8763 25.1 68.8616 25.188L68.7956 25.32C68.7663 25.3787 68.7223 25.4153 68.6636 25.43C68.605 25.43 68.5536 25.452 68.5096 25.496C68.451 25.5547 68.3703 25.584 68.2676 25.584C68.209 25.584 68.1356 25.584 68.0476 25.584C67.9743 25.584 67.901 25.5913 67.8276 25.606ZM62.5256 17.62C62.6136 17.6053 62.7016 17.5907 62.7896 17.576C62.8923 17.5613 63.0023 17.5467 63.1196 17.532C63.193 17.5173 63.2883 17.5027 63.4056 17.488C63.523 17.4733 63.633 17.4587 63.7356 17.444C63.8383 17.4147 63.941 17.4 64.0436 17.4C64.1463 17.3853 64.249 17.3707 64.3516 17.356C64.4396 17.3267 64.5276 17.312 64.6156 17.312C64.7036 17.2973 64.7916 17.2827 64.8796 17.268C65.0116 17.2387 65.063 17.1653 65.0336 17.048C65.019 16.9307 64.9896 16.8133 64.9456 16.696C64.9163 16.564 64.8503 16.454 64.7476 16.366C64.7183 16.3367 64.7036 16.2927 64.7036 16.234V16.168C64.6743 16.0507 64.6376 15.9407 64.5936 15.838C64.5643 15.7207 64.5276 15.6107 64.4836 15.508C64.4543 15.3907 64.4176 15.288 64.3736 15.2C64.3443 15.0973 64.3076 14.9947 64.2636 14.892L63.9996 14.1C63.9556 13.9973 63.9116 13.8947 63.8676 13.792C63.8383 13.6893 63.809 13.5867 63.7796 13.484L63.7136 13.396H63.6476L63.6036 13.462C63.5303 13.682 63.4423 13.902 63.3396 14.122C63.2516 14.342 63.171 14.5767 63.0976 14.826C63.0976 14.8553 63.0903 14.892 63.0756 14.936C63.061 14.98 63.0463 15.024 63.0316 15.068C62.973 15.2147 62.9143 15.376 62.8556 15.552C62.8116 15.728 62.775 15.904 62.7456 16.08C62.731 16.1827 62.7163 16.2853 62.7016 16.388C62.687 16.476 62.665 16.5713 62.6356 16.674L62.4376 17.532C62.423 17.5467 62.4303 17.5687 62.4596 17.598C62.489 17.6127 62.511 17.62 62.5256 17.62ZM80.727 25.298H80.617C80.573 25.298 80.5217 25.2907 80.463 25.276C80.419 25.276 80.3677 25.276 80.309 25.276C80.2063 25.2907 80.1183 25.2687 80.045 25.21C79.9863 25.166 79.9203 25.1073 79.847 25.034C79.8177 25.0047 79.781 24.968 79.737 24.924C79.7077 24.8947 79.671 24.8727 79.627 24.858C79.5977 24.8433 79.5683 24.8067 79.539 24.748C79.5243 24.7187 79.5023 24.682 79.473 24.638C79.4583 24.594 79.4363 24.55 79.407 24.506C79.3777 24.4327 79.3703 24.352 79.385 24.264C79.3997 24.22 79.407 24.176 79.407 24.132C79.4217 24.1027 79.429 24.066 79.429 24.022C79.429 23.8753 79.429 23.736 79.429 23.604C79.429 23.4573 79.4143 23.3107 79.385 23.164C79.3703 23.12 79.363 23.076 79.363 23.032C79.363 22.9733 79.3557 22.9147 79.341 22.856C79.341 22.7533 79.3337 22.6727 79.319 22.614C79.319 22.5407 79.3117 22.4747 79.297 22.416C79.297 22.3573 79.297 22.2987 79.297 22.24C79.2823 22.1373 79.275 22.042 79.275 21.954C79.275 21.866 79.2603 21.7707 79.231 21.668V21.602C79.231 21.4113 79.2163 21.228 79.187 21.052C79.1723 20.8613 79.165 20.6707 79.165 20.48C79.165 20.392 79.1577 20.326 79.143 20.282C79.1283 20.15 79.1137 20.018 79.099 19.886C79.099 19.7393 79.099 19.5927 79.099 19.446C79.099 19.314 79.099 19.182 79.099 19.05C79.099 18.9033 79.0843 18.764 79.055 18.632C79.0403 18.6027 79.033 18.566 79.033 18.522C79.033 18.478 79.033 18.4413 79.033 18.412C79.033 17.8107 79.033 17.2093 79.033 16.608C79.033 16.0067 79.0403 15.4127 79.055 14.826C79.055 14.7527 79.055 14.6793 79.055 14.606C79.0697 14.5327 79.077 14.4593 79.077 14.386C79.077 14.342 79.077 14.298 79.077 14.254C79.0917 14.21 79.099 14.1733 79.099 14.144C79.099 13.9827 79.099 13.8213 79.099 13.66C79.1137 13.484 79.1283 13.3153 79.143 13.154C79.1723 13.11 79.1723 13.0513 79.143 12.978C79.1283 12.9633 79.1063 12.956 79.077 12.956L79.011 13.022C78.9817 13.066 78.945 13.11 78.901 13.154C78.857 13.198 78.8203 13.242 78.791 13.286C78.7323 13.374 78.6663 13.4693 78.593 13.572C78.5343 13.66 78.4683 13.7553 78.395 13.858C78.2923 14.034 78.1823 14.2173 78.065 14.408C77.9477 14.584 77.8597 14.7747 77.801 14.98C77.7863 15.0093 77.7717 15.046 77.757 15.09C77.7423 15.1193 77.7277 15.1487 77.713 15.178C77.6543 15.3247 77.5883 15.4713 77.515 15.618C77.4563 15.75 77.3977 15.8967 77.339 16.058C77.251 16.2487 77.1263 16.4247 76.965 16.586C76.9357 16.6153 76.9063 16.63 76.877 16.63C76.8037 16.674 76.723 16.718 76.635 16.762C76.547 16.7913 76.4517 16.7987 76.349 16.784H76.217C76.085 16.8133 75.975 16.784 75.887 16.696C75.7843 16.6667 75.6963 16.6153 75.623 16.542C75.5643 16.4687 75.4983 16.388 75.425 16.3C75.3663 16.2267 75.315 16.1387 75.271 16.036C75.2417 15.9333 75.227 15.8307 75.227 15.728C75.2123 15.6987 75.205 15.662 75.205 15.618C75.205 15.574 75.205 15.5373 75.205 15.508C75.1903 15.4787 75.1757 15.4493 75.161 15.42C75.1463 15.376 75.139 15.3467 75.139 15.332C75.139 15.3027 75.1243 15.2587 75.095 15.2C75.0657 15.1413 75.007 15.024 74.919 14.848C74.831 14.672 74.787 14.5913 74.787 14.606C74.743 14.5327 74.699 14.452 74.655 14.364C74.611 14.276 74.5597 14.1953 74.501 14.122L74.369 13.88C74.3397 13.88 74.3177 13.8727 74.303 13.858L74.281 13.88C74.281 13.924 74.281 13.968 74.281 14.012C74.281 14.056 74.2883 14.1 74.303 14.144C74.3323 14.3053 74.347 14.4667 74.347 14.628C74.347 14.7893 74.3323 14.9507 74.303 15.112C74.303 15.2 74.3103 15.2733 74.325 15.332C74.3397 15.3613 74.347 15.4127 74.347 15.486C74.347 15.574 74.347 15.662 74.347 15.75C74.3617 15.838 74.3617 15.926 74.347 16.014C74.3323 16.0873 74.325 16.168 74.325 16.256C74.3397 16.3293 74.3543 16.4027 74.369 16.476V16.696C74.3397 16.784 74.3397 16.8793 74.369 16.982C74.3837 17.0553 74.3837 17.136 74.369 17.224C74.369 17.2973 74.3763 17.3707 74.391 17.444C74.391 17.5173 74.3763 17.6127 74.347 17.73C74.259 18.082 74.281 18.4193 74.413 18.742C74.4277 18.8007 74.4423 18.8593 74.457 18.918C74.4717 18.962 74.4717 19.0133 74.457 19.072C74.457 19.116 74.457 19.16 74.457 19.204C74.457 19.248 74.4643 19.292 74.479 19.336C74.5083 19.3947 74.523 19.4533 74.523 19.512C74.5377 19.6733 74.545 19.798 74.545 19.886C74.5597 19.974 74.5743 20.04 74.589 20.084C74.6183 20.2453 74.6477 20.414 74.677 20.59C74.7063 20.7513 74.7357 20.9127 74.765 21.074C74.7943 21.2647 74.8237 21.4553 74.853 21.646C74.897 21.822 74.919 22.0053 74.919 22.196C74.919 22.2547 74.9263 22.2987 74.941 22.328C74.9703 22.4453 74.985 22.57 74.985 22.702C74.985 22.8193 74.9923 22.9367 75.007 23.054C75.007 23.2153 74.9703 23.34 74.897 23.428C74.8677 23.4867 74.853 23.5233 74.853 23.538C74.721 23.8167 74.4863 23.978 74.149 24.022C74.105 24.0367 74.061 24.044 74.017 24.044C73.973 24.044 73.929 24.044 73.885 24.044C73.7237 24.0733 73.6063 24.044 73.533 23.956C73.5037 23.9267 73.4743 23.912 73.445 23.912C73.3717 23.9267 73.2983 23.8827 73.225 23.78C73.181 23.7067 73.115 23.6407 73.027 23.582C72.983 23.538 72.9463 23.4647 72.917 23.362C72.9023 23.3327 72.8877 23.3033 72.873 23.274C72.873 23.2447 72.873 23.2153 72.873 23.186C72.8583 22.9807 72.8363 22.7827 72.807 22.592C72.7777 22.3867 72.7557 22.1887 72.741 21.998L72.719 21.778C72.7043 21.7193 72.697 21.668 72.697 21.624C72.697 21.58 72.6897 21.5287 72.675 21.47V21.338C72.631 21.1327 72.609 20.9273 72.609 20.722C72.609 20.502 72.6163 20.2893 72.631 20.084C72.6457 19.952 72.653 19.82 72.653 19.688C72.653 19.5413 72.6603 19.402 72.675 19.27V18.764C72.675 18.6907 72.675 18.6173 72.675 18.544C72.675 18.456 72.6677 18.3753 72.653 18.302C72.6383 18.214 72.631 18.126 72.631 18.038C72.631 17.95 72.631 17.862 72.631 17.774V16.762C72.6163 16.6447 72.609 16.5273 72.609 16.41C72.609 16.278 72.609 16.1533 72.609 16.036C72.609 15.992 72.609 15.948 72.609 15.904C72.609 15.8453 72.6017 15.794 72.587 15.75C72.587 15.6767 72.5797 15.6107 72.565 15.552C72.565 15.4787 72.5577 15.4127 72.543 15.354V15.2C72.5137 15.068 72.499 14.9433 72.499 14.826C72.499 14.694 72.499 14.562 72.499 14.43C72.499 14.3127 72.499 14.1953 72.499 14.078C72.499 13.946 72.4843 13.8287 72.455 13.726C72.4403 13.682 72.433 13.638 72.433 13.594C72.433 13.55 72.433 13.506 72.433 13.462C72.433 13.3593 72.433 13.264 72.433 13.176C72.433 13.0733 72.4183 12.9707 72.389 12.868C72.3743 12.8387 72.367 12.7873 72.367 12.714V11.614C72.367 11.5407 72.367 11.4747 72.367 11.416C72.367 11.3427 72.3523 11.2767 72.323 11.218C72.279 11.0713 72.2863 10.9027 72.345 10.712C72.3743 10.6387 72.4037 10.5873 72.433 10.558C72.4623 10.514 72.4917 10.47 72.521 10.426C72.5503 10.382 72.5723 10.338 72.587 10.294C72.6163 10.25 72.6383 10.228 72.653 10.228C72.7117 10.2133 72.7557 10.1913 72.785 10.162C72.829 10.1327 72.8657 10.1033 72.895 10.074L73.027 10.008C73.0563 9.99333 73.1003 9.986 73.159 9.986C73.2323 10.0007 73.3057 10.0153 73.379 10.03C73.467 10.03 73.5477 10.0373 73.621 10.052C73.709 10.052 73.775 10.0887 73.819 10.162C73.8923 10.2647 73.9657 10.3673 74.039 10.47C74.1123 10.5727 74.171 10.6827 74.215 10.8C74.259 10.9027 74.3177 10.9907 74.391 11.064C74.479 11.1813 74.567 11.2987 74.655 11.416C74.743 11.5333 74.8383 11.6507 74.941 11.768C74.985 11.812 75.0217 11.8633 75.051 11.922C75.095 11.9807 75.1317 12.0393 75.161 12.098C75.2343 12.2007 75.3003 12.3033 75.359 12.406C75.4323 12.494 75.5057 12.5893 75.579 12.692L75.909 13.22C75.9383 13.2787 75.9677 13.3373 75.997 13.396C76.0263 13.44 76.0557 13.484 76.085 13.528C76.1143 13.6013 76.1583 13.6087 76.217 13.55C76.2757 13.4767 76.3343 13.4033 76.393 13.33C76.4663 13.242 76.5323 13.1613 76.591 13.088C76.723 12.9267 76.855 12.758 76.987 12.582C77.119 12.406 77.2583 12.2373 77.405 12.076L77.537 11.878C77.6397 11.7313 77.735 11.592 77.823 11.46C77.9257 11.3133 78.021 11.1667 78.109 11.02C78.2117 10.8587 78.2997 10.6973 78.373 10.536C78.461 10.3747 78.5343 10.2133 78.593 10.052L78.857 9.458C78.945 9.282 79.0697 9.13533 79.231 9.018C79.451 8.842 79.693 8.776 79.957 8.82C80.0597 8.83467 80.155 8.864 80.243 8.908C80.331 8.93733 80.419 8.96667 80.507 8.996C80.595 9.02533 80.6537 9.09133 80.683 9.194C80.7123 9.238 80.7343 9.282 80.749 9.326C80.7637 9.37 80.771 9.414 80.771 9.458C80.7857 9.56067 80.8077 9.656 80.837 9.744C80.8663 9.81733 80.8883 9.90533 80.903 10.008L80.925 10.228C80.9543 10.36 80.9837 10.492 81.013 10.624C81.057 10.756 81.0937 10.888 81.123 11.02V11.064C81.1377 11.2107 81.1523 11.3573 81.167 11.504C81.1963 11.636 81.2037 11.7753 81.189 11.922V12.428C81.189 12.5013 81.189 12.5747 81.189 12.648C81.189 12.7213 81.1817 12.7947 81.167 12.868C81.1523 12.9707 81.145 13.0733 81.145 13.176C81.145 13.264 81.145 13.3593 81.145 13.462C81.1303 13.5207 81.123 13.5793 81.123 13.638C81.123 13.6967 81.1157 13.7553 81.101 13.814C81.0863 13.8727 81.079 13.9313 81.079 13.99C81.079 14.034 81.079 14.0927 81.079 14.166V14.782C81.079 14.8847 81.0717 14.98 81.057 15.068C81.057 15.156 81.0497 15.2513 81.035 15.354C81.0203 15.4127 81.013 15.4713 81.013 15.53C81.013 15.574 81.013 15.6253 81.013 15.684V17.026C81.013 17.1287 81.013 17.2313 81.013 17.334C81.0277 17.4367 81.0423 17.5393 81.057 17.642C81.0717 17.7153 81.079 17.796 81.079 17.884C81.079 17.9573 81.079 18.0307 81.079 18.104C81.0937 18.2067 81.101 18.3093 81.101 18.412C81.101 18.5 81.1083 18.6027 81.123 18.72V18.962C81.1377 19.0793 81.145 19.204 81.145 19.336C81.145 19.4533 81.145 19.5707 81.145 19.688V19.974C81.1743 20.0767 81.189 20.1867 81.189 20.304C81.189 20.4213 81.1963 20.5387 81.211 20.656V20.81C81.2403 20.898 81.255 20.986 81.255 21.074C81.255 21.162 81.2623 21.25 81.277 21.338L81.343 22.13C81.3577 22.1887 81.365 22.2473 81.365 22.306C81.3797 22.35 81.387 22.4013 81.387 22.46C81.4017 22.5187 81.409 22.5773 81.409 22.636C81.409 22.68 81.4163 22.7313 81.431 22.79C81.431 22.8047 81.431 22.8267 81.431 22.856C81.4457 22.8853 81.453 22.9147 81.453 22.944C81.453 23.0467 81.4603 23.1567 81.475 23.274C81.5043 23.3913 81.5263 23.5087 81.541 23.626L81.629 24.242C81.629 24.33 81.6217 24.3887 81.607 24.418C81.5923 24.506 81.5557 24.5867 81.497 24.66C81.453 24.748 81.4163 24.8287 81.387 24.902C81.387 24.9167 81.3797 24.924 81.365 24.924C81.2623 25.012 81.1597 25.0853 81.057 25.144C80.9543 25.2173 80.8443 25.2687 80.727 25.298ZM86.5228 24.22C86.4348 24.22 86.3761 24.2127 86.3468 24.198C86.2881 24.1687 86.2368 24.1467 86.1928 24.132C86.1488 24.1173 86.1048 24.1027 86.0608 24.088C86.0168 24.0587 85.9728 24.0293 85.9288 24C85.8995 23.956 85.8701 23.912 85.8408 23.868C85.8115 23.8387 85.7821 23.824 85.7528 23.824C85.6648 23.824 85.6208 23.78 85.6208 23.692C85.6061 23.604 85.5915 23.516 85.5768 23.428C85.5621 23.34 85.5475 23.252 85.5328 23.164C85.5181 23.032 85.5035 22.9 85.4888 22.768C85.4888 22.636 85.4741 22.5113 85.4448 22.394V22.196C85.4448 22.1373 85.4375 22.086 85.4228 22.042C85.4228 21.998 85.4228 21.9467 85.4228 21.888C85.3935 21.8147 85.3935 21.756 85.4228 21.712C85.4521 21.448 85.4521 21.184 85.4228 20.92C85.4081 20.8467 85.4008 20.7733 85.4008 20.7C85.4008 20.6267 85.3935 20.5533 85.3788 20.48C85.3788 20.3333 85.3788 20.1867 85.3788 20.04C85.3788 19.8787 85.3641 19.7247 85.3348 19.578V19.226C85.3348 19.1087 85.3275 18.9987 85.3128 18.896C85.3128 18.7933 85.3055 18.6907 85.2908 18.588C85.2761 18.456 85.2615 18.324 85.2468 18.192C85.2468 18.06 85.2395 17.928 85.2248 17.796C85.2101 17.7667 85.2028 17.7153 85.2028 17.642C85.1881 17.5687 85.1735 17.4953 85.1588 17.422C85.1588 17.334 85.1588 17.2533 85.1588 17.18L85.0928 16.08C85.0781 15.9627 85.0635 15.8527 85.0488 15.75C85.0488 15.6327 85.0488 15.5227 85.0488 15.42C85.0341 15.244 85.0195 15.068 85.0048 14.892C84.9901 14.716 84.9755 14.5473 84.9608 14.386C84.9608 14.3567 84.9535 14.3273 84.9388 14.298C84.9388 14.2687 84.9388 14.2467 84.9388 14.232C84.9388 14.056 84.9315 13.88 84.9168 13.704C84.9021 13.528 84.8875 13.3447 84.8728 13.154L84.8068 12.538C84.7628 12.3033 84.7555 12.0467 84.7848 11.768C84.7848 11.636 84.8361 11.526 84.9388 11.438C84.9681 11.4087 84.9901 11.394 85.0048 11.394C85.0195 11.3793 85.0341 11.3647 85.0488 11.35C85.1221 11.3353 85.1588 11.284 85.1588 11.196C85.1588 11.1667 85.1881 11.152 85.2468 11.152H85.3568C85.3715 11.152 85.3788 11.152 85.3788 11.152C85.3935 11.1373 85.4081 11.13 85.4228 11.13C85.4521 11.1153 85.4741 11.1007 85.4888 11.086C85.5181 11.0567 85.5401 11.042 85.5548 11.042C85.5841 11.042 85.6135 11.0493 85.6428 11.064C85.6721 11.064 85.7015 11.0713 85.7308 11.086C85.7601 11.086 85.7821 11.0787 85.7968 11.064C85.8701 11.0493 85.9435 11.0567 86.0168 11.086C86.1048 11.1007 86.1781 11.1227 86.2368 11.152C86.3248 11.1667 86.3908 11.2253 86.4348 11.328C86.4788 11.46 86.5155 11.592 86.5448 11.724C86.5888 11.8413 86.6181 11.966 86.6328 12.098V12.274C86.6621 12.3767 86.6768 12.4867 86.6768 12.604C86.6768 12.7067 86.6768 12.8167 86.6768 12.934C86.6768 13.0367 86.6768 13.1393 86.6768 13.242C86.6915 13.33 86.7061 13.418 86.7208 13.506C86.7208 13.55 86.7208 13.594 86.7208 13.638C86.7208 13.682 86.7281 13.726 86.7428 13.77C86.7428 13.858 86.7428 13.946 86.7428 14.034C86.7575 14.122 86.7721 14.2173 86.7868 14.32C86.8015 14.4813 86.8161 14.65 86.8308 14.826C86.8455 15.002 86.8528 15.178 86.8528 15.354C86.8528 15.4273 86.8528 15.508 86.8528 15.596C86.8528 15.6693 86.8601 15.7427 86.8748 15.816C86.8895 15.86 86.8968 15.904 86.8968 15.948C86.8968 15.992 86.8968 16.036 86.8968 16.08V16.52C86.8968 16.608 86.9041 16.6813 86.9188 16.74C86.9481 16.8427 86.9555 16.9453 86.9408 17.048C86.9408 17.136 86.9481 17.2313 86.9628 17.334L87.0288 18.346C87.0435 18.4927 87.0508 18.6467 87.0508 18.808C87.0655 18.9547 87.0728 19.1087 87.0728 19.27C87.0728 19.3287 87.0728 19.3947 87.0728 19.468C87.0728 19.5267 87.0801 19.5853 87.0948 19.644C87.1095 19.688 87.1168 19.732 87.1168 19.776C87.1168 19.82 87.1168 19.864 87.1168 19.908C87.1315 19.9227 87.1315 19.952 87.1168 19.996C87.1168 20.0253 87.1241 20.0547 87.1388 20.084C87.1681 20.1867 87.1828 20.2893 87.1828 20.392C87.1828 20.4947 87.1828 20.6047 87.1828 20.722C87.1828 20.7807 87.1828 20.8467 87.1828 20.92C87.1975 20.9787 87.2048 21.0447 87.2048 21.118C87.2195 21.1913 87.2268 21.272 87.2268 21.36C87.2268 21.448 87.2268 21.5287 87.2268 21.602C87.2415 21.6753 87.2488 21.756 87.2488 21.844C87.2488 21.9173 87.2561 21.9907 87.2708 22.064C87.2855 22.0933 87.2928 22.1227 87.2928 22.152C87.2928 22.3133 87.3075 22.4747 87.3368 22.636C87.3661 22.7973 87.3955 22.9587 87.4248 23.12C87.4395 23.164 87.4468 23.2153 87.4468 23.274C87.4468 23.318 87.4468 23.362 87.4468 23.406C87.4468 23.45 87.4321 23.4867 87.4028 23.516C87.3441 23.56 87.3001 23.648 87.2708 23.78C87.2708 23.824 87.2488 23.8607 87.2048 23.89C87.1021 23.934 87.0141 23.9927 86.9408 24.066C86.8235 24.1687 86.6841 24.22 86.5228 24.22ZM98.4429 25.606C98.3109 25.606 98.1935 25.5547 98.0909 25.452C98.0615 25.408 98.0322 25.364 98.0029 25.32C97.9735 25.276 97.9442 25.232 97.9149 25.188C97.7829 24.88 97.7169 24.5573 97.7169 24.22L97.6509 23.692C97.6069 23.4867 97.5702 23.2813 97.5409 23.076C97.5115 22.8707 97.4602 22.6727 97.3869 22.482L97.2549 22.108C97.2549 22.0787 97.2475 22.0493 97.2329 22.02C97.2329 21.9907 97.2255 21.9613 97.2109 21.932L96.8809 20.766C96.8662 20.7367 96.8515 20.7 96.8369 20.656C96.8369 20.612 96.8222 20.5753 96.7929 20.546C96.7489 20.458 96.7122 20.37 96.6829 20.282C96.6682 20.1793 96.6462 20.0767 96.6169 19.974C96.6022 19.9007 96.5875 19.8347 96.5729 19.776C96.5582 19.7027 96.5362 19.6293 96.5069 19.556C96.4775 19.468 96.4482 19.4167 96.4189 19.402C96.3895 19.3727 96.3235 19.3727 96.2209 19.402C96.1475 19.4167 96.0669 19.4313 95.9789 19.446C95.9055 19.446 95.8322 19.4607 95.7589 19.49C95.7002 19.5047 95.6269 19.5193 95.5389 19.534C95.4655 19.534 95.3922 19.5413 95.3189 19.556L95.0109 19.622C94.9375 19.6367 94.8569 19.6587 94.7689 19.688C94.6955 19.7027 94.6222 19.71 94.5489 19.71L94.1529 19.776C94.0355 19.8053 93.9109 19.8347 93.7789 19.864C93.6469 19.8933 93.5222 19.9227 93.4049 19.952C93.0529 20.04 92.7009 20.106 92.3489 20.15C92.2315 20.1793 92.1655 20.2307 92.1509 20.304C92.1362 20.304 92.1289 20.3113 92.1289 20.326C92.0409 20.5607 91.9382 20.7953 91.8209 21.03C91.7182 21.25 91.6082 21.4773 91.4909 21.712C91.4615 21.7707 91.4322 21.8293 91.4029 21.888C91.3882 21.932 91.3662 21.9833 91.3369 22.042C91.3222 22.0713 91.3075 22.108 91.2929 22.152C91.2782 22.1813 91.2635 22.2107 91.2489 22.24C91.1609 22.3427 91.1169 22.4673 91.1169 22.614C91.1022 22.702 91.0729 22.79 91.0289 22.878C90.9849 22.9513 90.9409 23.0247 90.8969 23.098C90.8822 23.142 90.8529 23.164 90.8089 23.164C90.7502 23.1787 90.6915 23.2007 90.6329 23.23C90.5742 23.2593 90.5082 23.2887 90.4349 23.318C90.3909 23.3327 90.3469 23.3327 90.3029 23.318C90.2735 23.3033 90.2369 23.2887 90.1929 23.274C90.1635 23.2447 90.1342 23.23 90.1049 23.23C89.9435 23.2153 89.8262 23.12 89.7529 22.944C89.6355 22.7093 89.5549 22.4747 89.5109 22.24C89.4962 22.1813 89.4962 22.13 89.5109 22.086C89.5402 22.042 89.5622 21.998 89.5769 21.954C89.6649 21.8953 89.7162 21.8293 89.7309 21.756V21.734C89.7309 21.5433 89.7675 21.3673 89.8409 21.206C89.9289 21.03 90.0022 20.8613 90.0609 20.7C90.0902 20.612 90.1269 20.524 90.1709 20.436C90.2149 20.348 90.2589 20.26 90.3029 20.172C90.3615 20.0693 90.4055 19.974 90.4349 19.886C90.4789 19.7833 90.5155 19.6807 90.5449 19.578C90.5889 19.4607 90.5889 19.3507 90.5449 19.248C90.5155 19.16 90.5009 19.0793 90.5009 19.006C90.5009 18.918 90.5082 18.83 90.5229 18.742C90.5229 18.5807 90.5815 18.4413 90.6989 18.324C90.7575 18.2507 90.8162 18.192 90.8749 18.148C90.9482 18.0893 91.0142 18.0307 91.0729 17.972C91.2049 17.84 91.3075 17.664 91.3809 17.444C91.4395 17.2533 91.4835 17.0627 91.5129 16.872C91.5569 16.6667 91.6009 16.4687 91.6449 16.278C91.6742 16.0873 91.7035 15.904 91.7329 15.728C91.7769 15.5373 91.8209 15.354 91.8649 15.178C91.8795 15.1047 91.8942 15.0387 91.9089 14.98C91.9382 14.9067 91.9602 14.8407 91.9749 14.782C92.0189 14.6647 92.0629 14.5547 92.1069 14.452C92.1509 14.3347 92.1802 14.2173 92.1949 14.1C92.2242 14.0413 92.2242 13.99 92.1949 13.946C92.1802 13.8727 92.1802 13.8067 92.1949 13.748C92.2242 13.6893 92.2462 13.6307 92.2609 13.572C92.3049 13.4693 92.3342 13.3667 92.3489 13.264C92.3782 13.1613 92.4149 13.0587 92.4589 12.956C92.5322 12.7653 92.5909 12.6113 92.6349 12.494C92.6935 12.362 92.7449 12.2153 92.7889 12.054C92.8182 11.966 92.8475 11.8853 92.8769 11.812C92.9209 11.724 92.9502 11.636 92.9649 11.548C93.0089 11.416 93.0455 11.284 93.0749 11.152C93.1042 11.0053 93.1189 10.866 93.1189 10.734C93.1482 10.6167 93.1775 10.536 93.2069 10.492C93.2802 10.3453 93.3682 10.2207 93.4709 10.118C93.5882 10.0153 93.6982 9.91267 93.8009 9.81C93.8742 9.766 93.9475 9.73667 94.0209 9.722C94.0942 9.69267 94.1675 9.7 94.2409 9.744C94.2995 9.77333 94.3362 9.788 94.3509 9.788C94.4829 9.77333 94.5929 9.80267 94.6809 9.876C94.7689 9.94933 94.8422 10.0373 94.9009 10.14C94.9302 10.1693 94.9522 10.206 94.9669 10.25C94.9815 10.294 94.9962 10.3307 95.0109 10.36C95.0842 10.4773 95.1209 10.5947 95.1209 10.712C95.1209 10.7707 95.1282 10.8367 95.1429 10.91C95.1575 10.9687 95.1722 11.0347 95.1869 11.108C95.2309 11.196 95.2969 11.24 95.3849 11.24C95.3995 11.2253 95.4142 11.2253 95.4289 11.24C95.4435 11.2547 95.4509 11.2693 95.4509 11.284C95.5242 11.372 95.5462 11.4673 95.5169 11.57C95.4875 11.6873 95.4802 11.8047 95.4949 11.922C95.5242 12.0247 95.5535 12.1347 95.5829 12.252C95.6415 12.3987 95.7002 12.5453 95.7589 12.692C95.8175 12.8387 95.8762 12.9853 95.9349 13.132C96.0082 13.2933 96.0815 13.4547 96.1549 13.616C96.2282 13.7773 96.2942 13.9387 96.3529 14.1C96.4262 14.3053 96.4995 14.5107 96.5729 14.716C96.6609 14.9213 96.7562 15.1267 96.8589 15.332L96.9249 15.574C96.9395 15.6327 96.9542 15.6913 96.9689 15.75C96.9982 15.8087 97.0202 15.8673 97.0349 15.926C97.0642 15.97 97.0862 16.014 97.1009 16.058C97.1302 16.102 97.1595 16.1387 97.1889 16.168C97.2622 16.2707 97.3062 16.3807 97.3209 16.498C97.3649 16.6447 97.4309 16.7767 97.5189 16.894C97.5482 16.938 97.5922 16.96 97.6509 16.96C97.8709 16.9307 98.0909 16.9087 98.3109 16.894C98.5309 16.8647 98.7509 16.8207 98.9709 16.762C99.1322 16.718 99.2862 16.696 99.4329 16.696C99.7115 16.696 99.9682 16.7913 100.203 16.982C100.482 17.202 100.628 17.4807 100.643 17.818C100.643 17.8913 100.65 17.95 100.665 17.994C100.665 18.0967 100.636 18.1773 100.577 18.236C100.562 18.28 100.533 18.324 100.489 18.368C100.46 18.412 100.43 18.456 100.401 18.5C100.372 18.5587 100.342 18.6027 100.313 18.632L100.181 18.742C100.166 18.7713 100.144 18.808 100.115 18.852C100.086 18.8813 100.049 18.9033 100.005 18.918C99.9462 18.9327 99.8875 18.9547 99.8289 18.984C99.7702 18.9987 99.7042 19.006 99.6309 19.006C99.3669 19.0353 99.1322 19.028 98.9269 18.984H98.5749C98.5455 18.984 98.5015 18.9987 98.4429 19.028C98.3842 19.0573 98.3549 19.094 98.3549 19.138V19.226C98.3989 19.358 98.4282 19.4973 98.4429 19.644C98.4722 19.776 98.5162 19.9007 98.5749 20.018C98.5749 20.0767 98.5895 20.1353 98.6189 20.194C98.6922 20.326 98.7509 20.4653 98.7949 20.612C98.8389 20.744 98.8755 20.8833 98.9049 21.03C98.9049 21.0593 98.9195 21.118 98.9489 21.206C98.9929 21.3087 99.0295 21.4187 99.0589 21.536C99.0882 21.6387 99.1102 21.7487 99.1249 21.866C99.1249 21.954 99.1469 22.0347 99.1909 22.108C99.2495 22.24 99.2935 22.372 99.3229 22.504C99.3522 22.636 99.3742 22.7753 99.3889 22.922C99.4035 22.9367 99.4109 22.966 99.4109 23.01C99.4109 23.0393 99.4182 23.0687 99.4329 23.098C99.5062 23.2593 99.5575 23.4353 99.5869 23.626C99.6162 23.802 99.6529 23.978 99.6969 24.154C99.7262 24.242 99.7409 24.33 99.7409 24.418C99.7555 24.5207 99.7629 24.6233 99.7629 24.726C99.7629 24.7993 99.7409 24.88 99.6969 24.968C99.6529 25.012 99.6309 25.034 99.6309 25.034C99.5429 25.0487 99.4915 25.1 99.4769 25.188L99.4109 25.32C99.3815 25.3787 99.3375 25.4153 99.2789 25.43C99.2202 25.43 99.1689 25.452 99.1249 25.496C99.0662 25.5547 98.9855 25.584 98.8829 25.584C98.8242 25.584 98.7509 25.584 98.6629 25.584C98.5895 25.584 98.5162 25.5913 98.4429 25.606ZM93.1409 17.62C93.2289 17.6053 93.3169 17.5907 93.4049 17.576C93.5075 17.5613 93.6175 17.5467 93.7349 17.532C93.8082 17.5173 93.9035 17.5027 94.0209 17.488C94.1382 17.4733 94.2482 17.4587 94.3509 17.444C94.4535 17.4147 94.5562 17.4 94.6589 17.4C94.7615 17.3853 94.8642 17.3707 94.9669 17.356C95.0549 17.3267 95.1429 17.312 95.2309 17.312C95.3189 17.2973 95.4069 17.2827 95.4949 17.268C95.6269 17.2387 95.6782 17.1653 95.6489 17.048C95.6342 16.9307 95.6049 16.8133 95.5609 16.696C95.5315 16.564 95.4655 16.454 95.3629 16.366C95.3335 16.3367 95.3189 16.2927 95.3189 16.234V16.168C95.2895 16.0507 95.2529 15.9407 95.2089 15.838C95.1795 15.7207 95.1429 15.6107 95.0989 15.508C95.0695 15.3907 95.0329 15.288 94.9889 15.2C94.9595 15.0973 94.9229 14.9947 94.8789 14.892L94.6149 14.1C94.5709 13.9973 94.5269 13.8947 94.4829 13.792C94.4535 13.6893 94.4242 13.5867 94.3949 13.484L94.3289 13.396H94.2629L94.2189 13.462C94.1455 13.682 94.0575 13.902 93.9549 14.122C93.8669 14.342 93.7862 14.5767 93.7129 14.826C93.7129 14.8553 93.7055 14.892 93.6909 14.936C93.6762 14.98 93.6615 15.024 93.6469 15.068C93.5882 15.2147 93.5295 15.376 93.4709 15.552C93.4269 15.728 93.3902 15.904 93.3609 16.08C93.3462 16.1827 93.3315 16.2853 93.3169 16.388C93.3022 16.476 93.2802 16.5713 93.2509 16.674L93.0529 17.532C93.0382 17.5467 93.0455 17.5687 93.0749 17.598C93.1042 17.6127 93.1262 17.62 93.1409 17.62ZM103.216 22.46C103.143 22.46 103.084 22.438 103.04 22.394L102.644 22.174C102.629 22.1593 102.615 22.152 102.6 22.152C102.6 22.1373 102.593 22.1227 102.578 22.108C102.549 22.0787 102.505 22.0127 102.446 21.91C102.402 21.7927 102.38 21.7193 102.38 21.69V21.382C102.38 21.3087 102.409 21.2427 102.468 21.184C102.541 21.1253 102.593 21.0447 102.622 20.942C102.666 20.81 102.739 20.7 102.842 20.612C102.945 20.524 103.055 20.458 103.172 20.414C103.231 20.3847 103.282 20.3627 103.326 20.348C103.385 20.3333 103.436 20.3113 103.48 20.282C103.568 20.238 103.641 20.2453 103.7 20.304V20.282C103.773 20.3113 103.847 20.3407 103.92 20.37C103.993 20.3847 104.059 20.4067 104.118 20.436C104.177 20.4507 104.221 20.4873 104.25 20.546C104.353 20.6633 104.433 20.788 104.492 20.92C104.565 21.0813 104.595 21.228 104.58 21.36L104.514 21.756C104.499 21.8 104.485 21.844 104.47 21.888C104.455 21.932 104.426 21.9687 104.382 21.998L104.294 22.086C104.162 22.2473 103.957 22.35 103.678 22.394C103.619 22.4087 103.561 22.416 103.502 22.416C103.458 22.416 103.407 22.4307 103.348 22.46C103.319 22.4893 103.275 22.4893 103.216 22.46ZM109.389 23.34C109.374 23.34 109.36 23.34 109.345 23.34C109.33 23.3253 109.308 23.318 109.279 23.318L109.037 23.208L108.993 23.252C108.949 23.3107 108.912 23.3327 108.883 23.318C108.839 23.2887 108.788 23.274 108.729 23.274C108.67 23.2593 108.612 23.252 108.553 23.252C108.406 23.2667 108.26 23.2593 108.113 23.23C107.981 23.2007 107.842 23.1567 107.695 23.098L107.563 23.032C107.402 22.944 107.27 22.8047 107.167 22.614C107.138 22.5553 107.108 22.504 107.079 22.46C107.064 22.4013 107.042 22.3427 107.013 22.284C106.998 22.24 106.998 22.196 107.013 22.152C107.057 21.8587 107.182 21.5947 107.387 21.36C107.475 21.272 107.563 21.184 107.651 21.096C107.739 20.9933 107.834 20.9053 107.937 20.832C108.04 20.7587 108.142 20.6853 108.245 20.612C108.362 20.524 108.472 20.4433 108.575 20.37C108.78 20.2233 108.986 20.084 109.191 19.952C109.396 19.8053 109.594 19.6587 109.785 19.512C110.137 19.248 110.394 18.9107 110.555 18.5C110.658 18.2507 110.753 18.0087 110.841 17.774C110.929 17.5393 111.017 17.3047 111.105 17.07C111.178 16.8647 111.244 16.6667 111.303 16.476C111.376 16.2707 111.45 16.0727 111.523 15.882C111.582 15.7207 111.626 15.5593 111.655 15.398C111.699 15.222 111.728 15.0533 111.743 14.892C111.772 14.6427 111.743 14.408 111.655 14.188C111.626 14.1 111.567 14.0413 111.479 14.012C111.42 13.9827 111.362 13.9607 111.303 13.946C111.244 13.9313 111.186 13.9167 111.127 13.902C111.039 13.902 110.973 13.9093 110.929 13.924C110.914 13.9387 110.892 13.946 110.863 13.946C110.848 13.946 110.834 13.9533 110.819 13.968C110.496 14.1147 110.196 14.3053 109.917 14.54C109.873 14.584 109.829 14.628 109.785 14.672C109.741 14.7013 109.697 14.7307 109.653 14.76C109.55 14.848 109.455 14.9433 109.367 15.046C109.308 15.1047 109.242 15.1707 109.169 15.244C109.11 15.3173 109.052 15.3907 108.993 15.464C108.861 15.6107 108.766 15.7793 108.707 15.97C108.648 16.19 108.516 16.366 108.311 16.498C108.179 16.6007 108.076 16.7107 108.003 16.828C107.93 16.96 107.805 17.0627 107.629 17.136C107.512 17.1947 107.402 17.1873 107.299 17.114L107.123 16.916C107.064 16.8427 107.006 16.762 106.947 16.674C106.888 16.586 106.822 16.5127 106.749 16.454C106.734 16.4247 106.712 16.3953 106.683 16.366C106.668 16.3367 106.654 16.3 106.639 16.256C106.61 16.1827 106.58 16.1167 106.551 16.058C106.522 15.9847 106.492 15.9113 106.463 15.838C106.448 15.8087 106.441 15.7647 106.441 15.706C106.426 15.6473 106.419 15.596 106.419 15.552C106.419 15.4933 106.419 15.4347 106.419 15.376C106.434 15.332 106.441 15.288 106.441 15.244C106.456 15.2 106.47 15.156 106.485 15.112C106.558 14.848 106.698 14.6427 106.903 14.496C107.255 14.188 107.629 13.88 108.025 13.572C108.069 13.5427 108.113 13.506 108.157 13.462C108.216 13.418 108.274 13.3813 108.333 13.352C108.494 13.2347 108.641 13.1247 108.773 13.022C108.92 12.9047 109.066 12.7947 109.213 12.692C109.345 12.5893 109.47 12.494 109.587 12.406C109.719 12.3033 109.858 12.2227 110.005 12.164C110.166 12.076 110.328 12.0027 110.489 11.944C110.65 11.8707 110.826 11.8267 111.017 11.812C111.046 11.7973 111.083 11.79 111.127 11.79C111.171 11.79 111.208 11.79 111.237 11.79C111.398 11.8047 111.56 11.8267 111.721 11.856C111.882 11.8853 112.036 11.9367 112.183 12.01C112.418 12.098 112.63 12.208 112.821 12.34C112.88 12.3693 112.916 12.3987 112.931 12.428C113.063 12.56 113.188 12.6993 113.305 12.846C113.437 12.9927 113.532 13.1613 113.591 13.352C113.62 13.4547 113.657 13.5573 113.701 13.66C113.745 13.7627 113.774 13.8727 113.789 13.99C113.804 14.0487 113.811 14.1073 113.811 14.166C113.826 14.21 113.833 14.2687 113.833 14.342C113.848 14.782 113.782 15.2073 113.635 15.618C113.62 15.706 113.598 15.794 113.569 15.882C113.54 15.97 113.51 16.0653 113.481 16.168C113.452 16.2707 113.415 16.3807 113.371 16.498C113.342 16.6007 113.305 16.7107 113.261 16.828C113.202 16.9893 113.144 17.1507 113.085 17.312C113.026 17.4587 112.968 17.6127 112.909 17.774C112.85 17.9207 112.799 18.0673 112.755 18.214C112.711 18.3607 112.667 18.5073 112.623 18.654C112.564 18.8153 112.498 18.984 112.425 19.16C112.352 19.3213 112.278 19.4827 112.205 19.644C112.014 19.952 111.78 20.26 111.501 20.568C111.442 20.612 111.384 20.6633 111.325 20.722C111.281 20.766 111.23 20.8173 111.171 20.876V20.942C111.2 20.942 111.215 20.9493 111.215 20.964H111.259C111.332 20.9493 111.413 20.942 111.501 20.942C111.589 20.9273 111.677 20.9127 111.765 20.898L112.711 20.766H112.777C112.938 20.7367 113.1 20.722 113.261 20.722C113.422 20.7073 113.576 20.6927 113.723 20.678H113.833C114.009 20.6487 114.178 20.634 114.339 20.634C114.515 20.634 114.691 20.634 114.867 20.634C114.955 20.634 115.043 20.6413 115.131 20.656C115.234 20.656 115.329 20.6633 115.417 20.678C115.49 20.678 115.564 20.678 115.637 20.678C115.725 20.6633 115.806 20.6487 115.879 20.634C115.967 20.6047 116.033 20.59 116.077 20.59C116.444 20.5313 116.774 20.634 117.067 20.898C117.228 21.0593 117.338 21.2427 117.397 21.448L117.419 21.602C117.478 21.8513 117.426 22.0933 117.265 22.328C117.206 22.416 117.155 22.4747 117.111 22.504C117.096 22.5333 117.06 22.5627 117.001 22.592C116.942 22.6213 116.876 22.6507 116.803 22.68C116.744 22.7093 116.678 22.7313 116.605 22.746C116.59 22.7607 116.568 22.768 116.539 22.768C116.524 22.768 116.502 22.7753 116.473 22.79C116.341 22.834 116.209 22.8487 116.077 22.834C115.96 22.8193 115.842 22.79 115.725 22.746C115.534 22.658 115.314 22.614 115.065 22.614C115.006 22.614 114.948 22.614 114.889 22.614C114.83 22.614 114.764 22.6067 114.691 22.592L114.537 22.57H113.855C113.782 22.57 113.723 22.5773 113.679 22.592C113.591 22.6067 113.496 22.614 113.393 22.614C113.305 22.614 113.217 22.6067 113.129 22.592C113.085 22.5773 113.041 22.5773 112.997 22.592C112.968 22.592 112.931 22.5993 112.887 22.614C112.858 22.614 112.821 22.6213 112.777 22.636C112.748 22.636 112.711 22.6433 112.667 22.658C112.52 22.7167 112.432 22.746 112.403 22.746C112.374 22.7313 112.278 22.7313 112.117 22.746H111.875C111.802 22.7607 111.728 22.7753 111.655 22.79C111.596 22.79 111.53 22.8047 111.457 22.834C111.398 22.8487 111.347 22.856 111.303 22.856C111.259 22.856 111.208 22.8487 111.149 22.834C111.017 22.8193 110.87 22.8487 110.709 22.922C110.665 22.9367 110.621 22.9587 110.577 22.988C110.548 23.0173 110.511 23.0467 110.467 23.076C110.452 23.0907 110.445 23.0907 110.445 23.076C110.445 23.0467 110.43 23.0247 110.401 23.01C110.357 22.9807 110.313 22.9807 110.269 23.01C110.24 23.0247 110.21 23.054 110.181 23.098C110.166 23.1273 110.137 23.142 110.093 23.142H109.851C109.792 23.142 109.726 23.1787 109.653 23.252C109.58 23.3107 109.492 23.34 109.389 23.34ZM119.972 24.836C119.928 24.8067 119.892 24.77 119.862 24.726C119.745 24.5647 119.672 24.3593 119.642 24.11C119.628 24.066 119.62 24.0073 119.62 23.934C119.62 23.7433 119.562 23.5527 119.444 23.362C119.415 23.3327 119.386 23.3033 119.356 23.274C119.327 23.23 119.298 23.186 119.268 23.142C119.166 23.0247 119.092 22.8707 119.048 22.68C119.034 22.636 119.019 22.592 119.004 22.548C119.004 22.504 119.004 22.4527 119.004 22.394C118.99 22.2767 118.99 22.1667 119.004 22.064C119.004 22.0347 119.004 22.0127 119.004 21.998C119.019 21.9687 119.026 21.9393 119.026 21.91C119.085 21.6313 119.217 21.382 119.422 21.162C119.437 21.1327 119.474 21.0887 119.532 21.03C119.635 20.9567 119.723 20.876 119.796 20.788C119.87 20.7 119.95 20.612 120.038 20.524C120.244 20.304 120.486 20.0987 120.764 19.908L121.094 19.688C121.358 19.4533 121.615 19.2773 121.864 19.16C121.967 19.1307 122.055 19.0867 122.128 19.028C122.202 18.9693 122.275 18.9107 122.348 18.852C122.422 18.7933 122.451 18.7273 122.436 18.654C122.422 18.5953 122.407 18.5367 122.392 18.478C122.378 18.4193 122.363 18.3607 122.348 18.302C122.319 18.1113 122.29 17.9207 122.26 17.73C122.246 17.5247 122.238 17.3267 122.238 17.136V16.52C122.238 16.4173 122.238 16.3147 122.238 16.212C122.253 16.1093 122.268 16.0067 122.282 15.904L122.348 15.2C122.363 15.1413 122.37 15.09 122.37 15.046C122.37 14.9873 122.378 14.9287 122.392 14.87C122.422 14.7527 122.444 14.6353 122.458 14.518C122.488 14.386 122.517 14.2613 122.546 14.144C122.576 13.9973 122.612 13.858 122.656 13.726C122.7 13.594 122.752 13.462 122.81 13.33C122.869 13.2127 122.928 13.0953 122.986 12.978C123.06 12.8607 123.126 12.7507 123.184 12.648C123.258 12.5307 123.338 12.4133 123.426 12.296C123.514 12.1787 123.602 12.0687 123.69 11.966C123.837 11.8193 123.984 11.6947 124.13 11.592C124.394 11.4013 124.688 11.24 125.01 11.108C125.333 10.9613 125.707 10.866 126.132 10.822L126.858 10.69C126.932 10.69 126.99 10.668 127.034 10.624C127.122 10.5507 127.21 10.4847 127.298 10.426C127.386 10.3527 127.474 10.2793 127.562 10.206C127.592 10.1913 127.606 10.1767 127.606 10.162C127.621 10.1473 127.636 10.1327 127.65 10.118C127.768 9.97133 127.9 9.89067 128.046 9.876C128.134 9.86133 128.215 9.84667 128.288 9.832C128.376 9.81733 128.464 9.80267 128.552 9.788C128.846 9.7 129.102 9.788 129.322 10.052C129.396 10.14 129.44 10.2353 129.454 10.338C129.454 10.3967 129.454 10.4553 129.454 10.514C129.469 10.558 129.484 10.6093 129.498 10.668C129.498 10.844 129.572 11.0053 129.718 11.152C129.792 11.24 129.858 11.328 129.916 11.416C129.99 11.504 130.056 11.592 130.114 11.68C130.144 11.7387 130.173 11.7973 130.202 11.856C130.246 11.9 130.283 11.9587 130.312 12.032C130.356 12.1347 130.4 12.2373 130.444 12.34C130.488 12.4427 130.54 12.5453 130.598 12.648C130.628 12.7067 130.657 12.7507 130.686 12.78C130.686 12.7947 130.701 12.802 130.73 12.802C130.745 12.802 130.752 12.802 130.752 12.802C130.752 12.7873 130.76 12.78 130.774 12.78L132.204 11.592C132.248 11.548 132.292 11.5113 132.336 11.482C132.395 11.438 132.454 11.394 132.512 11.35C132.776 11.1593 133.077 11.0273 133.414 10.954C133.649 10.8953 133.884 10.91 134.118 10.998C134.236 11.0567 134.338 11.1227 134.426 11.196C134.529 11.2693 134.602 11.372 134.646 11.504C134.705 11.636 134.756 11.7827 134.8 11.944C134.815 12.0467 134.815 12.1493 134.8 12.252L134.668 12.604C134.654 12.6627 134.624 12.714 134.58 12.758C134.551 12.802 134.522 12.846 134.492 12.89C134.434 12.9487 134.375 13.0073 134.316 13.066C134.258 13.11 134.192 13.1467 134.118 13.176C134.089 13.1907 134.06 13.2053 134.03 13.22C134.001 13.2347 133.972 13.2493 133.942 13.264C133.898 13.2787 133.854 13.3007 133.81 13.33C133.766 13.3593 133.73 13.3887 133.7 13.418C133.612 13.4913 133.532 13.5353 133.458 13.55C133.356 13.5647 133.253 13.594 133.15 13.638C133.062 13.682 132.982 13.7333 132.908 13.792C132.806 13.8507 132.703 13.9093 132.6 13.968C132.512 14.0267 132.417 14.0853 132.314 14.144C132.212 14.2027 132.109 14.2833 132.006 14.386L131.5 14.826L131.412 14.914C131.354 14.9727 131.332 15.046 131.346 15.134L131.412 15.64C131.442 15.8307 131.471 16.014 131.5 16.19C131.53 16.366 131.552 16.5493 131.566 16.74C131.581 16.8427 131.588 16.9453 131.588 17.048C131.603 17.136 131.61 17.2313 131.61 17.334C131.625 17.4367 131.64 17.5393 131.654 17.642C131.669 17.73 131.684 17.8253 131.698 17.928C131.728 18.0893 131.742 18.258 131.742 18.434C131.742 18.5953 131.735 18.7567 131.72 18.918C131.706 19.006 131.691 19.094 131.676 19.182C131.662 19.27 131.64 19.358 131.61 19.446C131.596 19.534 131.574 19.622 131.544 19.71C131.53 19.7833 131.522 19.864 131.522 19.952C131.508 20.1427 131.464 20.3407 131.39 20.546C131.361 20.6487 131.324 20.766 131.28 20.898C131.251 21.0153 131.214 21.1327 131.17 21.25C131.126 21.3967 131.068 21.5433 130.994 21.69C130.921 21.8367 130.848 21.9833 130.774 22.13C130.745 22.1887 130.708 22.24 130.664 22.284C130.635 22.328 130.606 22.372 130.576 22.416C130.518 22.4747 130.459 22.5333 130.4 22.592C130.356 22.6507 130.312 22.7167 130.268 22.79C130.21 22.8927 130.122 22.9807 130.004 23.054C129.887 23.1273 129.777 23.1567 129.674 23.142C129.66 23.142 129.645 23.142 129.63 23.142C129.63 23.1273 129.623 23.12 129.608 23.12C129.594 23.1347 129.572 23.142 129.542 23.142C129.528 23.142 129.513 23.1493 129.498 23.164L129.146 23.428C128.838 23.648 128.508 23.824 128.156 23.956C128.142 23.956 128.105 23.9707 128.046 24C127.929 24.044 127.819 24.1247 127.716 24.242C127.687 24.2713 127.643 24.33 127.584 24.418C127.496 24.5353 127.379 24.6013 127.232 24.616C127.042 24.6453 126.902 24.5793 126.814 24.418C126.8 24.3887 126.785 24.3593 126.77 24.33C126.77 24.3007 126.756 24.2713 126.726 24.242C126.682 24.0953 126.587 24.022 126.44 24.022C126.352 23.9927 126.264 23.9633 126.176 23.934C126.088 23.89 126.008 23.8533 125.934 23.824C125.758 23.736 125.582 23.6407 125.406 23.538C125.245 23.4353 125.084 23.3327 124.922 23.23C124.878 23.2007 124.834 23.1713 124.79 23.142C124.761 23.1127 124.732 23.0833 124.702 23.054L124.218 22.548L123.954 22.218C123.866 22.1007 123.778 21.976 123.69 21.844C123.617 21.712 123.544 21.5727 123.47 21.426C123.441 21.3527 123.397 21.2793 123.338 21.206C123.294 21.1327 123.258 21.0593 123.228 20.986C123.228 20.9713 123.214 20.964 123.184 20.964C123.17 20.9493 123.155 20.9493 123.14 20.964L123.052 21.052C123.023 21.0813 122.986 21.118 122.942 21.162C122.913 21.1913 122.876 21.2207 122.832 21.25C122.759 21.3087 122.686 21.3747 122.612 21.448C122.554 21.5213 122.495 21.5947 122.436 21.668C122.407 21.7267 122.37 21.7853 122.326 21.844C122.282 21.888 122.231 21.9393 122.172 21.998C122.026 22.1447 121.879 22.2987 121.732 22.46C121.6 22.6213 121.468 22.7827 121.336 22.944C121.248 23.0467 121.138 23.1347 121.006 23.208C120.772 23.3253 120.632 23.538 120.588 23.846C120.574 23.9193 120.559 23.9927 120.544 24.066C120.544 24.154 120.544 24.242 120.544 24.33C120.544 24.3593 120.537 24.396 120.522 24.44C120.522 24.484 120.522 24.528 120.522 24.572C120.508 24.66 120.464 24.726 120.39 24.77C120.273 24.8873 120.134 24.9093 119.972 24.836ZM124.394 17.378L124.548 17.29C124.666 17.202 124.776 17.1213 124.878 17.048C124.996 16.96 125.106 16.872 125.208 16.784C125.399 16.652 125.582 16.5127 125.758 16.366C125.934 16.2193 126.11 16.0727 126.286 15.926C126.448 15.7647 126.616 15.6253 126.792 15.508C126.983 15.376 127.174 15.244 127.364 15.112C127.496 15.0387 127.621 14.958 127.738 14.87C127.87 14.782 128.002 14.7013 128.134 14.628C128.164 14.5987 128.2 14.5693 128.244 14.54C128.288 14.5107 128.325 14.4813 128.354 14.452C128.398 14.408 128.413 14.3567 128.398 14.298C128.384 14.2687 128.376 14.2393 128.376 14.21C128.376 14.1807 128.369 14.1587 128.354 14.144C128.31 14.012 128.259 13.8873 128.2 13.77C128.156 13.638 128.112 13.506 128.068 13.374L128.002 13.22C127.958 13.132 127.9 13.11 127.826 13.154L127.694 13.22C127.606 13.264 127.518 13.264 127.43 13.22C127.372 13.1907 127.32 13.1613 127.276 13.132C127.188 13.044 127.13 12.978 127.1 12.934C127.042 12.8753 126.961 12.8313 126.858 12.802C126.741 12.758 126.616 12.758 126.484 12.802C126.382 12.846 126.279 12.89 126.176 12.934C126.074 12.9633 125.971 13 125.868 13.044C125.678 13.1027 125.538 13.176 125.45 13.264C125.348 13.352 125.245 13.4473 125.142 13.55C125.054 13.638 124.974 13.748 124.9 13.88C124.886 13.8947 124.864 13.9313 124.834 13.99C124.79 14.034 124.754 14.0853 124.724 14.144C124.563 14.496 124.46 14.8333 124.416 15.156L124.35 15.662C124.321 15.8087 124.299 15.97 124.284 16.146C124.27 16.3073 124.255 16.4907 124.24 16.696C124.24 16.7693 124.248 16.8647 124.262 16.982C124.277 17.0993 124.292 17.2167 124.306 17.334C124.336 17.3927 124.365 17.4073 124.394 17.378ZM127.276 21.514C127.614 21.47 127.929 21.338 128.222 21.118C128.384 20.986 128.53 20.8393 128.662 20.678C128.794 20.5167 128.897 20.3407 128.97 20.15L129.3 19.27C129.33 19.1967 129.352 19.116 129.366 19.028C129.381 18.94 129.388 18.8593 129.388 18.786C129.374 18.742 129.366 18.698 129.366 18.654C129.366 18.61 129.359 18.5733 129.344 18.544C129.33 18.4413 129.315 18.346 129.3 18.258C129.286 18.1553 129.271 18.06 129.256 17.972C129.242 17.9133 129.234 17.862 129.234 17.818C129.234 17.7593 129.227 17.7007 129.212 17.642L129.146 16.916C129.132 16.8867 129.124 16.8573 129.124 16.828C129.124 16.784 129.11 16.7473 129.08 16.718C129.051 16.6887 129.029 16.674 129.014 16.674C129 16.6887 128.978 16.696 128.948 16.696C128.934 16.696 128.919 16.7033 128.904 16.718L128.442 16.982C128.252 17.1287 128.054 17.268 127.848 17.4C127.643 17.532 127.445 17.6713 127.254 17.818C127.137 17.906 127.02 17.994 126.902 18.082C126.785 18.17 126.668 18.258 126.55 18.346L125.318 19.314C125.201 19.402 125.106 19.4827 125.032 19.556C124.988 19.6 124.974 19.6513 124.988 19.71L125.032 19.776C125.106 19.908 125.179 20.0473 125.252 20.194C125.326 20.326 125.392 20.458 125.45 20.59C125.538 20.7367 125.656 20.8613 125.802 20.964C125.92 21.0667 126.059 21.1693 126.22 21.272C126.528 21.4773 126.88 21.558 127.276 21.514ZM139.338 23.34C139.324 23.34 139.309 23.34 139.294 23.34C139.28 23.3253 139.258 23.318 139.228 23.318L138.986 23.208L138.942 23.252C138.898 23.3107 138.862 23.3327 138.832 23.318C138.788 23.2887 138.737 23.274 138.678 23.274C138.62 23.2593 138.561 23.252 138.502 23.252C138.356 23.2667 138.209 23.2593 138.062 23.23C137.93 23.2007 137.791 23.1567 137.644 23.098L137.512 23.032C137.351 22.944 137.219 22.8047 137.116 22.614C137.087 22.5553 137.058 22.504 137.028 22.46C137.014 22.4013 136.992 22.3427 136.962 22.284C136.948 22.24 136.948 22.196 136.962 22.152C137.006 21.8587 137.131 21.5947 137.336 21.36C137.424 21.272 137.512 21.184 137.6 21.096C137.688 20.9933 137.784 20.9053 137.886 20.832C137.989 20.7587 138.092 20.6853 138.194 20.612C138.312 20.524 138.422 20.4433 138.524 20.37C138.73 20.2233 138.935 20.084 139.14 19.952C139.346 19.8053 139.544 19.6587 139.734 19.512C140.086 19.248 140.343 18.9107 140.504 18.5C140.607 18.2507 140.702 18.0087 140.79 17.774C140.878 17.5393 140.966 17.3047 141.054 17.07C141.128 16.8647 141.194 16.6667 141.252 16.476C141.326 16.2707 141.399 16.0727 141.472 15.882C141.531 15.7207 141.575 15.5593 141.604 15.398C141.648 15.222 141.678 15.0533 141.692 14.892C141.722 14.6427 141.692 14.408 141.604 14.188C141.575 14.1 141.516 14.0413 141.428 14.012C141.37 13.9827 141.311 13.9607 141.252 13.946C141.194 13.9313 141.135 13.9167 141.076 13.902C140.988 13.902 140.922 13.9093 140.878 13.924C140.864 13.9387 140.842 13.946 140.812 13.946C140.798 13.946 140.783 13.9533 140.768 13.968C140.446 14.1147 140.145 14.3053 139.866 14.54C139.822 14.584 139.778 14.628 139.734 14.672C139.69 14.7013 139.646 14.7307 139.602 14.76C139.5 14.848 139.404 14.9433 139.316 15.046C139.258 15.1047 139.192 15.1707 139.118 15.244C139.06 15.3173 139.001 15.3907 138.942 15.464C138.81 15.6107 138.715 15.7793 138.656 15.97C138.598 16.19 138.466 16.366 138.26 16.498C138.128 16.6007 138.026 16.7107 137.952 16.828C137.879 16.96 137.754 17.0627 137.578 17.136C137.461 17.1947 137.351 17.1873 137.248 17.114L137.072 16.916C137.014 16.8427 136.955 16.762 136.896 16.674C136.838 16.586 136.772 16.5127 136.698 16.454C136.684 16.4247 136.662 16.3953 136.632 16.366C136.618 16.3367 136.603 16.3 136.588 16.256C136.559 16.1827 136.53 16.1167 136.5 16.058C136.471 15.9847 136.442 15.9113 136.412 15.838C136.398 15.8087 136.39 15.7647 136.39 15.706C136.376 15.6473 136.368 15.596 136.368 15.552C136.368 15.4933 136.368 15.4347 136.368 15.376C136.383 15.332 136.39 15.288 136.39 15.244C136.405 15.2 136.42 15.156 136.434 15.112C136.508 14.848 136.647 14.6427 136.852 14.496C137.204 14.188 137.578 13.88 137.974 13.572C138.018 13.5427 138.062 13.506 138.106 13.462C138.165 13.418 138.224 13.3813 138.282 13.352C138.444 13.2347 138.59 13.1247 138.722 13.022C138.869 12.9047 139.016 12.7947 139.162 12.692C139.294 12.5893 139.419 12.494 139.536 12.406C139.668 12.3033 139.808 12.2227 139.954 12.164C140.116 12.076 140.277 12.0027 140.438 11.944C140.6 11.8707 140.776 11.8267 140.966 11.812C140.996 11.7973 141.032 11.79 141.076 11.79C141.12 11.79 141.157 11.79 141.186 11.79C141.348 11.8047 141.509 11.8267 141.67 11.856C141.832 11.8853 141.986 11.9367 142.132 12.01C142.367 12.098 142.58 12.208 142.77 12.34C142.829 12.3693 142.866 12.3987 142.88 12.428C143.012 12.56 143.137 12.6993 143.254 12.846C143.386 12.9927 143.482 13.1613 143.54 13.352C143.57 13.4547 143.606 13.5573 143.65 13.66C143.694 13.7627 143.724 13.8727 143.738 13.99C143.753 14.0487 143.76 14.1073 143.76 14.166C143.775 14.21 143.782 14.2687 143.782 14.342C143.797 14.782 143.731 15.2073 143.584 15.618C143.57 15.706 143.548 15.794 143.518 15.882C143.489 15.97 143.46 16.0653 143.43 16.168C143.401 16.2707 143.364 16.3807 143.32 16.498C143.291 16.6007 143.254 16.7107 143.21 16.828C143.152 16.9893 143.093 17.1507 143.034 17.312C142.976 17.4587 142.917 17.6127 142.858 17.774C142.8 17.9207 142.748 18.0673 142.704 18.214C142.66 18.3607 142.616 18.5073 142.572 18.654C142.514 18.8153 142.448 18.984 142.374 19.16C142.301 19.3213 142.228 19.4827 142.154 19.644C141.964 19.952 141.729 20.26 141.45 20.568C141.392 20.612 141.333 20.6633 141.274 20.722C141.23 20.766 141.179 20.8173 141.12 20.876V20.942C141.15 20.942 141.164 20.9493 141.164 20.964H141.208C141.282 20.9493 141.362 20.942 141.45 20.942C141.538 20.9273 141.626 20.9127 141.714 20.898L142.66 20.766H142.726C142.888 20.7367 143.049 20.722 143.21 20.722C143.372 20.7073 143.526 20.6927 143.672 20.678H143.782C143.958 20.6487 144.127 20.634 144.288 20.634C144.464 20.634 144.64 20.634 144.816 20.634C144.904 20.634 144.992 20.6413 145.08 20.656C145.183 20.656 145.278 20.6633 145.366 20.678C145.44 20.678 145.513 20.678 145.586 20.678C145.674 20.6633 145.755 20.6487 145.828 20.634C145.916 20.6047 145.982 20.59 146.026 20.59C146.393 20.5313 146.723 20.634 147.016 20.898C147.178 21.0593 147.288 21.2427 147.346 21.448L147.368 21.602C147.427 21.8513 147.376 22.0933 147.214 22.328C147.156 22.416 147.104 22.4747 147.06 22.504C147.046 22.5333 147.009 22.5627 146.95 22.592C146.892 22.6213 146.826 22.6507 146.752 22.68C146.694 22.7093 146.628 22.7313 146.554 22.746C146.54 22.7607 146.518 22.768 146.488 22.768C146.474 22.768 146.452 22.7753 146.422 22.79C146.29 22.834 146.158 22.8487 146.026 22.834C145.909 22.8193 145.792 22.79 145.674 22.746C145.484 22.658 145.264 22.614 145.014 22.614C144.956 22.614 144.897 22.614 144.838 22.614C144.78 22.614 144.714 22.6067 144.64 22.592L144.486 22.57H143.804C143.731 22.57 143.672 22.5773 143.628 22.592C143.54 22.6067 143.445 22.614 143.342 22.614C143.254 22.614 143.166 22.6067 143.078 22.592C143.034 22.5773 142.99 22.5773 142.946 22.592C142.917 22.592 142.88 22.5993 142.836 22.614C142.807 22.614 142.77 22.6213 142.726 22.636C142.697 22.636 142.66 22.6433 142.616 22.658C142.47 22.7167 142.382 22.746 142.352 22.746C142.323 22.7313 142.228 22.7313 142.066 22.746H141.824C141.751 22.7607 141.678 22.7753 141.604 22.79C141.546 22.79 141.48 22.8047 141.406 22.834C141.348 22.8487 141.296 22.856 141.252 22.856C141.208 22.856 141.157 22.8487 141.098 22.834C140.966 22.8193 140.82 22.8487 140.658 22.922C140.614 22.9367 140.57 22.9587 140.526 22.988C140.497 23.0173 140.46 23.0467 140.416 23.076C140.402 23.0907 140.394 23.0907 140.394 23.076C140.394 23.0467 140.38 23.0247 140.35 23.01C140.306 22.9807 140.262 22.9807 140.218 23.01C140.189 23.0247 140.16 23.054 140.13 23.098C140.116 23.1273 140.086 23.142 140.042 23.142H139.8C139.742 23.142 139.676 23.1787 139.602 23.252C139.529 23.3107 139.441 23.34 139.338 23.34ZM153.164 24.22C153.017 24.176 152.878 24.154 152.746 24.154C152.57 24.154 152.423 24.088 152.306 23.956C152.291 23.9267 152.269 23.9047 152.24 23.89C152.211 23.8753 152.181 23.8607 152.152 23.846C152.079 23.8167 152.013 23.78 151.954 23.736C151.895 23.6773 151.837 23.6187 151.778 23.56L151.47 23.186C151.455 23.1567 151.433 23.12 151.404 23.076C151.389 23.032 151.367 22.9953 151.338 22.966C151.294 22.922 151.272 22.878 151.272 22.834C151.272 22.7753 151.279 22.724 151.294 22.68C151.323 22.592 151.389 22.5113 151.492 22.438C151.565 22.4087 151.609 22.3647 151.624 22.306C151.653 22.174 151.712 22.0713 151.8 21.998C151.888 21.9247 151.991 21.8587 152.108 21.8C152.269 21.7267 152.445 21.6753 152.636 21.646C152.68 21.646 152.724 21.646 152.768 21.646C152.812 21.646 152.856 21.6533 152.9 21.668C152.944 21.668 152.981 21.6753 153.01 21.69C153.054 21.69 153.098 21.6973 153.142 21.712C153.289 21.7707 153.443 21.778 153.604 21.734C153.765 21.69 153.927 21.646 154.088 21.602C154.264 21.5433 154.433 21.4847 154.594 21.426L155.254 21.162C155.445 21.0887 155.606 21.0153 155.738 20.942C155.855 20.898 155.958 20.854 156.046 20.81C156.149 20.7513 156.251 20.6927 156.354 20.634C156.442 20.59 156.523 20.5387 156.596 20.48C156.684 20.4067 156.757 20.3407 156.816 20.282C156.919 20.1793 156.985 20.0987 157.014 20.04C157.117 19.8933 157.146 19.7467 157.102 19.6C157.087 19.512 157.073 19.4313 157.058 19.358C157.043 19.27 157.021 19.182 156.992 19.094C156.963 19.006 156.926 18.918 156.882 18.83C156.838 18.742 156.801 18.6467 156.772 18.544C156.743 18.4853 156.721 18.4487 156.706 18.434C156.618 18.3313 156.537 18.2287 156.464 18.126C156.391 18.0233 156.317 17.9207 156.244 17.818C156.185 17.73 156.119 17.664 156.046 17.62C155.973 17.5613 155.892 17.51 155.804 17.466C155.745 17.4513 155.687 17.4367 155.628 17.422C155.584 17.3927 155.533 17.3707 155.474 17.356C155.415 17.3267 155.349 17.3047 155.276 17.29C155.203 17.2607 155.129 17.2387 155.056 17.224C154.865 17.18 154.675 17.1433 154.484 17.114C154.293 17.07 154.103 17.0333 153.912 17.004C153.736 16.9747 153.56 16.9307 153.384 16.872C153.208 16.784 153.105 16.74 153.076 16.74C153.047 16.74 153.01 16.74 152.966 16.74C152.922 16.74 152.79 16.6887 152.57 16.586C152.482 16.5273 152.401 16.52 152.328 16.564C152.255 16.608 152.159 16.5933 152.042 16.52C151.998 16.476 151.998 16.432 152.042 16.388C152.086 16.344 152.093 16.2927 152.064 16.234C152.035 16.1607 152.005 16.0873 151.976 16.014C151.961 15.9407 151.939 15.8747 151.91 15.816C151.881 15.728 151.873 15.662 151.888 15.618C151.903 15.6033 151.91 15.596 151.91 15.596C151.91 15.5813 151.91 15.574 151.91 15.574C151.925 15.53 151.932 15.4933 151.932 15.464C151.932 15.42 151.939 15.3833 151.954 15.354C151.983 15.2807 152.013 15.222 152.042 15.178C152.086 15.1193 152.123 15.0607 152.152 15.002C152.299 14.782 152.467 14.5693 152.658 14.364C152.849 14.1147 153.039 13.8727 153.23 13.638C153.421 13.3887 153.611 13.1467 153.802 12.912C153.905 12.7947 153.985 12.67 154.044 12.538C154.103 12.4647 154.154 12.3913 154.198 12.318C154.257 12.23 154.308 12.1493 154.352 12.076C154.381 12.032 154.403 11.988 154.418 11.944C154.433 11.8853 154.447 11.834 154.462 11.79C154.491 11.702 154.499 11.636 154.484 11.592C154.484 11.504 154.477 11.438 154.462 11.394C154.462 11.3793 154.447 11.3573 154.418 11.328L154.396 11.306H154.374C154.242 11.2767 154.103 11.2547 153.956 11.24C153.824 11.2253 153.692 11.218 153.56 11.218H153.34C153.281 11.2033 153.23 11.2033 153.186 11.218C153.142 11.218 153.098 11.2253 153.054 11.24C152.907 11.2547 152.761 11.2767 152.614 11.306C152.467 11.3353 152.313 11.3647 152.152 11.394H152.13C151.91 11.4527 151.69 11.5113 151.47 11.57C151.25 11.6287 151.037 11.6947 150.832 11.768C150.729 11.812 150.634 11.8487 150.546 11.878C150.458 11.9073 150.363 11.9367 150.26 11.966C150.201 11.9807 150.143 12.0027 150.084 12.032C150.025 12.0613 149.974 12.0907 149.93 12.12C149.798 12.208 149.637 12.2667 149.446 12.296C149.417 12.296 149.395 12.3033 149.38 12.318C149.263 12.3473 149.145 12.362 149.028 12.362C148.925 12.362 148.815 12.3547 148.698 12.34C148.551 12.3107 148.427 12.2667 148.324 12.208C148.295 12.1933 148.258 12.164 148.214 12.12C148.199 12.0907 148.185 12.0687 148.17 12.054C148.155 12.0393 148.133 12.0247 148.104 12.01C148.045 11.966 148.016 11.922 148.016 11.878C148.016 11.8193 147.994 11.768 147.95 11.724C147.906 11.68 147.884 11.6213 147.884 11.548C147.855 11.3427 147.891 11.1447 147.994 10.954C148.023 10.8807 148.06 10.8073 148.104 10.734C148.163 10.646 148.229 10.58 148.302 10.536C148.478 10.3747 148.713 10.272 149.006 10.228L149.534 10.162C149.651 10.162 149.754 10.1547 149.842 10.14C149.945 10.1253 150.047 10.1107 150.15 10.096C150.326 10.0667 150.502 10.0373 150.678 10.008C150.854 9.97867 151.023 9.94933 151.184 9.92C151.375 9.89067 151.558 9.86133 151.734 9.832C151.91 9.788 152.093 9.75867 152.284 9.744C152.416 9.71467 152.548 9.70733 152.68 9.722C152.812 9.722 152.944 9.71467 153.076 9.7C153.105 9.7 153.127 9.70733 153.142 9.722C153.157 9.722 153.171 9.722 153.186 9.722C153.333 9.722 153.443 9.68533 153.516 9.612C153.589 9.53867 153.67 9.524 153.758 9.568C153.846 9.58267 153.934 9.59733 154.022 9.612C154.11 9.62667 154.198 9.64133 154.286 9.656C154.403 9.67067 154.506 9.69267 154.594 9.722C154.697 9.75133 154.799 9.78067 154.902 9.81L155.32 9.942C155.379 9.95667 155.43 9.986 155.474 10.03C155.518 10.0593 155.569 10.0887 155.628 10.118C155.76 10.2207 155.863 10.316 155.936 10.404C156.009 10.4773 156.09 10.5947 156.178 10.756C156.339 10.9613 156.391 11.1813 156.332 11.416C156.303 11.5773 156.266 11.7387 156.222 11.9C156.193 12.0467 156.141 12.1933 156.068 12.34L155.738 13.044C155.709 13.1027 155.672 13.176 155.628 13.264C155.599 13.3373 155.569 13.4107 155.54 13.484L155.276 13.858C155.188 14.0047 155.1 14.1587 155.012 14.32C154.924 14.4667 154.821 14.6133 154.704 14.76L154.682 14.782C154.653 14.8553 154.667 14.9067 154.726 14.936C154.785 14.9653 154.836 14.98 154.88 14.98C155.071 14.9947 155.254 15.0313 155.43 15.09C155.606 15.1487 155.782 15.2 155.958 15.244C156.193 15.288 156.405 15.3613 156.596 15.464C156.801 15.552 156.999 15.662 157.19 15.794C157.542 16.058 157.85 16.366 158.114 16.718C158.231 16.8647 158.341 17.026 158.444 17.202C158.547 17.378 158.642 17.554 158.73 17.73L159.016 18.28C159.119 18.4853 159.199 18.7053 159.258 18.94C159.317 19.16 159.346 19.3873 159.346 19.622C159.361 19.754 159.353 19.886 159.324 20.018C159.295 20.1353 159.265 20.2527 159.236 20.37C159.207 20.458 159.192 20.524 159.192 20.568C159.148 20.7147 159.089 20.854 159.016 20.986C158.957 21.118 158.891 21.25 158.818 21.382C158.715 21.4847 158.627 21.5947 158.554 21.712C158.481 21.8293 158.385 21.9247 158.268 21.998C158.239 22.0127 158.209 22.0347 158.18 22.064C158.121 22.1227 158.055 22.1813 157.982 22.24C157.923 22.284 157.857 22.3353 157.784 22.394C157.725 22.438 157.659 22.482 157.586 22.526C157.527 22.57 157.461 22.6213 157.388 22.68C157.168 22.8413 156.941 22.9147 156.706 22.9C156.486 22.9 156.295 22.9293 156.134 22.988L155.54 23.186C155.481 23.2007 155.415 23.2227 155.342 23.252C155.283 23.2667 155.225 23.2887 155.166 23.318C155.019 23.3767 154.865 23.428 154.704 23.472C154.557 23.516 154.403 23.56 154.242 23.604C154.081 23.648 153.949 23.7213 153.846 23.824L153.604 24.066C153.545 24.1247 153.494 24.1687 153.45 24.198C153.347 24.2567 153.252 24.264 153.164 24.22Z" fill="black"/>
<path d="M26.256 24.12C26.192 24.12 26.136 24.12 26.088 24.12C26.04 24.12 25.984 24.112 25.92 24.096C25.888 24.096 25.848 24.088 25.8 24.072C25.768 24.072 25.736 24.072 25.704 24.072C25.448 24.056 25.208 24.008 24.984 23.928C24.76 23.848 24.536 23.752 24.312 23.64C24.296 23.64 24.28 23.64 24.264 23.64C24.264 23.624 24.256 23.616 24.24 23.616C24.08 23.536 23.936 23.44 23.808 23.328C23.696 23.216 23.584 23.104 23.472 22.992C23.344 22.832 23.256 22.68 23.208 22.536C23.144 22.408 23.064 22.272 22.968 22.128C22.808 21.952 22.688 21.728 22.608 21.456C22.56 21.328 22.512 21.2 22.464 21.072C22.416 20.944 22.376 20.808 22.344 20.664C22.328 20.616 22.312 20.568 22.296 20.52C22.28 20.456 22.256 20.392 22.224 20.328C22.192 20.248 22.16 20.16 22.128 20.064C22.112 19.968 22.088 19.872 22.056 19.776C22.04 19.712 22.016 19.608 21.984 19.464C21.968 19.304 21.96 19.208 21.96 19.176V18.144C21.976 18.048 21.992 17.96 22.008 17.88C22.024 17.784 22.04 17.688 22.056 17.592L22.08 17.568C22.08 17.584 22.08 17.592 22.08 17.592C22.096 17.592 22.104 17.6 22.104 17.616C22.12 17.616 22.128 17.624 22.128 17.64C22.144 17.656 22.152 17.648 22.152 17.616C22.152 17.52 22.144 17.44 22.128 17.376C22.128 17.344 22.12 17.312 22.104 17.28C22.104 17.248 22.136 17.224 22.2 17.208C22.216 17.208 22.224 17.184 22.224 17.136L22.44 16.08C22.456 16 22.472 15.928 22.488 15.864C22.504 15.784 22.52 15.712 22.536 15.648L22.584 15.384C22.568 15.416 22.576 15.36 22.608 15.216C22.656 15.072 22.688 14.976 22.704 14.928C22.736 14.848 22.776 14.768 22.824 14.688C22.888 14.608 22.928 14.552 22.944 14.52C23.072 14.376 23.192 14.176 23.304 13.92L23.76 13.2C23.824 13.136 23.856 13.056 23.856 12.96C23.84 12.88 23.864 12.792 23.928 12.696C23.976 12.6 24.024 12.504 24.072 12.408C24.136 12.312 24.2 12.216 24.264 12.12C24.344 11.992 24.432 11.864 24.528 11.736C24.64 11.592 24.744 11.464 24.84 11.352C24.872 11.304 24.904 11.256 24.936 11.208C24.984 11.16 25.04 11.128 25.104 11.112C25.136 11.112 25.16 11.104 25.176 11.088C25.192 11.072 25.208 11.056 25.224 11.04C25.544 10.704 25.904 10.392 26.304 10.104C26.336 10.072 26.368 10.04 26.4 10.008C26.432 9.976 26.464 9.952 26.496 9.936C26.576 9.888 26.664 9.864 26.76 9.864C26.84 9.864 26.904 9.856 26.952 9.84C27 9.84 27.072 9.824 27.168 9.792C27.28 9.76 27.368 9.776 27.432 9.84C27.528 9.936 27.688 9.968 27.912 9.936C28.056 9.92 28.176 10 28.272 10.176C28.304 10.224 28.328 10.272 28.344 10.32C28.376 10.368 28.416 10.408 28.464 10.44C28.512 10.536 28.576 10.624 28.656 10.704C28.752 10.784 28.832 10.864 28.896 10.944L29.208 11.376C29.24 11.424 29.272 11.48 29.304 11.544C29.352 11.592 29.392 11.64 29.424 11.688C29.504 11.768 29.552 11.848 29.568 11.928C29.6 12.008 29.624 12.064 29.64 12.096C29.672 12.112 29.696 12.184 29.712 12.312C29.728 12.376 29.728 12.416 29.712 12.432C29.712 12.432 29.744 12.432 29.808 12.432C29.872 12.432 29.904 12.472 29.904 12.552C29.904 12.728 29.872 12.88 29.808 13.008C29.776 13.056 29.744 13.08 29.712 13.08C29.696 13.08 29.672 13.096 29.64 13.128C29.592 13.208 29.536 13.288 29.472 13.368C29.424 13.448 29.368 13.536 29.304 13.632C29.256 13.712 29.192 13.784 29.112 13.848C29.048 13.912 28.976 13.976 28.896 14.04C28.768 14.168 28.616 14.216 28.44 14.184C28.296 14.184 28.192 14.176 28.128 14.16C28.08 14.144 28.032 14.128 27.984 14.112C27.952 14.08 27.912 14.056 27.864 14.04C27.832 14.04 27.8 14.024 27.768 13.992C27.752 13.96 27.736 13.936 27.72 13.92C27.704 13.888 27.68 13.864 27.648 13.848C27.568 13.8 27.504 13.744 27.456 13.68C27.408 13.6 27.368 13.528 27.336 13.464C27.32 13.416 27.312 13.368 27.312 13.32C27.312 13.272 27.312 13.232 27.312 13.2C27.296 13.104 27.28 13.008 27.264 12.912C27.264 12.816 27.248 12.72 27.216 12.624C27.216 12.592 27.176 12.576 27.096 12.576C27 12.64 26.904 12.704 26.808 12.768C26.712 12.832 26.624 12.912 26.544 13.008L25.8 13.896C25.752 13.944 25.704 14 25.656 14.064C25.624 14.112 25.592 14.16 25.56 14.208C25.496 14.288 25.432 14.376 25.368 14.472C25.32 14.552 25.256 14.632 25.176 14.712C25.144 14.744 25.12 14.776 25.104 14.808C25.056 14.92 25 15.024 24.936 15.12C24.888 15.216 24.84 15.328 24.792 15.456C24.712 15.616 24.64 15.792 24.576 15.984C24.528 16.16 24.488 16.344 24.456 16.536C24.44 16.776 24.392 17.016 24.312 17.256C24.296 17.336 24.28 17.424 24.264 17.52C24.248 17.616 24.232 17.712 24.216 17.808C24.2 17.952 24.176 18.096 24.144 18.24C24.112 18.384 24.104 18.536 24.12 18.696C24.152 19.016 24.2 19.32 24.264 19.608C24.312 19.768 24.352 19.928 24.384 20.088C24.432 20.232 24.48 20.384 24.528 20.544C24.544 20.592 24.56 20.64 24.576 20.688C24.592 20.736 24.608 20.784 24.624 20.832C24.72 21.056 24.896 21.232 25.152 21.36C25.248 21.408 25.352 21.432 25.464 21.432C25.56 21.432 25.656 21.44 25.752 21.456C25.848 21.456 25.944 21.448 26.04 21.432C26.488 21.384 26.904 21.312 27.288 21.216C27.464 21.184 27.632 21.136 27.792 21.072C27.952 21.008 28.112 20.944 28.272 20.88C28.4 20.832 28.52 20.76 28.632 20.664C28.76 20.568 28.888 20.472 29.016 20.376C29.16 20.264 29.296 20.152 29.424 20.04C29.552 19.928 29.68 19.816 29.808 19.704C29.936 19.592 30.056 19.472 30.168 19.344C30.216 19.296 30.288 19.24 30.384 19.176C30.432 19.144 30.48 19.112 30.528 19.08C30.576 19.048 30.616 19.016 30.648 18.984C30.728 18.936 30.8 18.888 30.864 18.84C30.944 18.792 31.032 18.768 31.128 18.768C31.176 18.736 31.224 18.72 31.272 18.72C31.336 18.704 31.392 18.688 31.44 18.672C31.584 18.624 31.712 18.624 31.824 18.672C31.872 18.688 31.92 18.704 31.968 18.72C32.016 18.736 32.064 18.76 32.112 18.792C32.24 18.872 32.36 19 32.472 19.176C32.552 19.368 32.592 19.536 32.592 19.68V19.824C32.592 20.032 32.512 20.216 32.352 20.376C32.176 20.6 31.992 20.776 31.8 20.904C31.688 20.968 31.576 21.056 31.464 21.168C31.304 21.296 31.136 21.432 30.96 21.576C30.8 21.72 30.632 21.856 30.456 21.984L30.36 22.08C30.312 22.112 30.264 22.152 30.216 22.2C30.168 22.248 30.112 22.288 30.048 22.32C29.936 22.432 29.808 22.536 29.664 22.632C29.52 22.712 29.376 22.792 29.232 22.872C29.088 22.936 28.952 23.032 28.824 23.16C28.776 23.208 28.728 23.256 28.68 23.304C28.632 23.352 28.576 23.392 28.512 23.424C28.304 23.536 28.064 23.648 27.792 23.76C27.776 23.776 27.752 23.792 27.72 23.808C27.688 23.824 27.656 23.84 27.624 23.856C27.528 23.904 27.424 23.944 27.312 23.976C27.216 23.992 27.12 24.008 27.024 24.024C26.896 24.04 26.768 24.048 26.64 24.048C26.512 24.064 26.384 24.088 26.256 24.12Z" fill="black"/>
<path d="M36.1494 9.76815C35.5629 9.20759 34.8667 8.76292 34.1003 8.45954C33.334 8.15615 32.5126 8 31.6831 8C30.8535 8 30.0321 8.15615 29.2658 8.45954C28.4994 8.76292 27.8032 9.20759 27.2167 9.76815L25.9997 10.9309L24.7826 9.76815C23.5981 8.6364 21.9915 8.00059 20.3163 8.00059C18.6411 8.00059 17.0346 8.6364 15.85 9.76815C14.6655 10.8999 14 12.4349 14 14.0354C14 15.6359 14.6655 17.1709 15.85 18.3027L17.0671 19.4655L25.9997 28L34.9323 19.4655L36.1494 18.3027C36.7361 17.7424 37.2015 17.0771 37.519 16.3449C37.8366 15.6128 38 14.828 38 14.0354C38 13.2429 37.8366 12.4581 37.519 11.7259C37.2015 10.9937 36.7361 10.3284 36.1494 9.76815Z" stroke="black" stroke-width="2" stroke-linecap="round" stroke-linejoin="round"/>
</svg>
