<svg width="337" height="43" viewBox="0 0 337 43" fill="none" xmlns="http://www.w3.org/2000/svg">
<path d="M52.4029 27.86C52.2855 27.8307 52.2049 27.7647 52.1609 27.662C52.1315 27.5447 52.1022 27.4347 52.0729 27.332C52.0435 27.2293 52.0289 27.1267 52.0289 27.024V26.892C52.0435 26.7453 52.0362 26.5987 52.0069 26.452C51.9775 26.32 51.9555 26.1807 51.9409 26.034C51.9409 25.9753 51.9335 25.9313 51.9189 25.902L51.6769 25.44C51.6475 25.4107 51.6035 25.352 51.5449 25.264C51.5009 25.1613 51.4495 25.0733 51.3909 25C51.3469 24.912 51.2955 24.824 51.2369 24.736C51.2075 24.6773 51.1709 24.626 51.1269 24.582C51.0829 24.538 51.0389 24.4867 50.9949 24.428C50.9655 24.384 50.9362 24.3327 50.9069 24.274C50.8775 24.2153 50.8335 24.164 50.7749 24.12L50.7089 24.01C50.6502 23.9073 50.5915 23.812 50.5329 23.724C50.4889 23.636 50.4449 23.548 50.4009 23.46L50.3349 23.328C50.2762 23.1373 50.2102 22.954 50.1369 22.778C50.0782 22.602 50.0122 22.4187 49.9389 22.228C49.8949 22.1107 49.8509 22.0007 49.8069 21.898C49.7775 21.7953 49.7335 21.6927 49.6749 21.59C49.5722 21.37 49.5062 21.1353 49.4769 20.886C49.4622 20.71 49.4769 20.5267 49.5209 20.336C49.5649 20.2187 49.6309 20.116 49.7189 20.028C49.9975 19.7933 50.3055 19.7053 50.6429 19.764L50.8849 19.808C51.0609 19.8813 51.1855 19.984 51.2589 20.116C51.3175 20.2187 51.3689 20.3287 51.4129 20.446C51.4569 20.5487 51.4862 20.666 51.5009 20.798C51.5302 20.886 51.5595 20.9813 51.5889 21.084C51.6182 21.172 51.6549 21.2673 51.6989 21.37C51.7722 21.5313 51.8529 21.6927 51.9409 21.854C52.0142 21.986 52.1022 22.096 52.2049 22.184C52.2782 22.2427 52.3589 22.3087 52.4469 22.382C52.5349 22.4553 52.6155 22.5287 52.6889 22.602L53.1509 23.064C53.1802 23.0787 53.2022 23.1007 53.2169 23.13C53.2462 23.1593 53.2682 23.1887 53.2829 23.218C53.3269 23.2473 53.3782 23.2547 53.4369 23.24C53.5835 23.196 53.7302 23.1153 53.8769 22.998C54.1115 22.8073 54.3022 22.6093 54.4489 22.404C54.5955 22.1987 54.6909 21.9567 54.7349 21.678C54.7642 21.4287 54.6909 21.2087 54.5149 21.018C54.4855 20.9593 54.4415 20.9227 54.3829 20.908C54.2802 20.8493 54.1775 20.798 54.0749 20.754C53.9869 20.6953 53.8842 20.6513 53.7669 20.622C53.6495 20.578 53.5469 20.512 53.4589 20.424C53.4002 20.3507 53.3122 20.3067 53.1949 20.292C53.0922 20.2627 52.9969 20.226 52.9089 20.182C52.8209 20.138 52.7402 20.0867 52.6669 20.028C52.5789 19.9547 52.4909 19.896 52.4029 19.852C52.3149 19.7933 52.2269 19.7347 52.1389 19.676C52.0509 19.632 51.9629 19.5807 51.8749 19.522C51.8015 19.4633 51.7282 19.4047 51.6549 19.346C51.5522 19.2727 51.4569 19.1993 51.3689 19.126C51.2809 19.038 51.1929 18.9573 51.1049 18.884C51.0462 18.8547 51.0095 18.8253 50.9949 18.796C50.9215 18.708 50.8409 18.6273 50.7529 18.554C50.6795 18.466 50.6062 18.3707 50.5329 18.268C50.4889 18.2093 50.4449 18.158 50.4009 18.114C50.3569 18.0553 50.3055 17.9967 50.2469 17.938C50.1882 17.8793 50.1295 17.8207 50.0709 17.762C50.0269 17.6887 49.9902 17.6153 49.9609 17.542L49.7629 17.212C49.6895 17.0653 49.6235 16.9187 49.5649 16.772C49.5062 16.6253 49.4402 16.4787 49.3669 16.332C49.3082 16.1707 49.2495 16.0093 49.1909 15.848C49.1469 15.6867 49.1102 15.5253 49.0809 15.364C49.0662 15.2467 49.0442 15.1367 49.0149 15.034C49.0002 14.9313 48.9855 14.8287 48.9709 14.726C48.9562 14.5647 48.9489 14.4107 48.9489 14.264C48.9489 14.1027 48.9415 13.9413 48.9269 13.78C48.9269 13.5893 48.9415 13.3987 48.9709 13.208C49.0002 13.0173 49.0369 12.8267 49.0809 12.636C49.1102 12.5187 49.1395 12.4013 49.1689 12.284C49.1982 12.1667 49.2275 12.0567 49.2569 11.954C49.2862 11.8807 49.3155 11.8147 49.3449 11.756C49.3742 11.6827 49.3962 11.6167 49.4109 11.558C49.5282 11.25 49.6969 10.942 49.9169 10.634C49.9902 10.5313 50.0635 10.436 50.1369 10.348C50.2249 10.2453 50.3129 10.15 50.4009 10.062C50.4742 9.98867 50.5475 9.908 50.6209 9.82C50.6942 9.732 50.7602 9.644 50.8189 9.556C51.0095 9.30667 51.2295 9.12333 51.4789 9.006C51.7282 8.874 52.0142 8.82267 52.3369 8.852C52.7329 8.91067 53.1069 9.06467 53.4589 9.314C53.5762 9.402 53.6935 9.49733 53.8109 9.6C53.9429 9.688 54.0675 9.78333 54.1849 9.886C54.4782 10.1207 54.7202 10.3847 54.9109 10.678C54.9989 10.81 55.0869 10.942 55.1749 11.074C55.2629 11.206 55.3435 11.338 55.4169 11.47C55.4609 11.5287 55.4975 11.5873 55.5269 11.646C55.5562 11.7047 55.5782 11.7707 55.5929 11.844C55.6222 11.976 55.6295 12.108 55.6149 12.24C55.6149 12.3573 55.6002 12.482 55.5709 12.614L55.5049 12.79C55.4609 12.8633 55.4169 12.944 55.3729 13.032C55.3289 13.12 55.2849 13.2007 55.2409 13.274C55.2115 13.3327 55.1749 13.3913 55.1309 13.45C55.1015 13.494 55.0722 13.538 55.0429 13.582C54.9255 13.7727 54.8669 13.9633 54.8669 14.154V16.288C54.8669 16.5813 54.8229 16.86 54.7349 17.124C54.7349 17.1387 54.7275 17.1533 54.7129 17.168C54.7129 17.168 54.7129 17.1827 54.7129 17.212C54.7129 17.2853 54.7349 17.344 54.7789 17.388L54.9769 17.52C55.1382 17.6227 55.2849 17.74 55.4169 17.872C55.5635 17.9893 55.7102 18.1067 55.8569 18.224C55.9449 18.2973 56.0255 18.3853 56.0989 18.488C56.1722 18.576 56.2382 18.664 56.2969 18.752C56.3555 18.8253 56.4069 18.906 56.4509 18.994C56.4949 19.0673 56.5389 19.1407 56.5829 19.214C56.6562 19.3167 56.7075 19.434 56.7369 19.566C56.7809 19.698 56.8175 19.83 56.8469 19.962V20.05C56.8322 20.1527 56.8322 20.2627 56.8469 20.38C56.8615 20.4973 56.8762 20.6147 56.8909 20.732C56.8909 20.7613 56.8909 20.798 56.8909 20.842C56.9055 20.8713 56.9055 20.908 56.8909 20.952L56.8249 21.414C56.7955 21.4873 56.8102 21.5313 56.8689 21.546C56.9129 21.546 56.9349 21.5607 56.9349 21.59C56.9789 21.6047 56.9862 21.6413 56.9569 21.7C56.9275 21.7587 56.8909 21.7733 56.8469 21.744C56.8469 21.7293 56.8395 21.722 56.8249 21.722C56.7809 21.7073 56.7515 21.7147 56.7369 21.744C56.7222 21.788 56.7075 21.832 56.6929 21.876C56.6929 21.92 56.6929 21.9713 56.6929 22.03C56.6342 22.118 56.6195 22.1913 56.6489 22.25C56.6489 22.294 56.6415 22.3233 56.6269 22.338C56.5829 22.382 56.5682 22.4407 56.5829 22.514C56.5829 22.5433 56.5609 22.5727 56.5169 22.602C56.4289 22.646 56.3629 22.7267 56.3189 22.844C56.2455 23.0347 56.1575 23.218 56.0549 23.394C55.9669 23.5553 55.8642 23.7167 55.7469 23.878C55.6295 24.0393 55.5049 24.2007 55.3729 24.362C55.2555 24.5087 55.1162 24.648 54.9549 24.78C54.8229 24.8827 54.6835 24.978 54.5369 25.066C54.3902 25.1687 54.2362 25.2567 54.0749 25.33C54.0162 25.3447 53.9575 25.374 53.8989 25.418L53.6349 25.55C53.5175 25.5647 53.4002 25.6233 53.2829 25.726L53.1509 25.814C53.1069 25.858 53.0702 25.9313 53.0409 26.034V26.628C53.0409 26.6867 53.0409 26.7453 53.0409 26.804C53.0409 26.8627 53.0335 26.9213 53.0189 26.98C53.0042 27.0093 52.9969 27.046 52.9969 27.09C52.9969 27.134 52.9895 27.1707 52.9749 27.2C52.9602 27.2587 52.9455 27.3173 52.9309 27.376C52.9162 27.4493 52.8942 27.5227 52.8649 27.596C52.7915 27.8013 52.6375 27.8893 52.4029 27.86ZM53.7449 16.816C53.8035 16.816 53.8402 16.794 53.8549 16.75C53.8695 16.6767 53.8695 16.6033 53.8549 16.53C53.8549 16.4567 53.8475 16.3907 53.8329 16.332C53.8182 16.2587 53.8109 16.1853 53.8109 16.112C53.8109 16.024 53.8035 15.9433 53.7889 15.87C53.7889 15.782 53.7815 15.694 53.7669 15.606C53.7522 15.518 53.7522 15.43 53.7669 15.342C53.7815 15.3273 53.7815 15.32 53.7669 15.32C53.7669 15.3053 53.7669 15.298 53.7669 15.298C53.7522 15.1953 53.7449 15.1 53.7449 15.012C53.7449 14.924 53.7449 14.836 53.7449 14.748C53.7449 14.4547 53.6862 14.1687 53.5689 13.89C53.4662 13.6553 53.3562 13.428 53.2389 13.208C53.1362 12.988 53.0262 12.768 52.9089 12.548C52.8649 12.46 52.8062 12.3793 52.7329 12.306C52.6742 12.218 52.6082 12.1373 52.5349 12.064C52.4762 11.976 52.3955 11.9613 52.2929 12.02C52.2049 12.0347 52.1095 12.0933 52.0069 12.196C51.9189 12.2987 51.8382 12.4087 51.7649 12.526C51.6915 12.6433 51.6255 12.768 51.5669 12.9C51.5522 12.944 51.5375 12.988 51.5229 13.032C51.5082 13.076 51.4935 13.1127 51.4789 13.142C51.4642 13.2447 51.4495 13.3547 51.4349 13.472C51.4349 13.5747 51.4349 13.6847 51.4349 13.802V14.088C51.4349 14.2933 51.4935 14.5133 51.6109 14.748C51.7135 14.968 51.8602 15.188 52.0509 15.408C52.0949 15.4667 52.1389 15.5253 52.1829 15.584C52.2269 15.628 52.2709 15.6867 52.3149 15.76C52.4469 15.936 52.5935 16.09 52.7549 16.222C52.9309 16.354 53.1142 16.4787 53.3049 16.596L53.6349 16.772C53.6642 16.7867 53.6862 16.794 53.7009 16.794C53.7155 16.794 53.7302 16.8013 53.7449 16.816ZM67.8276 26.606C67.6956 26.606 67.5783 26.5547 67.4756 26.452C67.4463 26.408 67.417 26.364 67.3876 26.32C67.3583 26.276 67.329 26.232 67.2996 26.188C67.1676 25.88 67.1016 25.5573 67.1016 25.22L67.0356 24.692C66.9916 24.4867 66.955 24.2813 66.9256 24.076C66.8963 23.8707 66.845 23.6727 66.7716 23.482L66.6396 23.108C66.6396 23.0787 66.6323 23.0493 66.6176 23.02C66.6176 22.9907 66.6103 22.9613 66.5956 22.932L66.2656 21.766C66.251 21.7367 66.2363 21.7 66.2216 21.656C66.2216 21.612 66.207 21.5753 66.1776 21.546C66.1336 21.458 66.097 21.37 66.0676 21.282C66.053 21.1793 66.031 21.0767 66.0016 20.974C65.987 20.9007 65.9723 20.8347 65.9576 20.776C65.943 20.7027 65.921 20.6293 65.8916 20.556C65.8623 20.468 65.833 20.4167 65.8036 20.402C65.7743 20.3727 65.7083 20.3727 65.6056 20.402C65.5323 20.4167 65.4516 20.4313 65.3636 20.446C65.2903 20.446 65.217 20.4607 65.1436 20.49C65.085 20.5047 65.0116 20.5193 64.9236 20.534C64.8503 20.534 64.777 20.5413 64.7036 20.556L64.3956 20.622C64.3223 20.6367 64.2416 20.6587 64.1536 20.688C64.0803 20.7027 64.007 20.71 63.9336 20.71L63.5376 20.776C63.4203 20.8053 63.2956 20.8347 63.1636 20.864C63.0316 20.8933 62.907 20.9227 62.7896 20.952C62.4376 21.04 62.0856 21.106 61.7336 21.15C61.6163 21.1793 61.5503 21.2307 61.5356 21.304C61.521 21.304 61.5136 21.3113 61.5136 21.326C61.4256 21.5607 61.323 21.7953 61.2056 22.03C61.103 22.25 60.993 22.4773 60.8756 22.712C60.8463 22.7707 60.817 22.8293 60.7876 22.888C60.773 22.932 60.751 22.9833 60.7216 23.042C60.707 23.0713 60.6923 23.108 60.6776 23.152C60.663 23.1813 60.6483 23.2107 60.6336 23.24C60.5456 23.3427 60.5016 23.4673 60.5016 23.614C60.487 23.702 60.4576 23.79 60.4136 23.878C60.3696 23.9513 60.3256 24.0247 60.2816 24.098C60.267 24.142 60.2376 24.164 60.1936 24.164C60.135 24.1787 60.0763 24.2007 60.0176 24.23C59.959 24.2593 59.893 24.2887 59.8196 24.318C59.7756 24.3327 59.7316 24.3327 59.6876 24.318C59.6583 24.3033 59.6216 24.2887 59.5776 24.274C59.5483 24.2447 59.519 24.23 59.4896 24.23C59.3283 24.2153 59.211 24.12 59.1376 23.944C59.0203 23.7093 58.9396 23.4747 58.8956 23.24C58.881 23.1813 58.881 23.13 58.8956 23.086C58.925 23.042 58.947 22.998 58.9616 22.954C59.0496 22.8953 59.101 22.8293 59.1156 22.756V22.734C59.1156 22.5433 59.1523 22.3673 59.2256 22.206C59.3136 22.03 59.387 21.8613 59.4456 21.7C59.475 21.612 59.5116 21.524 59.5556 21.436C59.5996 21.348 59.6436 21.26 59.6876 21.172C59.7463 21.0693 59.7903 20.974 59.8196 20.886C59.8636 20.7833 59.9003 20.6807 59.9296 20.578C59.9736 20.4607 59.9736 20.3507 59.9296 20.248C59.9003 20.16 59.8856 20.0793 59.8856 20.006C59.8856 19.918 59.893 19.83 59.9076 19.742C59.9076 19.5807 59.9663 19.4413 60.0836 19.324C60.1423 19.2507 60.201 19.192 60.2596 19.148C60.333 19.0893 60.399 19.0307 60.4576 18.972C60.5896 18.84 60.6923 18.664 60.7656 18.444C60.8243 18.2533 60.8683 18.0627 60.8976 17.872C60.9416 17.6667 60.9856 17.4687 61.0296 17.278C61.059 17.0873 61.0883 16.904 61.1176 16.728C61.1616 16.5373 61.2056 16.354 61.2496 16.178C61.2643 16.1047 61.279 16.0387 61.2936 15.98C61.323 15.9067 61.345 15.8407 61.3596 15.782C61.4036 15.6647 61.4476 15.5547 61.4916 15.452C61.5356 15.3347 61.565 15.2173 61.5796 15.1C61.609 15.0413 61.609 14.99 61.5796 14.946C61.565 14.8727 61.565 14.8067 61.5796 14.748C61.609 14.6893 61.631 14.6307 61.6456 14.572C61.6896 14.4693 61.719 14.3667 61.7336 14.264C61.763 14.1613 61.7996 14.0587 61.8436 13.956C61.917 13.7653 61.9756 13.6113 62.0196 13.494C62.0783 13.362 62.1296 13.2153 62.1736 13.054C62.203 12.966 62.2323 12.8853 62.2616 12.812C62.3056 12.724 62.335 12.636 62.3496 12.548C62.3936 12.416 62.4303 12.284 62.4596 12.152C62.489 12.0053 62.5036 11.866 62.5036 11.734C62.533 11.6167 62.5623 11.536 62.5916 11.492C62.665 11.3453 62.753 11.2207 62.8556 11.118C62.973 11.0153 63.083 10.9127 63.1856 10.81C63.259 10.766 63.3323 10.7367 63.4056 10.722C63.479 10.6927 63.5523 10.7 63.6256 10.744C63.6843 10.7733 63.721 10.788 63.7356 10.788C63.8676 10.7733 63.9776 10.8027 64.0656 10.876C64.1536 10.9493 64.227 11.0373 64.2856 11.14C64.315 11.1693 64.337 11.206 64.3516 11.25C64.3663 11.294 64.381 11.3307 64.3956 11.36C64.469 11.4773 64.5056 11.5947 64.5056 11.712C64.5056 11.7707 64.513 11.8367 64.5276 11.91C64.5423 11.9687 64.557 12.0347 64.5716 12.108C64.6156 12.196 64.6816 12.24 64.7696 12.24C64.7843 12.2253 64.799 12.2253 64.8136 12.24C64.8283 12.2547 64.8356 12.2693 64.8356 12.284C64.909 12.372 64.931 12.4673 64.9016 12.57C64.8723 12.6873 64.865 12.8047 64.8796 12.922C64.909 13.0247 64.9383 13.1347 64.9676 13.252C65.0263 13.3987 65.085 13.5453 65.1436 13.692C65.2023 13.8387 65.261 13.9853 65.3196 14.132C65.393 14.2933 65.4663 14.4547 65.5396 14.616C65.613 14.7773 65.679 14.9387 65.7376 15.1C65.811 15.3053 65.8843 15.5107 65.9576 15.716C66.0456 15.9213 66.141 16.1267 66.2436 16.332L66.3096 16.574C66.3243 16.6327 66.339 16.6913 66.3536 16.75C66.383 16.8087 66.405 16.8673 66.4196 16.926C66.449 16.97 66.471 17.014 66.4856 17.058C66.515 17.102 66.5443 17.1387 66.5736 17.168C66.647 17.2707 66.691 17.3807 66.7056 17.498C66.7496 17.6447 66.8156 17.7767 66.9036 17.894C66.933 17.938 66.977 17.96 67.0356 17.96C67.2556 17.9307 67.4756 17.9087 67.6956 17.894C67.9156 17.8647 68.1356 17.8207 68.3556 17.762C68.517 17.718 68.671 17.696 68.8176 17.696C69.0963 17.696 69.353 17.7913 69.5876 17.982C69.8663 18.202 70.013 18.4807 70.0276 18.818C70.0276 18.8913 70.035 18.95 70.0496 18.994C70.0496 19.0967 70.0203 19.1773 69.9616 19.236C69.947 19.28 69.9176 19.324 69.8736 19.368C69.8443 19.412 69.815 19.456 69.7856 19.5C69.7563 19.5587 69.727 19.6027 69.6976 19.632L69.5656 19.742C69.551 19.7713 69.529 19.808 69.4996 19.852C69.4703 19.8813 69.4336 19.9033 69.3896 19.918C69.331 19.9327 69.2723 19.9547 69.2136 19.984C69.155 19.9987 69.089 20.006 69.0156 20.006C68.7516 20.0353 68.517 20.028 68.3116 19.984H67.9596C67.9303 19.984 67.8863 19.9987 67.8276 20.028C67.769 20.0573 67.7396 20.094 67.7396 20.138V20.226C67.7836 20.358 67.813 20.4973 67.8276 20.644C67.857 20.776 67.901 20.9007 67.9596 21.018C67.9596 21.0767 67.9743 21.1353 68.0036 21.194C68.077 21.326 68.1356 21.4653 68.1796 21.612C68.2236 21.744 68.2603 21.8833 68.2896 22.03C68.2896 22.0593 68.3043 22.118 68.3336 22.206C68.3776 22.3087 68.4143 22.4187 68.4436 22.536C68.473 22.6387 68.495 22.7487 68.5096 22.866C68.5096 22.954 68.5316 23.0347 68.5756 23.108C68.6343 23.24 68.6783 23.372 68.7076 23.504C68.737 23.636 68.759 23.7753 68.7736 23.922C68.7883 23.9367 68.7956 23.966 68.7956 24.01C68.7956 24.0393 68.803 24.0687 68.8176 24.098C68.891 24.2593 68.9423 24.4353 68.9716 24.626C69.001 24.802 69.0376 24.978 69.0816 25.154C69.111 25.242 69.1256 25.33 69.1256 25.418C69.1403 25.5207 69.1476 25.6233 69.1476 25.726C69.1476 25.7993 69.1256 25.88 69.0816 25.968C69.0376 26.012 69.0156 26.034 69.0156 26.034C68.9276 26.0487 68.8763 26.1 68.8616 26.188L68.7956 26.32C68.7663 26.3787 68.7223 26.4153 68.6636 26.43C68.605 26.43 68.5536 26.452 68.5096 26.496C68.451 26.5547 68.3703 26.584 68.2676 26.584C68.209 26.584 68.1356 26.584 68.0476 26.584C67.9743 26.584 67.901 26.5913 67.8276 26.606ZM62.5256 18.62C62.6136 18.6053 62.7016 18.5907 62.7896 18.576C62.8923 18.5613 63.0023 18.5467 63.1196 18.532C63.193 18.5173 63.2883 18.5027 63.4056 18.488C63.523 18.4733 63.633 18.4587 63.7356 18.444C63.8383 18.4147 63.941 18.4 64.0436 18.4C64.1463 18.3853 64.249 18.3707 64.3516 18.356C64.4396 18.3267 64.5276 18.312 64.6156 18.312C64.7036 18.2973 64.7916 18.2827 64.8796 18.268C65.0116 18.2387 65.063 18.1653 65.0336 18.048C65.019 17.9307 64.9896 17.8133 64.9456 17.696C64.9163 17.564 64.8503 17.454 64.7476 17.366C64.7183 17.3367 64.7036 17.2927 64.7036 17.234V17.168C64.6743 17.0507 64.6376 16.9407 64.5936 16.838C64.5643 16.7207 64.5276 16.6107 64.4836 16.508C64.4543 16.3907 64.4176 16.288 64.3736 16.2C64.3443 16.0973 64.3076 15.9947 64.2636 15.892L63.9996 15.1C63.9556 14.9973 63.9116 14.8947 63.8676 14.792C63.8383 14.6893 63.809 14.5867 63.7796 14.484L63.7136 14.396H63.6476L63.6036 14.462C63.5303 14.682 63.4423 14.902 63.3396 15.122C63.2516 15.342 63.171 15.5767 63.0976 15.826C63.0976 15.8553 63.0903 15.892 63.0756 15.936C63.061 15.98 63.0463 16.024 63.0316 16.068C62.973 16.2147 62.9143 16.376 62.8556 16.552C62.8116 16.728 62.775 16.904 62.7456 17.08C62.731 17.1827 62.7163 17.2853 62.7016 17.388C62.687 17.476 62.665 17.5713 62.6356 17.674L62.4376 18.532C62.423 18.5467 62.4303 18.5687 62.4596 18.598C62.489 18.6127 62.511 18.62 62.5256 18.62ZM80.727 26.298H80.617C80.573 26.298 80.5217 26.2907 80.463 26.276C80.419 26.276 80.3677 26.276 80.309 26.276C80.2063 26.2907 80.1183 26.2687 80.045 26.21C79.9863 26.166 79.9203 26.1073 79.847 26.034C79.8177 26.0047 79.781 25.968 79.737 25.924C79.7077 25.8947 79.671 25.8727 79.627 25.858C79.5977 25.8433 79.5683 25.8067 79.539 25.748C79.5243 25.7187 79.5023 25.682 79.473 25.638C79.4583 25.594 79.4363 25.55 79.407 25.506C79.3777 25.4327 79.3703 25.352 79.385 25.264C79.3997 25.22 79.407 25.176 79.407 25.132C79.4217 25.1027 79.429 25.066 79.429 25.022C79.429 24.8753 79.429 24.736 79.429 24.604C79.429 24.4573 79.4143 24.3107 79.385 24.164C79.3703 24.12 79.363 24.076 79.363 24.032C79.363 23.9733 79.3557 23.9147 79.341 23.856C79.341 23.7533 79.3337 23.6727 79.319 23.614C79.319 23.5407 79.3117 23.4747 79.297 23.416C79.297 23.3573 79.297 23.2987 79.297 23.24C79.2823 23.1373 79.275 23.042 79.275 22.954C79.275 22.866 79.2603 22.7707 79.231 22.668V22.602C79.231 22.4113 79.2163 22.228 79.187 22.052C79.1723 21.8613 79.165 21.6707 79.165 21.48C79.165 21.392 79.1577 21.326 79.143 21.282C79.1283 21.15 79.1137 21.018 79.099 20.886C79.099 20.7393 79.099 20.5927 79.099 20.446C79.099 20.314 79.099 20.182 79.099 20.05C79.099 19.9033 79.0843 19.764 79.055 19.632C79.0403 19.6027 79.033 19.566 79.033 19.522C79.033 19.478 79.033 19.4413 79.033 19.412C79.033 18.8107 79.033 18.2093 79.033 17.608C79.033 17.0067 79.0403 16.4127 79.055 15.826C79.055 15.7527 79.055 15.6793 79.055 15.606C79.0697 15.5327 79.077 15.4593 79.077 15.386C79.077 15.342 79.077 15.298 79.077 15.254C79.0917 15.21 79.099 15.1733 79.099 15.144C79.099 14.9827 79.099 14.8213 79.099 14.66C79.1137 14.484 79.1283 14.3153 79.143 14.154C79.1723 14.11 79.1723 14.0513 79.143 13.978C79.1283 13.9633 79.1063 13.956 79.077 13.956L79.011 14.022C78.9817 14.066 78.945 14.11 78.901 14.154C78.857 14.198 78.8203 14.242 78.791 14.286C78.7323 14.374 78.6663 14.4693 78.593 14.572C78.5343 14.66 78.4683 14.7553 78.395 14.858C78.2923 15.034 78.1823 15.2173 78.065 15.408C77.9477 15.584 77.8597 15.7747 77.801 15.98C77.7863 16.0093 77.7717 16.046 77.757 16.09C77.7423 16.1193 77.7277 16.1487 77.713 16.178C77.6543 16.3247 77.5883 16.4713 77.515 16.618C77.4563 16.75 77.3977 16.8967 77.339 17.058C77.251 17.2487 77.1263 17.4247 76.965 17.586C76.9357 17.6153 76.9063 17.63 76.877 17.63C76.8037 17.674 76.723 17.718 76.635 17.762C76.547 17.7913 76.4517 17.7987 76.349 17.784H76.217C76.085 17.8133 75.975 17.784 75.887 17.696C75.7843 17.6667 75.6963 17.6153 75.623 17.542C75.5643 17.4687 75.4983 17.388 75.425 17.3C75.3663 17.2267 75.315 17.1387 75.271 17.036C75.2417 16.9333 75.227 16.8307 75.227 16.728C75.2123 16.6987 75.205 16.662 75.205 16.618C75.205 16.574 75.205 16.5373 75.205 16.508C75.1903 16.4787 75.1757 16.4493 75.161 16.42C75.1463 16.376 75.139 16.3467 75.139 16.332C75.139 16.3027 75.1243 16.2587 75.095 16.2C75.0657 16.1413 75.007 16.024 74.919 15.848C74.831 15.672 74.787 15.5913 74.787 15.606C74.743 15.5327 74.699 15.452 74.655 15.364C74.611 15.276 74.5597 15.1953 74.501 15.122L74.369 14.88C74.3397 14.88 74.3177 14.8727 74.303 14.858L74.281 14.88C74.281 14.924 74.281 14.968 74.281 15.012C74.281 15.056 74.2883 15.1 74.303 15.144C74.3323 15.3053 74.347 15.4667 74.347 15.628C74.347 15.7893 74.3323 15.9507 74.303 16.112C74.303 16.2 74.3103 16.2733 74.325 16.332C74.3397 16.3613 74.347 16.4127 74.347 16.486C74.347 16.574 74.347 16.662 74.347 16.75C74.3617 16.838 74.3617 16.926 74.347 17.014C74.3323 17.0873 74.325 17.168 74.325 17.256C74.3397 17.3293 74.3543 17.4027 74.369 17.476V17.696C74.3397 17.784 74.3397 17.8793 74.369 17.982C74.3837 18.0553 74.3837 18.136 74.369 18.224C74.369 18.2973 74.3763 18.3707 74.391 18.444C74.391 18.5173 74.3763 18.6127 74.347 18.73C74.259 19.082 74.281 19.4193 74.413 19.742C74.4277 19.8007 74.4423 19.8593 74.457 19.918C74.4717 19.962 74.4717 20.0133 74.457 20.072C74.457 20.116 74.457 20.16 74.457 20.204C74.457 20.248 74.4643 20.292 74.479 20.336C74.5083 20.3947 74.523 20.4533 74.523 20.512C74.5377 20.6733 74.545 20.798 74.545 20.886C74.5597 20.974 74.5743 21.04 74.589 21.084C74.6183 21.2453 74.6477 21.414 74.677 21.59C74.7063 21.7513 74.7357 21.9127 74.765 22.074C74.7943 22.2647 74.8237 22.4553 74.853 22.646C74.897 22.822 74.919 23.0053 74.919 23.196C74.919 23.2547 74.9263 23.2987 74.941 23.328C74.9703 23.4453 74.985 23.57 74.985 23.702C74.985 23.8193 74.9923 23.9367 75.007 24.054C75.007 24.2153 74.9703 24.34 74.897 24.428C74.8677 24.4867 74.853 24.5233 74.853 24.538C74.721 24.8167 74.4863 24.978 74.149 25.022C74.105 25.0367 74.061 25.044 74.017 25.044C73.973 25.044 73.929 25.044 73.885 25.044C73.7237 25.0733 73.6063 25.044 73.533 24.956C73.5037 24.9267 73.4743 24.912 73.445 24.912C73.3717 24.9267 73.2983 24.8827 73.225 24.78C73.181 24.7067 73.115 24.6407 73.027 24.582C72.983 24.538 72.9463 24.4647 72.917 24.362C72.9023 24.3327 72.8877 24.3033 72.873 24.274C72.873 24.2447 72.873 24.2153 72.873 24.186C72.8583 23.9807 72.8363 23.7827 72.807 23.592C72.7777 23.3867 72.7557 23.1887 72.741 22.998L72.719 22.778C72.7043 22.7193 72.697 22.668 72.697 22.624C72.697 22.58 72.6897 22.5287 72.675 22.47V22.338C72.631 22.1327 72.609 21.9273 72.609 21.722C72.609 21.502 72.6163 21.2893 72.631 21.084C72.6457 20.952 72.653 20.82 72.653 20.688C72.653 20.5413 72.6603 20.402 72.675 20.27V19.764C72.675 19.6907 72.675 19.6173 72.675 19.544C72.675 19.456 72.6677 19.3753 72.653 19.302C72.6383 19.214 72.631 19.126 72.631 19.038C72.631 18.95 72.631 18.862 72.631 18.774V17.762C72.6163 17.6447 72.609 17.5273 72.609 17.41C72.609 17.278 72.609 17.1533 72.609 17.036C72.609 16.992 72.609 16.948 72.609 16.904C72.609 16.8453 72.6017 16.794 72.587 16.75C72.587 16.6767 72.5797 16.6107 72.565 16.552C72.565 16.4787 72.5577 16.4127 72.543 16.354V16.2C72.5137 16.068 72.499 15.9433 72.499 15.826C72.499 15.694 72.499 15.562 72.499 15.43C72.499 15.3127 72.499 15.1953 72.499 15.078C72.499 14.946 72.4843 14.8287 72.455 14.726C72.4403 14.682 72.433 14.638 72.433 14.594C72.433 14.55 72.433 14.506 72.433 14.462C72.433 14.3593 72.433 14.264 72.433 14.176C72.433 14.0733 72.4183 13.9707 72.389 13.868C72.3743 13.8387 72.367 13.7873 72.367 13.714V12.614C72.367 12.5407 72.367 12.4747 72.367 12.416C72.367 12.3427 72.3523 12.2767 72.323 12.218C72.279 12.0713 72.2863 11.9027 72.345 11.712C72.3743 11.6387 72.4037 11.5873 72.433 11.558C72.4623 11.514 72.4917 11.47 72.521 11.426C72.5503 11.382 72.5723 11.338 72.587 11.294C72.6163 11.25 72.6383 11.228 72.653 11.228C72.7117 11.2133 72.7557 11.1913 72.785 11.162C72.829 11.1327 72.8657 11.1033 72.895 11.074L73.027 11.008C73.0563 10.9933 73.1003 10.986 73.159 10.986C73.2323 11.0007 73.3057 11.0153 73.379 11.03C73.467 11.03 73.5477 11.0373 73.621 11.052C73.709 11.052 73.775 11.0887 73.819 11.162C73.8923 11.2647 73.9657 11.3673 74.039 11.47C74.1123 11.5727 74.171 11.6827 74.215 11.8C74.259 11.9027 74.3177 11.9907 74.391 12.064C74.479 12.1813 74.567 12.2987 74.655 12.416C74.743 12.5333 74.8383 12.6507 74.941 12.768C74.985 12.812 75.0217 12.8633 75.051 12.922C75.095 12.9807 75.1317 13.0393 75.161 13.098C75.2343 13.2007 75.3003 13.3033 75.359 13.406C75.4323 13.494 75.5057 13.5893 75.579 13.692L75.909 14.22C75.9383 14.2787 75.9677 14.3373 75.997 14.396C76.0263 14.44 76.0557 14.484 76.085 14.528C76.1143 14.6013 76.1583 14.6087 76.217 14.55C76.2757 14.4767 76.3343 14.4033 76.393 14.33C76.4663 14.242 76.5323 14.1613 76.591 14.088C76.723 13.9267 76.855 13.758 76.987 13.582C77.119 13.406 77.2583 13.2373 77.405 13.076L77.537 12.878C77.6397 12.7313 77.735 12.592 77.823 12.46C77.9257 12.3133 78.021 12.1667 78.109 12.02C78.2117 11.8587 78.2997 11.6973 78.373 11.536C78.461 11.3747 78.5343 11.2133 78.593 11.052L78.857 10.458C78.945 10.282 79.0697 10.1353 79.231 10.018C79.451 9.842 79.693 9.776 79.957 9.82C80.0597 9.83467 80.155 9.864 80.243 9.908C80.331 9.93733 80.419 9.96667 80.507 9.996C80.595 10.0253 80.6537 10.0913 80.683 10.194C80.7123 10.238 80.7343 10.282 80.749 10.326C80.7637 10.37 80.771 10.414 80.771 10.458C80.7857 10.5607 80.8077 10.656 80.837 10.744C80.8663 10.8173 80.8883 10.9053 80.903 11.008L80.925 11.228C80.9543 11.36 80.9837 11.492 81.013 11.624C81.057 11.756 81.0937 11.888 81.123 12.02V12.064C81.1377 12.2107 81.1523 12.3573 81.167 12.504C81.1963 12.636 81.2037 12.7753 81.189 12.922V13.428C81.189 13.5013 81.189 13.5747 81.189 13.648C81.189 13.7213 81.1817 13.7947 81.167 13.868C81.1523 13.9707 81.145 14.0733 81.145 14.176C81.145 14.264 81.145 14.3593 81.145 14.462C81.1303 14.5207 81.123 14.5793 81.123 14.638C81.123 14.6967 81.1157 14.7553 81.101 14.814C81.0863 14.8727 81.079 14.9313 81.079 14.99C81.079 15.034 81.079 15.0927 81.079 15.166V15.782C81.079 15.8847 81.0717 15.98 81.057 16.068C81.057 16.156 81.0497 16.2513 81.035 16.354C81.0203 16.4127 81.013 16.4713 81.013 16.53C81.013 16.574 81.013 16.6253 81.013 16.684V18.026C81.013 18.1287 81.013 18.2313 81.013 18.334C81.0277 18.4367 81.0423 18.5393 81.057 18.642C81.0717 18.7153 81.079 18.796 81.079 18.884C81.079 18.9573 81.079 19.0307 81.079 19.104C81.0937 19.2067 81.101 19.3093 81.101 19.412C81.101 19.5 81.1083 19.6027 81.123 19.72V19.962C81.1377 20.0793 81.145 20.204 81.145 20.336C81.145 20.4533 81.145 20.5707 81.145 20.688V20.974C81.1743 21.0767 81.189 21.1867 81.189 21.304C81.189 21.4213 81.1963 21.5387 81.211 21.656V21.81C81.2403 21.898 81.255 21.986 81.255 22.074C81.255 22.162 81.2623 22.25 81.277 22.338L81.343 23.13C81.3577 23.1887 81.365 23.2473 81.365 23.306C81.3797 23.35 81.387 23.4013 81.387 23.46C81.4017 23.5187 81.409 23.5773 81.409 23.636C81.409 23.68 81.4163 23.7313 81.431 23.79C81.431 23.8047 81.431 23.8267 81.431 23.856C81.4457 23.8853 81.453 23.9147 81.453 23.944C81.453 24.0467 81.4603 24.1567 81.475 24.274C81.5043 24.3913 81.5263 24.5087 81.541 24.626L81.629 25.242C81.629 25.33 81.6217 25.3887 81.607 25.418C81.5923 25.506 81.5557 25.5867 81.497 25.66C81.453 25.748 81.4163 25.8287 81.387 25.902C81.387 25.9167 81.3797 25.924 81.365 25.924C81.2623 26.012 81.1597 26.0853 81.057 26.144C80.9543 26.2173 80.8443 26.2687 80.727 26.298ZM86.5228 25.22C86.4348 25.22 86.3761 25.2127 86.3468 25.198C86.2881 25.1687 86.2368 25.1467 86.1928 25.132C86.1488 25.1173 86.1048 25.1027 86.0608 25.088C86.0168 25.0587 85.9728 25.0293 85.9288 25C85.8995 24.956 85.8701 24.912 85.8408 24.868C85.8115 24.8387 85.7821 24.824 85.7528 24.824C85.6648 24.824 85.6208 24.78 85.6208 24.692C85.6061 24.604 85.5915 24.516 85.5768 24.428C85.5621 24.34 85.5475 24.252 85.5328 24.164C85.5181 24.032 85.5035 23.9 85.4888 23.768C85.4888 23.636 85.4741 23.5113 85.4448 23.394V23.196C85.4448 23.1373 85.4375 23.086 85.4228 23.042C85.4228 22.998 85.4228 22.9467 85.4228 22.888C85.3935 22.8147 85.3935 22.756 85.4228 22.712C85.4521 22.448 85.4521 22.184 85.4228 21.92C85.4081 21.8467 85.4008 21.7733 85.4008 21.7C85.4008 21.6267 85.3935 21.5533 85.3788 21.48C85.3788 21.3333 85.3788 21.1867 85.3788 21.04C85.3788 20.8787 85.3641 20.7247 85.3348 20.578V20.226C85.3348 20.1087 85.3275 19.9987 85.3128 19.896C85.3128 19.7933 85.3055 19.6907 85.2908 19.588C85.2761 19.456 85.2615 19.324 85.2468 19.192C85.2468 19.06 85.2395 18.928 85.2248 18.796C85.2101 18.7667 85.2028 18.7153 85.2028 18.642C85.1881 18.5687 85.1735 18.4953 85.1588 18.422C85.1588 18.334 85.1588 18.2533 85.1588 18.18L85.0928 17.08C85.0781 16.9627 85.0635 16.8527 85.0488 16.75C85.0488 16.6327 85.0488 16.5227 85.0488 16.42C85.0341 16.244 85.0195 16.068 85.0048 15.892C84.9901 15.716 84.9755 15.5473 84.9608 15.386C84.9608 15.3567 84.9535 15.3273 84.9388 15.298C84.9388 15.2687 84.9388 15.2467 84.9388 15.232C84.9388 15.056 84.9315 14.88 84.9168 14.704C84.9021 14.528 84.8875 14.3447 84.8728 14.154L84.8068 13.538C84.7628 13.3033 84.7555 13.0467 84.7848 12.768C84.7848 12.636 84.8361 12.526 84.9388 12.438C84.9681 12.4087 84.9901 12.394 85.0048 12.394C85.0195 12.3793 85.0341 12.3647 85.0488 12.35C85.1221 12.3353 85.1588 12.284 85.1588 12.196C85.1588 12.1667 85.1881 12.152 85.2468 12.152H85.3568C85.3715 12.152 85.3788 12.152 85.3788 12.152C85.3935 12.1373 85.4081 12.13 85.4228 12.13C85.4521 12.1153 85.4741 12.1007 85.4888 12.086C85.5181 12.0567 85.5401 12.042 85.5548 12.042C85.5841 12.042 85.6135 12.0493 85.6428 12.064C85.6721 12.064 85.7015 12.0713 85.7308 12.086C85.7601 12.086 85.7821 12.0787 85.7968 12.064C85.8701 12.0493 85.9435 12.0567 86.0168 12.086C86.1048 12.1007 86.1781 12.1227 86.2368 12.152C86.3248 12.1667 86.3908 12.2253 86.4348 12.328C86.4788 12.46 86.5155 12.592 86.5448 12.724C86.5888 12.8413 86.6181 12.966 86.6328 13.098V13.274C86.6621 13.3767 86.6768 13.4867 86.6768 13.604C86.6768 13.7067 86.6768 13.8167 86.6768 13.934C86.6768 14.0367 86.6768 14.1393 86.6768 14.242C86.6915 14.33 86.7061 14.418 86.7208 14.506C86.7208 14.55 86.7208 14.594 86.7208 14.638C86.7208 14.682 86.7281 14.726 86.7428 14.77C86.7428 14.858 86.7428 14.946 86.7428 15.034C86.7575 15.122 86.7721 15.2173 86.7868 15.32C86.8015 15.4813 86.8161 15.65 86.8308 15.826C86.8455 16.002 86.8528 16.178 86.8528 16.354C86.8528 16.4273 86.8528 16.508 86.8528 16.596C86.8528 16.6693 86.8601 16.7427 86.8748 16.816C86.8895 16.86 86.8968 16.904 86.8968 16.948C86.8968 16.992 86.8968 17.036 86.8968 17.08V17.52C86.8968 17.608 86.9041 17.6813 86.9188 17.74C86.9481 17.8427 86.9555 17.9453 86.9408 18.048C86.9408 18.136 86.9481 18.2313 86.9628 18.334L87.0288 19.346C87.0435 19.4927 87.0508 19.6467 87.0508 19.808C87.0655 19.9547 87.0728 20.1087 87.0728 20.27C87.0728 20.3287 87.0728 20.3947 87.0728 20.468C87.0728 20.5267 87.0801 20.5853 87.0948 20.644C87.1095 20.688 87.1168 20.732 87.1168 20.776C87.1168 20.82 87.1168 20.864 87.1168 20.908C87.1315 20.9227 87.1315 20.952 87.1168 20.996C87.1168 21.0253 87.1241 21.0547 87.1388 21.084C87.1681 21.1867 87.1828 21.2893 87.1828 21.392C87.1828 21.4947 87.1828 21.6047 87.1828 21.722C87.1828 21.7807 87.1828 21.8467 87.1828 21.92C87.1975 21.9787 87.2048 22.0447 87.2048 22.118C87.2195 22.1913 87.2268 22.272 87.2268 22.36C87.2268 22.448 87.2268 22.5287 87.2268 22.602C87.2415 22.6753 87.2488 22.756 87.2488 22.844C87.2488 22.9173 87.2561 22.9907 87.2708 23.064C87.2855 23.0933 87.2928 23.1227 87.2928 23.152C87.2928 23.3133 87.3075 23.4747 87.3368 23.636C87.3661 23.7973 87.3955 23.9587 87.4248 24.12C87.4395 24.164 87.4468 24.2153 87.4468 24.274C87.4468 24.318 87.4468 24.362 87.4468 24.406C87.4468 24.45 87.4321 24.4867 87.4028 24.516C87.3441 24.56 87.3001 24.648 87.2708 24.78C87.2708 24.824 87.2488 24.8607 87.2048 24.89C87.1021 24.934 87.0141 24.9927 86.9408 25.066C86.8235 25.1687 86.6841 25.22 86.5228 25.22ZM98.4429 26.606C98.3109 26.606 98.1935 26.5547 98.0909 26.452C98.0615 26.408 98.0322 26.364 98.0029 26.32C97.9735 26.276 97.9442 26.232 97.9149 26.188C97.7829 25.88 97.7169 25.5573 97.7169 25.22L97.6509 24.692C97.6069 24.4867 97.5702 24.2813 97.5409 24.076C97.5115 23.8707 97.4602 23.6727 97.3869 23.482L97.2549 23.108C97.2549 23.0787 97.2475 23.0493 97.2329 23.02C97.2329 22.9907 97.2255 22.9613 97.2109 22.932L96.8809 21.766C96.8662 21.7367 96.8515 21.7 96.8369 21.656C96.8369 21.612 96.8222 21.5753 96.7929 21.546C96.7489 21.458 96.7122 21.37 96.6829 21.282C96.6682 21.1793 96.6462 21.0767 96.6169 20.974C96.6022 20.9007 96.5875 20.8347 96.5729 20.776C96.5582 20.7027 96.5362 20.6293 96.5069 20.556C96.4775 20.468 96.4482 20.4167 96.4189 20.402C96.3895 20.3727 96.3235 20.3727 96.2209 20.402C96.1475 20.4167 96.0669 20.4313 95.9789 20.446C95.9055 20.446 95.8322 20.4607 95.7589 20.49C95.7002 20.5047 95.6269 20.5193 95.5389 20.534C95.4655 20.534 95.3922 20.5413 95.3189 20.556L95.0109 20.622C94.9375 20.6367 94.8569 20.6587 94.7689 20.688C94.6955 20.7027 94.6222 20.71 94.5489 20.71L94.1529 20.776C94.0355 20.8053 93.9109 20.8347 93.7789 20.864C93.6469 20.8933 93.5222 20.9227 93.4049 20.952C93.0529 21.04 92.7009 21.106 92.3489 21.15C92.2315 21.1793 92.1655 21.2307 92.1509 21.304C92.1362 21.304 92.1289 21.3113 92.1289 21.326C92.0409 21.5607 91.9382 21.7953 91.8209 22.03C91.7182 22.25 91.6082 22.4773 91.4909 22.712C91.4615 22.7707 91.4322 22.8293 91.4029 22.888C91.3882 22.932 91.3662 22.9833 91.3369 23.042C91.3222 23.0713 91.3075 23.108 91.2929 23.152C91.2782 23.1813 91.2635 23.2107 91.2489 23.24C91.1609 23.3427 91.1169 23.4673 91.1169 23.614C91.1022 23.702 91.0729 23.79 91.0289 23.878C90.9849 23.9513 90.9409 24.0247 90.8969 24.098C90.8822 24.142 90.8529 24.164 90.8089 24.164C90.7502 24.1787 90.6915 24.2007 90.6329 24.23C90.5742 24.2593 90.5082 24.2887 90.4349 24.318C90.3909 24.3327 90.3469 24.3327 90.3029 24.318C90.2735 24.3033 90.2369 24.2887 90.1929 24.274C90.1635 24.2447 90.1342 24.23 90.1049 24.23C89.9435 24.2153 89.8262 24.12 89.7529 23.944C89.6355 23.7093 89.5549 23.4747 89.5109 23.24C89.4962 23.1813 89.4962 23.13 89.5109 23.086C89.5402 23.042 89.5622 22.998 89.5769 22.954C89.6649 22.8953 89.7162 22.8293 89.7309 22.756V22.734C89.7309 22.5433 89.7675 22.3673 89.8409 22.206C89.9289 22.03 90.0022 21.8613 90.0609 21.7C90.0902 21.612 90.1269 21.524 90.1709 21.436C90.2149 21.348 90.2589 21.26 90.3029 21.172C90.3615 21.0693 90.4055 20.974 90.4349 20.886C90.4789 20.7833 90.5155 20.6807 90.5449 20.578C90.5889 20.4607 90.5889 20.3507 90.5449 20.248C90.5155 20.16 90.5009 20.0793 90.5009 20.006C90.5009 19.918 90.5082 19.83 90.5229 19.742C90.5229 19.5807 90.5815 19.4413 90.6989 19.324C90.7575 19.2507 90.8162 19.192 90.8749 19.148C90.9482 19.0893 91.0142 19.0307 91.0729 18.972C91.2049 18.84 91.3075 18.664 91.3809 18.444C91.4395 18.2533 91.4835 18.0627 91.5129 17.872C91.5569 17.6667 91.6009 17.4687 91.6449 17.278C91.6742 17.0873 91.7035 16.904 91.7329 16.728C91.7769 16.5373 91.8209 16.354 91.8649 16.178C91.8795 16.1047 91.8942 16.0387 91.9089 15.98C91.9382 15.9067 91.9602 15.8407 91.9749 15.782C92.0189 15.6647 92.0629 15.5547 92.1069 15.452C92.1509 15.3347 92.1802 15.2173 92.1949 15.1C92.2242 15.0413 92.2242 14.99 92.1949 14.946C92.1802 14.8727 92.1802 14.8067 92.1949 14.748C92.2242 14.6893 92.2462 14.6307 92.2609 14.572C92.3049 14.4693 92.3342 14.3667 92.3489 14.264C92.3782 14.1613 92.4149 14.0587 92.4589 13.956C92.5322 13.7653 92.5909 13.6113 92.6349 13.494C92.6935 13.362 92.7449 13.2153 92.7889 13.054C92.8182 12.966 92.8475 12.8853 92.8769 12.812C92.9209 12.724 92.9502 12.636 92.9649 12.548C93.0089 12.416 93.0455 12.284 93.0749 12.152C93.1042 12.0053 93.1189 11.866 93.1189 11.734C93.1482 11.6167 93.1775 11.536 93.2069 11.492C93.2802 11.3453 93.3682 11.2207 93.4709 11.118C93.5882 11.0153 93.6982 10.9127 93.8009 10.81C93.8742 10.766 93.9475 10.7367 94.0209 10.722C94.0942 10.6927 94.1675 10.7 94.2409 10.744C94.2995 10.7733 94.3362 10.788 94.3509 10.788C94.4829 10.7733 94.5929 10.8027 94.6809 10.876C94.7689 10.9493 94.8422 11.0373 94.9009 11.14C94.9302 11.1693 94.9522 11.206 94.9669 11.25C94.9815 11.294 94.9962 11.3307 95.0109 11.36C95.0842 11.4773 95.1209 11.5947 95.1209 11.712C95.1209 11.7707 95.1282 11.8367 95.1429 11.91C95.1575 11.9687 95.1722 12.0347 95.1869 12.108C95.2309 12.196 95.2969 12.24 95.3849 12.24C95.3995 12.2253 95.4142 12.2253 95.4289 12.24C95.4435 12.2547 95.4509 12.2693 95.4509 12.284C95.5242 12.372 95.5462 12.4673 95.5169 12.57C95.4875 12.6873 95.4802 12.8047 95.4949 12.922C95.5242 13.0247 95.5535 13.1347 95.5829 13.252C95.6415 13.3987 95.7002 13.5453 95.7589 13.692C95.8175 13.8387 95.8762 13.9853 95.9349 14.132C96.0082 14.2933 96.0815 14.4547 96.1549 14.616C96.2282 14.7773 96.2942 14.9387 96.3529 15.1C96.4262 15.3053 96.4995 15.5107 96.5729 15.716C96.6609 15.9213 96.7562 16.1267 96.8589 16.332L96.9249 16.574C96.9395 16.6327 96.9542 16.6913 96.9689 16.75C96.9982 16.8087 97.0202 16.8673 97.0349 16.926C97.0642 16.97 97.0862 17.014 97.1009 17.058C97.1302 17.102 97.1595 17.1387 97.1889 17.168C97.2622 17.2707 97.3062 17.3807 97.3209 17.498C97.3649 17.6447 97.4309 17.7767 97.5189 17.894C97.5482 17.938 97.5922 17.96 97.6509 17.96C97.8709 17.9307 98.0909 17.9087 98.3109 17.894C98.5309 17.8647 98.7509 17.8207 98.9709 17.762C99.1322 17.718 99.2862 17.696 99.4329 17.696C99.7115 17.696 99.9682 17.7913 100.203 17.982C100.482 18.202 100.628 18.4807 100.643 18.818C100.643 18.8913 100.65 18.95 100.665 18.994C100.665 19.0967 100.636 19.1773 100.577 19.236C100.562 19.28 100.533 19.324 100.489 19.368C100.46 19.412 100.43 19.456 100.401 19.5C100.372 19.5587 100.342 19.6027 100.313 19.632L100.181 19.742C100.166 19.7713 100.144 19.808 100.115 19.852C100.086 19.8813 100.049 19.9033 100.005 19.918C99.9462 19.9327 99.8875 19.9547 99.8289 19.984C99.7702 19.9987 99.7042 20.006 99.6309 20.006C99.3669 20.0353 99.1322 20.028 98.9269 19.984H98.5749C98.5455 19.984 98.5015 19.9987 98.4429 20.028C98.3842 20.0573 98.3549 20.094 98.3549 20.138V20.226C98.3989 20.358 98.4282 20.4973 98.4429 20.644C98.4722 20.776 98.5162 20.9007 98.5749 21.018C98.5749 21.0767 98.5895 21.1353 98.6189 21.194C98.6922 21.326 98.7509 21.4653 98.7949 21.612C98.8389 21.744 98.8755 21.8833 98.9049 22.03C98.9049 22.0593 98.9195 22.118 98.9489 22.206C98.9929 22.3087 99.0295 22.4187 99.0589 22.536C99.0882 22.6387 99.1102 22.7487 99.1249 22.866C99.1249 22.954 99.1469 23.0347 99.1909 23.108C99.2495 23.24 99.2935 23.372 99.3229 23.504C99.3522 23.636 99.3742 23.7753 99.3889 23.922C99.4035 23.9367 99.4109 23.966 99.4109 24.01C99.4109 24.0393 99.4182 24.0687 99.4329 24.098C99.5062 24.2593 99.5575 24.4353 99.5869 24.626C99.6162 24.802 99.6529 24.978 99.6969 25.154C99.7262 25.242 99.7409 25.33 99.7409 25.418C99.7555 25.5207 99.7629 25.6233 99.7629 25.726C99.7629 25.7993 99.7409 25.88 99.6969 25.968C99.6529 26.012 99.6309 26.034 99.6309 26.034C99.5429 26.0487 99.4915 26.1 99.4769 26.188L99.4109 26.32C99.3815 26.3787 99.3375 26.4153 99.2789 26.43C99.2202 26.43 99.1689 26.452 99.1249 26.496C99.0662 26.5547 98.9855 26.584 98.8829 26.584C98.8242 26.584 98.7509 26.584 98.6629 26.584C98.5895 26.584 98.5162 26.5913 98.4429 26.606ZM93.1409 18.62C93.2289 18.6053 93.3169 18.5907 93.4049 18.576C93.5075 18.5613 93.6175 18.5467 93.7349 18.532C93.8082 18.5173 93.9035 18.5027 94.0209 18.488C94.1382 18.4733 94.2482 18.4587 94.3509 18.444C94.4535 18.4147 94.5562 18.4 94.6589 18.4C94.7615 18.3853 94.8642 18.3707 94.9669 18.356C95.0549 18.3267 95.1429 18.312 95.2309 18.312C95.3189 18.2973 95.4069 18.2827 95.4949 18.268C95.6269 18.2387 95.6782 18.1653 95.6489 18.048C95.6342 17.9307 95.6049 17.8133 95.5609 17.696C95.5315 17.564 95.4655 17.454 95.3629 17.366C95.3335 17.3367 95.3189 17.2927 95.3189 17.234V17.168C95.2895 17.0507 95.2529 16.9407 95.2089 16.838C95.1795 16.7207 95.1429 16.6107 95.0989 16.508C95.0695 16.3907 95.0329 16.288 94.9889 16.2C94.9595 16.0973 94.9229 15.9947 94.8789 15.892L94.6149 15.1C94.5709 14.9973 94.5269 14.8947 94.4829 14.792C94.4535 14.6893 94.4242 14.5867 94.3949 14.484L94.3289 14.396H94.2629L94.2189 14.462C94.1455 14.682 94.0575 14.902 93.9549 15.122C93.8669 15.342 93.7862 15.5767 93.7129 15.826C93.7129 15.8553 93.7055 15.892 93.6909 15.936C93.6762 15.98 93.6615 16.024 93.6469 16.068C93.5882 16.2147 93.5295 16.376 93.4709 16.552C93.4269 16.728 93.3902 16.904 93.3609 17.08C93.3462 17.1827 93.3315 17.2853 93.3169 17.388C93.3022 17.476 93.2802 17.5713 93.2509 17.674L93.0529 18.532C93.0382 18.5467 93.0455 18.5687 93.0749 18.598C93.1042 18.6127 93.1262 18.62 93.1409 18.62ZM103.216 23.46C103.143 23.46 103.084 23.438 103.04 23.394L102.644 23.174C102.629 23.1593 102.615 23.152 102.6 23.152C102.6 23.1373 102.593 23.1227 102.578 23.108C102.549 23.0787 102.505 23.0127 102.446 22.91C102.402 22.7927 102.38 22.7193 102.38 22.69V22.382C102.38 22.3087 102.409 22.2427 102.468 22.184C102.541 22.1253 102.593 22.0447 102.622 21.942C102.666 21.81 102.739 21.7 102.842 21.612C102.945 21.524 103.055 21.458 103.172 21.414C103.231 21.3847 103.282 21.3627 103.326 21.348C103.385 21.3333 103.436 21.3113 103.48 21.282C103.568 21.238 103.641 21.2453 103.7 21.304V21.282C103.773 21.3113 103.847 21.3407 103.92 21.37C103.993 21.3847 104.059 21.4067 104.118 21.436C104.177 21.4507 104.221 21.4873 104.25 21.546C104.353 21.6633 104.433 21.788 104.492 21.92C104.565 22.0813 104.595 22.228 104.58 22.36L104.514 22.756C104.499 22.8 104.485 22.844 104.47 22.888C104.455 22.932 104.426 22.9687 104.382 22.998L104.294 23.086C104.162 23.2473 103.957 23.35 103.678 23.394C103.619 23.4087 103.561 23.416 103.502 23.416C103.458 23.416 103.407 23.4307 103.348 23.46C103.319 23.4893 103.275 23.4893 103.216 23.46ZM109.389 24.34C109.374 24.34 109.36 24.34 109.345 24.34C109.33 24.3253 109.308 24.318 109.279 24.318L109.037 24.208L108.993 24.252C108.949 24.3107 108.912 24.3327 108.883 24.318C108.839 24.2887 108.788 24.274 108.729 24.274C108.67 24.2593 108.612 24.252 108.553 24.252C108.406 24.2667 108.26 24.2593 108.113 24.23C107.981 24.2007 107.842 24.1567 107.695 24.098L107.563 24.032C107.402 23.944 107.27 23.8047 107.167 23.614C107.138 23.5553 107.108 23.504 107.079 23.46C107.064 23.4013 107.042 23.3427 107.013 23.284C106.998 23.24 106.998 23.196 107.013 23.152C107.057 22.8587 107.182 22.5947 107.387 22.36C107.475 22.272 107.563 22.184 107.651 22.096C107.739 21.9933 107.834 21.9053 107.937 21.832C108.04 21.7587 108.142 21.6853 108.245 21.612C108.362 21.524 108.472 21.4433 108.575 21.37C108.78 21.2233 108.986 21.084 109.191 20.952C109.396 20.8053 109.594 20.6587 109.785 20.512C110.137 20.248 110.394 19.9107 110.555 19.5C110.658 19.2507 110.753 19.0087 110.841 18.774C110.929 18.5393 111.017 18.3047 111.105 18.07C111.178 17.8647 111.244 17.6667 111.303 17.476C111.376 17.2707 111.45 17.0727 111.523 16.882C111.582 16.7207 111.626 16.5593 111.655 16.398C111.699 16.222 111.728 16.0533 111.743 15.892C111.772 15.6427 111.743 15.408 111.655 15.188C111.626 15.1 111.567 15.0413 111.479 15.012C111.42 14.9827 111.362 14.9607 111.303 14.946C111.244 14.9313 111.186 14.9167 111.127 14.902C111.039 14.902 110.973 14.9093 110.929 14.924C110.914 14.9387 110.892 14.946 110.863 14.946C110.848 14.946 110.834 14.9533 110.819 14.968C110.496 15.1147 110.196 15.3053 109.917 15.54C109.873 15.584 109.829 15.628 109.785 15.672C109.741 15.7013 109.697 15.7307 109.653 15.76C109.55 15.848 109.455 15.9433 109.367 16.046C109.308 16.1047 109.242 16.1707 109.169 16.244C109.11 16.3173 109.052 16.3907 108.993 16.464C108.861 16.6107 108.766 16.7793 108.707 16.97C108.648 17.19 108.516 17.366 108.311 17.498C108.179 17.6007 108.076 17.7107 108.003 17.828C107.93 17.96 107.805 18.0627 107.629 18.136C107.512 18.1947 107.402 18.1873 107.299 18.114L107.123 17.916C107.064 17.8427 107.006 17.762 106.947 17.674C106.888 17.586 106.822 17.5127 106.749 17.454C106.734 17.4247 106.712 17.3953 106.683 17.366C106.668 17.3367 106.654 17.3 106.639 17.256C106.61 17.1827 106.58 17.1167 106.551 17.058C106.522 16.9847 106.492 16.9113 106.463 16.838C106.448 16.8087 106.441 16.7647 106.441 16.706C106.426 16.6473 106.419 16.596 106.419 16.552C106.419 16.4933 106.419 16.4347 106.419 16.376C106.434 16.332 106.441 16.288 106.441 16.244C106.456 16.2 106.47 16.156 106.485 16.112C106.558 15.848 106.698 15.6427 106.903 15.496C107.255 15.188 107.629 14.88 108.025 14.572C108.069 14.5427 108.113 14.506 108.157 14.462C108.216 14.418 108.274 14.3813 108.333 14.352C108.494 14.2347 108.641 14.1247 108.773 14.022C108.92 13.9047 109.066 13.7947 109.213 13.692C109.345 13.5893 109.47 13.494 109.587 13.406C109.719 13.3033 109.858 13.2227 110.005 13.164C110.166 13.076 110.328 13.0027 110.489 12.944C110.65 12.8707 110.826 12.8267 111.017 12.812C111.046 12.7973 111.083 12.79 111.127 12.79C111.171 12.79 111.208 12.79 111.237 12.79C111.398 12.8047 111.56 12.8267 111.721 12.856C111.882 12.8853 112.036 12.9367 112.183 13.01C112.418 13.098 112.63 13.208 112.821 13.34C112.88 13.3693 112.916 13.3987 112.931 13.428C113.063 13.56 113.188 13.6993 113.305 13.846C113.437 13.9927 113.532 14.1613 113.591 14.352C113.62 14.4547 113.657 14.5573 113.701 14.66C113.745 14.7627 113.774 14.8727 113.789 14.99C113.804 15.0487 113.811 15.1073 113.811 15.166C113.826 15.21 113.833 15.2687 113.833 15.342C113.848 15.782 113.782 16.2073 113.635 16.618C113.62 16.706 113.598 16.794 113.569 16.882C113.54 16.97 113.51 17.0653 113.481 17.168C113.452 17.2707 113.415 17.3807 113.371 17.498C113.342 17.6007 113.305 17.7107 113.261 17.828C113.202 17.9893 113.144 18.1507 113.085 18.312C113.026 18.4587 112.968 18.6127 112.909 18.774C112.85 18.9207 112.799 19.0673 112.755 19.214C112.711 19.3607 112.667 19.5073 112.623 19.654C112.564 19.8153 112.498 19.984 112.425 20.16C112.352 20.3213 112.278 20.4827 112.205 20.644C112.014 20.952 111.78 21.26 111.501 21.568C111.442 21.612 111.384 21.6633 111.325 21.722C111.281 21.766 111.23 21.8173 111.171 21.876V21.942C111.2 21.942 111.215 21.9493 111.215 21.964H111.259C111.332 21.9493 111.413 21.942 111.501 21.942C111.589 21.9273 111.677 21.9127 111.765 21.898L112.711 21.766H112.777C112.938 21.7367 113.1 21.722 113.261 21.722C113.422 21.7073 113.576 21.6927 113.723 21.678H113.833C114.009 21.6487 114.178 21.634 114.339 21.634C114.515 21.634 114.691 21.634 114.867 21.634C114.955 21.634 115.043 21.6413 115.131 21.656C115.234 21.656 115.329 21.6633 115.417 21.678C115.49 21.678 115.564 21.678 115.637 21.678C115.725 21.6633 115.806 21.6487 115.879 21.634C115.967 21.6047 116.033 21.59 116.077 21.59C116.444 21.5313 116.774 21.634 117.067 21.898C117.228 22.0593 117.338 22.2427 117.397 22.448L117.419 22.602C117.478 22.8513 117.426 23.0933 117.265 23.328C117.206 23.416 117.155 23.4747 117.111 23.504C117.096 23.5333 117.06 23.5627 117.001 23.592C116.942 23.6213 116.876 23.6507 116.803 23.68C116.744 23.7093 116.678 23.7313 116.605 23.746C116.59 23.7607 116.568 23.768 116.539 23.768C116.524 23.768 116.502 23.7753 116.473 23.79C116.341 23.834 116.209 23.8487 116.077 23.834C115.96 23.8193 115.842 23.79 115.725 23.746C115.534 23.658 115.314 23.614 115.065 23.614C115.006 23.614 114.948 23.614 114.889 23.614C114.83 23.614 114.764 23.6067 114.691 23.592L114.537 23.57H113.855C113.782 23.57 113.723 23.5773 113.679 23.592C113.591 23.6067 113.496 23.614 113.393 23.614C113.305 23.614 113.217 23.6067 113.129 23.592C113.085 23.5773 113.041 23.5773 112.997 23.592C112.968 23.592 112.931 23.5993 112.887 23.614C112.858 23.614 112.821 23.6213 112.777 23.636C112.748 23.636 112.711 23.6433 112.667 23.658C112.52 23.7167 112.432 23.746 112.403 23.746C112.374 23.7313 112.278 23.7313 112.117 23.746H111.875C111.802 23.7607 111.728 23.7753 111.655 23.79C111.596 23.79 111.53 23.8047 111.457 23.834C111.398 23.8487 111.347 23.856 111.303 23.856C111.259 23.856 111.208 23.8487 111.149 23.834C111.017 23.8193 110.87 23.8487 110.709 23.922C110.665 23.9367 110.621 23.9587 110.577 23.988C110.548 24.0173 110.511 24.0467 110.467 24.076C110.452 24.0907 110.445 24.0907 110.445 24.076C110.445 24.0467 110.43 24.0247 110.401 24.01C110.357 23.9807 110.313 23.9807 110.269 24.01C110.24 24.0247 110.21 24.054 110.181 24.098C110.166 24.1273 110.137 24.142 110.093 24.142H109.851C109.792 24.142 109.726 24.1787 109.653 24.252C109.58 24.3107 109.492 24.34 109.389 24.34ZM119.972 25.836C119.928 25.8067 119.892 25.77 119.862 25.726C119.745 25.5647 119.672 25.3593 119.642 25.11C119.628 25.066 119.62 25.0073 119.62 24.934C119.62 24.7433 119.562 24.5527 119.444 24.362C119.415 24.3327 119.386 24.3033 119.356 24.274C119.327 24.23 119.298 24.186 119.268 24.142C119.166 24.0247 119.092 23.8707 119.048 23.68C119.034 23.636 119.019 23.592 119.004 23.548C119.004 23.504 119.004 23.4527 119.004 23.394C118.99 23.2767 118.99 23.1667 119.004 23.064C119.004 23.0347 119.004 23.0127 119.004 22.998C119.019 22.9687 119.026 22.9393 119.026 22.91C119.085 22.6313 119.217 22.382 119.422 22.162C119.437 22.1327 119.474 22.0887 119.532 22.03C119.635 21.9567 119.723 21.876 119.796 21.788C119.87 21.7 119.95 21.612 120.038 21.524C120.244 21.304 120.486 21.0987 120.764 20.908L121.094 20.688C121.358 20.4533 121.615 20.2773 121.864 20.16C121.967 20.1307 122.055 20.0867 122.128 20.028C122.202 19.9693 122.275 19.9107 122.348 19.852C122.422 19.7933 122.451 19.7273 122.436 19.654C122.422 19.5953 122.407 19.5367 122.392 19.478C122.378 19.4193 122.363 19.3607 122.348 19.302C122.319 19.1113 122.29 18.9207 122.26 18.73C122.246 18.5247 122.238 18.3267 122.238 18.136V17.52C122.238 17.4173 122.238 17.3147 122.238 17.212C122.253 17.1093 122.268 17.0067 122.282 16.904L122.348 16.2C122.363 16.1413 122.37 16.09 122.37 16.046C122.37 15.9873 122.378 15.9287 122.392 15.87C122.422 15.7527 122.444 15.6353 122.458 15.518C122.488 15.386 122.517 15.2613 122.546 15.144C122.576 14.9973 122.612 14.858 122.656 14.726C122.7 14.594 122.752 14.462 122.81 14.33C122.869 14.2127 122.928 14.0953 122.986 13.978C123.06 13.8607 123.126 13.7507 123.184 13.648C123.258 13.5307 123.338 13.4133 123.426 13.296C123.514 13.1787 123.602 13.0687 123.69 12.966C123.837 12.8193 123.984 12.6947 124.13 12.592C124.394 12.4013 124.688 12.24 125.01 12.108C125.333 11.9613 125.707 11.866 126.132 11.822L126.858 11.69C126.932 11.69 126.99 11.668 127.034 11.624C127.122 11.5507 127.21 11.4847 127.298 11.426C127.386 11.3527 127.474 11.2793 127.562 11.206C127.592 11.1913 127.606 11.1767 127.606 11.162C127.621 11.1473 127.636 11.1327 127.65 11.118C127.768 10.9713 127.9 10.8907 128.046 10.876C128.134 10.8613 128.215 10.8467 128.288 10.832C128.376 10.8173 128.464 10.8027 128.552 10.788C128.846 10.7 129.102 10.788 129.322 11.052C129.396 11.14 129.44 11.2353 129.454 11.338C129.454 11.3967 129.454 11.4553 129.454 11.514C129.469 11.558 129.484 11.6093 129.498 11.668C129.498 11.844 129.572 12.0053 129.718 12.152C129.792 12.24 129.858 12.328 129.916 12.416C129.99 12.504 130.056 12.592 130.114 12.68C130.144 12.7387 130.173 12.7973 130.202 12.856C130.246 12.9 130.283 12.9587 130.312 13.032C130.356 13.1347 130.4 13.2373 130.444 13.34C130.488 13.4427 130.54 13.5453 130.598 13.648C130.628 13.7067 130.657 13.7507 130.686 13.78C130.686 13.7947 130.701 13.802 130.73 13.802C130.745 13.802 130.752 13.802 130.752 13.802C130.752 13.7873 130.76 13.78 130.774 13.78L132.204 12.592C132.248 12.548 132.292 12.5113 132.336 12.482C132.395 12.438 132.454 12.394 132.512 12.35C132.776 12.1593 133.077 12.0273 133.414 11.954C133.649 11.8953 133.884 11.91 134.118 11.998C134.236 12.0567 134.338 12.1227 134.426 12.196C134.529 12.2693 134.602 12.372 134.646 12.504C134.705 12.636 134.756 12.7827 134.8 12.944C134.815 13.0467 134.815 13.1493 134.8 13.252L134.668 13.604C134.654 13.6627 134.624 13.714 134.58 13.758C134.551 13.802 134.522 13.846 134.492 13.89C134.434 13.9487 134.375 14.0073 134.316 14.066C134.258 14.11 134.192 14.1467 134.118 14.176C134.089 14.1907 134.06 14.2053 134.03 14.22C134.001 14.2347 133.972 14.2493 133.942 14.264C133.898 14.2787 133.854 14.3007 133.81 14.33C133.766 14.3593 133.73 14.3887 133.7 14.418C133.612 14.4913 133.532 14.5353 133.458 14.55C133.356 14.5647 133.253 14.594 133.15 14.638C133.062 14.682 132.982 14.7333 132.908 14.792C132.806 14.8507 132.703 14.9093 132.6 14.968C132.512 15.0267 132.417 15.0853 132.314 15.144C132.212 15.2027 132.109 15.2833 132.006 15.386L131.5 15.826L131.412 15.914C131.354 15.9727 131.332 16.046 131.346 16.134L131.412 16.64C131.442 16.8307 131.471 17.014 131.5 17.19C131.53 17.366 131.552 17.5493 131.566 17.74C131.581 17.8427 131.588 17.9453 131.588 18.048C131.603 18.136 131.61 18.2313 131.61 18.334C131.625 18.4367 131.64 18.5393 131.654 18.642C131.669 18.73 131.684 18.8253 131.698 18.928C131.728 19.0893 131.742 19.258 131.742 19.434C131.742 19.5953 131.735 19.7567 131.72 19.918C131.706 20.006 131.691 20.094 131.676 20.182C131.662 20.27 131.64 20.358 131.61 20.446C131.596 20.534 131.574 20.622 131.544 20.71C131.53 20.7833 131.522 20.864 131.522 20.952C131.508 21.1427 131.464 21.3407 131.39 21.546C131.361 21.6487 131.324 21.766 131.28 21.898C131.251 22.0153 131.214 22.1327 131.17 22.25C131.126 22.3967 131.068 22.5433 130.994 22.69C130.921 22.8367 130.848 22.9833 130.774 23.13C130.745 23.1887 130.708 23.24 130.664 23.284C130.635 23.328 130.606 23.372 130.576 23.416C130.518 23.4747 130.459 23.5333 130.4 23.592C130.356 23.6507 130.312 23.7167 130.268 23.79C130.21 23.8927 130.122 23.9807 130.004 24.054C129.887 24.1273 129.777 24.1567 129.674 24.142C129.66 24.142 129.645 24.142 129.63 24.142C129.63 24.1273 129.623 24.12 129.608 24.12C129.594 24.1347 129.572 24.142 129.542 24.142C129.528 24.142 129.513 24.1493 129.498 24.164L129.146 24.428C128.838 24.648 128.508 24.824 128.156 24.956C128.142 24.956 128.105 24.9707 128.046 25C127.929 25.044 127.819 25.1247 127.716 25.242C127.687 25.2713 127.643 25.33 127.584 25.418C127.496 25.5353 127.379 25.6013 127.232 25.616C127.042 25.6453 126.902 25.5793 126.814 25.418C126.8 25.3887 126.785 25.3593 126.77 25.33C126.77 25.3007 126.756 25.2713 126.726 25.242C126.682 25.0953 126.587 25.022 126.44 25.022C126.352 24.9927 126.264 24.9633 126.176 24.934C126.088 24.89 126.008 24.8533 125.934 24.824C125.758 24.736 125.582 24.6407 125.406 24.538C125.245 24.4353 125.084 24.3327 124.922 24.23C124.878 24.2007 124.834 24.1713 124.79 24.142C124.761 24.1127 124.732 24.0833 124.702 24.054L124.218 23.548L123.954 23.218C123.866 23.1007 123.778 22.976 123.69 22.844C123.617 22.712 123.544 22.5727 123.47 22.426C123.441 22.3527 123.397 22.2793 123.338 22.206C123.294 22.1327 123.258 22.0593 123.228 21.986C123.228 21.9713 123.214 21.964 123.184 21.964C123.17 21.9493 123.155 21.9493 123.14 21.964L123.052 22.052C123.023 22.0813 122.986 22.118 122.942 22.162C122.913 22.1913 122.876 22.2207 122.832 22.25C122.759 22.3087 122.686 22.3747 122.612 22.448C122.554 22.5213 122.495 22.5947 122.436 22.668C122.407 22.7267 122.37 22.7853 122.326 22.844C122.282 22.888 122.231 22.9393 122.172 22.998C122.026 23.1447 121.879 23.2987 121.732 23.46C121.6 23.6213 121.468 23.7827 121.336 23.944C121.248 24.0467 121.138 24.1347 121.006 24.208C120.772 24.3253 120.632 24.538 120.588 24.846C120.574 24.9193 120.559 24.9927 120.544 25.066C120.544 25.154 120.544 25.242 120.544 25.33C120.544 25.3593 120.537 25.396 120.522 25.44C120.522 25.484 120.522 25.528 120.522 25.572C120.508 25.66 120.464 25.726 120.39 25.77C120.273 25.8873 120.134 25.9093 119.972 25.836ZM124.394 18.378L124.548 18.29C124.666 18.202 124.776 18.1213 124.878 18.048C124.996 17.96 125.106 17.872 125.208 17.784C125.399 17.652 125.582 17.5127 125.758 17.366C125.934 17.2193 126.11 17.0727 126.286 16.926C126.448 16.7647 126.616 16.6253 126.792 16.508C126.983 16.376 127.174 16.244 127.364 16.112C127.496 16.0387 127.621 15.958 127.738 15.87C127.87 15.782 128.002 15.7013 128.134 15.628C128.164 15.5987 128.2 15.5693 128.244 15.54C128.288 15.5107 128.325 15.4813 128.354 15.452C128.398 15.408 128.413 15.3567 128.398 15.298C128.384 15.2687 128.376 15.2393 128.376 15.21C128.376 15.1807 128.369 15.1587 128.354 15.144C128.31 15.012 128.259 14.8873 128.2 14.77C128.156 14.638 128.112 14.506 128.068 14.374L128.002 14.22C127.958 14.132 127.9 14.11 127.826 14.154L127.694 14.22C127.606 14.264 127.518 14.264 127.43 14.22C127.372 14.1907 127.32 14.1613 127.276 14.132C127.188 14.044 127.13 13.978 127.1 13.934C127.042 13.8753 126.961 13.8313 126.858 13.802C126.741 13.758 126.616 13.758 126.484 13.802C126.382 13.846 126.279 13.89 126.176 13.934C126.074 13.9633 125.971 14 125.868 14.044C125.678 14.1027 125.538 14.176 125.45 14.264C125.348 14.352 125.245 14.4473 125.142 14.55C125.054 14.638 124.974 14.748 124.9 14.88C124.886 14.8947 124.864 14.9313 124.834 14.99C124.79 15.034 124.754 15.0853 124.724 15.144C124.563 15.496 124.46 15.8333 124.416 16.156L124.35 16.662C124.321 16.8087 124.299 16.97 124.284 17.146C124.27 17.3073 124.255 17.4907 124.24 17.696C124.24 17.7693 124.248 17.8647 124.262 17.982C124.277 18.0993 124.292 18.2167 124.306 18.334C124.336 18.3927 124.365 18.4073 124.394 18.378ZM127.276 22.514C127.614 22.47 127.929 22.338 128.222 22.118C128.384 21.986 128.53 21.8393 128.662 21.678C128.794 21.5167 128.897 21.3407 128.97 21.15L129.3 20.27C129.33 20.1967 129.352 20.116 129.366 20.028C129.381 19.94 129.388 19.8593 129.388 19.786C129.374 19.742 129.366 19.698 129.366 19.654C129.366 19.61 129.359 19.5733 129.344 19.544C129.33 19.4413 129.315 19.346 129.3 19.258C129.286 19.1553 129.271 19.06 129.256 18.972C129.242 18.9133 129.234 18.862 129.234 18.818C129.234 18.7593 129.227 18.7007 129.212 18.642L129.146 17.916C129.132 17.8867 129.124 17.8573 129.124 17.828C129.124 17.784 129.11 17.7473 129.08 17.718C129.051 17.6887 129.029 17.674 129.014 17.674C129 17.6887 128.978 17.696 128.948 17.696C128.934 17.696 128.919 17.7033 128.904 17.718L128.442 17.982C128.252 18.1287 128.054 18.268 127.848 18.4C127.643 18.532 127.445 18.6713 127.254 18.818C127.137 18.906 127.02 18.994 126.902 19.082C126.785 19.17 126.668 19.258 126.55 19.346L125.318 20.314C125.201 20.402 125.106 20.4827 125.032 20.556C124.988 20.6 124.974 20.6513 124.988 20.71L125.032 20.776C125.106 20.908 125.179 21.0473 125.252 21.194C125.326 21.326 125.392 21.458 125.45 21.59C125.538 21.7367 125.656 21.8613 125.802 21.964C125.92 22.0667 126.059 22.1693 126.22 22.272C126.528 22.4773 126.88 22.558 127.276 22.514ZM139.338 24.34C139.324 24.34 139.309 24.34 139.294 24.34C139.28 24.3253 139.258 24.318 139.228 24.318L138.986 24.208L138.942 24.252C138.898 24.3107 138.862 24.3327 138.832 24.318C138.788 24.2887 138.737 24.274 138.678 24.274C138.62 24.2593 138.561 24.252 138.502 24.252C138.356 24.2667 138.209 24.2593 138.062 24.23C137.93 24.2007 137.791 24.1567 137.644 24.098L137.512 24.032C137.351 23.944 137.219 23.8047 137.116 23.614C137.087 23.5553 137.058 23.504 137.028 23.46C137.014 23.4013 136.992 23.3427 136.962 23.284C136.948 23.24 136.948 23.196 136.962 23.152C137.006 22.8587 137.131 22.5947 137.336 22.36C137.424 22.272 137.512 22.184 137.6 22.096C137.688 21.9933 137.784 21.9053 137.886 21.832C137.989 21.7587 138.092 21.6853 138.194 21.612C138.312 21.524 138.422 21.4433 138.524 21.37C138.73 21.2233 138.935 21.084 139.14 20.952C139.346 20.8053 139.544 20.6587 139.734 20.512C140.086 20.248 140.343 19.9107 140.504 19.5C140.607 19.2507 140.702 19.0087 140.79 18.774C140.878 18.5393 140.966 18.3047 141.054 18.07C141.128 17.8647 141.194 17.6667 141.252 17.476C141.326 17.2707 141.399 17.0727 141.472 16.882C141.531 16.7207 141.575 16.5593 141.604 16.398C141.648 16.222 141.678 16.0533 141.692 15.892C141.722 15.6427 141.692 15.408 141.604 15.188C141.575 15.1 141.516 15.0413 141.428 15.012C141.37 14.9827 141.311 14.9607 141.252 14.946C141.194 14.9313 141.135 14.9167 141.076 14.902C140.988 14.902 140.922 14.9093 140.878 14.924C140.864 14.9387 140.842 14.946 140.812 14.946C140.798 14.946 140.783 14.9533 140.768 14.968C140.446 15.1147 140.145 15.3053 139.866 15.54C139.822 15.584 139.778 15.628 139.734 15.672C139.69 15.7013 139.646 15.7307 139.602 15.76C139.5 15.848 139.404 15.9433 139.316 16.046C139.258 16.1047 139.192 16.1707 139.118 16.244C139.06 16.3173 139.001 16.3907 138.942 16.464C138.81 16.6107 138.715 16.7793 138.656 16.97C138.598 17.19 138.466 17.366 138.26 17.498C138.128 17.6007 138.026 17.7107 137.952 17.828C137.879 17.96 137.754 18.0627 137.578 18.136C137.461 18.1947 137.351 18.1873 137.248 18.114L137.072 17.916C137.014 17.8427 136.955 17.762 136.896 17.674C136.838 17.586 136.772 17.5127 136.698 17.454C136.684 17.4247 136.662 17.3953 136.632 17.366C136.618 17.3367 136.603 17.3 136.588 17.256C136.559 17.1827 136.53 17.1167 136.5 17.058C136.471 16.9847 136.442 16.9113 136.412 16.838C136.398 16.8087 136.39 16.7647 136.39 16.706C136.376 16.6473 136.368 16.596 136.368 16.552C136.368 16.4933 136.368 16.4347 136.368 16.376C136.383 16.332 136.39 16.288 136.39 16.244C136.405 16.2 136.42 16.156 136.434 16.112C136.508 15.848 136.647 15.6427 136.852 15.496C137.204 15.188 137.578 14.88 137.974 14.572C138.018 14.5427 138.062 14.506 138.106 14.462C138.165 14.418 138.224 14.3813 138.282 14.352C138.444 14.2347 138.59 14.1247 138.722 14.022C138.869 13.9047 139.016 13.7947 139.162 13.692C139.294 13.5893 139.419 13.494 139.536 13.406C139.668 13.3033 139.808 13.2227 139.954 13.164C140.116 13.076 140.277 13.0027 140.438 12.944C140.6 12.8707 140.776 12.8267 140.966 12.812C140.996 12.7973 141.032 12.79 141.076 12.79C141.12 12.79 141.157 12.79 141.186 12.79C141.348 12.8047 141.509 12.8267 141.67 12.856C141.832 12.8853 141.986 12.9367 142.132 13.01C142.367 13.098 142.58 13.208 142.77 13.34C142.829 13.3693 142.866 13.3987 142.88 13.428C143.012 13.56 143.137 13.6993 143.254 13.846C143.386 13.9927 143.482 14.1613 143.54 14.352C143.57 14.4547 143.606 14.5573 143.65 14.66C143.694 14.7627 143.724 14.8727 143.738 14.99C143.753 15.0487 143.76 15.1073 143.76 15.166C143.775 15.21 143.782 15.2687 143.782 15.342C143.797 15.782 143.731 16.2073 143.584 16.618C143.57 16.706 143.548 16.794 143.518 16.882C143.489 16.97 143.46 17.0653 143.43 17.168C143.401 17.2707 143.364 17.3807 143.32 17.498C143.291 17.6007 143.254 17.7107 143.21 17.828C143.152 17.9893 143.093 18.1507 143.034 18.312C142.976 18.4587 142.917 18.6127 142.858 18.774C142.8 18.9207 142.748 19.0673 142.704 19.214C142.66 19.3607 142.616 19.5073 142.572 19.654C142.514 19.8153 142.448 19.984 142.374 20.16C142.301 20.3213 142.228 20.4827 142.154 20.644C141.964 20.952 141.729 21.26 141.45 21.568C141.392 21.612 141.333 21.6633 141.274 21.722C141.23 21.766 141.179 21.8173 141.12 21.876V21.942C141.15 21.942 141.164 21.9493 141.164 21.964H141.208C141.282 21.9493 141.362 21.942 141.45 21.942C141.538 21.9273 141.626 21.9127 141.714 21.898L142.66 21.766H142.726C142.888 21.7367 143.049 21.722 143.21 21.722C143.372 21.7073 143.526 21.6927 143.672 21.678H143.782C143.958 21.6487 144.127 21.634 144.288 21.634C144.464 21.634 144.64 21.634 144.816 21.634C144.904 21.634 144.992 21.6413 145.08 21.656C145.183 21.656 145.278 21.6633 145.366 21.678C145.44 21.678 145.513 21.678 145.586 21.678C145.674 21.6633 145.755 21.6487 145.828 21.634C145.916 21.6047 145.982 21.59 146.026 21.59C146.393 21.5313 146.723 21.634 147.016 21.898C147.178 22.0593 147.288 22.2427 147.346 22.448L147.368 22.602C147.427 22.8513 147.376 23.0933 147.214 23.328C147.156 23.416 147.104 23.4747 147.06 23.504C147.046 23.5333 147.009 23.5627 146.95 23.592C146.892 23.6213 146.826 23.6507 146.752 23.68C146.694 23.7093 146.628 23.7313 146.554 23.746C146.54 23.7607 146.518 23.768 146.488 23.768C146.474 23.768 146.452 23.7753 146.422 23.79C146.29 23.834 146.158 23.8487 146.026 23.834C145.909 23.8193 145.792 23.79 145.674 23.746C145.484 23.658 145.264 23.614 145.014 23.614C144.956 23.614 144.897 23.614 144.838 23.614C144.78 23.614 144.714 23.6067 144.64 23.592L144.486 23.57H143.804C143.731 23.57 143.672 23.5773 143.628 23.592C143.54 23.6067 143.445 23.614 143.342 23.614C143.254 23.614 143.166 23.6067 143.078 23.592C143.034 23.5773 142.99 23.5773 142.946 23.592C142.917 23.592 142.88 23.5993 142.836 23.614C142.807 23.614 142.77 23.6213 142.726 23.636C142.697 23.636 142.66 23.6433 142.616 23.658C142.47 23.7167 142.382 23.746 142.352 23.746C142.323 23.7313 142.228 23.7313 142.066 23.746H141.824C141.751 23.7607 141.678 23.7753 141.604 23.79C141.546 23.79 141.48 23.8047 141.406 23.834C141.348 23.8487 141.296 23.856 141.252 23.856C141.208 23.856 141.157 23.8487 141.098 23.834C140.966 23.8193 140.82 23.8487 140.658 23.922C140.614 23.9367 140.57 23.9587 140.526 23.988C140.497 24.0173 140.46 24.0467 140.416 24.076C140.402 24.0907 140.394 24.0907 140.394 24.076C140.394 24.0467 140.38 24.0247 140.35 24.01C140.306 23.9807 140.262 23.9807 140.218 24.01C140.189 24.0247 140.16 24.054 140.13 24.098C140.116 24.1273 140.086 24.142 140.042 24.142H139.8C139.742 24.142 139.676 24.1787 139.602 24.252C139.529 24.3107 139.441 24.34 139.338 24.34ZM153.164 25.22C153.017 25.176 152.878 25.154 152.746 25.154C152.57 25.154 152.423 25.088 152.306 24.956C152.291 24.9267 152.269 24.9047 152.24 24.89C152.211 24.8753 152.181 24.8607 152.152 24.846C152.079 24.8167 152.013 24.78 151.954 24.736C151.895 24.6773 151.837 24.6187 151.778 24.56L151.47 24.186C151.455 24.1567 151.433 24.12 151.404 24.076C151.389 24.032 151.367 23.9953 151.338 23.966C151.294 23.922 151.272 23.878 151.272 23.834C151.272 23.7753 151.279 23.724 151.294 23.68C151.323 23.592 151.389 23.5113 151.492 23.438C151.565 23.4087 151.609 23.3647 151.624 23.306C151.653 23.174 151.712 23.0713 151.8 22.998C151.888 22.9247 151.991 22.8587 152.108 22.8C152.269 22.7267 152.445 22.6753 152.636 22.646C152.68 22.646 152.724 22.646 152.768 22.646C152.812 22.646 152.856 22.6533 152.9 22.668C152.944 22.668 152.981 22.6753 153.01 22.69C153.054 22.69 153.098 22.6973 153.142 22.712C153.289 22.7707 153.443 22.778 153.604 22.734C153.765 22.69 153.927 22.646 154.088 22.602C154.264 22.5433 154.433 22.4847 154.594 22.426L155.254 22.162C155.445 22.0887 155.606 22.0153 155.738 21.942C155.855 21.898 155.958 21.854 156.046 21.81C156.149 21.7513 156.251 21.6927 156.354 21.634C156.442 21.59 156.523 21.5387 156.596 21.48C156.684 21.4067 156.757 21.3407 156.816 21.282C156.919 21.1793 156.985 21.0987 157.014 21.04C157.117 20.8933 157.146 20.7467 157.102 20.6C157.087 20.512 157.073 20.4313 157.058 20.358C157.043 20.27 157.021 20.182 156.992 20.094C156.963 20.006 156.926 19.918 156.882 19.83C156.838 19.742 156.801 19.6467 156.772 19.544C156.743 19.4853 156.721 19.4487 156.706 19.434C156.618 19.3313 156.537 19.2287 156.464 19.126C156.391 19.0233 156.317 18.9207 156.244 18.818C156.185 18.73 156.119 18.664 156.046 18.62C155.973 18.5613 155.892 18.51 155.804 18.466C155.745 18.4513 155.687 18.4367 155.628 18.422C155.584 18.3927 155.533 18.3707 155.474 18.356C155.415 18.3267 155.349 18.3047 155.276 18.29C155.203 18.2607 155.129 18.2387 155.056 18.224C154.865 18.18 154.675 18.1433 154.484 18.114C154.293 18.07 154.103 18.0333 153.912 18.004C153.736 17.9747 153.56 17.9307 153.384 17.872C153.208 17.784 153.105 17.74 153.076 17.74C153.047 17.74 153.01 17.74 152.966 17.74C152.922 17.74 152.79 17.6887 152.57 17.586C152.482 17.5273 152.401 17.52 152.328 17.564C152.255 17.608 152.159 17.5933 152.042 17.52C151.998 17.476 151.998 17.432 152.042 17.388C152.086 17.344 152.093 17.2927 152.064 17.234C152.035 17.1607 152.005 17.0873 151.976 17.014C151.961 16.9407 151.939 16.8747 151.91 16.816C151.881 16.728 151.873 16.662 151.888 16.618C151.903 16.6033 151.91 16.596 151.91 16.596C151.91 16.5813 151.91 16.574 151.91 16.574C151.925 16.53 151.932 16.4933 151.932 16.464C151.932 16.42 151.939 16.3833 151.954 16.354C151.983 16.2807 152.013 16.222 152.042 16.178C152.086 16.1193 152.123 16.0607 152.152 16.002C152.299 15.782 152.467 15.5693 152.658 15.364C152.849 15.1147 153.039 14.8727 153.23 14.638C153.421 14.3887 153.611 14.1467 153.802 13.912C153.905 13.7947 153.985 13.67 154.044 13.538C154.103 13.4647 154.154 13.3913 154.198 13.318C154.257 13.23 154.308 13.1493 154.352 13.076C154.381 13.032 154.403 12.988 154.418 12.944C154.433 12.8853 154.447 12.834 154.462 12.79C154.491 12.702 154.499 12.636 154.484 12.592C154.484 12.504 154.477 12.438 154.462 12.394C154.462 12.3793 154.447 12.3573 154.418 12.328L154.396 12.306H154.374C154.242 12.2767 154.103 12.2547 153.956 12.24C153.824 12.2253 153.692 12.218 153.56 12.218H153.34C153.281 12.2033 153.23 12.2033 153.186 12.218C153.142 12.218 153.098 12.2253 153.054 12.24C152.907 12.2547 152.761 12.2767 152.614 12.306C152.467 12.3353 152.313 12.3647 152.152 12.394H152.13C151.91 12.4527 151.69 12.5113 151.47 12.57C151.25 12.6287 151.037 12.6947 150.832 12.768C150.729 12.812 150.634 12.8487 150.546 12.878C150.458 12.9073 150.363 12.9367 150.26 12.966C150.201 12.9807 150.143 13.0027 150.084 13.032C150.025 13.0613 149.974 13.0907 149.93 13.12C149.798 13.208 149.637 13.2667 149.446 13.296C149.417 13.296 149.395 13.3033 149.38 13.318C149.263 13.3473 149.145 13.362 149.028 13.362C148.925 13.362 148.815 13.3547 148.698 13.34C148.551 13.3107 148.427 13.2667 148.324 13.208C148.295 13.1933 148.258 13.164 148.214 13.12C148.199 13.0907 148.185 13.0687 148.17 13.054C148.155 13.0393 148.133 13.0247 148.104 13.01C148.045 12.966 148.016 12.922 148.016 12.878C148.016 12.8193 147.994 12.768 147.95 12.724C147.906 12.68 147.884 12.6213 147.884 12.548C147.855 12.3427 147.891 12.1447 147.994 11.954C148.023 11.8807 148.06 11.8073 148.104 11.734C148.163 11.646 148.229 11.58 148.302 11.536C148.478 11.3747 148.713 11.272 149.006 11.228L149.534 11.162C149.651 11.162 149.754 11.1547 149.842 11.14C149.945 11.1253 150.047 11.1107 150.15 11.096C150.326 11.0667 150.502 11.0373 150.678 11.008C150.854 10.9787 151.023 10.9493 151.184 10.92C151.375 10.8907 151.558 10.8613 151.734 10.832C151.91 10.788 152.093 10.7587 152.284 10.744C152.416 10.7147 152.548 10.7073 152.68 10.722C152.812 10.722 152.944 10.7147 153.076 10.7C153.105 10.7 153.127 10.7073 153.142 10.722C153.157 10.722 153.171 10.722 153.186 10.722C153.333 10.722 153.443 10.6853 153.516 10.612C153.589 10.5387 153.67 10.524 153.758 10.568C153.846 10.5827 153.934 10.5973 154.022 10.612C154.11 10.6267 154.198 10.6413 154.286 10.656C154.403 10.6707 154.506 10.6927 154.594 10.722C154.697 10.7513 154.799 10.7807 154.902 10.81L155.32 10.942C155.379 10.9567 155.43 10.986 155.474 11.03C155.518 11.0593 155.569 11.0887 155.628 11.118C155.76 11.2207 155.863 11.316 155.936 11.404C156.009 11.4773 156.09 11.5947 156.178 11.756C156.339 11.9613 156.391 12.1813 156.332 12.416C156.303 12.5773 156.266 12.7387 156.222 12.9C156.193 13.0467 156.141 13.1933 156.068 13.34L155.738 14.044C155.709 14.1027 155.672 14.176 155.628 14.264C155.599 14.3373 155.569 14.4107 155.54 14.484L155.276 14.858C155.188 15.0047 155.1 15.1587 155.012 15.32C154.924 15.4667 154.821 15.6133 154.704 15.76L154.682 15.782C154.653 15.8553 154.667 15.9067 154.726 15.936C154.785 15.9653 154.836 15.98 154.88 15.98C155.071 15.9947 155.254 16.0313 155.43 16.09C155.606 16.1487 155.782 16.2 155.958 16.244C156.193 16.288 156.405 16.3613 156.596 16.464C156.801 16.552 156.999 16.662 157.19 16.794C157.542 17.058 157.85 17.366 158.114 17.718C158.231 17.8647 158.341 18.026 158.444 18.202C158.547 18.378 158.642 18.554 158.73 18.73L159.016 19.28C159.119 19.4853 159.199 19.7053 159.258 19.94C159.317 20.16 159.346 20.3873 159.346 20.622C159.361 20.754 159.353 20.886 159.324 21.018C159.295 21.1353 159.265 21.2527 159.236 21.37C159.207 21.458 159.192 21.524 159.192 21.568C159.148 21.7147 159.089 21.854 159.016 21.986C158.957 22.118 158.891 22.25 158.818 22.382C158.715 22.4847 158.627 22.5947 158.554 22.712C158.481 22.8293 158.385 22.9247 158.268 22.998C158.239 23.0127 158.209 23.0347 158.18 23.064C158.121 23.1227 158.055 23.1813 157.982 23.24C157.923 23.284 157.857 23.3353 157.784 23.394C157.725 23.438 157.659 23.482 157.586 23.526C157.527 23.57 157.461 23.6213 157.388 23.68C157.168 23.8413 156.941 23.9147 156.706 23.9C156.486 23.9 156.295 23.9293 156.134 23.988L155.54 24.186C155.481 24.2007 155.415 24.2227 155.342 24.252C155.283 24.2667 155.225 24.2887 155.166 24.318C155.019 24.3767 154.865 24.428 154.704 24.472C154.557 24.516 154.403 24.56 154.242 24.604C154.081 24.648 153.949 24.7213 153.846 24.824L153.604 25.066C153.545 25.1247 153.494 25.1687 153.45 25.198C153.347 25.2567 153.252 25.264 153.164 25.22Z" fill="black"/>
<path d="M18.104 27.024C18.056 27.024 18.016 27.008 17.984 26.976C17.952 26.96 17.92 26.944 17.888 26.928C17.824 26.832 17.776 26.736 17.744 26.64C17.728 26.544 17.712 26.448 17.696 26.352C17.68 26.272 17.672 26.184 17.672 26.088C17.672 26.04 17.672 25.984 17.672 25.92C17.672 25.872 17.664 25.816 17.648 25.752C17.632 25.672 17.616 25.592 17.6 25.512C17.584 25.448 17.568 25.384 17.552 25.32C17.504 25.112 17.416 24.944 17.288 24.816C17.208 24.768 17.144 24.704 17.096 24.624C16.984 24.512 16.88 24.392 16.784 24.264C16.688 24.152 16.6 24.032 16.52 23.904L16.4 23.688C16.288 23.56 16.192 23.424 16.112 23.28C16.048 23.136 15.984 22.992 15.92 22.848L15.776 22.464L15.704 22.32C15.688 22.192 15.664 22.072 15.632 21.96C15.6 21.832 15.568 21.712 15.536 21.6C15.52 21.52 15.504 21.456 15.488 21.408C15.472 21.344 15.456 21.28 15.44 21.216C15.424 21.088 15.408 20.96 15.392 20.832C15.376 20.704 15.352 20.584 15.32 20.472C15.304 20.44 15.296 20.384 15.296 20.304L15.224 19.632C15.208 19.456 15.192 19.288 15.176 19.128C15.16 18.968 15.136 18.808 15.104 18.648V18.552C15.104 18.424 15.096 18.296 15.08 18.168C15.064 18.04 15.048 17.92 15.032 17.808C15.016 17.744 15.008 17.688 15.008 17.64C15.008 17.576 15.008 17.512 15.008 17.448C15.04 17.368 15.04 17.296 15.008 17.232C14.992 17.152 14.984 17.072 14.984 16.992C14.984 16.896 14.984 16.816 14.984 16.752C14.984 16.592 14.976 16.44 14.96 16.296C14.96 16.136 14.96 15.976 14.96 15.816C14.96 15.64 14.96 15.464 14.96 15.288C14.976 15.112 14.992 14.944 15.008 14.784V14.616C15.024 14.264 15.064 13.92 15.128 13.584C15.192 13.248 15.272 12.92 15.368 12.6L15.656 11.64C15.688 11.544 15.72 11.456 15.752 11.376C15.784 11.28 15.816 11.192 15.848 11.112C15.896 10.984 15.944 10.856 15.992 10.728C16.04 10.584 16.08 10.448 16.112 10.32C16.144 10.16 16.184 10 16.232 9.84C16.28 9.664 16.32 9.496 16.352 9.336C16.416 9.096 16.504 8.864 16.616 8.64C16.728 8.416 16.872 8.224 17.048 8.064C17.08 8.032 17.112 8 17.144 7.968C17.176 7.92 17.216 7.888 17.264 7.872C17.344 7.824 17.416 7.776 17.48 7.728C17.56 7.68 17.64 7.632 17.72 7.584C18.04 7.408 18.36 7.264 18.68 7.152L19.592 6.792C19.688 6.76 19.8 6.728 19.928 6.696C20.008 6.664 20.088 6.648 20.168 6.648C20.248 6.632 20.32 6.616 20.384 6.6C20.864 6.504 21.336 6.504 21.8 6.6C21.976 6.648 22.152 6.72 22.328 6.816C22.632 6.96 22.936 7.144 23.24 7.368C23.416 7.512 23.584 7.672 23.744 7.848C23.904 8.008 24.04 8.2 24.152 8.424C24.264 8.632 24.368 8.84 24.464 9.048C24.512 9.224 24.592 9.376 24.704 9.504L24.992 9.936C25.024 9.968 25.048 10.008 25.064 10.056C25.096 10.104 25.12 10.144 25.136 10.176C25.248 10.448 25.28 10.744 25.232 11.064C25.184 11.32 25.104 11.528 24.992 11.688C24.928 11.784 24.88 11.848 24.848 11.88C24.624 12.12 24.512 12.424 24.512 12.792V12.864C24.496 13.024 24.488 13.192 24.488 13.368C24.488 13.528 24.48 13.696 24.464 13.872V14.88C24.448 14.96 24.44 15.048 24.44 15.144C24.44 15.224 24.432 15.304 24.416 15.384C24.4 15.432 24.392 15.488 24.392 15.552C24.392 15.6 24.392 15.656 24.392 15.72C24.392 15.88 24.352 16.04 24.272 16.2C24.16 16.36 24.008 16.416 23.816 16.368C23.672 16.32 23.576 16.224 23.528 16.08C23.512 16.032 23.488 15.984 23.456 15.936C23.44 15.888 23.424 15.832 23.408 15.768C23.392 15.688 23.376 15.6 23.36 15.504C23.36 15.408 23.36 15.32 23.36 15.24C23.36 15.128 23.352 15.024 23.336 14.928C23.336 14.816 23.336 14.704 23.336 14.592V14.52C23.32 14.408 23.304 14.304 23.288 14.208C23.288 14.096 23.288 13.984 23.288 13.872C23.272 13.696 23.256 13.52 23.24 13.344C23.224 13.168 23.2 13 23.168 12.84L22.952 12.264C22.888 12.136 22.824 12.008 22.76 11.88C22.712 11.752 22.656 11.624 22.592 11.496C22.56 11.384 22.512 11.28 22.448 11.184C22.384 11.088 22.32 10.984 22.256 10.872C22.128 10.632 21.984 10.424 21.824 10.248C21.792 10.216 21.76 10.184 21.728 10.152C21.696 10.12 21.664 10.088 21.632 10.056C21.568 10.024 21.504 9.992 21.44 9.96C21.392 9.912 21.344 9.856 21.296 9.792C21.28 9.776 21.256 9.768 21.224 9.768C21.208 9.752 21.184 9.736 21.152 9.72C20.816 9.624 20.52 9.616 20.264 9.696L19.904 9.768C19.84 9.768 19.776 9.776 19.712 9.792C19.664 9.792 19.608 9.8 19.544 9.816L19.376 9.888C19.328 9.904 19.272 9.96 19.208 10.056C19.208 10.12 19.192 10.184 19.16 10.248C19.144 10.296 19.128 10.344 19.112 10.392C19.112 10.424 19.112 10.456 19.112 10.488C19.064 10.712 19 10.928 18.92 11.136C18.84 11.344 18.752 11.56 18.656 11.784C18.624 11.864 18.576 11.952 18.512 12.048C18.48 12.096 18.448 12.144 18.416 12.192C18.384 12.224 18.36 12.28 18.344 12.36L18.2 12.576C18.12 12.656 18.064 12.768 18.032 12.912C17.984 13.04 17.944 13.176 17.912 13.32C17.896 13.448 17.872 13.576 17.84 13.704C17.792 13.896 17.76 14.088 17.744 14.28C17.728 14.472 17.712 14.664 17.696 14.856V16.44C17.696 16.504 17.688 16.56 17.672 16.608C17.672 16.656 17.672 16.712 17.672 16.776C17.672 16.904 17.664 17.04 17.648 17.184C17.648 17.328 17.656 17.464 17.672 17.592C17.688 17.64 17.696 17.712 17.696 17.808C17.696 18.016 17.72 18.232 17.768 18.456C17.768 18.52 17.776 18.56 17.792 18.576C17.872 18.656 17.888 18.736 17.84 18.816C17.84 18.864 17.848 18.896 17.864 18.912C17.928 19.12 17.984 19.328 18.032 19.536C18.08 19.728 18.136 19.928 18.2 20.136C18.264 20.312 18.328 20.488 18.392 20.664C18.472 20.84 18.568 21.016 18.68 21.192C18.808 21.384 18.992 21.536 19.232 21.648C19.328 21.68 19.424 21.712 19.52 21.744C19.616 21.776 19.712 21.8 19.808 21.816C19.92 21.832 20.024 21.848 20.12 21.864C20.216 21.864 20.312 21.864 20.408 21.864C20.536 21.864 20.664 21.856 20.792 21.84C20.92 21.824 21.04 21.808 21.152 21.792C21.328 21.76 21.488 21.728 21.632 21.696C21.792 21.664 21.952 21.632 22.112 21.6C22.384 21.552 22.632 21.472 22.856 21.36C22.872 21.36 22.896 21.344 22.928 21.312C23.056 21.232 23.176 21.152 23.288 21.072C23.416 20.976 23.536 20.872 23.648 20.76C23.744 20.664 23.84 20.568 23.936 20.472C24.048 20.376 24.144 20.272 24.224 20.16L24.44 19.848C24.536 19.672 24.64 19.544 24.752 19.464C24.816 19.4 24.864 19.344 24.896 19.296C24.928 19.248 24.968 19.224 25.016 19.224C25.112 19.224 25.208 19.216 25.304 19.2C25.4 19.184 25.504 19.184 25.616 19.2C25.712 19.216 25.8 19.248 25.88 19.296C25.976 19.328 26.064 19.36 26.144 19.392C26.176 19.408 26.216 19.44 26.264 19.488C26.344 19.584 26.408 19.68 26.456 19.776C26.52 19.856 26.56 19.952 26.576 20.064C26.608 20.192 26.624 20.28 26.624 20.328C26.64 20.424 26.624 20.536 26.576 20.664C26.512 20.808 26.416 20.96 26.288 21.12C26.208 21.184 26.128 21.264 26.048 21.36C25.968 21.456 25.888 21.544 25.808 21.624C25.696 21.736 25.592 21.856 25.496 21.984C25.4 22.096 25.288 22.208 25.16 22.32C25.112 22.352 25.064 22.392 25.016 22.44C24.984 22.472 24.952 22.504 24.92 22.536C24.776 22.68 24.616 22.808 24.44 22.92C24.28 23.016 24.112 23.104 23.936 23.184L23.288 23.472C23.128 23.536 22.96 23.592 22.784 23.64C22.624 23.688 22.456 23.736 22.28 23.784C22.12 23.832 21.952 23.88 21.776 23.928C21.616 23.96 21.448 23.992 21.272 24.024L20.336 24.168C20.224 24.184 20.104 24.2 19.976 24.216C19.864 24.248 19.744 24.256 19.616 24.24C19.456 24.224 19.288 24.272 19.112 24.384C18.952 24.464 18.864 24.576 18.848 24.72C18.816 24.816 18.8 24.888 18.8 24.936L18.728 25.56C18.728 25.672 18.72 25.792 18.704 25.92C18.704 26.048 18.696 26.176 18.68 26.304C18.664 26.368 18.648 26.432 18.632 26.496C18.616 26.576 18.592 26.656 18.56 26.736C18.48 26.928 18.328 27.024 18.104 27.024Z" fill="black"/>
<path d="M36.9927 3.82903C36.0398 2.93215 34.9083 2.22067 33.663 1.73526C32.4177 1.24984 31.083 1 29.735 1C28.387 1 27.0522 1.24984 25.8069 1.73526C24.5616 2.22067 23.4301 2.93215 22.4772 3.82903L20.4995 5.68952L18.5218 3.82903C16.5969 2.01823 13.9862 1.00094 11.264 1.00094C8.54184 1.00094 5.93115 2.01823 4.00627 3.82903C2.08139 5.63983 1 8.0958 1 10.6567C1 13.2175 2.08139 15.6735 4.00627 17.4843L5.98396 19.3448L20.4995 33L35.015 19.3448L36.9927 17.4843C37.9461 16.5878 38.7024 15.5234 39.2184 14.3519C39.7344 13.1804 40 11.9247 40 10.6567C40 9.38856 39.7344 8.1329 39.2184 6.96139C38.7024 5.78989 37.9461 4.7255 36.9927 3.82903Z" stroke="black" stroke-width="2" stroke-linecap="round" stroke-linejoin="round"/>
</svg>
