<svg width="942" height="1001" viewBox="0 0 942 1001" fill="none" xmlns="http://www.w3.org/2000/svg">
<g filter="url(#filter0_ddddd_237_430)">
<path fill-rule="evenodd" clip-rule="evenodd" d="M648.457 872.793C491.864 966.482 489.865 965.108 477.409 953.604C470.689 947.399 442.081 950.196 413.835 959.82C380.004 971.347 356.561 972.621 345.137 963.553C335.6 955.983 325.762 950.89 323.276 952.236C320.79 953.583 312.801 943.685 305.521 930.242C294.97 910.759 295.434 904.095 307.803 897.396C316.337 892.775 320.342 883.494 316.702 876.772C313.063 870.051 305.959 866.785 300.918 869.515C287.667 876.691 270.753 854.596 282.799 845.846C288.366 841.802 294.867 838.282 297.246 838.022C299.625 837.764 298.593 832.052 294.954 825.331C291.314 818.609 283.022 815.987 276.529 819.503C270.035 823.02 261.744 820.397 258.104 813.676C254.464 806.954 253.728 800.241 256.468 798.757C259.097 797.333 264.581 780.331 268.905 760.398C261.74 761.231 256.516 760.047 254.682 756.66C251.042 749.939 255.993 740.048 265.684 734.682C270.993 731.742 276.743 727.08 281.508 722.115C285.538 713.84 290.472 705.703 296.501 697.524L297.68 695.077L279.077 694.561C268.434 694.265 273.311 687.027 292.865 673.835C297.167 670.015 295.616 662.333 288.571 652.94C287.337 651.294 286.253 649.616 285.324 647.926C259.663 663.937 235.626 681.205 225.967 692.354C205.719 715.723 197.521 717.903 195.291 700.513C193.385 685.651 216.562 648.412 231.769 641.903C239.74 638.492 244.292 628.347 241.883 619.359C239.474 610.372 244.831 599.721 253.787 595.691C255.996 594.697 258.087 593.398 259.98 591.898C252.568 585.552 253.24 580.913 256.625 564.803C257.275 561.711 257.635 558.282 257.732 554.736C249.265 559.037 238.174 565.457 225.693 573.421C154.425 618.899 169.109 587.707 244.876 532.672C247.525 530.748 250.168 528.81 252.79 526.87C252.622 526.524 252.449 526.188 252.273 525.863C247.307 516.691 248.143 501.978 254.131 493.166C263.439 479.47 262.946 476.515 250.738 472.802C242.884 470.414 301.515 433.798 381.031 391.433C460.546 349.069 518.124 323.433 508.981 334.466C494.781 351.602 494.722 353.958 508.577 350.636C513.808 349.382 543.955 335.074 586.252 314.002C627.015 290.095 655.473 272.668 659.382 268.972C669.736 259.184 667.731 257.946 645.619 260.474C631.383 262.101 684.318 227.892 763.252 184.453C842.186 141.014 904.892 111.924 902.6 119.807C899.037 132.059 901.243 134.087 917.799 133.777C928.451 133.578 941.231 140.918 946.197 150.09C946.373 150.415 946.56 150.743 946.758 151.073C949.816 149.937 952.883 148.783 955.942 147.616C1043.44 114.241 1077.58 118.99 1000.55 153.82C987.061 159.92 975.623 165.7 967.394 170.44C970.416 172.297 973.485 173.869 976.43 175.015C991.771 180.984 996.023 182.957 997.287 192.633C999.577 191.867 1001.81 190.825 1003.85 189.519C1012.12 184.221 1023.96 185.555 1030.17 192.484C1036.39 199.413 1047.37 201.145 1054.58 196.334C1064.02 190.039 1087.62 188.504 1105.19 191.298C1107.34 191.393 1109.15 191.743 1110.62 192.348C1116.24 193.651 1120.86 195.48 1123.6 197.816C1124.27 198.384 1124.89 198.938 1125.45 199.478C1130.74 200.459 1136.14 199.959 1140.19 197.763C1151.65 191.561 1155.79 194.656 1164.73 216.083C1172.94 235.741 1177.82 240.604 1185.29 236.561C1190.67 233.646 1195.64 235.636 1196.33 240.984C1196.53 242.522 1197.26 244.506 1198.4 246.737C1218.8 239.949 1233.33 237.792 1234.88 243.402C1236.61 249.679 1230.58 263.594 1221.3 275.149C1222.62 277.329 1222.68 278.601 1221.18 278.481C1215.67 278.039 1210.69 297.908 1209.92 314.704C1212.3 319.788 1213.22 327.403 1212.67 335.146C1215.61 339.966 1219.89 339.234 1222.36 333.334C1225.86 324.997 1226.71 327.28 1225.77 342.44C1225.56 345.781 1225.57 349.687 1225.76 353.792C1230.48 350.659 1236.23 346.597 1243.11 341.575C1265.97 324.898 1281.46 316.981 1277.52 323.982C1272.22 333.419 1273.77 339.912 1283.52 349.091C1293.63 358.601 1292.22 368.175 1277.45 390.385C1256.67 421.633 1247.22 448.325 1251.29 461.854C1258.99 463.528 1266.17 467.798 1269.37 473.716C1269.97 474.815 1268.9 476.673 1266.45 479.095C1274.16 494.048 1268.01 519.357 1249.6 540.43C1237.72 554.016 1231.61 564.165 1236.02 562.982C1242.58 561.223 1243.81 563.884 1242.8 577.659C1242.12 586.912 1227.49 599.185 1210.29 604.935C1191.61 611.174 1181.64 620.177 1185.54 627.279C1193.64 642.031 1119.56 686.249 1051.7 707.169C952.676 737.697 929.154 747.512 949.497 749.819C965.625 751.646 964.195 754.631 941.429 766.657C926.209 774.696 910.698 777.913 906.959 773.807C903.716 770.246 897.585 769.113 888.203 770.54C879.408 780.631 874.253 788.405 874.673 791.677C875.214 795.898 870.345 802.233 863.852 805.75C848.986 813.8 846.783 800.401 860.023 782.46C861.271 780.769 862.454 779.049 863.536 777.372C838.061 786.55 801.18 804.37 750.77 831.619C694.526 862.021 661.872 875.213 648.457 872.793ZM1134.03 274.144C1148.47 266.923 1163.1 260.293 1176.57 254.846C1172.34 245.32 1166.57 239.515 1163.7 241.93C1160.82 244.36 1146.78 253.959 1132.5 263.257C1126.27 267.315 1121.72 270.591 1118.73 273.372C1124.45 271.62 1130.09 271.939 1134.03 274.144ZM255.494 622.812C253.889 619.848 252.86 612.873 253.208 607.312C253.556 601.752 256.995 603.026 260.849 610.144C264.704 617.263 265.733 624.237 263.135 625.644C260.538 627.051 257.099 625.777 255.494 622.812ZM890.737 143.542C885.492 137.69 883.451 131.683 886.202 130.194C888.953 128.704 894.181 132.985 897.821 139.706C901.461 146.428 903.502 152.435 902.356 153.055C901.211 153.675 895.982 149.395 890.737 143.542ZM750.027 207.964C772.853 192.735 812.17 171.444 837.398 160.651C862.626 149.858 843.95 162.318 795.896 188.34C747.842 214.363 727.201 223.193 750.027 207.964ZM1025.63 205.77C1024.02 202.806 1018.74 198.133 1013.9 195.385C1009.05 192.638 1008.24 196.214 1012.09 203.332C1015.95 210.45 1021.23 215.123 1023.82 213.717C1026.42 212.31 1027.23 208.734 1025.63 205.77ZM277.099 475.839C275.065 468.248 271.15 463.256 268.398 464.746C265.647 466.236 266.375 472.954 270.015 479.676C273.655 486.397 277.57 491.389 278.715 490.769C279.861 490.149 279.133 483.43 277.099 475.839ZM407.948 393.207C382.72 404 343.402 425.29 320.577 440.52C297.751 455.749 318.392 446.918 366.446 420.896C414.5 394.874 433.176 382.413 407.948 393.207ZM511.629 918.109C504.207 918.361 494.644 923.54 490.377 929.618C486.11 935.695 492.182 935.489 503.871 929.159C515.56 922.83 519.051 917.857 511.629 918.109Z" fill="#F3CCFF" fill-opacity="0.6"/>
</g>
<g filter="url(#filter1_d_237_430)">
<path d="M718.88 406.623C719.565 409.153 719.126 410.918 717.141 412.334C714.471 414.236 712.151 412.334 712.151 412.334H712.132C711.99 414.052 711.026 415.553 708.995 416.351C707.908 416.776 707.01 416.833 706.207 416.63C705.2 416.124 704.562 415.804 704.458 415.752C704.449 415.747 704.444 415.742 704.444 415.742C703.102 414.751 701.817 413.165 699.983 411.697C696.737 409.101 688.18 401.54 682.008 403.371C681.347 403.569 680.709 403.871 680.109 404.305C678.597 405.396 676.862 406.618 675.109 407.836C669.694 411.593 664.062 415.35 664.062 415.35C655.731 420.033 646.356 413.528 642.188 412.49C638.02 411.447 613.803 406.505 590.89 406.538C587.459 406.543 584.152 406.434 581.014 406.245C563.2 405.183 550.748 401.563 550.748 401.563L550.318 401.384C551.112 399.505 552.081 397.32 553.291 394.78C559.495 381.772 558.668 371.86 558.668 371.86C564.027 368.244 569.65 365.252 573.638 363.284L573.964 363.935C573.964 363.935 595.577 375.551 623.958 380.493C626.245 380.889 628.357 381.272 630.304 381.63H630.309C652.551 385.732 654.02 387.224 661.949 383.877C670.573 380.233 678.644 376.07 683.331 372.171C688.019 368.268 690.363 367.23 696.094 369.83C696.094 369.83 701.803 373.049 706.793 373.635C711.783 374.22 718.828 376.419 721.176 379.79C722.103 381.121 723.572 383.584 725.103 386.28C727.447 390.414 729.914 395.078 730.712 396.942C732.035 400.02 731.624 403.177 726.993 404.301C725.514 408.865 723.01 409.295 719.182 406.538L718.88 406.623Z" fill="#F7CDBF"/>
<path d="M697.8 350.223C697.8 350.223 697.8 350.275 697.791 350.299C697.791 350.299 697.8 350.27 697.8 350.223ZM638.847 316.262C638.663 312.538 637.557 307.993 636.362 303.41C636.267 303.051 636.173 302.692 636.083 302.334C636.083 302.334 646.412 290.397 659.681 279.46C672.945 268.529 707.265 247.992 713.46 216.849C718.715 213.554 724.668 208.088 728.704 206.262C728.704 206.262 737.89 213.408 740.839 222.527C743.782 231.646 745.124 237.268 755.303 242.615C765.481 247.968 772.985 261.269 772.716 271.077C772.446 280.881 767.428 295.041 774.091 300.266C767.229 300.601 761.46 305.515 760.047 312.227L744.647 385.293L725.103 386.28C723.572 383.584 722.103 381.121 721.176 379.79C718.828 376.419 711.783 374.22 706.793 373.635C701.803 373.049 696.094 369.83 696.094 369.83C690.363 367.229 688.019 368.268 683.331 372.171C646.2 375.523 630.55 381.536 630.309 381.63H630.304C628.357 381.272 626.245 380.889 623.958 380.493C595.577 375.551 573.964 363.935 573.964 363.935L573.638 363.284C569.65 365.252 564.026 368.244 558.668 371.86C558.668 371.86 559.495 381.772 553.291 394.78C552.081 397.32 551.112 399.505 550.318 401.384L550.748 401.563C550.748 401.563 563.2 405.183 581.014 406.245L580.953 407.298C580.953 407.298 577.276 413.075 577.796 421.666C571.351 433.726 568.662 429.666 561.116 432.923C553.489 436.213 545.376 434.419 543.878 429.931C542.38 425.442 530.699 423.346 528.246 417.026C525.794 410.706 520.459 406.538 520.459 406.538C515.266 399.222 517.482 391.906 514.949 386.28C512.804 381.522 506.231 366.904 499.824 354.849C498.652 352.649 497.485 350.53 496.355 348.576C489.031 335.912 496.922 330.847 500.58 323.536C501.855 320.987 502.484 317.886 502.73 314.313C503.065 309.607 502.744 304.085 502.399 297.901C502.248 295.301 502.101 292.587 501.993 289.769C501.851 286.097 502.545 282.599 503.713 279.304C507.205 269.496 514.949 261.519 517.477 256.134C520.856 248.945 508.183 243.626 530.434 224.495C538.302 217.731 546.245 213.394 553.224 210.618C565.988 205.535 575.537 205.662 575.537 205.662C571.195 212.124 563.356 234.525 559.481 244.286C558.97 245.58 558.526 246.646 558.172 247.43C557.751 248.355 558.068 249.445 558.918 250.007C561.754 251.867 568.298 255.44 577.555 256.134L577.763 256.233C576.369 259.065 575.462 261.779 575.462 264.578C575.462 275.297 573.17 291.676 573.118 292.044C573.505 293.049 573.789 294.073 573.959 295.126C575.145 302.48 576.487 315.625 577.29 324.041C586.415 326.226 600.979 326.637 611.729 326.585C621.307 326.543 627.256 315.847 621.916 307.903C621.77 307.691 621.623 307.483 621.472 307.275C619.596 304.75 618.302 302.612 617.418 300.474C618.632 300.606 619.818 300.875 620.971 301.253C620.971 301.253 620.981 301.253 620.986 301.253C623.263 302.06 625.385 303.207 627.313 304.514C627.454 304.609 627.592 304.708 627.729 304.807C633.541 308.998 637.656 314.861 638.635 316.324C638.701 316.423 638.852 316.376 638.843 316.258L638.847 316.262Z" fill="#BCBED5"/>
<path d="M683.331 372.171C678.644 376.07 670.573 380.233 661.949 383.877C654.02 387.224 652.551 385.732 630.309 381.63C630.55 381.536 646.2 375.523 683.331 372.171Z" fill="#4C024E"/>
<path d="M577.796 421.666C577.276 413.075 580.952 407.298 580.952 407.298L581.014 406.245C584.152 406.434 587.459 406.543 590.89 406.538C613.803 406.505 638.02 411.447 642.188 412.49C646.356 413.528 655.731 420.033 664.061 415.35C664.061 415.35 669.694 411.593 675.109 407.836C675.109 407.836 718.18 428.807 725.495 432.276C732.805 435.746 736.047 433.069 736.047 433.069C736.751 433.877 737.814 434.372 739 434.297L899.467 423.667C904.037 423.365 907.912 420.212 909.14 415.808L921.809 370.302L922.914 370.609H942V531.341C832.51 528.556 751.083 510.006 691.331 490.498C663.31 481.346 640.052 471.986 620.905 463.943C586.637 449.552 578.486 433.112 577.796 421.666Z" fill="#4C024E"/>
<path d="M936.963 292.37C940.233 292.209 942.699 295.291 941.821 298.44L921.809 370.302L909.14 415.808C907.912 420.212 904.037 423.365 899.467 423.667L739 434.297C737.814 434.372 736.751 433.877 736.047 433.069C735.338 432.258 734.989 431.134 735.234 429.964L735.74 427.571L744.647 385.293L760.047 312.227C761.46 305.515 767.229 300.601 774.091 300.266L936.963 292.37Z" fill="#CECECE"/>
<path d="M744.647 385.293L735.74 427.571C735.74 427.571 733.538 428.887 729.332 427.571C725.878 426.49 711.296 419.197 706.207 416.629C707.01 416.832 707.908 416.776 708.994 416.351C711.026 415.553 711.99 414.052 712.132 412.334H712.151C712.151 412.334 714.471 414.236 717.141 412.334C719.126 410.918 719.565 409.153 718.88 406.623L719.182 406.538C723.01 409.295 725.514 408.865 726.993 404.301C731.624 403.177 732.035 400.02 730.712 396.942C729.913 395.078 727.447 390.414 725.103 386.28L744.647 385.293Z" fill="#BBBBBC"/>
<path d="M735.74 427.571L735.234 429.964C734.989 431.134 735.338 432.258 736.047 433.069C736.047 433.069 732.806 435.746 725.495 432.276C718.181 428.807 675.109 407.836 675.109 407.836C676.862 406.618 678.597 405.396 680.109 404.305C680.709 403.871 681.347 403.569 682.008 403.371L704.444 415.742C704.444 415.742 704.449 415.747 704.458 415.752C705.016 416.167 705.583 416.474 706.207 416.63C711.296 419.197 725.878 426.49 729.332 427.571C733.538 428.888 735.74 427.571 735.74 427.571Z" fill="#CECECE"/>
<path d="M733.647 175.067C736.004 179.579 738.556 186.452 730.499 185.862C727.234 185.621 723.52 185.545 719.655 185.696C716.087 185.829 712.397 186.164 708.81 186.74C706.684 187.075 704.595 187.504 702.596 188.023C693.557 190.379 687.268 197.836 669.779 197.836C652.291 197.836 643.658 182.808 643.658 182.808L626.864 156.862L622.975 150.853L623.693 150.39C663.698 163.701 715.142 142.168 715.142 142.168L716.352 141.696C716.352 141.696 731.289 170.55 733.647 175.067Z" fill="#D96CFF"/>
<path d="M728.595 204.931C729.252 205.091 729.323 205.983 728.704 206.262C724.668 208.088 718.714 213.554 713.46 216.844C711.116 218.312 708.909 219.346 707.071 219.435C700.186 219.766 697.843 203.939 697.791 203.576C702.488 198.393 706.599 192.753 708.81 186.74C712.397 186.164 716.087 185.829 719.655 185.696L722.15 195.769C722.386 196.713 721.819 197.638 720.893 197.94C720.543 198.058 720.236 198.228 719.967 198.436C717.873 200.064 719.003 203.425 721.639 203.685C724.196 203.93 726.757 204.473 728.595 204.931Z" fill="black"/>
<path d="M713.03 98.3896C720.109 116.911 716.352 141.696 716.352 141.696L715.142 142.168C715.142 142.168 663.698 163.701 623.693 150.39L622.975 150.853L622.654 150.357C619.313 149.815 615.457 148.408 612.031 146.916C608.284 145.288 605.056 143.556 603.587 142.739C603.062 142.447 602.732 141.899 602.713 141.3C602.618 138.038 602.618 134.989 602.703 132.157C602.722 131.468 602.746 130.793 602.774 130.132C602.892 127.404 603.147 124.694 603.535 122.009C605.652 107.311 611.785 93.41 621.576 82.1102C635.535 65.9959 648.345 65 666.429 65C690.093 65 705.956 79.8682 713.03 98.3896Z" fill="#D96CFF"/>
<path d="M707.071 219.435C708.909 219.346 711.116 218.312 713.46 216.849C707.265 247.992 672.945 268.529 659.681 279.46C646.412 290.397 636.083 302.334 636.083 302.334C635.724 300.974 635.365 299.619 635.024 298.284H635.029C635.029 298.284 655.305 285.271 669.505 222.527C674.126 223.282 678.313 222.192 682.452 218.387C687.149 214.064 692.796 209.084 697.791 203.576C697.843 203.939 700.187 219.766 707.071 219.435Z" fill="#ABAFC9"/>
<path d="M704.444 415.742L682.008 403.371C688.18 401.539 696.737 409.101 699.983 411.697C701.817 413.165 703.102 414.751 704.444 415.742Z" fill="#BBBBBC"/>
<path d="M702.597 188.023C704.595 187.504 706.684 187.075 708.81 186.74C706.599 192.753 702.488 198.393 697.791 203.571C692.796 209.084 687.149 214.064 682.453 218.387C678.313 222.192 674.126 223.282 669.505 222.527C663.953 221.625 657.782 218.062 650.33 213.356C643.568 209.089 636.858 202.297 631.433 196.005C625.9 189.586 621.699 183.69 620.126 181.514C617.834 178.338 616.492 173.547 615.939 171.239C615.807 170.687 615.131 170.469 614.71 170.852C613.189 172.225 611.332 173.217 609.229 173.66C602.401 175.105 595.596 170.243 594.023 162.804C593.654 161.062 593.607 159.34 593.839 157.697C594.278 154.516 595.762 151.651 597.978 149.607C599.509 148.196 601.394 147.181 603.53 146.732C606.342 146.142 609.153 146.619 611.596 147.908C611.998 148.115 612.39 148.351 612.773 148.606C612.773 148.606 614.479 153.307 617.305 157.961C620.13 162.611 624.289 162.946 624.289 162.946C624.289 162.946 626.746 162.077 626.864 156.862L643.658 182.808C643.658 182.808 652.286 197.836 669.779 197.836C687.272 197.836 693.557 190.379 702.597 188.023Z" fill="#F7CDBF"/>
<path d="M669.392 555.777C659.606 557.079 645.127 555.541 627.426 554.002C613.987 552.836 607.273 548.753 603.223 543.722C598.351 537.67 597.331 530.251 593.116 524.874C585.394 515.019 568.672 518.875 570.387 498.31C572.102 477.749 568.672 470.037 566.096 461.04C563.526 452.044 541.222 452.474 541.222 452.474C539.082 451.619 537.272 451.35 535.684 451.44V451.421C535.684 451.421 544.218 444.591 561.116 432.923C568.662 429.666 571.351 433.726 577.796 421.666C578.486 433.112 586.637 449.552 620.905 463.943C640.052 471.986 663.31 481.346 691.331 490.498C691.279 491.084 687.012 537.793 682.325 548.437C680.43 552.737 675.969 554.899 669.392 555.777Z" fill="#BCBED5"/>
<path d="M680.236 735.068C680.373 735.988 680.232 736.942 679.759 737.749C677.458 741.685 672.482 740.161 669.633 738.848C668.333 738.244 667.417 737.041 667.194 735.629C665.564 725.156 658.216 678.158 654.625 658.598C650.571 636.518 650.731 613.333 650.731 613.333V561.403C650.731 560.936 650.112 560.775 649.881 561.181C633.442 590.502 592.653 590.979 592.653 590.979H562.77V741.364C558.451 721.228 542.611 666.098 543.089 659.863C543.571 653.633 555.308 641.648 552.558 634.455C549.808 627.266 545.489 621.031 547.408 610.487C549.331 599.937 560.369 599.423 557.009 583.62C553.65 567.817 552.785 576.111 552.558 566.916C552.336 557.868 546.444 553.289 546.245 553.138C549 552.288 550.739 551.901 552.558 547.568C552.558 547.568 569.645 557.112 603.223 543.722C607.273 548.753 613.987 552.836 627.426 554.002C645.127 555.541 659.606 557.079 669.392 555.777C669.378 556.584 667.889 635.106 668.258 646.822C668.598 657.739 678.757 725.288 680.236 735.068ZM640.156 559.151H562.77V579.91C562.77 579.91 629.978 587.396 640.156 559.151Z" fill="#4C024E"/>
<path d="M650.33 213.356C657.782 218.062 663.953 221.625 669.505 222.527C655.305 285.271 635.029 298.284 635.029 298.284H635.024C634.032 294.371 633.21 290.661 633.111 287.673C632.851 279.838 620.593 271.077 620.593 271.077C623.05 266.504 625.56 261.84 625.801 256.134C626.278 244.829 626.519 238.877 629.883 222.754C633.248 206.63 631.433 196.005 631.433 196.005C636.858 202.297 643.568 209.089 650.33 213.356Z" fill="#E8B9AC"/>
<path d="M638.847 316.262C638.857 316.38 638.705 316.428 638.639 316.328C637.661 314.865 633.545 309.003 627.733 304.812C634.566 309.593 638.847 316.262 638.847 316.262Z" fill="#BCBED5"/>
<path d="M636.362 303.41C637.557 307.993 638.663 312.538 638.847 316.262C638.847 316.262 634.566 309.593 627.733 304.812C627.596 304.712 627.459 304.613 627.317 304.519C625.37 303.16 623.244 301.998 620.99 301.257C620.99 301.257 620.981 301.257 620.976 301.257C619.823 300.88 618.637 300.611 617.423 300.479C615.702 296.325 615.547 292.176 615.707 285.2C615.83 279.97 618.183 275.566 620.593 271.082C620.593 271.082 632.851 279.843 633.111 287.678C633.21 290.666 634.032 294.376 635.024 298.288C635.365 299.624 635.724 300.979 636.083 302.338C636.173 302.697 636.267 303.056 636.362 303.414V303.41Z" fill="#BCBED5"/>
<path d="M631.433 196.005C631.433 196.005 633.248 206.63 629.883 222.753C626.519 238.877 626.278 244.829 625.8 256.134C625.559 261.84 623.05 266.504 620.593 271.077C618.183 275.561 615.83 279.965 615.707 285.195C615.547 292.171 615.707 296.32 617.423 300.474C618.306 302.612 619.601 304.75 621.477 307.275C621.628 307.483 621.775 307.691 621.921 307.903C627.261 315.847 621.311 326.543 611.733 326.585C600.983 326.637 586.42 326.226 577.295 324.041C576.492 315.625 575.15 302.48 573.964 295.126C573.794 294.073 573.51 293.049 573.123 292.049C573.175 291.676 575.466 275.297 575.466 264.578C575.466 261.779 576.374 259.065 577.768 256.233C581.775 248.086 589.812 238.953 591.873 223.985C594.651 203.817 589.879 199.979 589.879 199.979C589.879 199.979 581.666 200.928 576.931 204.081C576.525 204.35 576.062 204.893 575.542 205.662C575.542 205.662 565.992 205.535 553.229 210.618C565.992 202.099 578.703 189.713 582.729 184.615C586.755 179.518 588.952 173.811 588.952 168.147C588.952 162.483 593.838 157.697 593.838 157.697C593.607 159.34 593.654 161.062 594.023 162.804C595.596 170.243 602.401 175.105 609.229 173.66C611.332 173.217 613.189 172.225 614.71 170.852C615.131 170.469 615.806 170.687 615.939 171.239C616.492 173.547 617.834 178.338 620.125 181.514C621.699 183.69 625.9 189.586 631.433 196.005Z" fill="black"/>
<path d="M622.975 150.853L626.864 156.862C626.746 162.077 624.288 162.946 624.288 162.946C624.288 162.946 620.13 162.611 617.304 157.961C614.479 153.307 612.773 148.606 612.773 148.606C612.39 148.351 611.998 148.115 611.596 147.908L612.031 146.916C615.457 148.408 619.313 149.815 622.653 150.357L622.975 150.853Z" fill="black"/>
<path d="M627.317 304.519C625.39 303.211 623.268 302.064 620.99 301.257C623.244 301.998 625.371 303.16 627.317 304.519Z" fill="#BCBED5"/>
<path d="M612.031 146.916L611.596 147.908C609.153 146.619 606.342 146.142 603.53 146.732C601.394 147.181 599.509 148.196 597.978 149.607L602.713 141.3C602.731 141.899 603.062 142.447 603.587 142.739C605.056 143.556 608.284 145.288 612.031 146.916Z" fill="black"/>
<path d="M603.53 122.009H603.535C603.147 124.694 602.892 127.404 602.774 130.132C602.746 130.793 602.722 131.468 602.703 132.157H602.642C602.642 132.157 583.216 136.211 575.646 139.709C574.677 140.157 573.529 139.836 572.919 138.963L569.612 134.21C568.827 133.087 569.243 131.529 570.486 130.953C574.469 129.112 584.142 125.445 603.53 122.009Z" fill="#D96CFF"/>
<path d="M552.558 547.568C550.739 551.901 549 552.288 546.245 553.138C543.5 553.978 539.738 555.276 533.874 561.403C521.248 574.586 519.528 570.574 513.215 594.075C506.902 617.581 484.518 633.058 471.32 646.241C463.609 653.944 455.977 663.738 450.968 670.549C447.401 675.397 445.166 678.729 445.166 678.729C440.804 686.569 442.553 693.541 441.39 698.478C440.459 702.414 429.166 704.505 424.639 705.19C423.897 705.303 423.349 704.538 423.675 703.863C423.907 703.387 424.114 702.896 424.299 702.395C424.979 700.555 425.353 698.601 425.532 696.698C426.161 689.944 422.366 683.548 416.233 680.636C410.695 678.007 403.999 675.567 397.757 673.542C387.904 670.342 379.172 668.156 377.839 667.826C377.792 667.816 377.759 667.783 377.745 667.746C377.735 667.708 377.745 667.67 377.764 667.632C379.422 665.032 401.92 629.853 414.068 614.451C424.989 600.608 428.641 564.617 443.895 535.693C445.44 532.762 447.108 529.897 448.913 527.14C450.869 524.157 452.159 520.796 452.826 517.299C454.224 509.912 457.376 497.267 463.094 493.236C471.344 487.421 486.56 475.786 499.824 469.966C499.824 469.966 506.463 466.95 510.626 465.982C514.784 465.019 515.753 455.358 522.198 455.999C527.221 456.504 530.094 451.747 535.684 451.44C537.272 451.35 539.081 451.619 541.222 452.474C541.222 452.474 563.526 452.044 566.096 461.04C568.671 470.037 572.102 477.749 570.387 498.31C568.671 518.875 585.394 515.019 593.116 524.874C597.331 530.251 598.351 537.67 603.223 543.722C569.645 557.112 552.558 547.568 552.558 547.568Z" fill="#E5D8C7"/>
<path d="M589.879 199.979C589.879 199.979 594.651 203.817 591.873 223.985C589.812 238.953 581.775 248.086 577.768 256.233L577.56 256.134C568.303 255.44 561.758 251.867 558.923 250.007C558.072 249.445 557.756 248.355 558.176 247.43C558.531 246.646 558.975 245.58 559.485 244.286C563.36 234.525 571.199 212.124 575.542 205.662C576.062 204.893 576.525 204.35 576.931 204.081C581.666 200.928 589.879 199.979 589.879 199.979Z" fill="#BCBED5"/>
<path d="M573.855 801.233C574.455 803.206 573.458 805.302 571.577 806.147C564.99 809.097 551.32 813.85 539.554 816.993C532.679 818.825 526.455 820.109 522.675 820.161C521.796 820.17 521.05 820.118 520.459 819.986C515.02 818.792 504.256 819.084 496.927 819.476C495.287 819.566 493.818 819.656 492.622 819.741C490.581 819.877 488.761 818.504 488.322 816.512C485.737 804.825 481.593 769.316 477.818 740.406C473.499 707.323 471.32 646.241 471.32 646.241C484.518 633.058 506.902 617.581 513.215 594.075C519.528 570.574 521.248 574.586 533.874 561.403C539.738 555.276 543.5 553.978 546.245 553.138C546.443 553.289 552.336 557.868 552.558 566.916C552.785 576.111 553.65 567.817 557.009 583.62C560.369 599.423 549.331 599.937 547.407 610.487C545.489 621.031 549.808 627.266 552.558 634.455C555.308 641.648 543.57 653.633 543.088 659.863C542.611 666.098 558.45 721.228 562.769 741.364C567.088 761.5 572.367 787.866 572.849 795.055C573.033 797.844 573.434 799.836 573.855 801.233Z" fill="#E5D8C7"/>
<path d="M543.878 429.931C545.376 434.419 553.489 436.213 561.116 432.923C544.218 444.591 535.684 451.421 535.684 451.421V451.44C530.094 451.747 527.221 456.505 522.198 455.999C515.753 455.358 514.784 465.019 510.626 465.982C506.463 466.95 499.823 469.966 499.823 469.966C486.559 475.786 471.344 487.421 463.094 493.236C457.376 497.267 454.224 509.912 452.825 517.299C452.159 520.796 450.869 524.157 448.913 527.14C447.108 529.897 445.44 532.762 443.895 535.693C443.895 535.693 432.918 530.468 431.25 521.821C429.586 513.169 433.248 514.83 436.58 508.845C439.325 503.913 441.39 501.685 442.038 490.64C442.175 488.275 442.245 485.509 442.245 482.224C442.245 472.652 445.6 464.599 448.936 457.312C452.098 450.42 455.245 444.204 455.514 438.049C455.604 436.019 455.991 434.183 456.601 432.479C458.33 427.627 461.841 423.87 465.329 419.768C468.244 416.342 471.145 412.679 472.979 407.945C477.766 395.564 499.823 354.849 499.823 354.849C506.231 366.904 512.804 381.522 514.949 386.28C517.482 391.906 515.266 399.222 520.459 406.538C520.459 406.538 525.794 410.706 528.246 417.026C530.699 423.346 542.38 425.442 543.878 429.931Z" fill="#BCBED5"/>
<path d="M545.47 842.444C545.47 842.444 550.432 849.095 548.235 856.543C546.037 863.996 535.694 864.727 524.792 873.946C513.891 883.164 518.526 888.682 516.343 895.488C514.165 902.294 504.351 914 484.731 914C465.111 914 454.479 907.194 452.57 904.201C450.661 901.204 450.661 892.222 452.57 884.873C454.451 877.637 461.397 874.059 461.615 873.95C461.137 874.559 460.826 875.291 460.726 876.065C460.632 876.82 460.561 877.538 460.528 878.222C460.055 886.638 464.091 890.088 475.862 892.477C483.285 893.982 489.683 893.496 495.798 891.363C500.584 889.687 505.201 887.006 510.002 883.471C520.936 875.423 519.401 865.846 525.539 859.521C531.313 853.574 544.142 850.157 545.47 842.444Z" fill="white"/>
<path d="M516.041 842.444C517.284 840.599 518.252 838.947 518.81 837.578C518.952 837.233 519.089 836.889 519.221 836.553C520.001 834.614 520.7 832.773 521.319 831.092C523.256 825.797 524.343 822.12 524.343 822.12L524.906 821.043C527.566 822.195 531.767 824.347 532.646 826.792C534.687 832.475 538.34 831.394 538.949 828.369C539.181 827.213 539.323 825.282 539.412 823.337H539.554C539.554 823.337 545.38 832.14 545.584 840.938C545.593 841.458 545.555 841.958 545.47 842.444C544.142 850.157 531.313 853.574 525.539 859.521C519.401 865.846 520.936 875.423 510.002 883.471C505.201 887.006 500.584 889.687 495.798 891.363L495.722 890.645C495.722 890.645 489.074 881.498 492.556 873.606C493.01 872.577 493.737 871.345 494.659 869.967C496.171 867.706 498.222 865.044 500.495 862.207C502.352 859.885 504.365 857.444 506.354 855.009C508.339 852.583 510.3 850.161 512.076 847.867C513.56 845.951 514.916 844.115 516.041 842.444Z" fill="#F09C42"/>
<path d="M539.554 816.994C539.554 816.994 539.554 820.184 539.412 823.337C539.323 825.282 539.181 827.213 538.949 828.369C538.34 831.394 534.687 832.475 532.646 826.792C531.767 824.347 527.566 822.195 524.906 821.043C523.606 820.482 522.675 820.161 522.675 820.161C526.456 820.109 532.679 818.825 539.554 816.994Z" fill="#F7CDBF"/>
<path d="M524.906 821.043L524.343 822.12C524.343 822.12 523.256 825.796 521.319 831.092L505.636 830.134L495.731 825.452C496.521 822.431 496.974 820.42 496.974 820.42L496.927 819.476C504.256 819.085 515.02 818.792 520.459 819.986C521.05 820.118 521.796 820.17 522.675 820.161C522.675 820.161 523.606 820.482 524.906 821.043Z" fill="#F09C42"/>
<path d="M505.636 830.134L521.319 831.092C520.7 832.773 520.001 834.614 519.221 836.553L505.636 830.134Z" fill="#F09C42"/>
<path d="M505.636 830.134L519.221 836.553C519.089 836.889 518.952 837.233 518.81 837.578C518.252 838.947 517.284 840.599 516.041 842.444H503.41L492.74 835.765C493.444 833.594 494.087 831.442 494.645 829.464L505.636 830.134Z" fill="#F09C42"/>
<path d="M503.41 842.444H516.041C514.916 844.115 513.56 845.951 512.076 847.867L503.41 842.444Z" fill="#F09C42"/>
<path d="M503.41 842.444L512.076 847.867C510.3 850.161 508.339 852.583 506.354 855.009L493.714 856.434L486.815 850.553C487.798 848.344 488.714 846.239 489.536 844.365C489.811 843.742 490.08 843.1 490.345 842.444H503.41Z" fill="#F09C42"/>
<path d="M493.714 856.434L506.354 855.009C504.364 857.444 502.352 859.885 500.494 862.207L493.714 856.434Z" fill="#F09C42"/>
<path d="M503.41 842.444H490.344C491.2 840.32 492.003 838.036 492.74 835.765L503.41 842.444Z" fill="#F09C42"/>
<path d="M502.399 297.901C502.744 304.085 503.065 309.607 502.73 314.308C502.408 313.77 491.238 295.027 469.383 298.284C447.202 301.588 445.785 322.318 447.675 346.117C449.56 369.92 465.329 419.768 465.329 419.768C461.841 423.87 458.33 427.627 456.601 432.475L439.651 363.935C439.651 363.935 420.107 307.87 459.701 291.407C461.459 290.67 463.33 290.019 465.329 289.453C465.329 289.453 475.11 286.422 487.018 289.769C491.961 291.156 497.267 293.644 502.394 297.901H502.399Z" fill="#4C024E"/>
<path d="M501.992 289.769H487.018C475.11 286.422 465.329 289.453 465.329 289.453C463.33 290.019 461.459 290.67 459.701 291.407C406.135 294.885 420.826 356.034 420.826 356.034L448.936 457.312C445.6 464.599 442.245 472.652 442.245 482.224C442.245 485.509 442.175 488.275 442.037 490.64H442.033C442.033 490.64 417.82 399.6 415.486 391.934C413.147 384.269 392.223 304.472 430.834 287.598C468.348 271.205 503.23 279.191 503.712 279.304C502.545 282.599 501.851 286.097 501.992 289.769Z" fill="#4C024E"/>
<path d="M493.714 856.434L500.495 862.207C498.222 865.044 496.171 867.706 494.659 869.967C489.088 866.809 483.545 865.525 479.542 865.02C480.932 862.717 482.274 860.168 483.545 857.577L493.714 856.434Z" fill="#F09C42"/>
<path d="M492.74 835.765C492.003 838.036 491.2 840.32 490.345 842.444C490.08 843.1 489.811 843.742 489.537 844.365C488.714 846.239 487.798 848.344 486.815 850.553C485.794 852.838 484.698 855.226 483.545 857.577C482.274 860.168 480.932 862.717 479.543 865.02C478.73 866.37 477.903 867.64 477.062 868.782C475.512 870.897 473.929 872.586 472.346 873.606C465.839 877.783 460.528 878.222 460.528 878.222C460.561 877.538 460.632 876.82 460.726 876.065C460.826 875.291 461.137 874.559 461.615 873.95C463.561 871.487 468.953 864.638 471.316 861.159C474.227 856.869 482.841 843.228 487.524 834.264C492.206 825.301 492.617 819.741 492.617 819.741C493.813 819.656 495.283 819.566 496.922 819.476L496.969 820.42C496.969 820.42 496.516 822.431 495.727 825.452C495.415 826.651 495.051 828.005 494.64 829.464C494.082 831.442 493.44 833.594 492.736 835.765H492.74Z" fill="#F09C42"/>
<path d="M495.722 890.645L495.797 891.363C489.683 893.496 483.285 893.982 475.861 892.477C464.091 890.088 460.055 886.638 460.528 878.222C460.528 878.222 465.839 877.783 472.346 873.606C473.929 872.586 475.512 870.897 477.062 868.782C477.062 868.782 485.354 868.966 492.556 873.606C489.073 881.498 495.722 890.645 495.722 890.645Z" fill="white"/>
<path d="M486.815 850.553L493.714 856.434L483.545 857.577C484.698 855.226 485.794 852.838 486.815 850.553Z" fill="#F09C42"/>
<path d="M494.659 869.967C493.737 871.345 493.01 872.577 492.556 873.606C485.355 868.966 477.062 868.782 477.062 868.782C477.903 867.64 478.73 866.37 479.543 865.02C483.545 865.525 489.088 866.809 494.659 869.967Z" fill="#F09C42"/>
<path d="M424.294 702.395C424.067 702.773 416.852 714.96 410.865 723.131L410.78 723.112C411.087 721.705 410.591 720.336 408.998 718.982C405.029 715.612 396.812 718.982 396.812 718.982C393.924 704.793 375.77 708.366 375.77 708.366C375.231 705.86 374.244 703.42 372.453 702.518L373.747 702.112C375.486 697.081 382.201 689.288 388.089 683.109C393.239 677.71 397.757 673.542 397.757 673.542C403.999 675.567 410.695 678.007 416.233 680.636C422.366 683.548 426.161 689.944 425.532 696.698C425.353 698.601 424.979 700.555 424.299 702.395H424.294Z" fill="#F7CDBF"/>
<path d="M408.998 718.982C410.591 720.336 411.087 721.705 410.78 723.112C410.321 725.208 408.082 727.398 405.029 729.767C399.93 733.727 395.966 746.75 390.012 760.901C388.552 764.379 386.624 767.693 384.479 770.761C377.906 780.177 369.277 787.347 365.643 790.335C364.585 791.208 362.993 792.039 361.003 792.709C361.003 792.709 355.73 788.919 355.73 781.56C355.73 779.601 356.231 777.425 357.095 775.127C359.477 768.792 364.623 761.542 369.613 755.52C376.412 747.311 396.812 718.982 396.812 718.982C396.812 718.982 405.029 715.612 408.998 718.982Z" fill="#F09C42"/>
<path d="M377.839 667.826C379.172 668.156 387.904 670.342 397.757 673.542C397.757 673.542 393.239 677.71 388.089 683.109L387.985 683.01C380.575 679.045 377.665 667.783 377.665 667.783L377.745 667.746C377.759 667.783 377.792 667.816 377.839 667.826Z" fill="#CEBCA7"/>
<path d="M396.812 718.982C396.812 718.982 376.412 747.311 369.613 755.52C364.623 761.542 359.477 768.792 357.095 775.127C347.749 773.81 338.709 766.395 338.709 766.395C346.17 761.372 354.766 742.086 362.879 731.07C368.375 723.603 372.632 719.034 374.81 716.858C375.878 715.791 376.441 714.328 376.346 712.827C376.271 711.557 376.11 709.948 375.77 708.366C375.77 708.366 393.924 704.793 396.812 718.982Z" fill="#F09C42"/>
<path d="M384.478 770.761C384.478 770.761 384.805 777.85 383.174 783.344C381.544 788.843 376.653 797.797 366.489 805.326C356.325 812.859 344.257 813.062 332.642 811.23C321.027 809.399 310.631 800.237 309.412 795.352C308.188 790.472 309.615 777.444 314.709 770.761C319.803 764.077 325.691 762.6 325.691 762.6C324.566 764.733 322.993 767.99 322.378 771.667C321.443 777.246 322.709 783.802 331.078 788.919C341.908 795.546 353.948 795.107 361.003 792.709C362.992 792.039 364.585 791.208 365.643 790.335C369.277 787.347 377.906 780.177 384.478 770.761Z" fill="white"/>
<path d="M376.346 712.827C376.441 714.328 375.878 715.791 374.811 716.858C372.632 719.034 368.375 723.603 362.879 731.07C354.766 742.086 346.17 761.372 338.709 766.395C331.243 771.417 322.378 771.667 322.378 771.667C322.993 767.99 324.566 764.733 325.691 762.6C328.526 757.219 331.928 755.803 334.475 751.276C337.027 746.75 352.044 726.935 357.426 717.311C362.813 707.687 367.628 700.611 372.164 702.386C372.264 702.424 372.358 702.466 372.453 702.518C374.244 703.42 375.231 705.86 375.77 708.366C376.11 709.948 376.271 711.557 376.346 712.827Z" fill="#F09C42"/>
<path d="M355.73 781.56C355.73 788.919 361.003 792.709 361.003 792.709C353.948 795.107 341.908 795.546 331.078 788.919C322.709 783.802 321.443 777.246 322.378 771.667C322.378 771.667 331.243 771.417 338.709 766.395C338.709 766.395 347.749 773.81 357.095 775.127C356.231 777.425 355.73 779.601 355.73 781.56Z" fill="white"/>
<path d="M510.626 496.691C510.626 496.691 453.629 579.339 450.969 670.549" stroke="#BFAD97" stroke-width="4" stroke-miterlimit="10" stroke-linecap="round"/>
<path d="M492.617 483.362C492.617 483.362 467.493 518.139 459.701 519.498" stroke="#BFAD97" stroke-width="4" stroke-miterlimit="10" stroke-linecap="round"/>
<path d="M527.197 514.759C527.197 514.759 526.9 496.87 534.687 496.691C542.474 496.507 547.067 501.595 552.558 510.573" stroke="#BFAD97" stroke-width="4" stroke-miterlimit="10" stroke-linecap="round"/>
<path d="M715.142 142.168C715.142 142.168 663.698 163.701 623.693 150.39" stroke="#2D2C2D" stroke-width="4" stroke-miterlimit="10" stroke-linecap="round"/>
<path d="M528.87 354.481C528.87 354.481 539.748 345.654 553.045 346.136C566.337 346.622 563.634 347.863 572.622 347.585" stroke="#8B8FAF" stroke-width="4" stroke-miterlimit="10" stroke-linecap="round"/>
<path d="M556.669 320.784C556.669 320.784 545.068 319.571 528.87 324.041C512.676 328.511 499.823 331.89 499.823 331.89" stroke="#8B8FAF" stroke-width="4" stroke-miterlimit="10" stroke-linecap="round"/>
<path d="M546.226 417.026C547.058 419.226 547.875 421.958 548.183 424.767" stroke="#8B8FAF" stroke-width="4" stroke-miterlimit="10" stroke-linecap="round"/>
<path d="M543.991 412.131C543.991 412.131 545.121 414.114 546.222 417.026" stroke="#8B8FAF" stroke-width="4" stroke-miterlimit="10" stroke-linecap="round"/>
<path d="M546.221 417.026H546.226C546.5 417.116 556.031 420.023 562.713 409.295" stroke="#8B8FAF" stroke-width="4" stroke-miterlimit="10" stroke-linecap="round"/>
<path d="M573.123 292.049C573.51 293.049 573.794 294.073 573.964 295.126C575.15 302.48 576.492 315.625 577.295 324.041C577.739 328.686 578.018 331.89 578.018 331.89" stroke="#8B8FAF" stroke-width="4" stroke-miterlimit="10" stroke-linecap="round"/>
<path d="M520.459 247.01C520.459 247.01 531.044 252.962 543.991 264.375C555.738 274.731 569.333 282.221 573.123 292.044" stroke="#8B8FAF" stroke-width="4" stroke-miterlimit="10" stroke-linecap="round"/>
<path d="M559.485 244.286C559.485 244.286 551.211 229.994 541.425 229.994C531.639 229.994 523.975 237.14 523.975 237.14" stroke="#8B8FAF" stroke-width="4" stroke-miterlimit="10" stroke-linecap="round"/>
<path d="M609.569 156.059L605.869 160.156L602.169 164.253" stroke="#C68B77" stroke-width="4" stroke-miterlimit="10" stroke-linecap="round"/>
<path d="M609.975 163.852L605.869 160.156L601.768 156.46" stroke="#C68B77" stroke-width="4" stroke-miterlimit="10" stroke-linecap="round"/>
<path d="M535.684 451.421C535.684 451.421 544.218 444.591 561.116 432.923" stroke="#8B8FAF" stroke-width="4" stroke-miterlimit="10" stroke-linecap="round"/>
<path d="M644.825 334.09C645.656 327.236 638.847 316.262 638.847 316.262C638.847 316.262 634.566 309.593 627.733 304.812C627.596 304.712 627.459 304.613 627.317 304.519C625.39 303.211 623.268 302.064 620.99 301.257C620.99 301.257 620.981 301.257 620.976 301.257" stroke="#8B8FAF" stroke-width="4" stroke-miterlimit="10" stroke-linecap="round"/>
<path d="M607.707 374.607C607.707 374.607 663.579 318.434 685.547 278.87" stroke="#8B8FAF" stroke-width="4" stroke-miterlimit="10" stroke-linecap="round"/>
<path d="M697.8 350.218C698.651 342.303 699.998 338.593 707.917 327.812C715.87 316.994 710.053 311.434 712.151 304.382C714.254 297.335 705.706 288.003 712.151 277.261C719.182 265.555 722.381 249.969 722.381 249.969C722.381 249.969 725.642 237.626 731.369 231.825C737.091 226.029 733.831 213.115 733.831 213.115" stroke="#8B8FAF" stroke-width="4" stroke-miterlimit="10" stroke-linecap="round"/>
<path d="M706.022 358.833C703.003 353.858 696.945 358.271 697.791 350.299C697.796 350.275 697.796 350.247 697.8 350.223" stroke="#8B8FAF" stroke-width="4" stroke-miterlimit="10" stroke-linecap="round"/>
<path d="M697.791 350.299C697.791 350.299 697.8 350.27 697.8 350.223C697.8 349.827 697.266 348.312 688.099 352.527C677.779 357.275 686.341 359.399 674.774 360.546C663.201 361.693 665.328 362.344 659.596 368.235C653.864 374.125 647.069 370.274 642.443 376.349" stroke="#8B8FAF" stroke-width="4" stroke-miterlimit="10" stroke-linecap="round"/>
<path d="M495.722 890.645C495.722 890.645 489.074 881.498 492.556 873.606C493.01 872.577 493.737 871.345 494.659 869.967C496.171 867.706 498.222 865.044 500.495 862.207C502.352 859.885 504.365 857.444 506.354 855.009C508.339 852.583 510.3 850.161 512.076 847.867C513.56 845.951 514.916 844.115 516.041 842.444C517.284 840.599 518.252 838.947 518.81 837.578C518.952 837.233 519.089 836.889 519.221 836.553C520.001 834.614 520.7 832.773 521.319 831.092C523.256 825.796 524.343 822.12 524.343 822.12" stroke="#D68338" stroke-width="4" stroke-miterlimit="10" stroke-linecap="round"/>
<path d="M460.528 878.222C460.528 878.222 465.839 877.783 472.346 873.606C473.929 872.586 475.512 870.897 477.062 868.782C477.903 867.64 478.73 866.37 479.543 865.02C480.932 862.717 482.274 860.168 483.545 857.577C484.698 855.226 485.794 852.838 486.815 850.553C487.798 848.344 488.714 846.239 489.537 844.365C489.811 843.742 490.08 843.1 490.345 842.444C491.2 840.32 492.003 838.036 492.74 835.765C493.444 833.594 494.087 831.442 494.645 829.464C495.056 828.005 495.42 826.651 495.731 825.452C496.521 822.431 496.974 820.42 496.974 820.42" stroke="#D68338" stroke-width="4" stroke-miterlimit="10" stroke-linecap="round"/>
<path d="M473.537 864.742C473.537 864.742 475.909 864.562 479.542 865.02C483.545 865.525 489.088 866.809 494.659 869.967C496.44 870.977 498.231 872.176 499.97 873.606" stroke="white" stroke-width="8" stroke-miterlimit="10" stroke-linecap="round"/>
<path d="M504.771 865.851L500.494 862.207L493.714 856.434L486.815 850.553L484.806 848.844" stroke="white" stroke-width="8" stroke-miterlimit="10" stroke-linecap="round"/>
<path d="M478.843 858.105L483.545 857.577L493.714 856.434L506.354 855.009L510.309 854.565" stroke="white" stroke-width="8" stroke-miterlimit="10" stroke-linecap="round"/>
<path d="M518.285 842.444H516.041H503.41H490.345H486.753" stroke="white" stroke-width="8" stroke-miterlimit="10" stroke-linecap="round"/>
<path d="M513.636 848.844L512.076 847.867L503.41 842.444L492.74 835.765L490.595 834.425" stroke="white" stroke-width="8" stroke-miterlimit="10" stroke-linecap="round"/>
<path d="M521.39 837.578L519.221 836.553L505.636 830.134L495.731 825.452L494.578 824.909" stroke="white" stroke-width="8" stroke-miterlimit="10" stroke-linecap="round"/>
<path d="M492.556 829.336L494.645 829.464L505.636 830.134L521.319 831.092L523.824 831.243" stroke="white" stroke-width="8" stroke-miterlimit="10" stroke-linecap="round"/>
<path d="M459.242 879.586C459.242 879.586 459.072 885.43 462.668 887.931C466.26 890.438 473.277 893.439 479.708 894.025C486.139 894.605 494.791 892.189 494.791 892.189" stroke="#D6D6D6" stroke-width="2" stroke-miterlimit="10" stroke-linecap="round"/>
<path d="M396.816 718.986C396.816 718.986 376.417 747.316 369.613 755.524C362.813 763.732 355.73 774.206 355.73 781.565C355.73 788.923 361.008 792.714 361.008 792.714" stroke="#D68338" stroke-width="4" stroke-miterlimit="10" stroke-linecap="round"/>
<path d="M322.383 771.667C322.383 771.667 331.248 771.417 338.709 766.394C346.17 761.372 354.77 742.086 362.879 731.07C368.375 723.607 372.632 719.034 374.81 716.862C375.878 715.796 376.441 714.332 376.351 712.831" stroke="#D68338" stroke-width="4" stroke-miterlimit="10" stroke-linecap="round"/>
<path d="M334.905 760.056C334.905 760.056 356.193 766.975 363.455 776.482" stroke="white" stroke-width="8" stroke-miterlimit="10" stroke-linecap="round"/>
<path d="M367.529 768.268L349.18 741.699" stroke="white" stroke-width="8" stroke-miterlimit="10" stroke-linecap="round"/>
<path d="M373.752 757.743L340.037 753.665" stroke="white" stroke-width="8" stroke-miterlimit="10" stroke-linecap="round"/>
<path d="M375.77 752.574L361.542 725.934" stroke="white" stroke-width="8" stroke-miterlimit="10" stroke-linecap="round"/>
<path d="M382.91 743.828L353.102 737.895" stroke="white" stroke-width="8" stroke-miterlimit="10" stroke-linecap="round"/>
<path d="M386.293 737.895L371.881 712.067" stroke="white" stroke-width="8" stroke-miterlimit="10" stroke-linecap="round"/>
<path d="M395.205 726.628L365.076 721.856" stroke="white" stroke-width="8" stroke-miterlimit="10" stroke-linecap="round"/>
<path d="M322.123 775.127C322.123 775.127 322.014 784.959 331.078 788.924C340.141 792.888 346.425 795.73 358.357 794.323" stroke="#D6D6D6" stroke-width="2" stroke-miterlimit="10" stroke-linecap="round"/>
<path d="M636.366 303.414C636.366 303.414 639.069 313.61 638.852 316.267" stroke="#8B8FAF" stroke-width="4" stroke-miterlimit="10" stroke-linecap="round"/>
<path d="M538.642 489.908C538.642 489.908 548.055 492.032 554.807 505.725C561.56 519.418 565.581 522.5 561.55 531.341C557.52 540.181 552.879 541.338 552.676 547.295" stroke="#BFAD97" stroke-width="4" stroke-miterlimit="10" stroke-linecap="round"/>
<path d="M545.13 553.492C545.13 553.492 539.143 554.427 533.874 561.403C528.606 568.379 522.756 570.664 520.407 574.921C518.059 579.179 513.603 598.248 507.989 606.753C502.375 615.259 487.703 631.269 471.325 646.241" stroke="#BFAD97" stroke-width="4" stroke-miterlimit="10" stroke-linecap="round"/>
<path d="M500.452 356.038L513.9 383.953C513.9 383.953 515.838 388.602 516.462 393.44C517.085 398.278 517.492 403.069 521.291 407.251C525.09 411.433 528.105 415.171 528.998 418.452C529.891 421.732 536.62 423.913 539.455 425.848C542.29 427.783 543.051 430.549 545.225 432.008C547.398 433.466 556.055 436.595 563.724 432.008C571.393 427.42 572.702 429.855 574.909 426.386C577.116 422.917 575.618 425.272 575.618 425.272" stroke="#8B8FAF" stroke-width="4" stroke-miterlimit="10" stroke-linecap="round"/>
<path d="M550.748 401.563L547.615 407.963C547.615 407.963 547.03 411.612 541.506 412.476C535.982 413.34 533.388 412.91 533.236 415.025" stroke="#8B8FAF" stroke-width="4" stroke-miterlimit="10" stroke-linecap="round"/>
<path d="M558.21 372.172C558.21 372.172 550.588 376.868 548.187 380.493" stroke="#8B8FAF" stroke-width="4" stroke-miterlimit="10" stroke-linecap="round"/>
<path d="M573.964 363.123L579.114 360.725" stroke="#8B8FAF" stroke-width="4" stroke-miterlimit="10" stroke-linecap="round"/>
<path d="M561.12 354.854C561.12 354.854 582.266 352.989 587.313 357.62C592.359 362.25 595.133 365.016 597.108 372.171" stroke="#8B8FAF" stroke-width="4" stroke-miterlimit="10" stroke-linecap="round"/>
<path d="M584.255 356.001C584.255 356.001 583.84 348.345 579.691 345.234C575.542 342.124 571.525 340.311 570.604 334.09C569.682 327.869 569.423 324.848 566.332 322.79C563.242 320.732 566.205 309.678 564.768 306.218C563.332 302.758 559.868 297.038 551.117 292.044" stroke="#8B8FAF" stroke-width="4" stroke-miterlimit="10" stroke-linecap="round"/>
<path d="M575.277 206.974L558.758 246.557C558.285 247.741 558.668 249.087 559.684 249.856C562.462 251.966 568.426 255.747 575.636 255.94" stroke="#8B8FAF" stroke-width="4" stroke-miterlimit="10" stroke-linecap="round"/>
<path d="M712.146 411.532C712.146 411.532 711.622 407.241 707.449 404.301C703.277 401.36 695.315 396.55 695.315 396.55C695.315 396.55 691.213 393.091 681.923 393.652" stroke="#C68B77" stroke-width="4" stroke-miterlimit="10" stroke-linecap="round"/>
<path d="M718.648 405.873C718.648 405.873 714.67 395.55 710.02 392.581C705.37 389.612 700.068 386.204 692.867 385.293" stroke="#C68B77" stroke-width="4" stroke-miterlimit="10" stroke-linecap="round"/>
<path d="M726.951 402.559L717.458 385.784C717.458 385.784 716.527 383.806 712.727 382.036C708.928 380.266 701.269 376.901 701.269 376.901" stroke="#C68B77" stroke-width="4" stroke-miterlimit="10" stroke-linecap="round"/>
</g>
<defs>
<filter id="filter0_ddddd_237_430" x="0.419678" y="84.5174" width="1470.61" height="1515.01" filterUnits="userSpaceOnUse" color-interpolation-filters="sRGB">
<feFlood flood-opacity="0" result="BackgroundImageFix"/>
<feColorMatrix in="SourceAlpha" type="matrix" values="0 0 0 0 0 0 0 0 0 0 0 0 0 0 0 0 0 0 127 0" result="hardAlpha"/>
<feOffset/>
<feColorMatrix type="matrix" values="0 0 0 0 0 0 0 0 0 0 0 0 0 0 0 0 0 0 0.1 0"/>
<feBlend mode="normal" in2="BackgroundImageFix" result="effect1_dropShadow_237_430"/>
<feColorMatrix in="SourceAlpha" type="matrix" values="0 0 0 0 0 0 0 0 0 0 0 0 0 0 0 0 0 0 127 0" result="hardAlpha"/>
<feOffset dy="28"/>
<feGaussianBlur stdDeviation="31"/>
<feColorMatrix type="matrix" values="0 0 0 0 0 0 0 0 0 0 0 0 0 0 0 0 0 0 0.1 0"/>
<feBlend mode="normal" in2="effect1_dropShadow_237_430" result="effect2_dropShadow_237_430"/>
<feColorMatrix in="SourceAlpha" type="matrix" values="0 0 0 0 0 0 0 0 0 0 0 0 0 0 0 0 0 0 127 0" result="hardAlpha"/>
<feOffset dy="113"/>
<feGaussianBlur stdDeviation="56.5"/>
<feColorMatrix type="matrix" values="0 0 0 0 0 0 0 0 0 0 0 0 0 0 0 0 0 0 0.09 0"/>
<feBlend mode="normal" in2="effect2_dropShadow_237_430" result="effect3_dropShadow_237_430"/>
<feColorMatrix in="SourceAlpha" type="matrix" values="0 0 0 0 0 0 0 0 0 0 0 0 0 0 0 0 0 0 127 0" result="hardAlpha"/>
<feOffset dy="253"/>
<feGaussianBlur stdDeviation="76"/>
<feColorMatrix type="matrix" values="0 0 0 0 0 0 0 0 0 0 0 0 0 0 0 0 0 0 0.05 0"/>
<feBlend mode="normal" in2="effect3_dropShadow_237_430" result="effect4_dropShadow_237_430"/>
<feColorMatrix in="SourceAlpha" type="matrix" values="0 0 0 0 0 0 0 0 0 0 0 0 0 0 0 0 0 0 127 0" result="hardAlpha"/>
<feOffset dx="1" dy="450"/>
<feGaussianBlur stdDeviation="90"/>
<feColorMatrix type="matrix" values="0 0 0 0 0 0 0 0 0 0 0 0 0 0 0 0 0 0 0.01 0"/>
<feBlend mode="normal" in2="effect4_dropShadow_237_430" result="effect5_dropShadow_237_430"/>
<feBlend mode="normal" in="SourceGraphic" in2="effect5_dropShadow_237_430" result="shape"/>
</filter>
<filter id="filter1_d_237_430" x="305" y="65" width="641" height="857" filterUnits="userSpaceOnUse" color-interpolation-filters="sRGB">
<feFlood flood-opacity="0" result="BackgroundImageFix"/>
<feColorMatrix in="SourceAlpha" type="matrix" values="0 0 0 0 0 0 0 0 0 0 0 0 0 0 0 0 0 0 127 0" result="hardAlpha"/>
<feOffset dy="4"/>
<feGaussianBlur stdDeviation="2"/>
<feComposite in2="hardAlpha" operator="out"/>
<feColorMatrix type="matrix" values="0 0 0 0 0 0 0 0 0 0 0 0 0 0 0 0 0 0 0.25 0"/>
<feBlend mode="normal" in2="BackgroundImageFix" result="effect1_dropShadow_237_430"/>
<feBlend mode="normal" in="SourceGraphic" in2="effect1_dropShadow_237_430" result="shape"/>
</filter>
</defs>
</svg>
