<svg width="942" height="917" viewBox="0 0 942 917" fill="none" xmlns="http://www.w3.org/2000/svg">
<g filter="url(#filter0_ddddd_21_651)">
<path fill-rule="evenodd" clip-rule="evenodd" d="M648.457 788.793C491.864 882.482 489.866 881.108 477.409 869.604C470.689 863.399 442.081 866.196 413.835 875.82C380.004 887.346 356.561 888.621 345.137 879.553C335.6 871.983 325.762 866.89 323.276 868.236C320.79 869.583 312.801 859.685 305.521 846.242C294.97 826.759 295.434 820.095 307.803 813.396C316.337 808.775 320.342 799.494 316.702 792.772C313.063 786.051 305.959 782.785 300.918 785.515C287.667 792.691 270.753 770.596 282.799 761.846C288.366 757.802 294.867 754.282 297.246 754.022C299.625 753.763 298.593 748.052 294.954 741.331C291.314 734.609 283.022 731.987 276.529 735.503C270.035 739.02 261.744 736.397 258.104 729.676C254.464 722.954 253.728 716.241 256.468 714.757C259.097 713.333 264.581 696.331 268.905 676.398C261.74 677.231 256.516 676.047 254.682 672.66C251.042 665.938 255.993 656.048 265.684 650.682C270.993 647.742 276.743 643.08 281.508 638.115C285.538 629.84 290.472 621.703 296.501 613.524L297.68 611.077L279.077 610.56C268.434 610.265 273.311 603.027 292.865 589.835C297.167 586.015 295.616 578.333 288.571 568.94C287.337 567.294 286.253 565.616 285.324 563.926C259.663 579.937 235.626 597.205 225.967 608.353C205.719 631.723 197.521 633.903 195.291 616.513C193.385 601.651 216.562 564.412 231.769 557.903C239.74 554.491 244.292 544.347 241.883 535.359C239.474 526.372 244.831 515.721 253.787 511.691C255.996 510.697 258.087 509.398 259.98 507.898C252.568 501.551 253.24 496.912 256.625 480.803C257.275 477.711 257.635 474.282 257.732 470.736C249.265 475.037 238.174 481.457 225.693 489.421C154.425 534.899 169.109 503.707 244.876 448.672C247.525 446.748 250.168 444.81 252.79 442.87C252.622 442.524 252.449 442.188 252.273 441.863C247.307 432.691 248.143 417.978 254.131 409.166C263.439 395.47 262.946 392.514 250.738 388.802C242.884 386.414 301.515 349.798 381.031 307.433C460.546 265.069 518.124 239.433 508.981 250.466C494.781 267.602 494.722 269.958 508.577 266.636C513.808 265.382 543.955 251.074 586.252 230.002C627.015 206.095 655.473 188.668 659.382 184.972C669.736 175.184 667.731 173.946 645.619 176.474C631.383 178.101 684.318 143.892 763.252 100.453C842.186 57.0144 904.892 27.9236 902.6 35.8068C899.037 48.0593 901.243 50.0872 917.799 49.7771C928.452 49.5776 941.231 56.9182 946.197 66.0897C946.373 66.4151 946.56 66.7431 946.758 67.0732C949.816 65.9372 952.883 64.7831 955.942 63.6162C1043.44 30.2408 1077.58 34.9899 1000.55 69.8203C987.061 75.9199 975.623 81.6999 967.394 86.4404C970.416 88.2974 973.485 89.869 976.43 91.0147C991.771 96.9838 996.023 98.9566 997.287 108.633C999.577 107.867 1001.81 106.825 1003.85 105.519C1012.12 100.221 1023.96 101.555 1030.17 108.484C1036.39 115.413 1047.37 117.145 1054.58 112.334C1064.02 106.039 1087.62 104.504 1105.19 107.298C1107.34 107.392 1109.15 107.743 1110.62 108.348C1116.24 109.651 1120.86 111.48 1123.6 113.816C1124.27 114.384 1124.89 114.938 1125.45 115.478C1130.74 116.459 1136.14 115.959 1140.19 113.763C1151.65 107.561 1155.79 110.656 1164.73 132.083C1172.94 151.741 1177.82 156.604 1185.29 152.561C1190.67 149.646 1195.64 151.636 1196.33 156.984C1196.52 158.522 1197.26 160.506 1198.4 162.737C1218.8 155.949 1233.33 153.792 1234.88 159.402C1236.61 165.679 1230.58 179.594 1221.3 191.149C1222.62 193.329 1222.68 194.601 1221.18 194.481C1215.67 194.039 1210.69 213.908 1209.92 230.704C1212.3 235.788 1213.22 243.403 1212.67 251.146C1215.61 255.966 1219.89 255.234 1222.36 249.334C1225.86 240.997 1226.71 243.28 1225.77 258.439C1225.56 261.781 1225.57 265.687 1225.76 269.792C1230.48 266.659 1236.23 262.597 1243.11 257.575C1265.97 240.898 1281.46 232.981 1277.52 239.982C1272.22 249.419 1273.77 255.912 1283.52 265.091C1293.63 274.601 1292.22 284.175 1277.45 306.385C1256.67 337.633 1247.22 364.325 1251.29 377.854C1258.99 379.528 1266.17 383.798 1269.37 389.716C1269.97 390.815 1268.9 392.673 1266.45 395.095C1274.16 410.048 1268.01 435.357 1249.6 456.43C1237.72 470.016 1231.61 480.165 1236.02 478.982C1242.58 477.223 1243.81 479.884 1242.8 493.659C1242.12 502.912 1227.49 515.185 1210.29 520.935C1191.61 527.174 1181.64 536.177 1185.54 543.279C1193.64 558.031 1119.56 602.249 1051.7 623.169C952.676 653.697 929.154 663.512 949.497 665.819C965.625 667.646 964.195 670.631 941.429 682.657C926.209 690.696 910.698 693.913 906.959 689.807C903.716 686.246 897.585 685.112 888.203 686.54C879.408 696.631 874.253 704.405 874.673 707.677C875.214 711.898 870.345 718.233 863.852 721.749C848.986 729.8 846.783 716.401 860.023 698.46C861.271 696.769 862.454 695.049 863.536 693.372C838.061 702.55 801.18 720.37 750.77 747.619C694.526 778.021 661.872 791.213 648.457 788.793ZM1134.03 190.144C1148.47 182.923 1163.1 176.293 1176.57 170.846C1172.34 161.32 1166.57 155.515 1163.7 157.929C1160.82 160.36 1146.78 169.959 1132.5 179.257C1126.27 183.315 1121.72 186.591 1118.73 189.372C1124.45 187.62 1130.09 187.939 1134.03 190.144ZM255.494 538.812C253.889 535.848 252.86 528.873 253.208 523.312C253.556 517.752 256.995 519.026 260.849 526.144C264.704 533.263 265.733 540.237 263.135 541.644C260.538 543.051 257.099 541.777 255.494 538.812ZM890.737 59.5424C885.492 53.6902 883.451 47.6834 886.202 46.1935C888.953 44.7039 894.181 48.9846 897.821 55.7061C901.461 62.4277 903.502 68.4347 902.356 69.0551C901.211 69.6753 895.982 65.3947 890.737 59.5424ZM750.027 123.964C772.853 108.735 812.17 87.444 837.398 76.651C862.626 65.858 843.95 78.3181 795.896 104.34C747.842 130.363 727.201 139.193 750.027 123.964ZM1025.63 121.77C1024.02 118.806 1018.74 114.133 1013.9 111.385C1009.05 108.637 1008.24 112.214 1012.09 119.332C1015.95 126.45 1021.23 131.123 1023.82 129.717C1026.42 128.31 1027.23 124.734 1025.63 121.77ZM277.099 391.839C275.065 384.248 271.15 379.256 268.398 380.746C265.647 382.236 266.375 388.954 270.015 395.675C273.655 402.397 277.57 407.389 278.715 406.769C279.861 406.148 279.134 399.43 277.099 391.839ZM407.948 309.206C382.72 319.999 343.402 341.29 320.577 356.52C297.751 371.749 318.392 362.918 366.446 336.896C414.5 310.874 433.176 298.413 407.948 309.206ZM511.629 834.109C504.207 834.361 494.644 839.539 490.377 845.618C486.11 851.695 492.182 851.489 503.871 845.159C515.56 838.83 519.051 833.857 511.629 834.109Z" fill="#F3CCFF" fill-opacity="0.6"/>
</g>
<defs>
<filter id="filter0_ddddd_21_651" x="0.419678" y="0.517334" width="1470.61" height="1515.01" filterUnits="userSpaceOnUse" color-interpolation-filters="sRGB">
<feFlood flood-opacity="0" result="BackgroundImageFix"/>
<feColorMatrix in="SourceAlpha" type="matrix" values="0 0 0 0 0 0 0 0 0 0 0 0 0 0 0 0 0 0 127 0" result="hardAlpha"/>
<feOffset/>
<feColorMatrix type="matrix" values="0 0 0 0 0 0 0 0 0 0 0 0 0 0 0 0 0 0 0.1 0"/>
<feBlend mode="normal" in2="BackgroundImageFix" result="effect1_dropShadow_21_651"/>
<feColorMatrix in="SourceAlpha" type="matrix" values="0 0 0 0 0 0 0 0 0 0 0 0 0 0 0 0 0 0 127 0" result="hardAlpha"/>
<feOffset dy="28"/>
<feGaussianBlur stdDeviation="31"/>
<feColorMatrix type="matrix" values="0 0 0 0 0 0 0 0 0 0 0 0 0 0 0 0 0 0 0.1 0"/>
<feBlend mode="normal" in2="effect1_dropShadow_21_651" result="effect2_dropShadow_21_651"/>
<feColorMatrix in="SourceAlpha" type="matrix" values="0 0 0 0 0 0 0 0 0 0 0 0 0 0 0 0 0 0 127 0" result="hardAlpha"/>
<feOffset dy="113"/>
<feGaussianBlur stdDeviation="56.5"/>
<feColorMatrix type="matrix" values="0 0 0 0 0 0 0 0 0 0 0 0 0 0 0 0 0 0 0.09 0"/>
<feBlend mode="normal" in2="effect2_dropShadow_21_651" result="effect3_dropShadow_21_651"/>
<feColorMatrix in="SourceAlpha" type="matrix" values="0 0 0 0 0 0 0 0 0 0 0 0 0 0 0 0 0 0 127 0" result="hardAlpha"/>
<feOffset dy="253"/>
<feGaussianBlur stdDeviation="76"/>
<feColorMatrix type="matrix" values="0 0 0 0 0 0 0 0 0 0 0 0 0 0 0 0 0 0 0.05 0"/>
<feBlend mode="normal" in2="effect3_dropShadow_21_651" result="effect4_dropShadow_21_651"/>
<feColorMatrix in="SourceAlpha" type="matrix" values="0 0 0 0 0 0 0 0 0 0 0 0 0 0 0 0 0 0 127 0" result="hardAlpha"/>
<feOffset dx="1" dy="450"/>
<feGaussianBlur stdDeviation="90"/>
<feColorMatrix type="matrix" values="0 0 0 0 0 0 0 0 0 0 0 0 0 0 0 0 0 0 0.01 0"/>
<feBlend mode="normal" in2="effect4_dropShadow_21_651" result="effect5_dropShadow_21_651"/>
<feBlend mode="normal" in="SourceGraphic" in2="effect5_dropShadow_21_651" result="shape"/>
</filter>
</defs>
</svg>
