<svg width="302" height="175" viewBox="0 0 302 175" fill="none" xmlns="http://www.w3.org/2000/svg">
<path d="M31.6 174C30.5333 173.733 29.8 173.133 29.4 172.2C29.1333 171.133 28.8667 170.133 28.6 169.2C28.3333 168.267 28.2 167.333 28.2 166.4V165.2C28.3333 163.867 28.2667 162.533 28 161.2C27.7333 160 27.5333 158.733 27.4 157.4C27.4 156.867 27.3333 156.467 27.2 156.2L25 152C24.7333 151.733 24.3333 151.2 23.8 150.4C23.4 149.467 22.9333 148.667 22.4 148C22 147.2 21.5333 146.4 21 145.6C20.7333 145.067 20.4 144.6 20 144.2C19.6 143.8 19.2 143.333 18.8 142.8C18.5333 142.4 18.2667 141.933 18 141.4C17.7333 140.867 17.3333 140.4 16.8 140L16.2 139C15.6667 138.067 15.1333 137.2 14.6 136.4C14.2 135.6 13.8 134.8 13.4 134L12.8 132.8C12.2667 131.067 11.6667 129.4 11 127.8C10.4667 126.2 9.86667 124.533 9.2 122.8C8.8 121.733 8.4 120.733 8 119.8C7.73333 118.867 7.33333 117.933 6.8 117C5.86667 115 5.26667 112.867 5 110.6C4.86667 109 5 107.333 5.4 105.6C5.8 104.533 6.4 103.6 7.2 102.8C9.73333 100.667 12.5333 99.8667 15.6 100.4L17.8 100.8C19.4 101.467 20.5333 102.4 21.2 103.6C21.7333 104.533 22.2 105.533 22.6 106.6C23 107.533 23.2667 108.6 23.4 109.8C23.6667 110.6 23.9333 111.467 24.2 112.4C24.4667 113.2 24.8 114.067 25.2 115C25.8667 116.467 26.6 117.933 27.4 119.4C28.0667 120.6 28.8667 121.6 29.8 122.4C30.4667 122.933 31.2 123.533 32 124.2C32.8 124.867 33.5333 125.533 34.2 126.2L38.4 130.4C38.6667 130.533 38.8667 130.733 39 131C39.2667 131.267 39.4667 131.533 39.6 131.8C40 132.067 40.4667 132.133 41 132C42.3333 131.6 43.6667 130.867 45 129.8C47.1333 128.067 48.8667 126.267 50.2 124.4C51.5333 122.533 52.4 120.333 52.8 117.8C53.0667 115.533 52.4 113.533 50.8 111.8C50.5333 111.267 50.1333 110.933 49.6 110.8C48.6667 110.267 47.7333 109.8 46.8 109.4C46 108.867 45.0667 108.467 44 108.2C42.9333 107.8 42 107.2 41.2 106.4C40.6667 105.733 39.8667 105.333 38.8 105.2C37.8667 104.933 37 104.6 36.2 104.2C35.4 103.8 34.6667 103.333 34 102.8C33.2 102.133 32.4 101.6 31.6 101.2C30.8 100.667 30 100.133 29.2 99.6C28.4 99.2 27.6 98.7333 26.8 98.2C26.1333 97.6667 25.4667 97.1333 24.8 96.6C23.8667 95.9333 23 95.2667 22.2 94.6C21.4 93.8 20.6 93.0667 19.8 92.4C19.2667 92.1333 18.9333 91.8667 18.8 91.6C18.1333 90.8 17.4 90.0667 16.6 89.4C15.9333 88.6 15.2667 87.7333 14.6 86.8C14.2 86.2667 13.8 85.8 13.4 85.4C13 84.8667 12.5333 84.3333 12 83.8C11.4667 83.2667 10.9333 82.7333 10.4 82.2C10 81.5333 9.66667 80.8667 9.4 80.2L7.6 77.2C6.93333 75.8667 6.33333 74.5333 5.8 73.2C5.26667 71.8667 4.66667 70.5333 4 69.2C3.46667 67.7333 2.93333 66.2667 2.4 64.8C2 63.3333 1.66667 61.8667 1.4 60.4C1.26667 59.3333 1.06667 58.3333 0.800001 57.4C0.666667 56.4667 0.533334 55.5333 0.400001 54.6C0.266667 53.1333 0.2 51.7333 0.2 50.4C0.2 48.9333 0.133334 47.4667 5.66244e-07 46C5.66244e-07 44.2667 0.133334 42.5333 0.400001 40.8C0.666667 39.0667 1 37.3333 1.4 35.6C1.66667 34.5333 1.93333 33.4667 2.2 32.4C2.46667 31.3333 2.73333 30.3333 3 29.4C3.26667 28.7333 3.53333 28.1333 3.8 27.6C4.06667 26.9333 4.26667 26.3333 4.4 25.8C5.46667 23 7 20.2 9 17.4C9.66667 16.4667 10.3333 15.6 11 14.8C11.8 13.8667 12.6 13 13.4 12.2C14.0667 11.5333 14.7333 10.8 15.4 9.99999C16.0667 9.19999 16.6667 8.39999 17.2 7.6C18.9333 5.33333 20.9333 3.66666 23.2 2.59999C25.4667 1.39999 28.0667 0.933323 31 1.19999C34.6 1.73333 38 3.13333 41.2 5.39999C42.2667 6.19999 43.3333 7.06666 44.4 7.99999C45.6 8.8 46.7333 9.66666 47.8 10.6C50.4667 12.7333 52.6667 15.1333 54.4 17.8C55.2 19 56 20.2 56.8 21.4C57.6 22.6 58.3333 23.8 59 25C59.4 25.5333 59.7333 26.0667 60 26.6C60.2667 27.1333 60.4667 27.7333 60.6 28.4C60.8667 29.6 60.9333 30.8 60.8 32C60.8 33.0667 60.6667 34.2 60.4 35.4L59.8 37C59.4 37.6667 59 38.4 58.6 39.2C58.2 40 57.8 40.7333 57.4 41.4C57.1333 41.9333 56.8 42.4667 56.4 43C56.1333 43.4 55.8667 43.8 55.6 44.2C54.5333 45.9333 54 47.6667 54 49.4V68.8C54 71.4667 53.6 74 52.8 76.4C52.8 76.5333 52.7333 76.6667 52.6 76.8C52.6 76.8 52.6 76.9333 52.6 77.2C52.6 77.8667 52.8 78.4 53.2 78.8L55 80C56.4667 80.9333 57.8 82 59 83.2C60.3333 84.2667 61.6667 85.3333 63 86.4C63.8 87.0667 64.5333 87.8667 65.2 88.8C65.8667 89.6 66.4667 90.4 67 91.2C67.5333 91.8667 68 92.6 68.4 93.4C68.8 94.0667 69.2 94.7333 69.6 95.4C70.2667 96.3333 70.7333 97.4 71 98.6C71.4 99.8 71.7333 101 72 102.2V103C71.8667 103.933 71.8667 104.933 72 106C72.1333 107.067 72.2667 108.133 72.4 109.2C72.4 109.467 72.4 109.8 72.4 110.2C72.5333 110.467 72.5333 110.8 72.4 111.2L71.8 115.4C71.5333 116.067 71.6667 116.467 72.2 116.6C72.6 116.6 72.8 116.733 72.8 117C73.2 117.133 73.2667 117.467 73 118C72.7333 118.533 72.4 118.667 72 118.4C72 118.267 71.9333 118.2 71.8 118.2C71.4 118.067 71.1333 118.133 71 118.4C70.8667 118.8 70.7333 119.2 70.6 119.6C70.6 120 70.6 120.467 70.6 121C70.0667 121.8 69.9333 122.467 70.2 123C70.2 123.4 70.1333 123.667 70 123.8C69.6 124.2 69.4667 124.733 69.6 125.4C69.6 125.667 69.4 125.933 69 126.2C68.2 126.6 67.6 127.333 67.2 128.4C66.5333 130.133 65.7333 131.8 64.8 133.4C64 134.867 63.0667 136.333 62 137.8C60.9333 139.267 59.8 140.733 58.6 142.2C57.5333 143.533 56.2667 144.8 54.8 146C53.6 146.933 52.3333 147.8 51 148.6C49.6667 149.533 48.2667 150.333 46.8 151C46.2667 151.133 45.7333 151.4 45.2 151.8L42.8 153C41.7333 153.133 40.6667 153.667 39.6 154.6L38.4 155.4C38 155.8 37.6667 156.467 37.4 157.4V162.8C37.4 163.333 37.4 163.867 37.4 164.4C37.4 164.933 37.3333 165.467 37.2 166C37.0667 166.267 37 166.6 37 167C37 167.4 36.9333 167.733 36.8 168C36.6667 168.533 36.5333 169.067 36.4 169.6C36.2667 170.267 36.0667 170.933 35.8 171.6C35.1333 173.467 33.7333 174.267 31.6 174ZM43.8 73.6C44.3333 73.6 44.6667 73.4 44.8 73C44.9333 72.3333 44.9333 71.6667 44.8 71C44.8 70.3333 44.7333 69.7333 44.6 69.2C44.4667 68.5333 44.4 67.8667 44.4 67.2C44.4 66.4 44.3333 65.6667 44.2 65C44.2 64.2 44.1333 63.4 44 62.6C43.8667 61.8 43.8667 61 44 60.2C44.1333 60.0667 44.1333 60 44 60C44 59.8667 44 59.8 44 59.8C43.8667 58.8667 43.8 58 43.8 57.2C43.8 56.4 43.8 55.6 43.8 54.8C43.8 52.1333 43.2667 49.5333 42.2 47C41.2667 44.8667 40.2667 42.8 39.2 40.8C38.2667 38.8 37.2667 36.8 36.2 34.8C35.8 34 35.2667 33.2667 34.6 32.6C34.0667 31.8 33.4667 31.0667 32.8 30.4C32.2667 29.6 31.5333 29.4667 30.6 30C29.8 30.1333 28.9333 30.6667 28 31.6C27.2 32.5333 26.4667 33.5333 25.8 34.6C25.1333 35.6667 24.5333 36.8 24 38C23.8667 38.4 23.7333 38.8 23.6 39.2C23.4667 39.6 23.3333 39.9333 23.2 40.2C23.0667 41.1333 22.9333 42.1333 22.8 43.2C22.8 44.1333 22.8 45.1333 22.8 46.2V48.8C22.8 50.6667 23.3333 52.6667 24.4 54.8C25.3333 56.8 26.6667 58.8 28.4 60.8C28.8 61.3333 29.2 61.8667 29.6 62.4C30 62.8 30.4 63.3333 30.8 64C32 65.6 33.3333 67 34.8 68.2C36.4 69.4 38.0667 70.5333 39.8 71.6L42.8 73.2C43.0667 73.3333 43.2667 73.4 43.4 73.4C43.5333 73.4 43.6667 73.4667 43.8 73.6ZM101.155 134C100.488 134 99.9547 133.8 99.5547 133.4L95.9547 131.4C95.8214 131.267 95.688 131.2 95.5547 131.2C95.5547 131.067 95.488 130.933 95.3547 130.8C95.088 130.533 94.688 129.933 94.1547 129C93.7547 127.933 93.5547 127.267 93.5547 127V124.2C93.5547 123.533 93.8214 122.933 94.3547 122.4C95.0214 121.867 95.488 121.133 95.7547 120.2C96.1547 119 96.8214 118 97.7547 117.2C98.688 116.4 99.688 115.8 100.755 115.4C101.288 115.133 101.755 114.933 102.155 114.8C102.688 114.667 103.155 114.467 103.555 114.2C104.355 113.8 105.021 113.867 105.555 114.4V114.2C106.221 114.467 106.888 114.733 107.555 115C108.221 115.133 108.821 115.333 109.355 115.6C109.888 115.733 110.288 116.067 110.555 116.6C111.488 117.667 112.221 118.8 112.755 120C113.421 121.467 113.688 122.8 113.555 124L112.955 127.6C112.821 128 112.688 128.4 112.555 128.8C112.421 129.2 112.155 129.533 111.755 129.8L110.955 130.6C109.755 132.067 107.888 133 105.355 133.4C104.821 133.533 104.288 133.6 103.755 133.6C103.355 133.6 102.888 133.733 102.355 134C102.088 134.267 101.688 134.267 101.155 134ZM169.284 173C167.684 173.667 166.418 173.533 165.484 172.6C164.018 171.533 163.284 170.133 163.284 168.4V165.2C163.151 164 163.018 162.733 162.884 161.4C162.884 160.2 162.818 159 162.684 157.8C162.684 156.6 162.484 155.533 162.084 154.6C162.084 154.067 161.751 153.467 161.084 152.8C160.818 152.533 160.484 152.2 160.084 151.8C159.684 151.4 159.284 151.067 158.884 150.8C158.751 150.533 158.551 150.333 158.284 150.2C158.018 150.067 157.751 149.933 157.484 149.8C157.084 149.4 156.684 148.933 156.284 148.4C156.018 147.867 155.818 147.333 155.684 146.8C155.418 146.267 155.151 145.867 154.884 145.6L153.684 144.8L153.084 144.2C152.951 143.8 152.751 143.467 152.484 143.2C152.218 142.8 151.951 142.4 151.684 142C151.418 141.467 151.284 141 151.284 140.6C151.018 139.4 150.551 138.467 149.884 137.8C149.751 137.4 149.751 137.067 149.884 136.8C150.151 136.133 150.418 135.267 150.684 134.2C150.818 133.133 151.218 132.067 151.884 131C152.284 130.333 152.618 129.733 152.884 129.2C153.151 128.533 153.351 127.933 153.484 127.4C154.151 126.2 154.551 125 154.684 123.8C154.684 123.533 154.684 123.333 154.684 123.2C154.818 123.067 154.884 122.933 154.884 122.8C155.151 122.267 155.351 121.8 155.484 121.4C155.618 120.867 155.684 120.333 155.684 119.8C155.684 119.533 155.818 119.267 156.084 119C156.218 118.6 156.218 118.267 156.084 118C155.951 117.733 156.018 117.467 156.284 117.2C156.551 116.933 156.751 116.667 156.884 116.4C157.018 116 157.084 115.533 157.084 115C157.084 115 157.284 114.8 157.684 114.4C158.351 113.733 158.751 113.067 158.884 112.4C159.151 111.733 159.351 111.133 159.484 110.6C159.751 109.933 159.884 109.267 159.884 108.6C159.884 107.533 160.218 106.867 160.884 106.6C161.151 106.6 161.284 106.4 161.284 106C161.551 105.6 161.751 105.2 161.884 104.8C162.018 104.4 162.151 104 162.284 103.6C162.418 103.2 162.484 102.667 162.484 102C162.218 101.333 162.418 100.867 163.084 100.6C163.618 100.467 163.884 100.067 163.884 99.4V98.8C163.884 97.8667 164.151 97.1333 164.684 96.6C164.951 96.2 165.218 95.8 165.484 95.4C165.751 95 165.951 94.6 166.084 94.2C166.618 93.6667 166.751 93.1333 166.484 92.6C166.218 91.8 166.484 91.2 167.284 90.8C167.418 90.6667 167.484 90.5333 167.484 90.4C167.751 90.1333 167.884 89.8 167.884 89.4C167.884 89 168.018 88.6667 168.284 88.4C168.551 88.1333 168.684 87.8667 168.684 87.6C168.684 87.2 168.751 86.8667 168.884 86.6V86.4H168.484C167.951 86.6667 167.418 87 166.884 87.4C166.484 87.6667 166.084 87.9333 165.684 88.2C165.151 88.4667 164.684 88.7333 164.284 89C163.884 89.2667 163.351 89.4667 162.684 89.6C162.151 89.7333 161.618 90 161.084 90.4C160.684 90.8 160.218 91.1333 159.684 91.4C158.618 92.2 158.018 93.2 157.884 94.4C157.884 94.9333 157.818 95.6 157.684 96.4C157.551 97.0667 157.484 97.7333 157.484 98.4C157.484 99.0667 157.351 99.8 157.084 100.6C156.818 101.267 156.551 101.933 156.284 102.6C155.884 103.533 155.218 104.2 154.284 104.6C153.351 105.133 152.351 105.2 151.284 104.8C150.218 104.267 149.551 103.533 149.284 102.6C149.151 102.067 149.018 101.6 148.884 101.2C148.884 100.667 148.884 100.133 148.884 99.6C149.018 98.4 149.018 97.2667 148.884 96.2C148.884 95 148.884 93.8667 148.884 92.8C148.884 91.0667 148.351 89.3333 147.284 87.6C146.351 86.5333 145.818 85.4 145.684 84.2C145.684 83.9333 145.484 83.6 145.084 83.2C144.684 82.8 144.084 82.3333 143.284 81.8C142.751 81.4 142.351 80.8667 142.084 80.2C141.684 79 141.284 77.8 140.884 76.6C140.618 75.4 140.551 74.1333 140.684 72.8C140.684 71.3333 141.151 69.9333 142.084 68.6C144.084 65.6667 146.884 64 150.484 63.6H151.484C153.218 63.7333 154.884 63.6667 156.484 63.4C158.084 63 159.684 62.6667 161.284 62.4L165.284 61.4C167.418 60.8667 169.484 60.4 171.484 60C173.484 59.4667 175.551 58.9333 177.684 58.4C179.151 58.1333 180.151 57.3333 180.684 56L183.684 48.8C184.884 46.1333 186.284 43.5333 187.884 41L192.084 33.4C192.484 32.7333 192.884 32.0667 193.284 31.4C193.818 30.6 194.284 29.8 194.684 29C195.484 27.5333 196.218 26.0667 196.884 24.6C197.284 23.9333 197.018 23.4667 196.084 23.2H194.084C193.018 23.3333 191.884 23.4667 190.684 23.6C189.618 23.7333 188.551 23.8667 187.484 24L183.884 24.6C182.284 24.7333 180.618 24.9333 178.884 25.2C177.284 25.4667 175.684 25.7333 174.084 26L171.284 26.6C171.018 26.6 170.618 26.8667 170.084 27.4C169.951 27.9333 169.484 28.2 168.684 28.2H168.484C167.684 27.9333 166.884 27.9333 166.084 28.2C165.284 28.3333 164.484 28.3333 163.684 28.2C163.684 28.2 163.618 28.2 163.484 28.2C163.484 28.2 163.484 28.2667 163.484 28.4C162.684 28.6667 161.884 28.9333 161.084 29.2C160.284 29.3333 159.484 29.5333 158.684 29.8C157.351 30.2 156.284 30.8 155.484 31.6C154.951 32.1333 154.418 32.6 153.884 33C153.351 33.2667 152.751 33.5333 152.084 33.8C151.551 33.9333 150.951 34.1333 150.284 34.4C149.751 34.6667 149.151 34.9333 148.484 35.2C147.418 35.7333 146.284 36.2 145.084 36.6C143.884 37 142.684 37.4667 141.484 38L140.484 38.6C139.418 39.1333 138.751 40.0667 138.484 41.4L137.884 43.4C137.884 43.9333 137.551 44.6667 136.884 45.6C136.751 45.6 136.551 45.7333 136.284 46C135.351 47.2 134.151 47.4 132.684 46.6C131.751 46.0667 131.084 45.3333 130.684 44.4L130.084 42.6C129.951 42.0667 129.751 41.4 129.484 40.6C129.351 39.6667 128.818 38.8667 127.884 38.2L127.284 37.8C124.218 35.5333 122.351 32.3333 121.684 28.2C121.151 25.6667 121.751 23.0667 123.484 20.4C124.018 19.8667 124.351 19.4667 124.484 19.2C125.284 18 126.351 17.2 127.684 16.8C128.351 16.5333 128.951 16.3333 129.484 16.2C130.151 15.9333 130.751 15.7333 131.284 15.6C131.684 15.4667 132.418 15.4 133.484 15.4C134.018 15.2667 134.484 15.2 134.884 15.2C135.418 15.2 135.951 15.1333 136.484 15C138.351 14.8667 140.218 14.6 142.084 14.2C144.084 13.6667 146.018 13.2667 147.884 13L153.884 11.8C154.951 11.5333 155.884 11.3333 156.684 11.2C157.618 10.9333 158.551 10.7333 159.484 10.6C161.084 10.3333 162.618 10 164.084 9.59999C165.684 9.19999 167.284 8.86666 168.884 8.59999C169.818 8.33332 170.684 8.19999 171.484 8.19999C172.418 8.06666 173.284 7.93332 174.084 7.79999L182.884 6.6C183.951 6.46666 184.951 6.4 185.884 6.4C186.951 6.26666 187.951 6.19999 188.884 6.19999C189.684 6.19999 190.418 6.19999 191.084 6.19999C191.884 6.19999 192.684 6.13332 193.484 5.99999C193.618 5.99999 193.684 5.99999 193.684 5.99999C193.818 5.86666 193.951 5.79999 194.084 5.79999C195.684 5.66666 197.284 5.6 198.884 5.6C200.484 5.46666 202.084 5.33332 203.684 5.19999C205.284 5.06666 206.751 5.26666 208.084 5.79999C209.551 6.33333 210.951 7 212.284 7.79999C212.551 8.06666 212.818 8.26666 213.084 8.4C214.551 9.86666 215.684 11.5333 216.484 13.4C217.284 15.1333 217.551 17.1333 217.284 19.4C217.018 21.5333 216.618 23.4667 216.084 25.2C215.818 26.1333 215.551 27.0667 215.284 28C215.018 28.9333 214.618 29.8 214.084 30.6C213.818 31.2667 213.551 32 213.284 32.8C212.884 34 212.418 35.2 211.884 36.4C211.484 37.4667 211.018 38.6 210.484 39.8L208.084 44.8C207.951 45.3333 207.684 45.8667 207.284 46.4C207.018 46.9333 206.751 47.5333 206.484 48.2C206.351 48.3333 206.284 48.5333 206.284 48.8C206.284 49.0667 206.218 49.3333 206.084 49.6C206.084 50.1333 206.218 50.4 206.484 50.4C206.751 50.5333 206.951 50.6 207.084 50.6C207.351 50.6 207.551 50.6667 207.684 50.8C207.951 50.8 208.151 50.8667 208.284 51C208.551 51 208.751 51 208.884 51C210.751 51.2667 212.284 51.9333 213.484 53C214.684 53.9333 215.751 55.1333 216.684 56.6C217.484 58.0667 218.084 59.5333 218.484 61C219.151 63.1333 218.951 65.1333 217.884 67C216.418 69.6667 214.484 71.6667 212.084 73C209.818 74.2 207.418 74.6 204.884 74.2C203.818 73.9333 202.751 73.9333 201.684 74.2C200.618 74.3333 199.551 74.5333 198.484 74.8C197.818 74.8 197.018 75.1333 196.084 75.8C195.551 76.0667 195.018 76.3333 194.484 76.6C194.084 76.8667 193.618 77.1333 193.084 77.4L191.884 78C191.618 78.2667 191.351 78.6 191.084 79C190.818 79.2667 190.551 79.6 190.284 80C190.284 80.2667 190.218 80.4667 190.084 80.6C189.951 81.6667 189.618 82.7333 189.084 83.8C188.684 84.7333 188.284 85.7333 187.884 86.8L186.684 90.4C186.551 90.6667 186.418 90.9333 186.284 91.2C186.284 91.4667 186.218 91.7333 186.084 92C185.551 93.7333 184.884 95.4667 184.084 97.2C183.418 98.9333 182.751 100.667 182.084 102.4C181.684 103.333 181.284 104.333 180.884 105.4C180.484 106.467 179.951 107.533 179.284 108.6C179.284 108.6 179.218 108.667 179.084 108.8C179.084 108.8 179.084 108.867 179.084 109C178.818 110.2 178.418 111.333 177.884 112.4C177.351 113.467 176.951 114.6 176.684 115.8C176.551 116.333 176.418 116.867 176.284 117.4C176.151 117.8 175.951 118.2 175.684 118.6C175.551 118.733 175.484 118.933 175.484 119.2C175.484 119.333 175.418 119.533 175.284 119.8C174.884 121.4 175.418 122 176.884 121.6C178.618 121.2 180.284 120.867 181.884 120.6C183.618 120.2 185.284 119.733 186.884 119.2C189.018 118.667 191.084 118.2 193.084 117.8C195.084 117.267 197.084 116.8 199.084 116.4C200.151 116.133 201.218 115.867 202.284 115.6C203.484 115.2 204.551 114.933 205.484 114.8C207.484 114.133 209.084 113.2 210.284 112C210.951 111.067 211.951 110.4 213.284 110C214.351 109.333 215.418 109.2 216.484 109.6C217.151 109.733 217.684 109.8 218.084 109.8C218.618 109.667 219.151 109.6 219.684 109.6C221.551 109.333 223.418 109 225.284 108.6C227.151 108.067 229.018 107.6 230.884 107.2L237.684 105.4C239.018 105.133 240.284 104.867 241.484 104.6C242.818 104.2 244.151 103.8 245.484 103.4C246.684 103.133 247.884 102.8 249.084 102.4C250.418 102 251.684 101.733 252.884 101.6C254.751 101.2 256.618 100.8 258.484 100.4C260.484 99.8667 262.418 99.4 264.284 99L268.484 98.4C270.084 98.1333 271.618 97.8667 273.084 97.6C274.684 97.3333 276.284 97.0667 277.884 96.8C278.551 96.5333 279.151 96.3333 279.684 96.2C280.351 95.9333 280.951 95.5333 281.484 95C282.418 94.0667 283.684 93.2667 285.284 92.6C287.151 91.6667 289.218 91.4 291.484 91.8C295.751 93 298.618 95.7333 300.084 100C300.484 100.8 300.751 101.667 300.884 102.6C301.018 103.4 301.084 104.2 301.084 105C301.218 105.667 301.218 106.333 301.084 107C300.951 107.667 300.751 108.333 300.484 109C300.351 109.533 300.151 110.133 299.884 110.8C299.618 111.333 299.351 111.867 299.084 112.4C298.018 114.4 297.418 116.467 297.284 118.6C297.284 119.133 297.218 119.667 297.084 120.2C297.084 120.6 297.084 121.067 297.084 121.6C296.951 121.733 296.884 122.067 296.884 122.6C296.884 124.067 296.884 125.6 296.884 127.2C296.884 128.667 296.951 130.133 297.084 131.6C297.351 133.2 297.351 134.733 297.084 136.2C296.818 136.6 296.818 137.067 297.084 137.6V140.6C297.084 141.133 297.084 141.667 297.084 142.2C297.218 142.733 297.284 143.333 297.284 144C297.284 144.533 297.218 145 297.084 145.4C296.951 145.8 296.751 146.2 296.484 146.6C295.818 148.067 294.684 148.6 293.084 148.2C291.618 147.8 290.684 147.4 290.284 147C289.884 146.467 289.484 145.533 289.084 144.2C288.951 143.667 288.884 143.133 288.884 142.6C288.884 142.067 288.818 141.533 288.684 141C288.551 140.733 288.484 140.4 288.484 140C288.484 139.6 288.418 139.2 288.284 138.8C287.884 137.6 287.684 136.4 287.684 135.2C287.551 134.533 287.418 133.933 287.284 133.4C287.284 132.733 287.284 132.133 287.284 131.6C287.151 130.667 287.084 129.8 287.084 129C287.084 128.2 287.084 127.467 287.084 126.8C287.218 124.933 287.151 123.2 286.884 121.6C286.751 120 286.684 118.4 286.684 116.8C286.551 115.467 286.018 114.267 285.084 113.2C284.951 112.8 284.618 112.6 284.084 112.6H282.284C280.951 112.867 279.884 113.133 279.084 113.4C277.751 113.8 276.418 114 275.084 114C274.684 114.133 274.284 114.2 273.884 114.2C273.618 114.2 273.284 114.333 272.884 114.6C272.084 114.733 271.418 115.2 270.884 116C270.618 116.267 270.284 116.333 269.884 116.2C269.618 115.933 269.351 115.8 269.084 115.8C268.551 115.933 268.018 116.067 267.484 116.2C266.951 116.333 266.484 116.6 266.084 117C265.551 117.4 264.884 117.733 264.084 118C263.418 118.133 262.751 118.333 262.084 118.6L257.884 119.8C257.351 119.933 256.818 120.133 256.284 120.4C255.884 120.533 255.484 120.733 255.084 121C253.751 121.533 252.684 122.4 251.884 123.6C251.218 124.4 250.351 125.133 249.284 125.8C248.751 126.067 248.218 126.4 247.684 126.8C247.284 127.2 246.818 127.6 246.284 128L245.084 128.8C244.151 129.467 243.151 130.133 242.084 130.8C241.151 131.333 240.151 131.933 239.084 132.6C236.951 134.333 234.618 135.2 232.084 135.2C231.684 135.2 231.284 135.267 230.884 135.4C230.484 135.4 230.084 135.467 229.684 135.6C229.151 135.6 228.684 135.667 228.284 135.8C227.884 135.933 227.484 136.133 227.084 136.4C226.818 136.667 226.418 136.867 225.884 137C225.484 137.133 225.084 137.267 224.684 137.4C222.551 137.933 220.551 137.4 218.684 135.8L217.884 135C217.351 134.467 216.684 134.333 215.884 134.6C215.618 134.733 215.284 134.8 214.884 134.8C214.618 134.8 214.284 134.867 213.884 135L208.284 136.8C208.018 136.933 207.751 137 207.484 137C207.218 137 206.951 137.067 206.684 137.2C205.351 137.867 203.884 138.467 202.284 139C200.684 139.4 199.151 139.8 197.684 140.2C197.551 140.2 197.418 140.267 197.284 140.4C197.284 140.4 197.151 140.4 196.884 140.4C195.551 141.067 194.084 141.667 192.484 142.2C190.884 142.733 189.351 143.4 187.884 144.2C187.884 144.2 187.751 144.333 187.484 144.6C186.551 145 185.618 145.467 184.684 146C183.751 146.533 182.818 147.067 181.884 147.6C181.218 148 180.618 148.4 180.084 148.8C179.551 149.2 178.951 149.6 178.284 150C177.351 150.933 176.284 151.8 175.084 152.6C173.884 153.4 173.151 154.6 172.884 156.2C172.751 156.6 172.684 157.133 172.684 157.8C172.551 158.467 172.418 159.133 172.284 159.8C172.284 160.467 172.284 161.133 172.284 161.8C171.884 164.2 171.684 166.667 171.684 169.2C171.551 170.933 170.751 172.2 169.284 173Z" fill="#A555EC"/>
</svg>
