<svg width="405" height="27" viewBox="0 0 405 27" fill="none" xmlns="http://www.w3.org/2000/svg">
<path fill-rule="evenodd" clip-rule="evenodd" d="M116.292 24.2719C51.9679 26.6881 51.5765 26.6345 49.6273 26.2041C48.5759 25.972 39.2174 25.9431 28.8306 26.14C16.3901 26.3758 8.89127 26.3187 6.85619 25.9727C5.15708 25.6839 2.95072 25.4751 1.95321 25.5088C0.955696 25.5425 0.126536 25.1838 0.110573 24.7115C0.0874374 24.0271 1.34502 23.8102 6.30859 23.6424C9.73339 23.5267 12.529 23.2388 12.521 23.0026C12.513 22.7665 10.8512 22.6293 8.82805 22.6977C3.51056 22.8774 1.94624 22.0804 7.15224 21.8439C9.5581 21.7346 12.1669 21.6464 12.9496 21.6479C13.7323 21.6494 14.3662 21.4575 14.3582 21.2214C14.3502 20.9853 12.2116 20.8642 9.60573 20.9523C6.99987 21.0403 4.86126 20.9192 4.85328 20.6831C4.8453 20.447 5.73841 20.2234 6.8379 20.1862C7.89307 20.1506 12.4386 19.6153 17.1135 18.9789C14.7474 18.976 13.3218 18.9151 13.3178 18.7961C13.3098 18.56 16.5013 18.2561 20.41 18.1207C22.5511 18.0466 25.1174 17.9177 27.428 17.7748C30.0632 17.52 32.9565 17.2736 36.1972 17.0304L36.9723 16.955L31.2771 16.8596C28.0187 16.805 30.7438 16.5878 39.0258 16.2371C41.0009 16.1298 41.8027 15.8709 41.1829 15.5327C41.0743 15.4735 41.018 15.4138 41.0116 15.3543C30.3608 15.7719 20.0048 16.2376 15.1397 16.563C4.94163 17.245 2.02941 17.2821 4.24242 16.7015C6.13365 16.2054 19.5601 15.0801 25.3737 14.9305C28.4213 14.8521 31.5312 14.5382 32.2844 14.2328C33.0377 13.9275 36.4825 13.6003 39.9394 13.5057C40.7918 13.4824 41.6591 13.4486 42.498 13.4073C41.255 13.1676 42.2389 13.0181 45.983 12.5033C46.7017 12.4044 47.3868 12.2934 48.0093 12.1773C44.6592 12.2828 40.1394 12.4469 34.9296 12.6558C5.18035 13.8486 14.9564 12.8862 47.7011 11.3984C48.8459 11.3464 49.9911 11.2939 51.1303 11.2413C51.1357 11.2292 51.1383 11.2174 51.1379 11.206C51.127 10.8838 53.8457 10.4041 57.1794 10.14C62.3609 9.72948 62.7017 9.63032 59.528 9.45688C57.486 9.3453 81.8269 8.39015 113.619 7.33433C145.411 6.2785 167.59 5.67954 162.905 6.00329C155.628 6.50617 155.216 6.58329 160.077 6.53266C161.912 6.51354 173.672 6.17084 190.34 5.65727C207.003 5.04412 218.76 4.59185 220.592 4.48697C225.446 4.20921 225.029 4.16009 217.735 4.14979C213.039 4.14317 235.207 3.24301 266.998 2.14946C298.789 1.05591 323.139 0.365099 321.109 0.614329C317.954 1.0017 318.301 1.07761 323.498 1.13729C326.842 1.17569 329.587 1.4707 329.598 1.79287C329.598 1.8043 329.602 1.81586 329.608 1.82754C330.748 1.80313 331.894 1.77817 333.04 1.75275C365.81 1.02584 375.629 1.3259 345.867 2.14475C340.655 2.28815 336.135 2.42972 332.785 2.55069C333.414 2.62443 334.105 2.68899 334.829 2.73904C338.599 2.99982 339.591 3.08255 338.367 3.40567C339.207 3.39018 340.074 3.36538 340.926 3.33109C344.382 3.192 347.841 3.28581 348.613 3.53958C349.385 3.79334 352.509 3.89659 355.555 3.76902C359.541 3.60208 367.131 3.65128 372.126 3.81719C372.779 3.82936 373.281 3.8485 373.637 3.87456C375.167 3.94108 376.296 4.02062 376.758 4.10891C376.87 4.13039 376.969 4.15119 377.056 4.17134C378.534 4.22583 380.296 4.23222 381.923 4.1772C386.519 4.02185 387.288 4.14094 386.489 4.88244C385.755 5.56268 386.46 5.743 389.455 5.64173C391.616 5.5687 392.827 5.65502 392.147 5.83356C391.951 5.88492 391.848 5.95318 391.83 6.03125C399.303 5.8944 404.179 5.88486 403.724 6.07567C403.214 6.28913 399.014 6.72068 394.197 7.06099C394.243 7.13817 394.051 7.18022 393.603 7.16992C391.964 7.13214 387.097 7.76368 384.053 8.31209C383.941 8.48907 382.954 8.74307 381.491 8.99505C381.599 9.16577 383.051 9.15978 384.805 8.97644C387.284 8.71738 387.168 8.79594 384.341 9.28984C383.718 9.39871 383.068 9.52704 382.442 9.66265C384.434 9.57969 386.898 9.47053 389.877 9.33465C399.768 8.88338 405.903 8.68871 403.511 8.90204C400.285 9.1896 399.682 9.4094 401.18 9.75201C402.732 10.107 400.694 10.4155 392.392 11.0826C380.712 12.0212 373.313 12.8579 372.319 13.3194C374.432 13.4069 375.948 13.5774 375.955 13.7853C375.957 13.8239 375.314 13.8804 374.15 13.9496C374.045 14.4732 367.907 15.2785 358.661 15.8929C352.7 16.289 349.106 16.5966 350.673 16.5763C353.005 16.5462 352.942 16.6388 350.327 17.0869C348.57 17.3879 341.972 17.7293 335.664 17.8455C328.817 17.9716 324.213 18.2252 324.239 18.4749C324.291 18.9936 293.879 20.1332 269.293 20.534C233.416 21.1187 224.465 21.3418 230.402 21.5034C235.109 21.6315 234.166 21.7235 225.081 22.0224C219.007 22.2222 213.649 22.2624 213.173 22.1118C212.76 21.9811 211.044 21.918 207.89 21.9253C203.47 22.2196 200.569 22.4532 200.153 22.5624C199.616 22.7033 197.044 22.8908 194.438 22.9789C188.473 23.1806 190.027 22.7312 197.14 22.1979C197.81 22.1476 198.466 22.0961 199.082 22.0456C189.631 22.2395 175.191 22.6691 154.97 23.3514C132.41 24.1125 120.057 24.408 116.292 24.2719ZM367.243 6.65973C372.939 6.48354 378.594 6.32753 383.691 6.20547C383.967 5.87473 383.143 5.65972 381.849 5.72695C380.547 5.7946 374.579 6.0506 368.587 6.29573C365.973 6.40271 364.011 6.49111 362.618 6.56982C364.687 6.5364 366.386 6.57068 367.243 6.65973ZM35.9375 14.4037C35.934 14.2995 36.78 14.0661 37.8174 13.885C38.8549 13.7038 39.7105 13.7602 39.719 14.0102C39.7274 14.2603 38.8816 14.4937 37.8392 14.5289C36.7968 14.5641 35.941 14.5078 35.9375 14.4037ZM313.456 1.34381C312.803 1.12947 313.173 0.923581 314.277 0.886262C315.381 0.848946 316.291 1.0116 316.299 1.24771C316.306 1.48382 315.937 1.68972 315.477 1.70526C315.018 1.7208 314.108 1.55815 313.456 1.34381ZM258.959 2.86582C268.598 2.46197 284.375 1.92863 294.019 1.68062C303.664 1.43261 295.777 1.76302 276.494 2.41488C257.211 3.06674 249.32 3.26966 258.959 2.86582ZM344.98 3.95672C344.976 3.85261 344.116 3.67685 343.069 3.56616C342.022 3.45547 341.172 3.56949 341.18 3.81954C341.189 4.06958 342.048 4.24534 343.091 4.21011C344.133 4.17487 344.983 4.06085 344.98 3.95672ZM67.213 9.66786C67.8493 9.40997 67.4667 9.2295 66.3628 9.26682C65.2589 9.30413 64.3622 9.52785 64.3702 9.76396C64.3782 10.0001 64.7608 10.1805 65.2205 10.165C65.6801 10.1495 66.5768 9.92575 67.213 9.66786ZM121.688 7.50615C112.044 7.75416 96.2667 8.2875 86.6277 8.69135C76.9886 9.09519 84.8794 8.89227 104.163 8.24041C123.446 7.58855 131.333 7.25813 121.688 7.50615ZM66.1944 25.1828C63.8457 25.1597 60.0079 25.2895 57.6661 25.4711C55.3244 25.6527 57.246 25.6715 61.9366 25.513C66.6271 25.3544 68.5431 25.2058 66.1944 25.1828Z" fill="#FFFFD0"/>
</svg>
