<svg width="637" height="857" viewBox="0 0 637 857" fill="none" xmlns="http://www.w3.org/2000/svg">
<g filter="url(#filter0_d_30_608)">
<path d="M413.88 341.623C414.565 344.153 414.126 345.918 412.141 347.334C409.471 349.236 407.151 347.334 407.151 347.334H407.132C406.99 349.052 406.026 350.553 403.995 351.351C402.908 351.776 402.01 351.833 401.207 351.63C400.2 351.124 399.562 350.804 399.458 350.752C399.449 350.747 399.444 350.742 399.444 350.742C398.102 349.751 396.817 348.165 394.983 346.697C391.737 344.101 383.18 336.54 377.008 338.371C376.347 338.569 375.709 338.871 375.109 339.305C373.597 340.396 371.862 341.618 370.109 342.836C364.694 346.593 359.062 350.35 359.062 350.35C350.731 355.033 341.356 348.528 337.188 347.49C333.02 346.447 308.803 341.505 285.89 341.538C282.459 341.543 279.152 341.434 276.014 341.245C258.2 340.183 245.748 336.563 245.748 336.563L245.318 336.384C246.112 334.505 247.081 332.32 248.291 329.78C254.495 316.772 253.668 306.86 253.668 306.86C259.027 303.244 264.65 300.252 268.638 298.284L268.964 298.935C268.964 298.935 290.577 310.551 318.958 315.493C321.245 315.889 323.357 316.272 325.304 316.63H325.309C347.551 320.732 349.02 322.224 356.949 318.877C365.573 315.233 373.644 311.07 378.331 307.171C383.019 303.268 385.363 302.23 391.094 304.83C391.094 304.83 396.803 308.049 401.793 308.635C406.783 309.22 413.828 311.419 416.176 314.79C417.103 316.121 418.572 318.584 420.103 321.28C422.447 325.414 424.914 330.078 425.712 331.942C427.035 335.02 426.624 338.177 421.993 339.301C420.514 343.865 418.01 344.295 414.182 341.538L413.88 341.623Z" fill="#F7CDBF"/>
<path d="M392.8 285.223C392.8 285.223 392.8 285.275 392.791 285.299C392.791 285.299 392.8 285.27 392.8 285.223ZM333.847 251.262C333.663 247.538 332.557 242.993 331.362 238.41C331.267 238.051 331.173 237.692 331.083 237.334C331.083 237.334 341.412 225.397 354.681 214.46C367.945 203.529 402.265 182.992 408.46 151.849C413.715 148.554 419.668 143.088 423.704 141.262C423.704 141.262 432.89 148.408 435.839 157.527C438.782 166.646 440.124 172.268 450.303 177.615C460.481 182.968 467.985 196.269 467.716 206.077C467.446 215.881 462.428 230.041 469.091 235.266C462.229 235.601 456.46 240.515 455.047 247.227L439.647 320.293L420.103 321.28C418.572 318.584 417.103 316.121 416.176 314.79C413.828 311.419 406.783 309.22 401.793 308.635C396.803 308.049 391.094 304.83 391.094 304.83C385.363 302.229 383.019 303.268 378.331 307.171C341.2 310.523 325.55 316.536 325.309 316.63H325.304C323.357 316.272 321.245 315.889 318.958 315.493C290.577 310.551 268.964 298.935 268.964 298.935L268.638 298.284C264.65 300.252 259.026 303.244 253.668 306.86C253.668 306.86 254.495 316.772 248.291 329.78C247.081 332.32 246.112 334.505 245.318 336.384L245.748 336.563C245.748 336.563 258.2 340.183 276.014 341.245L275.953 342.298C275.953 342.298 272.276 348.075 272.796 356.666C266.351 368.726 263.662 364.666 256.116 367.923C248.489 371.213 240.376 369.419 238.878 364.931C237.38 360.442 225.699 358.346 223.246 352.026C220.794 345.706 215.459 341.538 215.459 341.538C210.266 334.222 212.482 326.906 209.949 321.28C207.804 316.522 201.231 301.904 194.824 289.849C193.652 287.649 192.485 285.53 191.355 283.576C184.031 270.912 191.922 265.847 195.58 258.536C196.855 255.987 197.484 252.886 197.73 249.313C198.065 244.607 197.744 239.085 197.399 232.901C197.248 230.301 197.101 227.587 196.993 224.769C196.851 221.097 197.545 217.599 198.713 214.304C202.205 204.496 209.949 196.519 212.477 191.134C215.856 183.945 203.183 178.626 225.434 159.495C233.302 152.731 241.245 148.394 248.224 145.618C260.988 140.535 270.537 140.662 270.537 140.662C266.195 147.124 258.356 169.525 254.481 179.286C253.97 180.58 253.526 181.646 253.172 182.43C252.751 183.355 253.068 184.445 253.918 185.007C256.754 186.867 263.298 190.44 272.555 191.134L272.763 191.233C271.369 194.065 270.462 196.779 270.462 199.578C270.462 210.297 268.17 226.676 268.118 227.044C268.505 228.049 268.789 229.073 268.959 230.126C270.145 237.48 271.487 250.625 272.29 259.041C281.415 261.226 295.979 261.637 306.729 261.585C316.307 261.543 322.256 250.847 316.916 242.903C316.77 242.691 316.623 242.483 316.472 242.275C314.596 239.75 313.302 237.612 312.418 235.474C313.632 235.606 314.818 235.875 315.971 236.253C315.971 236.253 315.981 236.253 315.986 236.253C318.263 237.06 320.385 238.207 322.313 239.514C322.454 239.609 322.592 239.708 322.729 239.807C328.541 243.998 332.656 249.861 333.635 251.324C333.701 251.423 333.852 251.376 333.843 251.258L333.847 251.262Z" fill="#BCBED5"/>
<path d="M378.331 307.171C373.644 311.07 365.573 315.233 356.949 318.877C349.02 322.224 347.551 320.732 325.309 316.63C325.55 316.536 341.2 310.523 378.331 307.171Z" fill="#4C024E"/>
<path d="M272.796 356.666C272.276 348.075 275.952 342.298 275.952 342.298L276.014 341.245C279.152 341.434 282.459 341.543 285.89 341.538C308.803 341.505 333.02 346.447 337.188 347.49C341.356 348.528 350.731 355.033 359.061 350.35C359.061 350.35 364.694 346.593 370.109 342.836C370.109 342.836 413.18 363.807 420.495 367.276C427.805 370.746 431.047 368.069 431.047 368.069C431.751 368.877 432.814 369.372 434 369.297L594.467 358.667C599.037 358.365 602.912 355.212 604.14 350.808L616.809 305.302L617.914 305.609H637V466.341C527.51 463.556 446.083 445.006 386.331 425.498C358.31 416.346 335.052 406.986 315.905 398.943C281.637 384.552 273.486 368.112 272.796 356.666Z" fill="#4C024E"/>
<path d="M631.963 227.37C635.233 227.209 637.699 230.291 636.82 233.44L616.809 305.302L604.14 350.808C602.911 355.212 599.037 358.365 594.467 358.667L434 369.297C432.814 369.372 431.751 368.877 431.047 368.069C430.338 367.258 429.988 366.134 430.234 364.964L430.74 362.571L439.647 320.293L455.047 247.227C456.46 240.515 462.229 235.601 469.09 235.266L631.963 227.37Z" fill="#CECECE"/>
<path d="M439.647 320.293L430.74 362.571C430.74 362.571 428.538 363.887 424.332 362.571C420.878 361.49 406.296 354.197 401.207 351.629C402.01 351.832 402.908 351.776 403.994 351.351C406.026 350.553 406.99 349.052 407.132 347.334H407.151C407.151 347.334 409.471 349.236 412.141 347.334C414.126 345.918 414.565 344.153 413.88 341.623L414.182 341.538C418.01 344.295 420.514 343.865 421.993 339.301C426.624 338.177 427.035 335.02 425.712 331.942C424.913 330.078 422.447 325.414 420.103 321.28L439.647 320.293Z" fill="#BBBBBC"/>
<path d="M430.74 362.571L430.234 364.964C429.989 366.134 430.338 367.258 431.047 368.069C431.047 368.069 427.806 370.746 420.495 367.276C413.181 363.807 370.109 342.836 370.109 342.836C371.862 341.618 373.597 340.396 375.109 339.305C375.709 338.871 376.347 338.569 377.008 338.371L399.444 350.742C399.444 350.742 399.449 350.747 399.458 350.752C400.016 351.167 400.583 351.474 401.207 351.63C406.296 354.197 420.878 361.49 424.332 362.571C428.538 363.888 430.74 362.571 430.74 362.571Z" fill="#CECECE"/>
<path d="M428.646 110.067C431.004 114.579 433.556 121.452 425.499 120.862C422.234 120.621 418.52 120.545 414.655 120.696C411.087 120.829 407.397 121.164 403.81 121.74C401.684 122.075 399.595 122.504 397.596 123.023C388.557 125.379 382.267 132.836 364.779 132.836C347.29 132.836 338.657 117.808 338.657 117.808L321.864 91.8616L317.975 85.853L318.693 85.3904C358.697 98.701 410.142 77.1681 410.142 77.1681L411.352 76.6961C411.352 76.6961 426.288 105.55 428.646 110.067Z" fill="#D96CFF"/>
<path d="M423.595 139.931C424.252 140.091 424.323 140.983 423.704 141.262C419.669 143.088 413.715 148.554 408.46 151.844C406.116 153.312 403.91 154.346 402.072 154.435C395.187 154.766 392.843 138.939 392.791 138.576C397.488 133.393 401.599 127.753 403.81 121.74C407.397 121.164 411.087 120.829 414.655 120.696L417.15 130.769C417.386 131.713 416.819 132.638 415.893 132.94C415.543 133.058 415.236 133.228 414.967 133.436C412.874 135.064 414.003 138.425 416.64 138.685C419.196 138.93 421.757 139.473 423.595 139.931Z" fill="black"/>
<path d="M408.03 33.3896C415.109 51.9111 411.352 76.6961 411.352 76.6961L410.142 77.1681C410.142 77.1681 358.698 98.701 318.693 85.3904L317.975 85.853L317.654 85.3574C314.313 84.8146 310.457 83.408 307.031 81.9165C303.284 80.288 300.056 78.5558 298.587 77.7392C298.062 77.4466 297.732 76.899 297.713 76.2996C297.618 73.038 297.618 69.9889 297.703 67.1569C297.722 66.4677 297.746 65.7928 297.774 65.132C297.892 62.4038 298.147 59.6945 298.535 57.0088C300.652 42.3105 306.785 28.41 316.576 17.1102C330.535 0.995931 343.345 0 361.429 0C385.093 0 400.956 14.8682 408.03 33.3896Z" fill="#D96CFF"/>
<path d="M402.071 154.435C403.909 154.346 406.116 153.312 408.46 151.849C402.265 182.992 367.945 203.529 354.681 214.46C341.412 225.397 331.083 237.334 331.083 237.334C330.724 235.974 330.365 234.619 330.024 233.284H330.029C330.029 233.284 350.305 220.271 364.505 157.527C369.126 158.282 373.313 157.192 377.452 153.387C382.149 149.064 387.796 144.084 392.791 138.576C392.843 138.939 395.187 154.766 402.071 154.435Z" fill="#ABAFC9"/>
<path d="M399.444 350.742L377.008 338.371C383.18 336.539 391.737 344.101 394.983 346.697C396.817 348.165 398.102 349.751 399.444 350.742Z" fill="#BBBBBC"/>
<path d="M397.597 123.023C399.595 122.504 401.684 122.075 403.81 121.74C401.599 127.753 397.488 133.393 392.791 138.571C387.796 144.084 382.149 149.064 377.453 153.387C373.313 157.192 369.126 158.282 364.505 157.527C358.953 156.625 352.782 153.062 345.33 148.356C338.568 144.089 331.858 137.297 326.433 131.005C320.9 124.586 316.699 118.69 315.126 116.514C312.834 113.338 311.492 108.547 310.939 106.239C310.807 105.687 310.131 105.469 309.71 105.852C308.189 107.225 306.332 108.217 304.229 108.66C297.401 110.105 290.596 105.243 289.023 97.8041C288.654 96.0624 288.607 94.3396 288.839 92.697C289.278 89.5157 290.762 86.6507 292.978 84.6069C294.509 83.1956 296.394 82.1808 298.53 81.7324C301.342 81.1424 304.153 81.6191 306.596 82.9076C306.998 83.1153 307.39 83.3513 307.773 83.6062C307.773 83.6062 309.479 88.3074 312.305 92.9614C315.13 97.6106 319.289 97.9457 319.289 97.9457C319.289 97.9457 321.746 97.0772 321.864 91.8616L338.658 117.808C338.658 117.808 347.286 132.836 364.779 132.836C382.272 132.836 388.557 125.379 397.597 123.023Z" fill="#F7CDBF"/>
<path d="M364.392 490.777C354.606 492.079 340.127 490.541 322.426 489.002C308.987 487.836 302.273 483.753 298.223 478.722C293.351 472.67 292.331 465.251 288.116 459.874C280.394 450.019 263.672 453.875 265.387 433.31C267.102 412.749 263.672 405.037 261.096 396.04C258.526 387.044 236.222 387.474 236.222 387.474C234.082 386.619 232.272 386.35 230.684 386.44V386.421C230.684 386.421 239.218 379.591 256.116 367.923C263.662 364.666 266.351 368.726 272.796 356.666C273.486 368.112 281.637 384.552 315.905 398.943C335.052 406.986 358.31 416.346 386.331 425.498C386.279 426.084 382.012 472.793 377.325 483.437C375.43 487.737 370.969 489.899 364.392 490.777Z" fill="#BCBED5"/>
<path d="M375.236 670.068C375.373 670.988 375.232 671.942 374.759 672.749C372.458 676.685 367.482 675.161 364.633 673.848C363.333 673.244 362.417 672.041 362.194 670.629C360.564 660.156 353.216 613.158 349.625 593.598C345.571 571.518 345.731 548.333 345.731 548.333V496.403C345.731 495.936 345.112 495.775 344.881 496.181C328.442 525.502 287.653 525.979 287.653 525.979H257.77V676.364C253.451 656.228 237.611 601.098 238.089 594.863C238.571 588.633 250.308 576.648 247.558 569.455C244.808 562.266 240.489 556.031 242.408 545.487C244.331 534.937 255.369 534.423 252.009 518.62C248.65 502.817 247.785 511.111 247.558 501.916C247.336 492.868 241.444 488.289 241.245 488.138C244 487.288 245.739 486.901 247.558 482.568C247.558 482.568 264.645 492.112 298.223 478.722C302.273 483.753 308.987 487.836 322.426 489.002C340.127 490.541 354.606 492.079 364.392 490.777C364.378 491.584 362.889 570.106 363.258 581.822C363.598 592.739 373.757 660.288 375.236 670.068ZM335.156 494.151H257.77V514.91C257.77 514.91 324.978 522.396 335.156 494.151Z" fill="#4C024E"/>
<path d="M345.33 148.356C352.782 153.062 358.953 156.625 364.505 157.527C350.305 220.271 330.029 233.284 330.029 233.284H330.024C329.032 229.371 328.21 225.661 328.111 222.673C327.851 214.838 315.593 206.077 315.593 206.077C318.05 201.504 320.56 196.84 320.801 191.134C321.278 179.829 321.519 173.877 324.883 157.754C328.248 141.63 326.433 131.005 326.433 131.005C331.858 137.297 338.568 144.089 345.33 148.356Z" fill="#E8B9AC"/>
<path d="M333.847 251.262C333.857 251.38 333.706 251.428 333.639 251.328C332.661 249.865 328.546 244.003 322.733 239.812C329.566 244.593 333.847 251.262 333.847 251.262Z" fill="#BCBED5"/>
<path d="M331.362 238.41C332.557 242.993 333.663 247.538 333.847 251.262C333.847 251.262 329.566 244.593 322.733 239.812C322.596 239.712 322.459 239.613 322.318 239.519C320.371 238.16 318.244 236.998 315.99 236.257C315.99 236.257 315.981 236.257 315.976 236.257C314.823 235.88 313.637 235.611 312.423 235.479C310.703 231.325 310.547 227.176 310.707 220.2C310.83 214.97 313.184 210.566 315.593 206.082C315.593 206.082 327.851 214.843 328.111 222.678C328.21 225.666 329.032 229.376 330.025 233.288C330.365 234.624 330.724 235.979 331.083 237.338C331.173 237.697 331.267 238.056 331.362 238.414V238.41Z" fill="#BCBED5"/>
<path d="M326.433 131.005C326.433 131.005 328.248 141.63 324.883 157.753C321.519 173.877 321.278 179.829 320.8 191.134C320.559 196.84 318.05 201.504 315.593 206.077C313.183 210.561 310.83 214.965 310.707 220.195C310.547 227.171 310.707 231.32 312.423 235.474C313.306 237.612 314.601 239.75 316.477 242.275C316.628 242.483 316.775 242.691 316.921 242.903C322.261 250.847 316.311 261.543 306.733 261.585C295.983 261.637 281.42 261.226 272.295 259.041C271.492 250.625 270.15 237.48 268.964 230.126C268.794 229.073 268.51 228.049 268.123 227.049C268.175 226.676 270.466 210.297 270.466 199.578C270.466 196.779 271.374 194.065 272.768 191.233C276.775 183.086 284.812 173.953 286.873 158.985C289.651 138.817 284.879 134.979 284.879 134.979C284.879 134.979 276.666 135.928 271.931 139.081C271.525 139.35 271.062 139.893 270.542 140.662C270.542 140.662 260.992 140.535 248.229 145.618C260.992 137.099 273.703 124.713 277.729 119.615C281.755 114.518 283.952 108.811 283.952 103.147C283.952 97.4832 288.838 92.697 288.838 92.697C288.607 94.3396 288.654 96.0624 289.023 97.8041C290.596 105.243 297.401 110.105 304.229 108.66C306.332 108.217 308.189 107.225 309.71 105.852C310.131 105.469 310.806 105.687 310.939 106.239C311.492 108.547 312.834 113.338 315.125 116.514C316.699 118.69 320.9 124.586 326.433 131.005Z" fill="black"/>
<path d="M317.975 85.853L321.864 91.8616C321.746 97.0772 319.288 97.9457 319.288 97.9457C319.288 97.9457 315.13 97.6106 312.304 92.9614C309.479 88.3074 307.773 83.6062 307.773 83.6062C307.39 83.3513 306.998 83.1153 306.596 82.9076L307.031 81.9164C310.457 83.408 314.313 84.8146 317.653 85.3574L317.975 85.853Z" fill="black"/>
<path d="M322.317 239.519C320.39 238.211 318.268 237.064 315.99 236.257C318.244 236.998 320.371 238.16 322.317 239.519Z" fill="#BCBED5"/>
<path d="M307.031 81.9165L306.596 82.9077C304.153 81.6191 301.342 81.1424 298.53 81.7324C296.394 82.1808 294.509 83.1956 292.978 84.6069L297.713 76.2996C297.732 76.8991 298.062 77.4466 298.587 77.7392C300.057 78.5558 303.284 80.2881 307.031 81.9165Z" fill="black"/>
<path d="M298.53 57.0088H298.535C298.147 59.6945 297.892 62.4038 297.774 65.132C297.745 65.7928 297.722 66.4678 297.703 67.1569H297.641C297.641 67.1569 278.216 71.2114 270.646 74.709C269.677 75.1574 268.529 74.8364 267.919 73.9632L264.612 69.2101C263.827 68.0867 264.243 66.5291 265.486 65.9533C269.469 64.1125 279.142 60.445 298.53 57.0088Z" fill="#D96CFF"/>
<path d="M247.558 482.568C245.739 486.901 244 487.288 241.245 488.138C238.5 488.978 234.738 490.276 228.874 496.403C216.248 509.586 214.528 505.574 208.215 529.075C201.902 552.581 179.518 568.058 166.32 581.241C158.609 588.944 150.977 598.738 145.968 605.549C142.401 610.397 140.166 613.729 140.166 613.729C135.804 621.569 137.553 628.541 136.39 633.478C135.459 637.414 124.166 639.505 119.639 640.19C118.897 640.303 118.349 639.538 118.675 638.863C118.907 638.387 119.114 637.896 119.299 637.395C119.979 635.555 120.353 633.601 120.532 631.698C121.161 624.944 117.366 618.548 111.233 615.636C105.695 613.007 98.9988 610.567 92.7566 608.542C82.9044 605.342 74.172 603.156 72.8394 602.826C72.7922 602.816 72.7591 602.783 72.7449 602.746C72.7355 602.708 72.7449 602.67 72.7638 602.632C74.4224 600.032 96.9197 564.853 109.068 549.451C119.989 535.608 123.641 499.617 138.895 470.693C140.44 467.762 142.108 464.897 143.913 462.14C145.869 459.157 147.159 455.796 147.826 452.299C149.224 444.912 152.376 432.267 158.094 428.236C166.344 422.421 181.56 410.786 194.824 404.966C194.824 404.966 201.463 401.95 205.626 400.982C209.784 400.019 210.753 390.358 217.198 390.999C222.221 391.504 225.094 386.747 230.684 386.44C232.272 386.35 234.081 386.619 236.222 387.474C236.222 387.474 258.526 387.044 261.096 396.04C263.671 405.037 267.102 412.749 265.387 433.31C263.671 453.875 280.394 450.019 288.116 459.874C292.331 465.251 293.351 472.67 298.223 478.722C264.645 492.112 247.558 482.568 247.558 482.568Z" fill="#E5D8C7"/>
<path d="M284.879 134.979C284.879 134.979 289.651 138.817 286.873 158.985C284.813 173.953 276.775 183.086 272.768 191.233L272.56 191.134C263.303 190.44 256.758 186.867 253.923 185.007C253.073 184.445 252.756 183.355 253.177 182.43C253.531 181.646 253.975 180.58 254.486 179.286C258.36 169.525 266.2 147.124 270.542 140.662C271.062 139.893 271.525 139.35 271.931 139.081C276.666 135.928 284.879 134.979 284.879 134.979Z" fill="#BCBED5"/>
<path d="M268.855 736.233C269.455 738.206 268.458 740.302 266.577 741.147C259.99 744.097 246.32 748.85 234.554 751.993C227.679 753.825 221.455 755.109 217.675 755.161C216.796 755.17 216.05 755.118 215.459 754.986C210.02 753.792 199.256 754.084 191.927 754.476C190.287 754.566 188.818 754.656 187.622 754.741C185.581 754.877 183.761 753.504 183.322 751.512C180.737 739.825 176.593 704.316 172.818 675.406C168.499 642.323 166.32 581.241 166.32 581.241C179.518 568.058 201.902 552.581 208.215 529.075C214.528 505.574 216.248 509.586 228.874 496.403C234.738 490.276 238.5 488.978 241.245 488.138C241.443 488.289 247.336 492.868 247.558 501.916C247.785 511.111 248.65 502.817 252.009 518.62C255.369 534.423 244.331 534.937 242.407 545.487C240.489 556.031 244.808 562.266 247.558 569.455C250.308 576.648 238.57 588.633 238.088 594.863C237.611 601.098 253.45 656.228 257.769 676.364C262.088 696.5 267.367 722.866 267.849 730.055C268.033 732.844 268.434 734.836 268.855 736.233Z" fill="#E5D8C7"/>
<path d="M238.878 364.931C240.376 369.419 248.489 371.213 256.116 367.923C239.218 379.591 230.684 386.421 230.684 386.421V386.44C225.094 386.747 222.221 391.505 217.198 390.999C210.753 390.358 209.784 400.019 205.626 400.982C201.463 401.95 194.824 404.966 194.824 404.966C181.56 410.786 166.344 422.421 158.094 428.236C152.376 432.267 149.224 444.912 147.826 452.299C147.159 455.796 145.869 459.157 143.913 462.14C142.108 464.897 140.44 467.762 138.895 470.693C138.895 470.693 127.918 465.468 126.25 456.821C124.587 448.169 128.249 449.83 131.58 443.845C134.325 438.913 136.39 436.685 137.038 425.64C137.175 423.275 137.246 420.509 137.246 417.224C137.246 407.652 140.601 399.599 143.937 392.312C147.098 385.42 150.245 379.204 150.514 373.049C150.604 371.019 150.992 369.183 151.601 367.479C153.331 362.627 156.842 358.87 160.329 354.768C163.244 351.342 166.146 347.679 167.979 342.945C172.766 330.564 194.824 289.849 194.824 289.849C201.231 301.904 207.804 316.522 209.949 321.28C212.482 326.906 210.266 334.222 215.459 341.538C215.459 341.538 220.794 345.706 223.247 352.026C225.699 358.346 237.38 360.442 238.878 364.931Z" fill="#BCBED5"/>
<path d="M240.47 777.444C240.47 777.444 245.432 784.095 243.235 791.543C241.037 798.996 230.694 799.727 219.792 808.946C208.891 818.164 213.526 823.682 211.343 830.488C209.165 837.294 199.351 849 179.731 849C160.111 849 149.479 842.194 147.57 839.201C145.661 836.204 145.661 827.222 147.57 819.873C149.451 812.637 156.397 809.059 156.615 808.95C156.137 809.559 155.826 810.291 155.726 811.065C155.632 811.82 155.561 812.538 155.528 813.222C155.055 821.638 159.091 825.088 170.862 827.477C178.285 828.982 184.683 828.496 190.798 826.363C195.584 824.687 200.201 822.006 205.002 818.471C215.936 810.423 214.401 800.846 220.539 794.521C226.313 788.574 239.142 785.157 240.47 777.444Z" fill="white"/>
<path d="M211.041 777.444C212.284 775.599 213.252 773.947 213.81 772.578C213.952 772.233 214.089 771.889 214.221 771.553C215.001 769.614 215.7 767.773 216.319 766.092C218.256 760.797 219.343 757.12 219.343 757.12L219.906 756.043C222.566 757.195 226.767 759.347 227.646 761.792C229.687 767.475 233.34 766.394 233.949 763.369C234.181 762.213 234.323 760.282 234.412 758.337H234.554C234.554 758.337 240.38 767.14 240.584 775.938C240.593 776.458 240.555 776.958 240.47 777.444C239.142 785.157 226.313 788.574 220.539 794.521C214.401 800.846 215.936 810.423 205.002 818.471C200.201 822.006 195.584 824.687 190.798 826.363L190.722 825.645C190.722 825.645 184.074 816.498 187.556 808.606C188.01 807.577 188.737 806.345 189.659 804.967C191.171 802.706 193.222 800.044 195.495 797.207C197.352 794.885 199.365 792.444 201.354 790.009C203.339 787.583 205.3 785.161 207.076 782.867C208.56 780.951 209.916 779.115 211.041 777.444Z" fill="#F09C42"/>
<path d="M234.554 751.994C234.554 751.994 234.554 755.184 234.412 758.337C234.323 760.282 234.181 762.213 233.949 763.369C233.34 766.394 229.687 767.475 227.646 761.792C226.767 759.347 222.566 757.195 219.906 756.043C218.606 755.482 217.675 755.161 217.675 755.161C221.456 755.109 227.679 753.825 234.554 751.994Z" fill="#F7CDBF"/>
<path d="M219.906 756.043L219.343 757.12C219.343 757.12 218.256 760.796 216.319 766.092L200.636 765.134L190.731 760.452C191.521 757.431 191.974 755.42 191.974 755.42L191.927 754.476C199.256 754.085 210.02 753.792 215.459 754.986C216.05 755.118 216.796 755.17 217.675 755.161C217.675 755.161 218.606 755.482 219.906 756.043Z" fill="#F09C42"/>
<path d="M200.636 765.134L216.319 766.092C215.7 767.773 215.001 769.614 214.221 771.553L200.636 765.134Z" fill="#F09C42"/>
<path d="M200.636 765.134L214.221 771.553C214.089 771.889 213.952 772.233 213.81 772.578C213.252 773.947 212.284 775.599 211.041 777.444H198.41L187.74 770.765C188.444 768.594 189.087 766.442 189.645 764.464L200.636 765.134Z" fill="#F09C42"/>
<path d="M198.41 777.444H211.041C209.916 779.115 208.56 780.951 207.076 782.867L198.41 777.444Z" fill="#F09C42"/>
<path d="M198.41 777.444L207.077 782.867C205.3 785.161 203.339 787.583 201.354 790.009L188.714 791.434L181.815 785.553C182.798 783.344 183.715 781.239 184.537 779.365C184.811 778.742 185.08 778.1 185.345 777.444H198.41Z" fill="#F09C42"/>
<path d="M188.714 791.434L201.354 790.009C199.365 792.444 197.352 794.885 195.495 797.207L188.714 791.434Z" fill="#F09C42"/>
<path d="M198.41 777.444H185.345C186.2 775.32 187.003 773.036 187.74 770.765L198.41 777.444Z" fill="#F09C42"/>
<path d="M197.399 232.901C197.744 239.085 198.065 244.607 197.73 249.308C197.408 248.77 186.238 230.027 164.383 233.284C142.203 236.588 140.785 257.318 142.675 281.117C144.561 304.92 160.329 354.768 160.329 354.768C156.842 358.87 153.331 362.627 151.601 367.475L134.652 298.935C134.652 298.935 115.108 242.87 154.701 226.407C156.459 225.67 158.33 225.019 160.329 224.453C160.329 224.453 170.11 221.422 182.018 224.769C186.961 226.156 192.267 228.644 197.394 232.901H197.399Z" fill="#4C024E"/>
<path d="M196.992 224.769H182.018C170.11 221.422 160.329 224.453 160.329 224.453C158.33 225.019 156.459 225.67 154.701 226.407C101.135 229.885 115.826 291.034 115.826 291.034L143.936 392.312C140.6 399.599 137.245 407.652 137.245 417.224C137.245 420.509 137.175 423.275 137.037 425.64H137.033C137.033 425.64 112.82 334.6 110.486 326.934C108.147 319.269 87.2232 239.472 125.834 222.598C163.348 206.205 198.23 214.191 198.712 214.304C197.545 217.599 196.851 221.097 196.992 224.769Z" fill="#4C024E"/>
<path d="M188.714 791.434L195.495 797.207C193.222 800.044 191.171 802.706 189.659 804.967C184.088 801.809 178.545 800.525 174.542 800.02C175.932 797.717 177.274 795.168 178.545 792.577L188.714 791.434Z" fill="#F09C42"/>
<path d="M187.74 770.765C187.003 773.036 186.2 775.32 185.345 777.444C185.08 778.1 184.811 778.742 184.537 779.365C183.714 781.239 182.798 783.344 181.815 785.553C180.794 787.838 179.698 790.226 178.545 792.577C177.274 795.168 175.932 797.717 174.543 800.02C173.73 801.37 172.903 802.64 172.062 803.782C170.512 805.897 168.929 807.586 167.346 808.606C160.839 812.783 155.528 813.222 155.528 813.222C155.561 812.538 155.632 811.82 155.726 811.065C155.826 810.291 156.137 809.559 156.615 808.95C158.561 806.487 163.953 799.638 166.316 796.159C169.227 791.869 177.841 778.228 182.524 769.264C187.206 760.301 187.617 754.741 187.617 754.741C188.813 754.656 190.283 754.566 191.922 754.476L191.969 755.42C191.969 755.42 191.516 757.431 190.727 760.452C190.415 761.651 190.051 763.005 189.64 764.464C189.082 766.442 188.44 768.594 187.736 770.765H187.74Z" fill="#F09C42"/>
<path d="M190.722 825.645L190.798 826.363C184.683 828.496 178.285 828.982 170.862 827.477C159.091 825.088 155.055 821.638 155.528 813.222C155.528 813.222 160.839 812.783 167.346 808.606C168.929 807.586 170.512 805.897 172.062 803.782C172.062 803.782 180.355 803.966 187.556 808.606C184.074 816.498 190.722 825.645 190.722 825.645Z" fill="white"/>
<path d="M181.815 785.553L188.714 791.434L178.545 792.577C179.698 790.226 180.794 787.838 181.815 785.553Z" fill="#F09C42"/>
<path d="M189.659 804.967C188.737 806.345 188.009 807.577 187.556 808.606C180.354 803.966 172.062 803.782 172.062 803.782C172.903 802.64 173.73 801.37 174.542 800.02C178.545 800.525 184.087 801.809 189.659 804.967Z" fill="#F09C42"/>
<path d="M119.294 637.395C119.067 637.773 111.852 649.96 105.865 658.131L105.78 658.112C106.087 656.705 105.591 655.336 103.998 653.982C100.029 650.612 91.8117 653.982 91.8117 653.982C88.9245 639.793 70.7698 643.366 70.7698 643.366C70.2311 640.86 69.2435 638.42 67.4526 637.518L68.7474 637.112C70.4863 632.081 77.201 624.288 83.0887 618.109C88.2393 612.71 92.7567 608.542 92.7567 608.542C98.9989 610.567 105.695 613.007 111.233 615.636C117.366 618.548 121.161 624.944 120.532 631.698C120.353 633.601 119.979 635.555 119.299 637.395H119.294Z" fill="#F7CDBF"/>
<path d="M103.998 653.982C105.59 655.336 106.087 656.705 105.779 658.112C105.321 660.208 103.081 662.398 100.029 664.767C94.9301 668.727 90.9656 681.75 85.0117 695.901C83.5516 699.379 81.6236 702.693 79.4783 705.761C72.9054 715.177 64.277 722.347 60.6432 725.335C59.5847 726.208 57.9923 727.039 56.003 727.709C56.003 727.709 50.7295 723.919 50.7295 716.56C50.7295 714.601 51.2304 712.425 52.0951 710.127C54.4767 703.792 59.6225 696.542 64.6125 690.52C71.4122 682.311 91.8114 653.982 91.8114 653.982C91.8114 653.982 100.029 650.612 103.998 653.982Z" fill="#F09C42"/>
<path d="M72.8394 602.826C74.1719 603.156 82.9043 605.342 92.7566 608.542C92.7566 608.542 88.2392 612.71 83.0886 618.109L82.9846 618.01C75.5753 614.045 72.6646 602.783 72.6646 602.783L72.7449 602.746C72.7591 602.783 72.7921 602.816 72.8394 602.826Z" fill="#CEBCA7"/>
<path d="M91.8115 653.982C91.8115 653.982 71.4123 682.311 64.6126 690.52C59.6226 696.542 54.4768 703.792 52.0952 710.127C42.7485 708.81 33.709 701.395 33.709 701.395C41.1703 696.372 49.7656 677.086 57.879 666.07C63.3745 658.603 67.6321 654.034 69.8104 651.858C70.8784 650.791 71.4407 649.328 71.3462 647.827C71.2706 646.557 71.1099 644.948 70.7697 643.366C70.7697 643.366 88.9243 639.793 91.8115 653.982Z" fill="#F09C42"/>
<path d="M79.4785 705.761C79.4785 705.761 79.8045 712.85 78.1743 718.344C76.544 723.843 71.6533 732.797 61.4892 740.326C51.325 747.859 39.2565 748.062 27.6417 746.23C16.0269 744.399 5.63117 735.237 4.41203 730.352C3.18818 725.472 4.61522 712.444 9.70912 705.761C14.803 699.077 20.6908 697.6 20.6908 697.6C19.5661 699.733 17.9926 702.99 17.3783 706.667C16.4427 712.246 17.7091 718.802 26.0776 723.919C36.9081 730.546 48.9482 730.107 56.0031 727.709C57.9924 727.039 59.5849 726.208 60.6433 725.335C64.2771 722.347 72.9055 715.177 79.4785 705.761Z" fill="white"/>
<path d="M71.3463 647.827C71.4408 649.328 70.8785 650.791 69.8106 651.858C67.6322 654.034 63.3747 658.603 57.8791 666.07C49.7658 677.086 41.1704 696.372 33.7091 701.395C26.2431 706.417 17.3784 706.667 17.3784 706.667C17.9927 702.99 19.5662 699.733 20.6909 697.6C23.5261 692.219 26.9283 690.803 29.4752 686.276C32.0269 681.75 47.044 661.935 52.4261 652.311C57.813 642.687 62.6281 635.611 67.1644 637.386C67.2636 637.424 67.3581 637.466 67.4526 637.518C69.2435 638.42 70.2311 640.86 70.7698 643.366C71.11 644.948 71.2707 646.557 71.3463 647.827Z" fill="#F09C42"/>
<path d="M50.7297 716.56C50.7297 723.919 56.0032 727.709 56.0032 727.709C48.9483 730.107 36.9082 730.546 26.0777 723.919C17.7092 718.802 16.4428 712.246 17.3784 706.667C17.3784 706.667 26.2431 706.417 33.7091 701.395C33.7091 701.395 42.7486 708.81 52.0953 710.127C51.2306 712.425 50.7297 714.601 50.7297 716.56Z" fill="white"/>
<path d="M205.625 431.691C205.625 431.691 148.629 514.339 145.968 605.549" stroke="#BFAD97" stroke-width="4" stroke-miterlimit="10" stroke-linecap="round"/>
<path d="M187.617 418.362C187.617 418.362 162.493 453.139 154.701 454.498" stroke="#BFAD97" stroke-width="4" stroke-miterlimit="10" stroke-linecap="round"/>
<path d="M222.197 449.759C222.197 449.759 221.9 431.87 229.687 431.691C237.474 431.507 242.067 436.595 247.558 445.573" stroke="#BFAD97" stroke-width="4" stroke-miterlimit="10" stroke-linecap="round"/>
<path d="M410.142 77.1681C410.142 77.1681 358.697 98.701 318.693 85.3904" stroke="#2D2C2D" stroke-width="4" stroke-miterlimit="10" stroke-linecap="round"/>
<path d="M223.87 289.481C223.87 289.481 234.748 280.654 248.045 281.136C261.337 281.622 258.634 282.863 267.622 282.585" stroke="#8B8FAF" stroke-width="4" stroke-miterlimit="10" stroke-linecap="round"/>
<path d="M251.669 255.784C251.669 255.784 240.068 254.571 223.87 259.041C207.676 263.511 194.823 266.89 194.823 266.89" stroke="#8B8FAF" stroke-width="4" stroke-miterlimit="10" stroke-linecap="round"/>
<path d="M241.226 352.026C242.058 354.226 242.875 356.958 243.182 359.767" stroke="#8B8FAF" stroke-width="4" stroke-miterlimit="10" stroke-linecap="round"/>
<path d="M238.991 347.131C238.991 347.131 240.12 349.114 241.221 352.026" stroke="#8B8FAF" stroke-width="4" stroke-miterlimit="10" stroke-linecap="round"/>
<path d="M241.221 352.026H241.226C241.5 352.116 251.031 355.023 257.713 344.295" stroke="#8B8FAF" stroke-width="4" stroke-miterlimit="10" stroke-linecap="round"/>
<path d="M268.123 227.049C268.51 228.049 268.794 229.073 268.964 230.126C270.15 237.48 271.492 250.625 272.295 259.041C272.739 263.686 273.018 266.89 273.018 266.89" stroke="#8B8FAF" stroke-width="4" stroke-miterlimit="10" stroke-linecap="round"/>
<path d="M215.459 182.01C215.459 182.01 226.044 187.962 238.991 199.375C250.738 209.731 264.333 217.221 268.123 227.044" stroke="#8B8FAF" stroke-width="4" stroke-miterlimit="10" stroke-linecap="round"/>
<path d="M254.485 179.286C254.485 179.286 246.211 164.994 236.425 164.994C226.639 164.994 218.975 172.14 218.975 172.14" stroke="#8B8FAF" stroke-width="4" stroke-miterlimit="10" stroke-linecap="round"/>
<path d="M304.569 91.0592L300.869 95.1562L297.169 99.2532" stroke="#C68B77" stroke-width="4" stroke-miterlimit="10" stroke-linecap="round"/>
<path d="M304.975 98.852L300.869 95.1562L296.768 91.4604" stroke="#C68B77" stroke-width="4" stroke-miterlimit="10" stroke-linecap="round"/>
<path d="M230.684 386.421C230.684 386.421 239.218 379.591 256.115 367.923" stroke="#8B8FAF" stroke-width="4" stroke-miterlimit="10" stroke-linecap="round"/>
<path d="M339.824 269.09C340.656 262.236 333.847 251.262 333.847 251.262C333.847 251.262 329.566 244.593 322.733 239.812C322.596 239.712 322.459 239.613 322.317 239.519C320.389 238.211 318.267 237.064 315.99 236.257C315.99 236.257 315.98 236.257 315.976 236.257" stroke="#8B8FAF" stroke-width="4" stroke-miterlimit="10" stroke-linecap="round"/>
<path d="M302.707 309.607C302.707 309.607 358.579 253.434 380.547 213.87" stroke="#8B8FAF" stroke-width="4" stroke-miterlimit="10" stroke-linecap="round"/>
<path d="M392.8 285.218C393.65 277.303 394.997 273.593 402.917 262.812C410.869 251.994 405.053 246.434 407.151 239.382C409.253 232.335 400.705 223.003 407.151 212.261C414.182 200.555 417.381 184.969 417.381 184.969C417.381 184.969 420.641 172.626 426.369 166.825C432.091 161.029 428.83 148.115 428.83 148.115" stroke="#8B8FAF" stroke-width="4" stroke-miterlimit="10" stroke-linecap="round"/>
<path d="M401.022 293.833C398.003 288.858 391.945 293.271 392.791 285.299C392.795 285.275 392.795 285.247 392.8 285.223" stroke="#8B8FAF" stroke-width="4" stroke-miterlimit="10" stroke-linecap="round"/>
<path d="M392.791 285.299C392.791 285.299 392.8 285.27 392.8 285.223C392.8 284.827 392.266 283.312 383.099 287.527C372.779 292.275 381.341 294.399 369.774 295.546C358.201 296.693 360.328 297.344 354.596 303.235C348.864 309.125 342.069 305.274 337.443 311.349" stroke="#8B8FAF" stroke-width="4" stroke-miterlimit="10" stroke-linecap="round"/>
<path d="M190.722 825.645C190.722 825.645 184.073 816.498 187.556 808.606C188.009 807.577 188.737 806.345 189.658 804.967C191.17 802.706 193.221 800.044 195.494 797.207C197.351 794.885 199.364 792.444 201.353 790.009C203.338 787.583 205.299 785.161 207.076 782.867C208.56 780.951 209.916 779.115 211.04 777.444C212.283 775.599 213.252 773.947 213.809 772.578C213.951 772.233 214.088 771.889 214.221 771.553C215 769.614 215.7 767.773 216.319 766.092C218.256 760.796 219.343 757.12 219.343 757.12" stroke="#D68338" stroke-width="4" stroke-miterlimit="10" stroke-linecap="round"/>
<path d="M155.527 813.222C155.527 813.222 160.839 812.783 167.345 808.606C168.928 807.586 170.511 805.897 172.061 803.782C172.902 802.64 173.729 801.37 174.542 800.02C175.931 797.717 177.273 795.168 178.544 792.577C179.697 790.226 180.794 787.838 181.814 785.553C182.797 783.344 183.714 781.239 184.536 779.365C184.81 778.742 185.079 778.1 185.344 777.444C186.199 775.32 187.003 773.036 187.74 770.765C188.444 768.594 189.087 766.442 189.644 764.464C190.055 763.005 190.419 761.651 190.731 760.452C191.52 757.431 191.974 755.42 191.974 755.42" stroke="#D68338" stroke-width="4" stroke-miterlimit="10" stroke-linecap="round"/>
<path d="M168.537 799.742C168.537 799.742 170.909 799.562 174.542 800.02C178.545 800.525 184.088 801.809 189.659 804.967C191.44 805.977 193.231 807.176 194.97 808.606" stroke="white" stroke-width="8" stroke-miterlimit="10" stroke-linecap="round"/>
<path d="M199.771 800.851L195.494 797.207L188.713 791.434L181.814 785.553L179.806 783.844" stroke="white" stroke-width="8" stroke-miterlimit="10" stroke-linecap="round"/>
<path d="M173.843 793.105L178.544 792.577L188.713 791.434L201.354 790.009L205.309 789.565" stroke="white" stroke-width="8" stroke-miterlimit="10" stroke-linecap="round"/>
<path d="M213.285 777.444H211.04H198.41H185.344H181.753" stroke="white" stroke-width="8" stroke-miterlimit="10" stroke-linecap="round"/>
<path d="M208.635 783.844L207.076 782.867L198.41 777.444L187.74 770.765L185.595 769.425" stroke="white" stroke-width="8" stroke-miterlimit="10" stroke-linecap="round"/>
<path d="M216.39 772.578L214.221 771.553L200.635 765.134L190.731 760.452L189.578 759.909" stroke="white" stroke-width="8" stroke-miterlimit="10" stroke-linecap="round"/>
<path d="M187.556 764.336L189.644 764.464L200.635 765.134L216.319 766.092L218.823 766.243" stroke="white" stroke-width="8" stroke-miterlimit="10" stroke-linecap="round"/>
<path d="M154.242 814.586C154.242 814.586 154.072 820.43 157.668 822.931C161.26 825.438 168.277 828.439 174.708 829.025C181.139 829.605 189.791 827.189 189.791 827.189" stroke="#D6D6D6" stroke-width="2" stroke-miterlimit="10" stroke-linecap="round"/>
<path d="M91.8161 653.986C91.8161 653.986 71.4169 682.316 64.6125 690.524C57.8127 698.732 50.7295 709.206 50.7295 716.565C50.7295 723.923 56.0077 727.714 56.0077 727.714" stroke="#D68338" stroke-width="4" stroke-miterlimit="10" stroke-linecap="round"/>
<path d="M17.3828 706.667C17.3828 706.667 26.2475 706.417 33.7088 701.394C41.1701 696.372 49.7702 677.086 57.8788 666.07C63.3743 658.607 67.6319 654.034 69.8102 651.862C70.8782 650.796 71.4405 649.332 71.3507 647.831" stroke="#D68338" stroke-width="4" stroke-miterlimit="10" stroke-linecap="round"/>
<path d="M29.9053 695.056C29.9053 695.056 51.1928 701.975 58.4557 711.482" stroke="white" stroke-width="8" stroke-miterlimit="10" stroke-linecap="round"/>
<path d="M62.5286 703.268L44.1802 676.699" stroke="white" stroke-width="8" stroke-miterlimit="10" stroke-linecap="round"/>
<path d="M68.7523 692.743L35.0371 688.665" stroke="white" stroke-width="8" stroke-miterlimit="10" stroke-linecap="round"/>
<path d="M70.7694 687.574L56.5415 660.934" stroke="white" stroke-width="8" stroke-miterlimit="10" stroke-linecap="round"/>
<path d="M77.9099 678.828L48.1025 672.895" stroke="white" stroke-width="8" stroke-miterlimit="10" stroke-linecap="round"/>
<path d="M81.2931 672.895L66.8809 647.067" stroke="white" stroke-width="8" stroke-miterlimit="10" stroke-linecap="round"/>
<path d="M90.2048 661.628L60.0762 656.856" stroke="white" stroke-width="8" stroke-miterlimit="10" stroke-linecap="round"/>
<path d="M17.1231 710.127C17.1231 710.127 17.0144 719.959 26.0776 723.924C35.1407 727.888 41.4254 730.73 53.3569 729.323" stroke="#D6D6D6" stroke-width="2" stroke-miterlimit="10" stroke-linecap="round"/>
<path d="M331.366 238.414C331.366 238.414 334.069 248.61 333.852 251.267" stroke="#8B8FAF" stroke-width="4" stroke-miterlimit="10" stroke-linecap="round"/>
<path d="M233.642 424.908C233.642 424.908 243.055 427.032 249.807 440.725C256.56 454.418 260.581 457.5 256.55 466.341C252.52 475.181 247.879 476.338 247.676 482.295" stroke="#BFAD97" stroke-width="4" stroke-miterlimit="10" stroke-linecap="round"/>
<path d="M240.13 488.492C240.13 488.492 234.143 489.427 228.874 496.403C223.606 503.379 217.756 505.664 215.407 509.921C213.059 514.179 208.603 533.248 202.989 541.753C197.375 550.259 182.703 566.269 166.325 581.241" stroke="#BFAD97" stroke-width="4" stroke-miterlimit="10" stroke-linecap="round"/>
<path d="M195.452 291.038L208.9 318.953C208.9 318.953 210.838 323.602 211.462 328.44C212.085 333.278 212.492 338.069 216.291 342.251C220.09 346.433 223.105 350.171 223.998 353.452C224.891 356.732 231.62 358.913 234.455 360.848C237.29 362.783 238.051 365.549 240.225 367.008C242.398 368.466 251.055 371.595 258.724 367.008C266.393 362.42 267.702 364.855 269.909 361.386C272.116 357.917 270.618 360.272 270.618 360.272" stroke="#8B8FAF" stroke-width="4" stroke-miterlimit="10" stroke-linecap="round"/>
<path d="M245.748 336.563L242.615 342.963C242.615 342.963 242.03 346.612 236.506 347.476C230.982 348.34 228.388 347.91 228.236 350.025" stroke="#8B8FAF" stroke-width="4" stroke-miterlimit="10" stroke-linecap="round"/>
<path d="M253.209 307.172C253.209 307.172 245.587 311.868 243.187 315.493" stroke="#8B8FAF" stroke-width="4" stroke-miterlimit="10" stroke-linecap="round"/>
<path d="M268.964 298.123L274.114 295.725" stroke="#8B8FAF" stroke-width="4" stroke-miterlimit="10" stroke-linecap="round"/>
<path d="M256.12 289.854C256.12 289.854 277.266 287.989 282.313 292.62C287.359 297.25 290.133 300.016 292.108 307.171" stroke="#8B8FAF" stroke-width="4" stroke-miterlimit="10" stroke-linecap="round"/>
<path d="M279.255 291.001C279.255 291.001 278.84 283.345 274.691 280.234C270.542 277.124 266.525 275.311 265.604 269.09C264.682 262.869 264.423 259.848 261.332 257.79C258.242 255.732 261.205 244.678 259.768 241.218C258.332 237.758 254.868 232.038 246.117 227.044" stroke="#8B8FAF" stroke-width="4" stroke-miterlimit="10" stroke-linecap="round"/>
<path d="M270.277 141.974L253.757 181.557C253.285 182.741 253.668 184.087 254.684 184.856C257.462 186.966 263.425 190.747 270.636 190.94" stroke="#8B8FAF" stroke-width="4" stroke-miterlimit="10" stroke-linecap="round"/>
<path d="M407.146 346.532C407.146 346.532 406.622 342.241 402.449 339.301C398.277 336.36 390.315 331.55 390.315 331.55C390.315 331.55 386.213 328.091 376.923 328.652" stroke="#C68B77" stroke-width="4" stroke-miterlimit="10" stroke-linecap="round"/>
<path d="M413.648 340.873C413.648 340.873 409.669 330.55 405.02 327.581C400.37 324.612 395.068 321.204 387.867 320.293" stroke="#C68B77" stroke-width="4" stroke-miterlimit="10" stroke-linecap="round"/>
<path d="M421.951 337.559L412.458 320.784C412.458 320.784 411.527 318.806 407.727 317.036C403.928 315.266 396.269 311.901 396.269 311.901" stroke="#C68B77" stroke-width="4" stroke-miterlimit="10" stroke-linecap="round"/>
</g>
<defs>
<filter id="filter0_d_30_608" x="0" y="0" width="641" height="857" filterUnits="userSpaceOnUse" color-interpolation-filters="sRGB">
<feFlood flood-opacity="0" result="BackgroundImageFix"/>
<feColorMatrix in="SourceAlpha" type="matrix" values="0 0 0 0 0 0 0 0 0 0 0 0 0 0 0 0 0 0 127 0" result="hardAlpha"/>
<feOffset dy="4"/>
<feGaussianBlur stdDeviation="2"/>
<feComposite in2="hardAlpha" operator="out"/>
<feColorMatrix type="matrix" values="0 0 0 0 0 0 0 0 0 0 0 0 0 0 0 0 0 0 0.25 0"/>
<feBlend mode="normal" in2="BackgroundImageFix" result="effect1_dropShadow_30_608"/>
<feBlend mode="normal" in="SourceGraphic" in2="effect1_dropShadow_30_608" result="shape"/>
</filter>
</defs>
</svg>
